<?xml version="1.0" encoding="utf-8"?>
<!-- Generator: Adobe Illustrator 16.0.0, SVG Export Plug-In . SVG Version: 6.00 Build 0)  -->
<!DOCTYPE svg PUBLIC "-//W3C//DTD SVG 1.1//EN" "http://www.w3.org/Graphics/SVG/1.1/DTD/svg11.dtd">
<svg version="1.1" id="圖層_1" xmlns="http://www.w3.org/2000/svg" xmlns:xlink="http://www.w3.org/1999/xlink" x="0px" y="0px"
	 width="1280.066px" height="762.633px" viewBox="0 0 1280.066 762.633" enable-background="new 0 0 1280.066 762.633"
	 xml:space="preserve">
<g>
	<g>
		<path fill="#FFFFFF" d="M426.76,377.32c1.136-2.381,3.777-4.082,3.305-7.48c-7.662,1.377-15.223,2.674-22.77,4.381
			c5.466-3.925,11.805-5.153,18.003-6.713c4.08-1.027,9.438-0.296,8.545-7.22c-0.121-0.936,0.834-1.414,1.787-1.47
			c1.354-0.077,2.673,0.493,2.868,1.729c0.773,4.855,3.573,3.679,6.786,2.793c4.457-1.229,9.021-2.739,13.711-1.212
			c1.837,0.599,4.701,1.057,4.022,3.73c-0.58,2.282-2.983,0.684-4.557,0.7c-4.137,0.047-8.294-0.329-12.409-0.052
			c-5.585,0.377-7.212,2.285-7.24,7.917c-0.048,9.14,1.26,18.278,0.024,27.42c-0.387,2.864-0.17,6.7-4,6.832
			c-3.947,0.138-6.979-2.563-9.074-5.954c-1.053-1.7-0.031-2.788,1.525-2.901c5.974-0.439,6.334-4.993,6.831-9.27
			c0.316-2.722-0.034-5.515,0.056-8.271c0.146-4.533-1.534-5.106-4.878-2.383C426.867,380.597,426.119,379.641,426.76,377.32z"/>
		<path fill="#FFFFFF" d="M398.06,403.966c-1.103,3.819-4.73,2.219-6.812,2.375c-2.065,0.156-0.996-2.847-0.843-4.629
			c0.847-9.885,2.238-19.734,2.17-29.684c-0.047-6.977,2.21-13.55,3.419-20.306c1.019-5.68,2.722-11.319,0.741-17.354
			c4.879,1.915,7.64,6.786,5.269,10.609c-6.117,9.875-6.365,20.432-5.033,31.361C395.052,385.641,391.686,394.996,398.06,403.966z"
			/>
		<path fill="#FFFFFF" d="M398.06,403.966c-5.464-0.441-5.534-5.119-5.07-8.327c0.823-5.69,0.881-11.345,0.659-16.984
			c-0.134-3.381,2.095-1.762,3.32-2.311c0.577,0.376,1.156,0.753,1.734,1.13c2.589,0.142,2.407,2.185,2.215,3.746
			c-0.373,3.035-0.139,6.12-0.823,9.121C400.027,394.974,400.164,399.636,398.06,403.966z"/>
		<path fill="#FFFFFF" d="M439.432,336.285c4.838-1.766,9.684-3.508,14.513-5.298c2.977-1.104,5.803-0.989,8.176,1.242
			c1.584,1.491,3.943,3.029,3.249,5.458c-0.608,2.137-3.166,1.606-4.985,1.714c-2.91,0.166-4.947,2.306-7.549,3.146
			c-1.351,0.437-2.794,0.83-3.888-0.276c-1.264-1.273,0.247-2.104,0.83-3.034c1.742-2.782,0.188-2.712-1.974-2.431
			c-2.386,0.312-4.8,0.395-7.2,0.573C439.471,337.807,439.238,337.276,439.432,336.285z"/>
		<path fill="#FFFFFF" d="M433.029,417.038c5.448-2.053,11.078-0.608,16.619-0.779c1.574-0.048,2.057,1.517,2.046,3.062
			c-0.032,4.646,0,9.291-0.003,13.937c-0.001,1.28-0.149,2.444-1.898,2.369c-1.727-0.073-1.777-1.301-1.786-2.533
			c-0.02-3.957,0.012-7.915-0.023-11.872c-0.014-1.487,0.332-3.183-2.174-3.138c-2.483,0.044-2.112,1.722-2.122,3.22
			c-0.025,3.958,0.001,7.916-0.021,11.873c-0.006,1.213,0.046,2.489-1.791,2.45c-1.825-0.041-1.705-1.355-1.716-2.529
			c-0.032-3.611-0.244-7.246,0.054-10.834c0.33-3.981-1.302-4.877-4.759-3.773C434.415,418.387,433.539,418.016,433.029,417.038z"/>
		<path fill="#FFFFFF" d="M546.437,426.123c0,2.24,0.021,4.479-0.009,6.717c-0.02,1.364,0.148,2.925-2.004,2.761
			c-1.838-0.14-1.496-1.579-1.512-2.691c-0.048-3.961-0.053-7.923-0.009-11.884c0.021-1.707-0.085-3.037-2.396-2.939
			c-2.173,0.089-1.909,1.553-1.923,2.881c-0.031,3.962,0.001,7.923-0.018,11.884c-0.008,1.394,0.065,2.964-2.031,2.772
			c-1.759-0.158-1.485-1.614-1.5-2.763c-0.039-3.272-0.019-6.545-0.015-9.817c0.007-6.824,2.368-8.597,9.104-6.99
			c1.633,0.391,2.332,1.221,2.312,2.839C546.414,421.3,546.436,423.711,546.437,426.123z"/>
		<path fill="#FFFFFF" d="M408.069,410.213c4.334-1.835,7.974-1.358,12.056-0.857c-5.344,1.853-3.997,6.067-4.019,9.764
			c-0.025,4.305,0.072,8.609-0.022,12.914c-0.027,1.354,0.749,3.466-1.705,3.556c-2.968,0.109-1.896-2.313-1.924-3.764
			c-0.106-5.511-0.058-11.021-0.035-16.53C412.432,412.667,413.018,409.679,408.069,410.213z"/>
		<path fill="#FFFFFF" d="M448.201,379.576c7.012,0.921,12.48,2.603,16.73,7.074c1.311,1.379,2.507,2.851,2.24,4.984
			c-0.147,1.198-0.029,2.594-1.25,3.209c-1.354,0.685-2.199-0.555-3.035-1.34C458.276,389.171,453.701,384.801,448.201,379.576z"/>
		<path fill="#FFFFFF" d="M432.086,339.199c-4.789,0.137-8.438,1.998-10.847,6.388c-0.643,1.173-2.479,1.739-3.839,2.452
			c-1.05,0.553-2.091,0.125-2.759-0.729c-0.663-0.848-0.986-2.15-0.11-2.849c3.381-2.695,4.594-6.789,6.912-10.157
			c1.441-2.095,3.146-1.933,3.334,0.66c0.277,3.823,2.69,3.274,5.1,3.154C430.94,337.812,432.121,337.259,432.086,339.199z"/>
		<path fill="#FFFFFF" d="M435.783,346.616c0.049-0.846-0.022-1.782,0.926-2.191c0.856-0.368,1.815-0.18,2.354,0.497
			c0.729,0.919,1.303,2,1.767,3.087c1.324,3.104,3.281,4.853,6.792,3.308c1.695-0.744,3.162-0.668,3.741,1.225
			c0.693,2.266-1.464,2.414-2.755,2.879C443.519,357.246,435.889,351.95,435.783,346.616z"/>
		<path fill="#FFFFFF" d="M400.094,390.341c-0.877-4.244,1.397-8.829-1.393-12.867c0.868-2.229,1.637-4.506,2.625-6.681
			c1.613-3.552,3.37-7.04,5.701-10.37C404.379,370.351,402.18,380.334,400.094,390.341z"/>
		<path fill="#FFFFFF" d="M426.76,377.32c0.183,1.514,0.99,2.408,2.539,2.579c-4.312,4.485-10.603,6.319-14.746,11.044
			c-0.637,0.723-1.579,1.645-2.621,0.604c-1.31-1.302-0.082-2.235,0.789-2.947C417.367,384.799,422.074,381.073,426.76,377.32z"/>
		<path fill="#FFFFFF" d="M516.139,433.761c2.382,0.134,3.255-0.875,3.108-3.344c-0.221-3.75-0.107-7.524-0.037-11.287
			c0.023-1.205-0.635-2.932,1.591-3.062c2.188-0.133,2.024,1.482,1.892,2.793c-0.548,5.327,1.312,10.808-1.001,16.021
			C519.788,434.77,517.476,436.687,516.139,433.761z"/>
		<path fill="#FFFFFF" d="M426.844,354.886c-0.02,2.815-1.541,4.816-3.633,6.426c-1.819,1.403-3.612,0.926-4.941-0.718
			c-1.419-1.753,0.17-2.628,1.307-3.687c1.229-1.146,2.231-2.531,3.394-3.756c0.766-0.809,1.392-2.208,2.842-1.47
			C427.086,352.336,426.806,353.713,426.844,354.886z"/>
		<path fill="#FFFFFF" d="M433.029,417.038c1.024,0.12,1.966,0.379,2.425,1.447c0.062,4.616,0.167,9.233,0.15,13.853
			c-0.004,1.213,0.615,3.02-1.486,3.186c-2.127,0.172-1.918-1.537-1.827-2.855C432.652,427.461,431.337,422.175,433.029,417.038z"/>
		<path fill="#FFFFFF" d="M512.137,434.667c-0.309-0.069-0.422-0.255-0.349-0.56c-0.518-5.801-0.566-11.599,0.022-17.396
			c0.207-0.598,0.606-0.762,1.187-0.533c2.254,1.104,1.358,3.196,1.534,4.939c0.419,4.146-0.814,8.383,0.662,12.476l-0.026-0.023
			C514.928,436.063,513.464,435.179,512.137,434.667z"/>
		<path fill="#FFFFFF" d="M515.196,433.594c-2.329-2.307-0.804-5.199-1.156-7.803c-0.431-3.192,0.792-6.564-1.041-9.612
			c3-0.046,1.9,2.248,1.955,3.672C515.129,424.427,515.127,429.012,515.196,433.594z"/>
		<path fill="#FFFFFF" d="M511.813,416.712c-0.008,5.798-0.017,11.596-0.022,17.394C510.925,428.308,510.884,422.51,511.813,416.712
			z"/>
		<path fill="#FFFFFF" d="M432.086,339.199c-0.735-0.36-1.473-0.723-2.209-1.079c3.065-1.236,6.321-1.474,9.556-1.834
			c0.39,0.362,0.778,0.729,1.171,1.094C437.764,337.988,434.924,338.591,432.086,339.199z"/>
		<path fill="#FFFFFF" d="M512.137,434.667c1.119-0.067,2.35,0.176,3.03-1.098c0.354-0.085,0.678-0.021,0.972,0.19
			c1.598,1.628,3.738,0.558,5.553,1.118C518.48,436.016,515.282,436.521,512.137,434.667z"/>
		<path fill="#FFFFFF" d="M501.254,364.166c-0.002-2.398,0.817-4.306,2.163-6.181c1.003-1.397,1.597-2.657,0.178-4.572
			c-4.326-5.839-3.56-9.33,2.614-12.977c2.777-1.641,4.968-3.658,6.192-6.654c1.244-3.04-0.542-7.437-3.688-8.465
			c-3.999-1.312-2.146,2.882-3.56,4.118c-0.903,0.794-0.677,2.977-2.521,2.682c-1.559-0.25-1.677-1.843-2.077-3.201
			c-1.027-3.477-3.468-5.1-7.521-5.067c7.215,11.035,4.108,19.877-4.651,27.754c1.281-0.31,2.563-0.616,3.848-0.928
			c1.057-1.126,2.382-2.28,3.688-0.834c0.97,1.071,1.189,2.752-0.643,3.708c-3.325,5.532-9.799,5.858-16.205,9.139
			c3.604,0.479,5.776,1.148,7.871,0.962c4.458-0.398,4.882,1.475,3.138,4.815c-2.379,4.563-4.104,9.516-7.895,13.25
			c-1.856,1.828-2.016,4.031-0.571,6.09c1.519,2.167,3.644,0.711,5.124,0.041c2.477-1.122,4.598-3.001,6.972-4.384
			c1.396-0.812,3.097-1.414,3.244,1.246c0.22,3.938,1.031,7.89-0.128,11.815c-0.506,1.716-1.105,3.513-3.337,3.242
			c-4.471-0.537-3.505,1.672-2.23,4.135c0.554,1.068,1.161,2.111,1.661,3.208c1.728,3.774,3.387,3.937,6.024,0.579
			c1.435-1.821,2.271-3.972,2.405-6.181c0.3-4.983,0.638-10.017,0.27-14.978c-0.468-6.314,0.135-11.953,5.622-16.089
			c0.537-0.403,1.212-1.28,0.342-2.149C502.039,371.117,501.261,370.542,501.254,364.166z M489.902,378.479
			c1.783-2.588,3.567-5.177,5.471-7.938C497.491,375.394,496.567,376.988,489.902,378.479z"/>
		<g>
			<path fill="#FFFFFF" d="M548.529,360.927c0.244,0.104,0.496,0.167,0.765,0.166C549.02,361.015,548.766,360.962,548.529,360.927z"
				/>
			<path fill="#FFFFFF" d="M564.052,378.096c-2.886-1.591-5.646-2.819-9.275-1.878c-4.882,1.27-6.198-0.091-6.273-5.118
				c-0.018-1.196-0.028-2.396-0.047-3.595c-0.212-1.438-0.946-2.043-1.967-2.199l-0.656-0.732l3.459-3.479
				c-0.27,0.001-0.521-0.062-0.765-0.166c-3.292-0.486-3.268,2.913-4.63,4.692c0.231,0.043,0.479,0.004,0.74-0.105
				c-0.974,1.241-0.684,2.948-0.776,4.473c-0.359,5.832-1.085,6.737-6.675,7.747c-1.47,0.264-3.27,1.044-4.188-0.684
				c-0.97-1.813,0.363-3.269,1.617-4.456c2.621-2.483,5.786-4.251,8.683-6.376c0.231-0.163,0.427-0.371,0.602-0.601h-0.001
				c1.363-1.778,1.339-5.179,4.63-4.692c-1.153-0.483-2.064-1.89-3.299-1.912c1.235,0.021,2.147,1.428,3.301,1.912
				c0.236,0.035,0.49,0.088,0.765,0.166c1.949-1.945,4.013-3.795,5.816-5.866c1.892-2.168,2.718-5.425,0.104-6.773
				c-4.637-2.396-5.091-5.993-4.966-10.313c0.056-1.876-0.002-3.688-2.37-4.604c-2.539-0.984-3.818,0.402-5.312,1.926
				c-3.188,3.25-5.042,7.365-7.452,11.121c-0.613,0.954-1.679,2.129-2.639,2.229c-1.418,0.148-1.604-1.546-1.758-2.636
				c-0.565-3.944-3.22-5.723-6.629-6.964c-1.452-0.53-2.923-1.788-4.021,0.138c-1.08,1.897,1.144,2.142,1.99,2.972
				c5.171,5.063,4.864,11.784-0.813,16.157c-1.91,1.474-3.849,2.91-5.714,4.438c-1.665,1.363-2.206,3.043-1.016,5.016
				c1.63,2.702,5.305,5.145,4.267,8.201c-1.012,2.985-4.287,5.203-6.57,7.755c-0.229,0.257-0.473,0.503-0.717,0.745
				c-1.373,1.375-3.05,3.057-1.359,4.822c1.442,1.509,3.104-0.356,4.558-1.072c3.626-1.791,7.036-4.589,11.466-2.249
				c-0.325,3.927-0.73,7.854-0.932,11.787c-0.077,1.519,0.17,3.661,1.856,3.803c2.105,0.181,2.419-2.03,2.733-3.726
				c0.597-3.205-0.229-6.546,0.925-9.7c-1.851-0.039-3.087-1.378-4.583-2.164h0.001c1.495,0.786,2.73,2.124,4.581,2.163v-0.001
				c-0.002-0.006-0.005-0.009-0.007-0.015c0.002,0.006,0.006,0.011,0.008,0.017v0.001c0.339-0.047,0.653-0.16,0.942-0.343v-0.001
				c1.707,1.423,3.416,2.846,5.124,4.268c-0.292-0.398-0.43-0.768-0.435-1.106c0.005,0.34,0.143,0.707,0.435,1.105
				c0.1-1.03,0.448-1.903,1.484-2.341c-0.177-0.131-0.353-0.263-0.526-0.394c0,0,0,0-0.001,0c-1.416-1.054-2.831-2.105-4.245-3.16
				c-0.544,0.62-1.17,1.146-1.836,1.628v-0.001c0.666-0.48,1.292-1.007,1.836-1.627c-0.195-0.146-0.393-0.289-0.586-0.438l0,0
				c2.271-4.444,6.442-4.146,10.407-3.938c1.416,0.073,3.144,7.758,1.979,9.329c-1.867,2.521-3.452-0.208-5.159-0.636
				c-0.646-0.16-1.247-0.504-1.867-0.765c-1.035,0.438-1.386,1.312-1.484,2.341c2.811,3.246,5.506,6.604,8.467,9.706
				c2.784,2.918,4.768,1.576,4.918-1.844c0.188-4.223-0.299-8.484-0.648-12.715c-0.438-5.275,1.216-6.879,6.532-5.958
				c2.194,0.381,4.335,1.141,6.538,1.396c1.364,0.158,2.794-0.414,3.254-1.987C566.317,379.291,565.108,378.677,564.052,378.096z
				 M521.81,373.786c-2.665,0.209-4.19-3.24-4.611-6.038c-0.266-1.771,5.259-5.913,7.287-5.654c2.683,0.342,1.631,2.455,1.808,4.046
				C525.773,369.29,525.723,373.48,521.81,373.786z M546.849,345.319c1.255-0.154,6.106,6.437,6.017,8.146
				c-0.118,2.189-2.123,1.469-3.169,1.562c-2.161,0.188-4.581-3.348-4.542-6.288C545.372,347.509,544.598,345.597,546.849,345.319z
				 M540.972,343.157c0.771-0.711,1.741-2.249,2.902-1.062c1.143,1.172,1.057,3.06-0.12,4.204c-1.842,1.797-4.103,2.95-6.98,2.322
				C536.975,345.782,539.305,344.693,540.972,343.157z M531.61,366.387c-0.315-7.989,3.86-13.025,10.941-13.604
				c0.892-0.073,1.73,0.059,2.166,0.962c0.529,1.104,0.028,2.01-0.758,2.733C540.123,360.02,536.436,363.758,531.61,366.387z"/>
		</g>
		<path fill="#FFFFFF" d="M499.188,430.505c-0.284-2.878-0.292-5.824-0.035-8.704c0.394-4.42-1.174-5.864-5.775-5.951
			c-4.861-0.091-6.377,1.49-5.65,6.032c0.214,1.339,0.033,2.74,0.029,4.111c-0.005,1.545,0.15,3.105-0.035,4.629
			c-0.428,3.476,0.229,5.518,4.503,5.117C495.827,435.405,499.761,436.33,499.188,430.505z M491.116,420.224
			c-0.234-1.977,0.955-2.229,2.543-2.188c2.677,0.065,1.557,2.096,1.838,3.248c0.053,1.713-0.284,2.802-2.264,2.71
			C490.363,423.863,491.297,421.761,491.116,420.224z M495.42,430.221c0.173,1.521,0.667,3.604-2.233,3.403
			c-3.28-0.226-1.533-2.733-2.051-4.037c0.041-1.807-0.48-3.763,2.32-3.583C496.72,426.212,495.248,428.697,495.42,430.221z"/>
		<path fill="#FFFFFF" d="M472.723,416.042c-6.915-1.354-8.682-0.004-8.678,6.843c0.001,1.036,0,2.072,0.004,3.108
			c0,2.418-0.021,4.836,0.009,7.254c0.014,1.207-0.085,2.521,1.816,2.354c1.436-0.127,1.533-1.107,1.547-2.172
			c0.023-1.727,0.084-3.458-0.003-5.181c-0.076-1.545,0.522-2.122,2.072-2.163c1.566-0.043,2.202,0.54,2.156,2.071
			c-0.046,1.554-0.016,3.106-0.003,4.664c0.01,1.397-0.118,2.871,2.012,2.799c1.729-0.061,1.818-1.201,1.814-2.484
			c-0.017-4.662-0.024-9.326-0.022-13.988C475.449,417.295,474.565,416.404,472.723,416.042z M469.595,423.977
			c-2.809-0.033-2.104-2.023-2.229-3.607c-0.14-1.764,0.662-2.391,2.403-2.35c2.593,0.062,1.713,1.959,1.878,2.609
			C471.742,422.8,471.627,424.003,469.595,423.977z"/>
		<path fill="#D9292B" d="M573.871,397.998c0.682,0.199,1.331,0.616,2.146,0.696c-0.175-0.885-0.887-1.304-1.199-1.895
			C574.621,397.3,574.326,397.717,573.871,397.998z"/>
		<path fill="#D9292B" d="M574.818,396.801c-0.042-0.081-0.07-0.167-0.097-0.254c-0.389,0.462-0.773,0.925-1.162,1.387
			c0.104,0.019,0.21,0.034,0.312,0.063C574.326,397.717,574.621,397.3,574.818,396.801z"/>
		<path fill="#D9292B" d="M573.559,397.934c-0.092,0.108-0.186,0.222-0.275,0.33c0.229-0.062,0.414-0.159,0.588-0.267
			C573.769,397.968,573.663,397.951,573.559,397.934z"/>
		<path fill="#D9292B" d="M574.721,396.547c0.024,0.087,0.055,0.173,0.097,0.254c0.075-0.19,0.144-0.391,0.196-0.601v-0.002v-0.001
			C574.915,396.315,574.819,396.431,574.721,396.547z"/>
		<path fill="#D62923" d="M742.289,404.189c-0.228,2.829,1.776,2.956,3.763,1.655c2.791-1.828,5.312-2.135,7.551,0.798
			c0.12-0.125,0.24-0.251,0.358-0.377c-0.212-0.88-0.706-1.541-1.454-2.042c-2.658-1.771-5.634,0.731-7.935-0.269
			c-2.007-0.873-1.923-4.829-5.093-4.865c-0.059,0.175-0.098,0.362-0.121,0.56C740.686,400.85,742.498,401.597,742.289,404.189z"/>
		<path fill="#92403F" d="M860.265,413.759c-1.228,0.496-2.794-0.389-3.783,0.881c-0.189,0.243-0.072,1.017,0.18,1.268
			c1.631,1.633,7.026-0.474,7.818-3.011C863.206,413.827,861.791,414.064,860.265,413.759z"/>
		<polygon fill="#CB2B20" points="567.658,404.448 596.815,370.613 625.971,404.448 596.815,438.784 		"/>
		<path fill="#FFFFFF" stroke="#FFFFFF" stroke-miterlimit="10" d="M591.025,396.775c0.169-0.29,0.4-0.34,0.69-0.146
			c0.482,0.63,0.821,1.369,1.018,2.217c0,0.194-0.314,0.631-0.944,1.31l-1.964,2.509c-0.266,0.363-0.396,0.836-0.396,1.417
			c0.069,5.5,0.084,10.999,0.033,16.499c0.146,0.896-0.085,1.404-0.688,1.524c-1.357-1.233-1.781-2.36-1.271-3.38
			c0.241-0.821,0.389-1.743,0.438-2.762l-0.073-9.922c0-0.629-0.327-0.557-0.979,0.219c-1.091,1.188-2.277,2.411-3.562,3.671
			c-0.704,0.63-1.115,0.944-1.235,0.944c-0.58,0.049-0.729-0.194-0.437-0.729c3.755-3.853,6.312-6.929,7.668-9.229
			C590.117,399.632,590.685,398.252,591.025,396.775z M591.061,388.561c0.146-0.267,0.351-0.325,0.618-0.183
			c0.145,0.121,0.35,0.424,0.615,0.909c0.751,0.872,0.681,1.599-0.218,2.18l-1.962,2.908c-1.891,2.786-4.011,5.231-6.361,7.341
			c-0.312,0.024-0.52-0.097-0.615-0.363c0-0.146,0.312-0.567,0.942-1.271C588.056,395.647,590.384,391.808,591.061,388.561z
			 M592.877,413.345c0.194-0.992,0.376-1.501,0.548-1.523c0.169,0,0.325,0.034,0.472,0.107c0.146,0.121,0.219,0.559,0.219,1.31
			c0.072,1.694-0.243,3.392-0.945,5.089c-0.509,0.871-0.848,1.308-1.017,1.308c-0.17-0.049-0.449-0.448-0.836-1.2
			c-0.27-0.629-0.195-1.112,0.217-1.452C592.066,416.35,592.514,415.138,592.877,413.345z M605.416,406.443
			c1.695-0.269,3.198-0.581,4.509-0.944c0.557,0.071,1.063,0.581,1.523,1.523c-0.072,0.172-0.485,0.315-1.235,0.438l-15.555,2.289
			c-0.896,0.218-1.744-0.096-2.543-0.944c0.12-0.532,0.677-0.715,1.671-0.546L605.416,406.443z M600.728,388.526
			c-0.073-0.775,0-1.188,0.218-1.235c0.17,0,0.605,0.352,1.31,1.054c0.532,0.533,0.643,1.02,0.326,1.454
			c-0.17,0.412-0.326,1.127-0.473,2.146c-0.097,0.651,0.121,0.932,0.654,0.835c2.493-0.363,4.713-0.859,6.648-1.489
			c0.703-0.049,1.272,0.397,1.708,1.345c0,0.146-0.036,0.267-0.106,0.363c-0.121,0.097-0.426,0.181-0.909,0.254
			c-2.495,0.363-4.99,0.764-7.485,1.199c-0.582,0.121-0.958,0.546-1.127,1.271l-0.146,0.729c-0.099,0.679,0.107,0.97,0.616,0.872
			l4.07-0.69c0.485-0.121,0.993-0.339,1.527-0.654c0.702-0.873,1.366-0.581,1.998,0.872c0,0.099-0.17,0.475-0.511,1.127
			c-0.34,1.115-0.58,2.193-0.727,3.234c-0.097,0.582,0.218,1.127,0.945,1.635c0.266,0.292,0.339,0.534,0.218,0.729
			c-0.268,0.242-0.715,0.34-1.345,0.29c-4.7,0.461-8.529,0.98-11.484,1.562c-0.604,0.121-0.908,0.327-0.908,0.617
			c0.072,0.559-0.098,0.922-0.51,1.091c-0.363-0.146-0.666-0.532-0.908-1.163c-0.339-0.652-0.424-1.26-0.254-1.814l0.036-1.745
			l-0.146-4.034c-0.023-0.727,0-1.127,0.072-1.199c0.388-0.191,0.69,0.015,0.908,0.617c0.169,0.364,0.617,0.498,1.345,0.4
			c0.851-0.169,1.732-0.305,2.652-0.4c0.51-0.047,0.824-0.472,0.945-1.271c0.07-0.242,0.107-0.484,0.107-0.729
			c0.072-0.582-0.255-0.836-0.979-0.763l-2.87,0.508c-1.262,0.412-2.23,0.388-2.908-0.072c-0.63-0.169-0.823-0.521-0.582-1.055
			c0.994-0.071,1.987-0.205,2.979-0.398l3.854-0.652c0.581-0.121,0.908-0.546,0.981-1.272
			C600.619,390.901,600.704,389.712,600.728,388.526z M596.876,399.611l-0.546,0.07c-0.604,0.122-0.872,0.23-0.8,0.327
			c0.024,1.042,0.085,2.084,0.182,3.126c0.025,0.63,0.39,0.896,1.093,0.799c0.821-0.097,1.224-0.472,1.197-1.126v-2.254
			C597.978,399.826,597.602,399.512,596.876,399.611z M595.859,411.856c0.048-0.267,0.205-0.388,0.472-0.361
			c0.122,0,0.4,0.361,0.837,1.091c2.182,4.07,5.186,6.262,9.014,6.577c0.604,0,0.821-0.327,0.652-0.981l-0.764-2.65l-0.146-0.872
			c0.483-0.461,0.837-0.328,1.056,0.396c0.581,1.503,1.258,2.956,2.035,4.361c0.847,1.064,0.835,1.696-0.037,1.891
			c-1.842,0.169-3.779-0.134-5.814-0.908C599.505,418.894,597.07,416.048,595.859,411.856z M601.09,398.955l-0.545,0.109
			c-0.679,0.097-1.018,0.41-1.018,0.942c-0.023,0.851-0.013,1.732,0.037,2.653c0.021,0.581,0.396,0.824,1.126,0.727l0.583-0.072
			c0.655-0.07,0.969-0.445,0.945-1.127v-2.253C602.194,399.209,601.819,398.881,601.09,398.955z M599.675,409.748
			c0.146-0.146,0.652,0.062,1.525,0.618c0.484,0.34,0.969,0.715,1.453,1.127c1.042,0.773,1.224,1.9,0.546,3.38
			c-0.313,0.049-0.581-0.097-0.8-0.438c-0.799-1.354-1.647-2.565-2.544-3.634C599.54,410.536,599.48,410.184,599.675,409.748z
			 M606.215,398.156l-0.728,0.107l-0.872,0.146c-0.582,0.145-0.896,0.581-0.945,1.309c-0.049,0.653-0.061,1.344-0.034,2.071
			c0.048,0.773,0.437,1.089,1.161,0.944l0.802-0.146c0.604-0.073,0.979-0.472,1.126-1.199l0.473-2.614
			C607.318,398.143,606.991,397.937,606.215,398.156z M606.361,410.114c0.098-0.121,0.51-0.024,1.236,0.29
			c1.063,0.483,2.131,1.113,3.195,1.891c0.873,0.388,1.311,1.029,1.311,1.926c0.049,0.92,0.022,1.431-0.072,1.525
			c-0.34,0.314-0.764,0.107-1.271-0.617c-1.142-1.211-2.461-2.458-3.961-3.743C606.312,410.948,606.167,410.526,606.361,410.114z"/>
		<polygon fill="#CB2B20" points="662.84,438.784 633.683,404.448 662.84,370.613 691.998,404.448 		"/>
		<path fill="#FFFFFF" stroke="#FFFFFF" stroke-miterlimit="10" d="M657.08,390.73c0.438-0.097,0.872-0.155,1.311-0.182
			c0.727-0.073,1.26,0.036,1.599,0.328c0.557,0.436,0.643,0.787,0.254,1.053l-2.979,0.545c-0.581,0.121-0.872,0.476-0.872,1.057
			l-0.073,5.306c0,0.581,0.387,0.788,1.163,0.618c0.339-0.098,0.678-0.158,1.018-0.185c0.484-0.046,0.971,0.086,1.454,0.401
			c0.39,0.27,0.483,0.545,0.29,0.836c-0.192,0.217-0.617,0.353-1.271,0.399c-0.581,0.07-1.178,0.182-1.781,0.326
			c-0.581,0.146-0.872,0.51-0.872,1.091l-0.072,6.432c0,0.729,0.39,0.909,1.163,0.547c0.823-0.389,1.647-0.739,2.473-1.055
			c0.58-0.292,0.933-0.185,1.054,0.328c-0.023,0.168-0.399,0.472-1.127,0.907c-3.004,1.673-6.008,3.282-9.014,4.834
			c-0.437,0.389-0.921,0.389-1.454,0c-0.896-0.681-1.309-1.092-1.233-1.235c0.121-0.146,0.312-0.269,0.581-0.365
			c1.672-0.557,3.344-1.162,5.016-1.814c0.654-0.267,0.981-0.666,0.981-1.198l0.071-7.088c0-0.581-0.39-0.786-1.162-0.618
			c-1.454,0.462-2.459,0.45-3.019-0.036c-0.558-0.387-0.667-0.727-0.326-1.017c1.113-0.17,2.267-0.389,3.452-0.654
			c0.678-0.146,1.02-0.472,1.02-0.982l0.07-5.269c0.024-0.729-0.339-1.029-1.09-0.909c-1.018,0.269-1.89,0.34-2.617,0.219
			c-0.727-0.146-1.103-0.521-1.126-1.126c0.098-0.098,0.51-0.207,1.235-0.328c0.944-0.049,1.938-0.229,2.979-0.545
			C655.141,391.109,656.11,390.903,657.08,390.73z M660.895,409.121c0.191-0.873,0.376-1.345,0.546-1.418
			c0.701,0.049,0.92,0.496,0.654,1.345c-0.024,1.913-0.377,3.599-1.057,5.051c-0.482,0.68-0.8,0.994-0.942,0.945
			c-0.512-0.313-0.775-0.956-0.802-1.926c0.051-0.243,0.242-0.605,0.581-1.092C660.314,411.157,660.653,410.185,660.895,409.121z
			 M673.542,388.513c0.63-0.19,1.262,0.158,1.892,1.057c0.022,0.509-0.39,0.728-1.235,0.652l-4.07,0.654
			c-0.581,0.146-0.873,0.508-0.873,1.09v1.381c0,0.581,0.39,0.787,1.164,0.617l1.744-0.396c0.654-0.221,1.271,0.107,1.854,0.979
			c-0.024,0.219-0.508,0.426-1.452,0.618l-2.438,0.438c-0.58,0.121-0.873,0.474-0.873,1.055v1.233c0,0.583,0.363,0.8,1.093,0.654
			c0.849-0.168,1.694-0.399,2.544-0.69c0.291-0.047,0.533-0.021,0.728,0.072c0.654,0.562,0.969,0.936,0.944,1.128
			c-0.121,0.194-0.654,0.375-1.6,0.545l-2.764,0.51c-0.604,0.146-0.908,0.509-0.908,1.092v1.09c0.023,0.727,0.426,1.005,1.199,0.836
			c1.311-0.291,2.616-0.532,3.925-0.728c0.412,0.023,0.775-0.146,1.091-0.512c0.483-0.627,1.065-0.52,1.744,0.328
			c0.46,0.509,0.447,0.922-0.035,1.235c-0.363,0.219-0.58,0.737-0.653,1.562c-1.261,6.59-2.559,11.438-3.892,14.536
			c-0.361,0.849-0.726,1.31-1.089,1.381c-0.098,0-0.437-0.36-1.018-1.089l-2.072-2.908c-0.703-0.896-1.054-1.418-1.054-1.562
			c0.169-0.605,0.545-0.666,1.127-0.185l1.926,2.072c0.581,0.559,1.065,0.496,1.454-0.183c1.404-3.586,2.386-7.654,2.943-12.211
			c0.071-0.63-0.243-0.909-0.944-0.837c-3.344,0.56-6.688,1.165-10.031,1.817c-0.581,0.099-0.908,0.313-0.979,0.653
			c0.098,0.509-0.085,0.788-0.545,0.835c-0.39-0.096-0.775-0.581-1.163-1.452c-0.1-0.486-0.1-0.97,0-1.454
			c0.679-3.587,0.688-8.323,0.036-14.21c-0.05-0.727-0.036-1.148,0.036-1.271c0.631-0.27,1.028,0.049,1.198,0.941
			c0.169,0.486,0.618,0.681,1.345,0.581C667.11,389.967,670.344,389.313,673.542,388.513z M663.184,396.074
			c-0.121-0.122-0.183,0.097-0.183,0.652v6.869c0,0.581,0.389,0.787,1.163,0.617c0.896-0.194,1.792-0.351,2.689-0.472
			c0.581-0.121,0.872-0.476,0.872-1.057c-0.049-0.388-0.062-0.784-0.037-1.197c0-0.559-0.327-0.766-0.98-0.618
			c-0.389,0.073-0.774,0.183-1.163,0.328c-0.531,0.069-1.054,0.013-1.562-0.184c-0.363-0.071-0.581-0.292-0.653-0.652
			c-0.049-0.343,0.29-0.521,1.02-0.545l2.435-0.401c0.581-0.146,0.872-0.508,0.872-1.089v-1.347c0-0.579-0.363-0.822-1.091-0.727
			c-0.362,0.048-0.727,0.133-1.089,0.253C664.699,396.799,663.936,396.656,663.184,396.074z M666.564,391.532l-0.654,0.107
			c-0.653,0.072-1.318,0.194-1.998,0.362c-0.581,0.17-0.872,0.545-0.872,1.126v1.31c0,0.581,0.363,0.837,1.092,0.764
			c0.8-0.097,1.636-0.241,2.508-0.438c0.679-0.17,1.018-0.496,1.018-0.979v-1.525C667.655,391.676,667.291,391.433,666.564,391.532z
			 M663.948,407.848c0.169-0.048,0.46,0.29,0.873,1.019c0.436,0.849,0.823,1.695,1.162,2.544c0.267,0.679,0,1.466-0.799,2.361
			c-0.121,0.073-0.243,0.109-0.363,0.109c-0.316-0.194-0.485-0.715-0.51-1.562c-0.146-0.97-0.339-1.938-0.581-2.908
			C663.658,408.492,663.73,407.97,663.948,407.848z M666.783,407.197c0.121-0.1,0.496,0.204,1.126,0.904
			c0.461,0.605,0.873,1.214,1.236,1.819c0.291,0.483,0.424,0.968,0.398,1.452c-0.146,0.727-0.388,1.271-0.728,1.636
			c-0.412-0.022-0.667-0.338-0.764-0.945c-0.29-0.969-0.63-1.938-1.02-2.904c-0.312-0.775-0.473-1.311-0.473-1.602
			C666.588,407.435,666.662,407.318,666.783,407.197z M669.8,406.577c0.241-0.413,0.68-0.194,1.31,0.652
			c0.437,0.483,0.823,0.97,1.163,1.452c0.848,0.682,0.872,1.709,0.072,3.09c-0.22,0.194-0.438,0.146-0.654-0.146
			c-0.557-1.405-1.163-2.812-1.816-4.217C669.702,407.218,669.677,406.939,669.8,406.577z"/>
		<polygon fill="#CB2B20" points="728.866,438.784 699.708,404.448 728.866,370.613 758.023,404.448 		"/>
		<path fill="#FFFFFF" stroke="#FFFFFF" stroke-miterlimit="10" d="M721.482,401.184c0.146-0.46,0.387-0.666,0.728-0.616
			c0.29,0.098,0.363,0.616,0.22,1.562l-3.271,11.63c-0.388,1.647-0.861,3.104-1.418,4.361c-0.363,0.969-1.018,0.787-1.962-0.545
			c-0.8-0.775-1.515-1.516-2.146-2.22c-0.17-0.312-0.134-0.566,0.109-0.762c0.12-0.098,0.605,0.012,1.454,0.327
			c0.799,0.29,1.38,0.071,1.743-0.655c0.63-1.453,1.32-3.391,2.07-5.812C719.884,406.031,720.706,403.609,721.482,401.184z
			 M714.105,398.421c0.46-0.24,0.968-0.145,1.523,0.292c0.803,0.412,1.638,0.908,2.511,1.489c0.677,0.533,0.884,1.454,0.615,2.763
			c-0.388,0.46-0.727,0.448-1.018-0.037l-2.146-2.472c-0.92-0.92-1.394-1.465-1.416-1.635L714.105,398.421z M717.084,390.246
			c0-0.269,0.109-0.4,0.327-0.4c0.774,0.218,2.095,0.935,3.961,2.146c0.681,0.704,0.873,1.61,0.582,2.726
			c-0.146,0.292-0.34,0.391-0.582,0.292c-1.018-1.139-2.084-2.29-3.195-3.452C717.449,390.902,717.084,390.463,717.084,390.246z
			 M739.363,394.933c0.75-0.339,1.502,0.1,2.253,1.311c-0.098,0.437-0.436,0.642-1.018,0.617c-1.357,0.171-2.728,0.376-4.107,0.616
			c-0.508,0.073-0.472,0.497,0.109,1.271c0.63,0.728,0.581,1.37-0.146,1.927c-0.292,0.438-0.483,0.921-0.582,1.453
			c-0.728,2.205-1.646,4.362-2.763,6.469c-0.314,0.607-0.229,1.263,0.256,1.963c3.003,4.919,6.152,7.477,9.449,7.669
			c0.993-0.098,1.452,0.256,1.381,1.056c-0.122,0.146-0.546,0.291-1.273,0.436c-1.187,0.049-2.387,0.185-3.598,0.4
			c-0.653,0.097-1.029,0.133-1.127,0.107c-0.363-0.022-0.666-0.277-0.908-0.764c-1.646-2.423-3.247-4.845-4.797-7.268
			c-0.509-0.776-0.993-0.824-1.453-0.146c-3.32,4.386-7.354,7.607-12.103,9.667c-0.703-0.362-0.521-0.812,0.546-1.345
			c3.924-2.132,7.473-5.379,10.646-9.739c0.461-0.728,0.448-1.453-0.036-2.181c-2.132-3.149-3.768-5.427-4.904-6.832
			c0.049-0.46,0.34-0.666,0.872-0.618c0.63,0.024,1.112,0.194,1.452,0.509c1.092,1.817,2.267,3.67,3.525,5.562
			c0.411,0.604,0.812,0.545,1.199-0.185c1.501-2.931,2.338-5.669,2.508-8.212c0-0.583-0.363-0.824-1.091-0.728
			c-2.786,0.461-5.573,0.969-8.358,1.524c-1.405,0.269-2.423-0.084-3.053-1.055c0.121-0.312,0.387-0.472,0.799-0.472
			c0.605,0.049,1.647-0.085,3.126-0.399c3.876-0.679,7.753-1.404,11.63-2.182L739.363,394.933z M729.66,387.847
			c0.411-0.362,0.884-0.146,1.416,0.653l2.362,2.907c0.437,0.34,0.595,0.824,0.474,1.454c-0.242,1.26-0.679,1.89-1.309,1.89
			c-0.194-0.193-0.39-0.63-0.581-1.309c-0.631-1.647-1.311-3.103-2.035-4.361C729.744,388.355,729.635,387.946,729.66,387.847z"/>
		<polygon fill="#CB2B20" points="794.891,438.784 765.734,404.448 794.891,370.613 824.05,404.448 		"/>
		<path fill="#FFFFFF" stroke="#FFFFFF" stroke-miterlimit="10" d="M785.235,388.02c0.193-0.191,0.496-0.145,0.908,0.146
			c1.064,0.654,1.608,1.309,1.635,1.963c-0.46,1.648-0.666,4.07-0.617,7.27c-0.022,0.558,0.354,0.764,1.127,0.617
			c0.508-0.122,1.02-0.206,1.525-0.255c0.728-0.022,1.271,0.108,1.637,0.399c0.75,0.652,0.677,1.078-0.219,1.271
			c-1.066,0.049-2.133,0.184-3.197,0.399c-0.583,0.146-0.873,0.509-0.873,1.09c-0.049,5.283-0.013,10.564,0.109,15.846
			c-0.024,1.188-0.098,2.41-0.218,3.67c-0.27,0.753-0.449,1.151-0.546,1.2c-0.269,0.073-0.521-0.134-0.766-0.618
			c-0.773-0.992-1.053-1.927-0.835-2.798c0.242-0.679,0.387-1.685,0.438-3.017c0.266-4.096,0.351-8.759,0.254-13.992
			c0-0.581-0.363-0.836-1.092-0.763c-0.943,0.291-1.731,0.397-2.361,0.327c-0.605-0.051-1.104-0.327-1.489-0.838
			c-0.097-0.24-0.108-0.409-0.036-0.509c0.098-0.146,0.496-0.267,1.198-0.362l2.908-0.438c0.581-0.096,0.872-0.438,0.872-1.018
			c-0.024-3.028-0.146-5.815-0.363-8.358C785.162,388.531,785.162,388.117,785.235,388.02z M798.245,387.838
			c0.389-0.363,0.837-0.29,1.345,0.218c0.681,0.534,0.896,1.249,0.655,2.146c-0.17,0.849-0.388,1.73-0.655,2.651
			c-0.169,0.581,0.136,0.787,0.909,0.617c1.311-0.191,2.192-0.374,2.653-0.545l1.127-0.8c0.217-0.047,0.544,0.098,0.979,0.437
			c0.849,0.534,0.934,1.066,0.255,1.601c-0.484,0.461-0.765,1.064-0.836,1.816c-0.314,1.479-0.765,2.922-1.347,4.324
			c-0.29,0.654-0.181,1.104,0.327,1.347c1.02,0.361,1.418,0.87,1.2,1.524c-0.194,0.484-0.34,1.175-0.438,2.071
			c-0.099,0.631,0.204,0.872,0.907,0.727l1.056-0.327c0.896-0.557,1.418-0.835,1.562-0.835c1.31,0.654,1.599,1.356,0.872,2.106
			c-0.268,0.341-0.438,0.934-0.509,1.781c-0.68,3.778-1.744,7.414-3.198,10.901c-0.558,0.872-0.908,1.271-1.054,1.198
			c-0.122-0.048-0.304-0.229-0.545-0.544c-0.775-1.212-1.49-2.182-2.146-2.907c-0.461-0.532-0.425-0.909,0.109-1.127
			c0.169-0.022,0.617,0.269,1.345,0.872c0.8,0.56,1.345,0.582,1.635,0.072c1.042-2.883,1.793-5.898,2.253-9.049
			c0.073-0.581-0.254-0.823-0.979-0.729c-0.315,0.024-0.631,0.085-0.945,0.184c-0.581,0.146-0.942,0.581-1.091,1.309
			c-0.849,4.337-2.943,8.298-6.286,11.883c-0.703,0.655-1.14,0.993-1.309,1.02c-0.17-0.024-0.306-0.108-0.4-0.254
			c-0.097-0.194,0.17-0.717,0.801-1.563c2.763-3.392,4.615-7.014,5.562-10.866c0.169-0.679-0.014-0.979-0.545-0.907
			c-0.581,0.07-1.02,0-1.31-0.22c-0.291-0.242-0.425-0.46-0.398-0.652c0.021-0.169,0.398-0.375,1.127-0.617l0.653-0.073
			c0.631-0.048,0.969-0.423,1.019-1.126c0.096-0.727,0.096-1.467,0-2.218c-0.122-0.63-0.4-0.559-0.837,0.219
			c-0.389,0.823-0.871,0.69-1.454-0.399c-0.388-0.604-0.822-1.211-1.308-1.816c-0.532-0.729-0.813-1.162-0.836-1.31
			c0.409-0.557,1.027-0.339,1.854,0.654c0.654,0.46,1.163,0.399,1.526-0.182c0.773-1.817,1.318-3.525,1.636-5.124
			c0.073-0.511-0.291-0.691-1.091-0.546l-2.509,0.473c-0.558,0.098-1.007,0.521-1.346,1.271c-0.822,1.891-1.89,3.646-3.196,5.271
			c-0.462,0.557-0.438,1.126,0.071,1.708c0.314,0.532,0.34,1.126,0.073,1.78c-0.17,0.679,0.107,0.934,0.836,0.764l1.019-0.327
			c0.728-0.509,1.309-0.604,1.743-0.291c0.921,0.581,0.97,1.272,0.146,2.072c-0.679,4.021-1.538,7.413-2.58,10.176
			c-0.218,0.75-0.533,1.271-0.944,1.563c-0.122,0-0.497-0.327-1.127-0.981c-0.169-0.243-0.388-0.483-0.653-0.727
			c-0.8-0.896-1.188-1.406-1.161-1.526c0.191-0.312,0.785-0.292,1.778,0.072c0.582,0.193,1.006-0.085,1.272-0.836
			c0.702-2.183,1.211-4.458,1.525-6.832c0.071-0.581-0.256-0.85-0.98-0.8l-0.51,0.107c-0.581,0.146-0.97,0.605-1.162,1.381
			c-0.922,4.021-2.666,7.655-5.233,10.902c-0.436,0.775-0.907,0.933-1.417,0.473c-0.023-0.17,0.193-0.616,0.654-1.345
			c2.229-3.295,3.683-6.639,4.359-10.03c0.146-0.581-0.146-0.821-0.872-0.728c-0.241,0-0.484,0.037-0.729,0.109
			c-0.726,0.098-1.211,0.062-1.453-0.109c-0.46-0.241-0.631-0.532-0.509-0.871c0.073-0.219,0.474-0.364,1.2-0.438l1.962-0.255
			c0.581-0.098,0.92-0.51,1.018-1.234l0.036-0.981c0.023-0.63-0.17-0.751-0.581-0.362c-0.631,0.559-1.054,0.547-1.271-0.035
			c0.022-0.146,0.241-0.461,0.653-0.945c1.502-1.551,2.969-3.779,4.396-6.688c0.241-0.58,0-0.822-0.729-0.729
			c-0.509,0.05-1.019,0.183-1.524,0.4c-0.654,0.049-1.261-0.342-1.818-1.163c0.17-0.438,0.644-0.63,1.418-0.582l2.764-0.327
			c0.581-0.072,0.97-0.483,1.163-1.235c0.361-1.308,0.531-2.519,0.509-3.634C798.22,388.419,798.175,387.936,798.245,387.838z"/>
		<polygon fill="#CB2B20" points="860.916,438.784 831.759,404.448 860.916,370.613 890.074,404.448 		"/>
		<path fill="#FFFFFF" stroke="#FFFFFF" stroke-miterlimit="10" d="M859.7,388.542c0.218-0.798,0.423-1.235,0.617-1.309
			c0.654,0.049,1.03,0.484,1.126,1.309c0.242,0.632,0.292,1.164,0.146,1.6c-0.071,0.122,0.242,0.521,0.944,1.199
			c4.53,4.459,8.347,7.318,11.448,8.578l2.762,0.545c0.269,0.216,0.4,0.437,0.4,0.653c-0.1,0.268-0.376,0.436-0.837,0.509
			c-0.971,0.146-1.938,0.328-2.907,0.545c-0.896,0.462-1.878-0.049-2.943-1.527c-0.582-0.557-0.979-0.46-1.197,0.292
			c-0.269,1.162-0.485,2.326-0.654,3.489c-0.073,0.581,0.049,1.019,0.363,1.31c0.312,0.29,0.46,0.509,0.437,0.652
			c-0.049,0.17-0.437,0.326-1.163,0.474c-3.876,0.268-7.754,0.616-11.629,1.056l-1.309,0.217c-0.582,0.121-0.873,0.304-0.873,0.546
			c0.022,0.582-0.194,0.835-0.654,0.764c-0.969-0.97-1.296-1.878-0.98-2.728c0.146-1.744,0-3.767-0.437-6.068
			c-0.049-0.58-0.46-0.558-1.235,0.072c-2.253,1.745-4.204,2.969-5.852,3.671c-0.485,0.024-0.666-0.192-0.545-0.651
			c1.984-1.406,3.974-2.859,5.96-4.362C855.435,395.326,858.439,391.716,859.7,388.542z M861.3,392.14
			c-0.654-0.557-1.199-0.545-1.637,0.036c-0.971,1.284-1.891,2.39-2.763,3.309c-0.751,0.752-0.764,1.104-0.036,1.056
			c1.817-0.341,3.634-0.63,5.451-0.873c0.482-0.146,0.969-0.255,1.454-0.328c0.629-0.144,1.224,0.243,1.778,1.164
			c-0.022,0.266-0.276,0.437-0.763,0.509l-7.269,1.09c-0.802,0.024-1.491-0.183-2.072-0.616c-0.17-0.168-0.497-0.036-0.98,0.399
			l-0.906,0.834c-0.438,0.364-0.485,0.788-0.146,1.271c0.269,0.438,0.766,0.606,1.49,0.511c3.974-0.557,7.982-1.164,12.029-1.818
			c0.63-0.312,0.581-0.82-0.146-1.523C864.969,395.435,863.139,393.764,861.3,392.14z M865.259,408.676
			c0.461-0.849,1.019-0.872,1.673-0.072c0.679,0.46,0.727,0.979,0.146,1.562c-0.121,0.242-0.206,0.607-0.255,1.091l-0.835,8.723
			l-0.218,0.907c-0.39,0.461-0.766,0.306-1.127-0.473c-0.243-0.483-0.729-0.715-1.454-0.69c-2.107,0.171-4.216,0.389-6.323,0.654
			c-0.581,0.146-0.897,0.413-0.945,0.8c0.023,0.559-0.146,0.885-0.509,0.982c-0.267,0-0.521-0.23-0.763-0.69
			c-0.509-0.824-0.57-1.552-0.184-2.181c0.314-3.344,0.39-6.191,0.219-8.542c-0.071-0.798-0.071-1.235,0-1.311
			c0.483-0.287,0.837-0.144,1.055,0.438c0.194,0.362,0.546,0.496,1.054,0.398l7.016-1.018
			C864.29,409.136,864.775,408.944,865.259,408.676z M858.537,401.48l-0.437,0.072l-1.235,0.146
			c-0.604,0.07-0.545,0.387,0.181,0.941c1.214,0.945,1.66,1.809,1.347,2.582c-0.39,0.702-0.644,1.041-0.764,1.019
			c-0.268-0.098-0.474-0.375-0.616-0.837l-0.837-1.816c-0.462-0.727-0.689-1.187-0.689-1.381c0.048-0.219-0.158-0.289-0.618-0.219
			c-0.412,0.071-0.604,0.474-0.581,1.199l0.108,2.728c0.022,0.581,0.397,0.849,1.127,0.798l3.38-0.398
			c0.557-0.049,0.823-0.46,0.8-1.234c-0.05-0.85-0.061-1.709-0.036-2.579C859.639,401.771,859.263,401.431,858.537,401.48z
			 M864.315,410.856c-2.398,0.269-4.798,0.571-7.196,0.909c-0.581,0.099-0.885,0.508-0.908,1.235v0.909
			c-0.022,0.532,0.363,0.737,1.162,0.617c1.312-0.121,2.812-0.389,4.507-0.802c0.729-0.121,1.262-0.061,1.601,0.185
			c0.34,0.34,0.533,0.593,0.583,0.764c0.021,0.217-0.438,0.41-1.382,0.581c-1.865,0.267-3.743,0.568-5.636,0.907
			c-0.58,0.097-0.884,0.521-0.906,1.271v0.764c-0.024,0.53,0.362,0.764,1.164,0.688c1.621-0.217,3.244-0.397,4.867-0.545
			l1.454-0.362c0.29-0.022,0.496-0.022,0.617,0c0.169,0.051,0.327-0.277,0.474-0.98c0.192-1.77,0.341-3.535,0.437-5.306
			C865.175,411.062,864.896,410.784,864.315,410.856z M862.825,400.935l-0.654,0.109c-0.63,0.097-0.933,0.496-0.906,1.198
			c-0.024,0.944-0.015,1.926,0.036,2.942c0.049,0.582,0.24,0.851,0.579,0.803c0.315-0.024,0.654-0.414,1.02-1.165
			c0.51-1.162,0.823-2.266,0.945-3.309c0.022-0.312,0.07-0.521,0.146-0.618C864.083,400.779,863.697,400.789,862.825,400.935z
			 M866.604,400.39l-1.417,0.185c-0.582,0.097-0.533,0.481,0.146,1.162c0.412,0.63,0.389,1.111-0.071,1.453
			c-0.314,0.482-0.595,0.969-0.837,1.453c-0.388,0.702-0.219,1.004,0.51,0.907l1.018-0.183c0.581-0.097,0.934-0.509,1.055-1.235
			l0.438-2.835C867.561,400.621,867.283,400.319,866.604,400.39z"/>
	</g>
</g>
</svg>
