<?xml version="1.0" encoding="utf-8"?>
<!-- Generator: Adobe Illustrator 16.0.0, SVG Export Plug-In . SVG Version: 6.00 Build 0)  -->
<!DOCTYPE svg PUBLIC "-//W3C//DTD SVG 1.1//EN" "http://www.w3.org/Graphics/SVG/1.1/DTD/svg11.dtd">
<svg version="1.1" id="圖層_1" xmlns="http://www.w3.org/2000/svg" xmlns:xlink="http://www.w3.org/1999/xlink" x="0px" y="0px"
	 width="1280.066px" height="762.633px" viewBox="0 0 1280.066 762.633" enable-background="new 0 0 1280.066 762.633"
	 xml:space="preserve">
<g>
	<g>
		<path fill="#FFFFFF" d="M491.877,409.004c1.136-2.38,3.778-4.082,3.305-7.48c-7.662,1.377-15.223,2.674-22.769,4.381
			c5.465-3.925,11.804-5.154,18.003-6.713c4.08-1.027,9.438-0.296,8.544-7.22c-0.121-0.935,0.834-1.414,1.788-1.47
			c1.354-0.077,2.672,0.494,2.868,1.729c0.773,4.855,3.573,3.679,6.786,2.793c4.457-1.23,9.021-2.739,13.711-1.212
			c1.837,0.599,4.701,1.057,4.022,3.731c-0.58,2.282-2.983,0.683-4.556,0.7c-4.137,0.047-8.294-0.329-12.41-0.052
			c-5.584,0.377-7.211,2.285-7.24,7.917c-0.048,9.14,1.26,18.278,0.025,27.42c-0.387,2.864-0.17,6.7-4,6.832
			c-3.948,0.138-6.98-2.564-9.075-5.954c-1.052-1.7-0.031-2.788,1.526-2.902c5.973-0.439,6.334-4.993,6.831-9.269
			c0.316-2.722-0.034-5.515,0.056-8.271c0.145-4.533-1.535-5.106-4.878-2.382C491.984,412.282,491.236,411.326,491.877,409.004z"/>
		<path fill="#FFFFFF" d="M463.177,435.651c-1.102,3.819-4.73,2.219-6.812,2.375c-2.066,0.156-0.996-2.847-0.843-4.629
			c0.847-9.885,2.238-19.734,2.17-29.684c-0.047-6.976,2.21-13.549,3.419-20.305c1.018-5.68,2.722-11.32,0.741-17.354
			c4.879,1.915,7.64,6.786,5.269,10.61c-6.118,9.875-6.366,20.431-5.034,31.361C460.168,417.326,456.803,426.681,463.177,435.651z"
			/>
		<path fill="#FFFFFF" d="M463.177,435.651c-5.464-0.442-5.534-5.119-5.07-8.327c0.823-5.691,0.881-11.345,0.659-16.985
			c-0.134-3.38,2.095-1.761,3.32-2.31c0.578,0.376,1.157,0.753,1.735,1.13c2.589,0.141,2.407,2.184,2.215,3.746
			c-0.373,3.035-0.139,6.12-0.824,9.121C465.144,426.659,465.281,431.321,463.177,435.651z"/>
		<path fill="#FFFFFF" d="M504.549,367.97c4.838-1.765,9.684-3.508,14.513-5.298c2.977-1.104,5.803-0.989,8.176,1.243
			c1.584,1.491,3.943,3.029,3.249,5.458c-0.609,2.136-3.166,1.606-4.986,1.713c-2.91,0.166-4.947,2.306-7.548,3.146
			c-1.351,0.436-2.794,0.83-3.888-0.276c-1.264-1.274,0.247-2.104,0.83-3.035c1.742-2.782,0.188-2.712-1.974-2.43
			c-2.385,0.311-4.8,0.394-7.2,0.573C504.588,369.492,504.355,368.96,504.549,367.97z"/>
		<path fill="#FFFFFF" d="M498.146,448.723c5.448-2.053,11.078-0.608,16.619-0.779c1.574-0.048,2.057,1.516,2.046,3.062
			c-0.032,4.646,0,9.291-0.003,13.937c-0.001,1.28-0.149,2.444-1.898,2.369c-1.727-0.073-1.778-1.301-1.786-2.533
			c-0.02-3.957,0.011-7.915-0.024-11.872c-0.014-1.488,0.332-3.183-2.174-3.138c-2.483,0.044-2.112,1.722-2.122,3.22
			c-0.025,3.958,0.001,7.916-0.021,11.873c-0.006,1.213,0.046,2.489-1.791,2.45c-1.826-0.041-1.705-1.355-1.716-2.529
			c-0.032-3.612-0.244-7.246,0.054-10.834c0.33-3.982-1.302-4.877-4.759-3.774C499.532,450.072,498.656,449.701,498.146,448.723z"/>
		<path fill="#FFFFFF" d="M611.554,457.808c0,2.24,0.021,4.479-0.009,6.717c-0.019,1.364,0.149,2.925-2.004,2.761
			c-1.837-0.14-1.496-1.579-1.511-2.692c-0.048-3.961-0.053-7.923-0.009-11.884c0.02-1.707-0.085-3.037-2.396-2.939
			c-2.172,0.089-1.909,1.553-1.922,2.881c-0.032,3.962,0.001,7.923-0.018,11.884c-0.008,1.393,0.065,2.963-2.031,2.772
			c-1.759-0.158-1.486-1.614-1.5-2.763c-0.039-3.272-0.019-6.545-0.015-9.817c0.007-6.824,2.368-8.597,9.105-6.99
			c1.632,0.39,2.332,1.22,2.312,2.839C611.531,452.985,611.553,455.396,611.554,457.808z"/>
		<path fill="#FFFFFF" d="M473.186,441.898c4.334-1.835,7.974-1.358,12.056-0.857c-5.344,1.852-3.997,6.067-4.019,9.763
			c-0.025,4.305,0.072,8.61-0.022,12.914c-0.028,1.354,0.749,3.466-1.705,3.556c-2.968,0.109-1.896-2.314-1.924-3.764
			c-0.107-5.51-0.058-11.021-0.035-16.53C477.549,444.352,478.135,441.364,473.186,441.898z"/>
		<path fill="#FFFFFF" d="M513.318,411.261c7.012,0.921,12.48,2.603,16.73,7.074c1.311,1.379,2.507,2.851,2.241,4.985
			c-0.148,1.198-0.03,2.594-1.25,3.209c-1.354,0.684-2.2-0.555-3.036-1.34C523.393,420.856,518.818,416.486,513.318,411.261z"/>
		<path fill="#FFFFFF" d="M497.203,370.884c-4.789,0.137-8.439,1.998-10.847,6.388c-0.643,1.173-2.48,1.739-3.839,2.452
			c-1.05,0.553-2.091,0.125-2.759-0.729c-0.663-0.848-0.986-2.151-0.11-2.849c3.381-2.695,4.594-6.789,6.912-10.157
			c1.441-2.095,3.146-1.933,3.334,0.66c0.277,3.823,2.69,3.274,5.1,3.154C496.057,369.497,497.238,368.944,497.203,370.884z"/>
		<path fill="#FFFFFF" d="M500.9,378.301c0.049-0.845-0.023-1.782,0.926-2.191c0.856-0.368,1.815-0.18,2.354,0.497
			c0.729,0.919,1.303,2,1.767,3.087c1.324,3.104,3.281,4.852,6.792,3.307c1.695-0.744,3.162-0.668,3.741,1.225
			c0.693,2.266-1.464,2.414-2.755,2.879C508.636,388.931,501.006,383.635,500.9,378.301z"/>
		<path fill="#FFFFFF" d="M465.211,422.026c-0.877-4.244,1.398-8.829-1.392-12.867c0.868-2.229,1.637-4.506,2.625-6.681
			c1.613-3.552,3.37-7.04,5.701-10.37C469.496,402.036,467.297,412.019,465.211,422.026z"/>
		<path fill="#FFFFFF" d="M491.877,409.004c0.183,1.514,0.991,2.409,2.539,2.579c-4.311,4.486-10.602,6.32-14.746,11.044
			c-0.636,0.723-1.579,1.645-2.621,0.605c-1.309-1.302-0.082-2.235,0.789-2.947C482.484,416.484,487.191,412.757,491.877,409.004z"
			/>
		<path fill="#FFFFFF" d="M581.256,465.446c2.382,0.134,3.255-0.875,3.109-3.344c-0.221-3.75-0.108-7.524-0.037-11.287
			c0.023-1.205-0.635-2.932,1.59-3.063c2.188-0.132,2.025,1.483,1.892,2.793c-0.548,5.328,1.312,10.808-1.001,16.021
			C584.905,466.455,582.593,468.372,581.256,465.446z"/>
		<path fill="#FFFFFF" d="M491.961,386.571c-0.019,2.815-1.541,4.816-3.632,6.426c-1.82,1.403-3.613,0.925-4.942-0.718
			c-1.419-1.753,0.17-2.628,1.307-3.687c1.229-1.146,2.231-2.531,3.393-3.756c0.766-0.808,1.392-2.208,2.842-1.469
			C492.203,384.021,491.923,385.398,491.961,386.571z"/>
		<path fill="#FFFFFF" d="M498.146,448.723c1.024,0.12,1.966,0.379,2.425,1.447c0.061,4.617,0.167,9.234,0.15,13.853
			c-0.004,1.213,0.615,3.02-1.486,3.186c-2.127,0.171-1.918-1.538-1.827-2.856C497.769,459.146,496.454,453.86,498.146,448.723z"/>
		<path fill="#FFFFFF" d="M577.254,466.352c-0.308-0.069-0.422-0.255-0.348-0.56c-0.518-5.8-0.567-11.598,0.022-17.396
			c0.207-0.598,0.607-0.762,1.187-0.533c2.254,1.104,1.358,3.196,1.534,4.939c0.419,4.146-0.815,8.383,0.662,12.476l-0.026-0.024
			C580.045,467.748,578.581,466.864,577.254,466.352z"/>
		<path fill="#FFFFFF" d="M580.313,465.279c-2.329-2.307-0.804-5.199-1.156-7.803c-0.431-3.192,0.792-6.564-1.041-9.612
			c3-0.046,1.9,2.248,1.955,3.672C580.246,456.112,580.244,460.697,580.313,465.279z"/>
		<path fill="#FFFFFF" d="M576.93,448.397c-0.008,5.798-0.016,11.596-0.022,17.394C576.041,459.993,576,454.195,576.93,448.397z"/>
		<path fill="#FFFFFF" d="M497.203,370.884c-0.736-0.36-1.473-0.722-2.209-1.079c3.065-1.236,6.321-1.473,9.555-1.834
			c0.39,0.363,0.779,0.729,1.171,1.094C502.881,369.672,500.041,370.276,497.203,370.884z"/>
		<path fill="#FFFFFF" d="M577.254,466.352c1.119-0.067,2.35,0.176,3.031-1.098c0.354-0.085,0.677-0.021,0.971,0.191
			c1.598,1.628,3.739,0.557,5.553,1.118C583.597,467.701,580.399,468.206,577.254,466.352z"/>
		<path fill="#FFFFFF" d="M566.371,395.851c-0.002-2.398,0.817-4.306,2.163-6.181c1.003-1.397,1.596-2.657,0.177-4.572
			c-4.326-5.839-3.559-9.33,2.615-12.976c2.777-1.641,4.967-3.659,6.192-6.655c1.244-3.04-0.542-7.436-3.687-8.465
			c-3.999-1.312-2.146,2.882-3.56,4.119c-0.903,0.794-0.677,2.976-2.52,2.681c-1.559-0.25-1.677-1.843-2.078-3.201
			c-1.027-3.477-3.467-5.1-7.521-5.067c7.215,11.035,4.108,19.877-4.652,27.754c1.282-0.31,2.564-0.617,3.848-0.928
			c1.057-1.126,2.382-2.28,3.688-0.834c0.969,1.071,1.189,2.752-0.643,3.708c-3.325,5.532-9.799,5.858-16.205,9.139
			c3.604,0.478,5.776,1.148,7.871,0.961c4.458-0.398,4.882,1.475,3.138,4.816c-2.379,4.563-4.104,9.515-7.895,13.25
			c-1.856,1.828-2.015,4.031-0.571,6.09c1.519,2.167,3.644,0.711,5.124,0.041c2.477-1.122,4.598-3.001,6.972-4.384
			c1.395-0.812,3.096-1.414,3.244,1.246c0.22,3.938,1.031,7.89-0.128,11.815c-0.506,1.716-1.106,3.513-3.337,3.243
			c-4.471-0.537-3.505,1.672-2.231,4.134c0.554,1.069,1.162,2.112,1.662,3.208c1.727,3.775,3.386,3.937,6.024,0.58
			c1.435-1.822,2.272-3.972,2.405-6.181c0.3-4.984,0.638-10.017,0.27-14.978c-0.468-6.314,0.135-11.953,5.622-16.089
			c0.537-0.403,1.212-1.28,0.342-2.149C567.156,402.802,566.378,402.227,566.371,395.851z M555.019,410.164
			c1.783-2.588,3.567-5.177,5.471-7.938C562.608,407.079,561.684,408.672,555.019,410.164z"/>
		<g>
			<path fill="#FFFFFF" d="M613.646,392.612c0.244,0.104,0.496,0.167,0.765,0.166C614.137,392.7,613.883,392.647,613.646,392.612z"
				/>
			<path fill="#FFFFFF" d="M629.169,409.781c-2.885-1.591-5.646-2.82-9.275-1.878c-4.882,1.269-6.198-0.091-6.273-5.118
				c-0.018-1.197-0.029-2.396-0.047-3.595c-0.212-1.438-0.947-2.043-1.967-2.199l-0.656-0.733l3.459-3.478
				c-0.27,0.001-0.521-0.062-0.765-0.166c-3.292-0.487-3.268,2.913-4.63,4.692c0.232,0.043,0.48,0.004,0.74-0.105
				c-0.973,1.241-0.683,2.948-0.776,4.472c-0.359,5.832-1.085,6.738-6.675,7.747c-1.47,0.264-3.269,1.044-4.188-0.683
				c-0.97-1.814,0.363-3.269,1.617-4.456c2.621-2.484,5.786-4.251,8.683-6.376c0.231-0.163,0.426-0.371,0.601-0.601
				c0,0-0.001,0-0.001,0c1.363-1.778,1.339-5.178,4.63-4.692c-1.153-0.484-2.064-1.89-3.299-1.912
				c1.236,0.021,2.148,1.427,3.301,1.912c0.236,0.035,0.49,0.088,0.765,0.166c1.949-1.945,4.012-3.795,5.816-5.866
				c1.892-2.168,2.718-5.425,0.104-6.774c-4.637-2.396-5.091-5.993-4.966-10.313c0.055-1.876-0.002-3.688-2.37-4.605
				c-2.539-0.984-3.819,0.403-5.312,1.926c-3.188,3.25-5.042,7.365-7.452,11.121c-0.613,0.954-1.679,2.129-2.639,2.229
				c-1.418,0.148-1.603-1.546-1.758-2.636c-0.565-3.944-3.219-5.723-6.628-6.964c-1.453-0.53-2.923-1.788-4.021,0.138
				c-1.08,1.897,1.144,2.141,1.99,2.971c5.171,5.064,4.864,11.785-0.813,16.158c-1.91,1.473-3.849,2.91-5.714,4.438
				c-1.665,1.363-2.206,3.043-1.016,5.016c1.63,2.702,5.305,5.144,4.267,8.201c-1.012,2.985-4.287,5.203-6.57,7.755
				c-0.23,0.257-0.473,0.503-0.717,0.745c-1.373,1.375-3.05,3.057-1.36,4.822c1.443,1.509,3.105-0.356,4.558-1.072
				c3.626-1.791,7.036-4.589,11.466-2.249c-0.325,3.927-0.731,7.853-0.932,11.787c-0.077,1.519,0.17,3.661,1.857,3.803
				c2.105,0.18,2.419-2.031,2.733-3.726c0.597-3.205-0.229-6.546,0.925-9.7c-1.851-0.039-3.087-1.378-4.583-2.164
				c0,0,0.001,0,0.001,0c1.495,0.786,2.73,2.124,4.581,2.163v-0.001c-0.002-0.006-0.005-0.009-0.007-0.015
				c0.002,0.006,0.006,0.011,0.008,0.017v0.001c0.339-0.047,0.653-0.16,0.942-0.343v-0.001c1.707,1.423,3.416,2.846,5.124,4.268
				c-0.292-0.399-0.429-0.768-0.434-1.107c0.005,0.34,0.142,0.707,0.434,1.106c0.1-1.03,0.449-1.904,1.485-2.341
				c-0.177-0.131-0.353-0.263-0.527-0.394c0,0,0,0-0.001,0c-1.416-1.053-2.831-2.105-4.245-3.16c-0.544,0.62-1.17,1.146-1.836,1.628
				v-0.001c0.666-0.48,1.292-1.007,1.836-1.627c-0.195-0.146-0.392-0.289-0.586-0.437h0c2.271-4.444,6.443-4.146,10.407-3.938
				c1.416,0.074,3.144,7.758,1.979,9.329c-1.867,2.521-3.452-0.208-5.159-0.635c-0.646-0.16-1.247-0.504-1.867-0.765
				c-1.036,0.438-1.386,1.312-1.485,2.341c2.811,3.246,5.506,6.604,8.467,9.706c2.784,2.918,4.768,1.576,4.918-1.844
				c0.188-4.222-0.299-8.484-0.649-12.715c-0.437-5.275,1.216-6.879,6.533-5.958c2.194,0.381,4.335,1.141,6.538,1.396
				c1.364,0.158,2.794-0.414,3.254-1.987C631.434,410.976,630.225,410.362,629.169,409.781z M586.927,405.471
				c-2.665,0.209-4.19-3.24-4.611-6.038c-0.266-1.771,5.259-5.913,7.287-5.654c2.683,0.342,1.631,2.455,1.808,4.046
				C590.89,400.975,590.84,405.165,586.927,405.471z M611.966,377.003c1.255-0.154,6.107,6.437,6.017,8.146
				c-0.118,2.189-2.123,1.469-3.169,1.562c-2.161,0.188-4.581-3.347-4.542-6.288C610.489,379.194,609.715,377.282,611.966,377.003z
				 M606.089,374.842c0.772-0.711,1.742-2.249,2.903-1.061c1.142,1.172,1.056,3.059-0.12,4.204c-1.842,1.797-4.103,2.95-6.981,2.322
				C602.092,377.467,604.422,376.377,606.089,374.842z M596.727,398.072c-0.315-7.989,3.86-13.026,10.941-13.604
				c0.892-0.073,1.731,0.059,2.166,0.962c0.53,1.104,0.029,2.01-0.757,2.734C605.24,391.705,601.553,395.443,596.727,398.072z"/>
		</g>
		<path fill="#FFFFFF" d="M564.305,462.19c-0.284-2.878-0.292-5.824-0.035-8.704c0.394-4.42-1.174-5.864-5.775-5.951
			c-4.862-0.091-6.377,1.49-5.651,6.032c0.214,1.339,0.033,2.74,0.03,4.111c-0.005,1.545,0.15,3.106-0.036,4.629
			c-0.427,3.476,0.229,5.518,4.503,5.117C560.944,467.089,564.878,468.015,564.305,462.19z M556.233,451.909
			c-0.234-1.977,0.955-2.229,2.543-2.188c2.677,0.066,1.557,2.096,1.838,3.248c0.053,1.713-0.284,2.802-2.264,2.71
			C555.48,455.547,556.414,453.446,556.233,451.909z M560.537,461.906c0.172,1.52,0.667,3.604-2.234,3.403
			c-3.28-0.226-1.533-2.733-2.051-4.037c0.041-1.807-0.48-3.763,2.321-3.583C561.837,457.897,560.365,460.381,560.537,461.906z"/>
		<path fill="#FFFFFF" d="M537.84,447.727c-6.915-1.354-8.681-0.004-8.677,6.843c0.001,1.036,0,2.072,0.003,3.108
			c0,2.418-0.02,4.836,0.009,7.254c0.014,1.207-0.085,2.521,1.817,2.354c1.435-0.127,1.533-1.108,1.547-2.172
			c0.023-1.727,0.084-3.458-0.003-5.181c-0.077-1.545,0.522-2.122,2.072-2.163c1.566-0.043,2.202,0.54,2.156,2.071
			c-0.046,1.554-0.015,3.107-0.003,4.664c0.01,1.398-0.118,2.871,2.012,2.799c1.729-0.06,1.818-1.201,1.814-2.484
			c-0.016-4.662-0.024-9.326-0.022-13.988C540.566,448.98,539.682,448.088,537.84,447.727z M534.712,455.662
			c-2.808-0.034-2.104-2.024-2.229-3.608c-0.14-1.763,0.662-2.39,2.403-2.349c2.593,0.062,1.713,1.959,1.878,2.609
			C536.859,454.485,536.744,455.688,534.712,455.662z"/>
		<path fill="#D9292B" d="M638.988,429.683c0.681,0.199,1.331,0.616,2.146,0.696c-0.175-0.884-0.886-1.303-1.199-1.894
			C639.738,428.985,639.443,429.402,638.988,429.683z"/>
		<path fill="#D9292B" d="M639.935,428.486c-0.042-0.081-0.07-0.167-0.097-0.254c-0.388,0.462-0.773,0.925-1.162,1.387
			c0.104,0.018,0.21,0.034,0.312,0.063C639.443,429.402,639.738,428.985,639.935,428.486z"/>
		<path fill="#D9292B" d="M638.676,429.619c-0.092,0.108-0.185,0.221-0.275,0.33c0.229-0.062,0.414-0.159,0.588-0.267
			C638.886,429.653,638.78,429.636,638.676,429.619z"/>
		<path fill="#D9292B" d="M639.838,428.232c0.025,0.087,0.055,0.173,0.097,0.254c0.075-0.191,0.144-0.391,0.196-0.601v-0.002v-0.001
			C640.032,428,639.936,428.116,639.838,428.232z"/>
		<path fill="#D62923" d="M807.406,435.874c-0.228,2.829,1.776,2.956,3.762,1.655c2.791-1.828,5.313-2.135,7.551,0.798
			c0.12-0.125,0.24-0.251,0.359-0.377c-0.212-0.88-0.707-1.541-1.455-2.042c-2.658-1.772-5.633,0.731-7.934-0.269
			c-2.007-0.873-1.923-4.829-5.093-4.865c-0.058,0.175-0.097,0.362-0.121,0.56C805.803,432.535,807.615,433.282,807.406,435.874z"/>
		<path fill="#92403F" d="M925.382,445.444c-1.227,0.496-2.794-0.389-3.783,0.881c-0.189,0.243-0.072,1.016,0.18,1.267
			c1.631,1.633,7.026-0.473,7.818-3.01C928.323,445.512,926.908,445.749,925.382,445.444z"/>
		<polygon fill="#CB2B20" points="632.775,436.133 661.932,402.297 691.088,436.133 661.932,470.469 		"/>
		<path fill="#FFFFFF" stroke="#FFFFFF" stroke-miterlimit="10" d="M656.142,428.459c0.169-0.29,0.4-0.339,0.69-0.146
			c0.483,0.63,0.822,1.369,1.018,2.217c0,0.194-0.314,0.631-0.944,1.309l-1.964,2.509c-0.266,0.363-0.397,0.836-0.397,1.417
			c0.07,5.5,0.084,10.999,0.034,16.499c0.146,0.896-0.085,1.404-0.688,1.525c-1.357-1.234-1.781-2.361-1.272-3.38
			c0.242-0.822,0.389-1.743,0.438-2.762l-0.073-9.922c0-0.629-0.327-0.557-0.98,0.219c-1.091,1.188-2.277,2.411-3.562,3.671
			c-0.704,0.63-1.115,0.944-1.236,0.944c-0.58,0.049-0.728-0.194-0.436-0.728c3.755-3.853,6.312-6.929,7.668-9.23
			C655.234,431.317,655.802,429.937,656.142,428.459z M656.178,420.246c0.146-0.267,0.351-0.326,0.618-0.183
			c0.145,0.121,0.35,0.424,0.616,0.909c0.751,0.872,0.68,1.599-0.218,2.18l-1.962,2.908c-1.891,2.786-4.011,5.232-6.361,7.341
			c-0.313,0.024-0.52-0.097-0.616-0.363c0-0.146,0.313-0.568,0.943-1.271C653.173,427.332,655.5,423.493,656.178,420.246z
			 M657.994,445.03c0.194-0.992,0.376-1.501,0.547-1.524c0.169,0,0.326,0.035,0.472,0.108c0.146,0.121,0.219,0.558,0.219,1.309
			c0.072,1.695-0.243,3.392-0.945,5.089c-0.509,0.871-0.848,1.308-1.017,1.308c-0.17-0.049-0.449-0.448-0.836-1.2
			c-0.269-0.629-0.195-1.113,0.217-1.453C657.183,448.035,657.631,446.823,657.994,445.03z M670.533,438.127
			c1.695-0.268,3.198-0.581,4.508-0.944c0.557,0.071,1.064,0.581,1.524,1.524c-0.072,0.171-0.485,0.315-1.235,0.438l-15.555,2.289
			c-0.896,0.218-1.744-0.096-2.543-0.944c0.12-0.532,0.677-0.715,1.671-0.546L670.533,438.127z M665.845,420.21
			c-0.073-0.775,0-1.188,0.218-1.235c0.17,0,0.605,0.352,1.31,1.054c0.532,0.533,0.642,1.019,0.326,1.454
			c-0.17,0.412-0.326,1.127-0.473,2.146c-0.097,0.652,0.121,0.932,0.654,0.835c2.494-0.363,4.713-0.859,6.649-1.489
			c0.703-0.049,1.272,0.398,1.708,1.345c0,0.146-0.036,0.266-0.107,0.363c-0.121,0.097-0.425,0.181-0.909,0.254
			c-2.495,0.363-4.99,0.764-7.485,1.199c-0.582,0.121-0.958,0.546-1.127,1.271l-0.146,0.728c-0.098,0.679,0.108,0.97,0.617,0.872
			l4.07-0.69c0.485-0.121,0.993-0.339,1.527-0.654c0.702-0.873,1.367-0.581,1.998,0.872c0,0.098-0.17,0.474-0.51,1.127
			c-0.34,1.115-0.58,2.193-0.727,3.234c-0.097,0.582,0.218,1.127,0.945,1.635c0.266,0.292,0.339,0.534,0.218,0.729
			c-0.267,0.242-0.715,0.34-1.345,0.29c-4.7,0.461-8.529,0.981-11.484,1.562c-0.604,0.121-0.908,0.327-0.908,0.617
			c0.072,0.559-0.098,0.922-0.51,1.091c-0.363-0.146-0.666-0.532-0.908-1.163c-0.339-0.653-0.424-1.26-0.254-1.815l0.036-1.745
			l-0.146-4.034c-0.024-0.727,0-1.127,0.072-1.199c0.388-0.192,0.69,0.014,0.908,0.617c0.169,0.364,0.617,0.498,1.345,0.4
			c0.85-0.169,1.732-0.304,2.652-0.4c0.51-0.047,0.824-0.472,0.946-1.271c0.07-0.242,0.107-0.484,0.107-0.728
			c0.072-0.582-0.255-0.836-0.98-0.763l-2.87,0.508c-1.261,0.412-2.23,0.388-2.908-0.072c-0.63-0.169-0.823-0.521-0.582-1.055
			c0.994-0.071,1.987-0.205,2.979-0.398l3.854-0.653c0.581-0.121,0.908-0.546,0.981-1.272
			C665.736,422.585,665.821,421.397,665.845,420.21z M661.993,431.295l-0.546,0.071c-0.604,0.122-0.872,0.23-0.8,0.327
			c0.024,1.042,0.085,2.084,0.182,3.126c0.025,0.63,0.389,0.896,1.092,0.799c0.822-0.097,1.224-0.472,1.198-1.126v-2.254
			C663.095,431.511,662.719,431.197,661.993,431.295z M660.976,443.541c0.048-0.267,0.205-0.388,0.472-0.362
			c0.122,0,0.4,0.362,0.837,1.091c2.181,4.07,5.185,6.262,9.013,6.577c0.604,0,0.822-0.327,0.653-0.981l-0.764-2.651l-0.146-0.872
			c0.484-0.461,0.837-0.328,1.056,0.397c0.581,1.503,1.258,2.956,2.035,4.361c0.847,1.065,0.835,1.696-0.037,1.891
			c-1.842,0.169-3.779-0.134-5.814-0.908C664.622,450.579,662.187,447.733,660.976,443.541z M666.207,430.64l-0.545,0.109
			c-0.679,0.097-1.018,0.411-1.018,0.943c-0.023,0.85-0.013,1.732,0.037,2.653c0.022,0.581,0.397,0.824,1.126,0.727L666.39,435
			c0.655-0.071,0.969-0.446,0.945-1.127v-2.253C667.311,430.894,666.936,430.566,666.207,430.64z M664.791,441.433
			c0.146-0.146,0.653,0.062,1.526,0.618c0.484,0.34,0.969,0.715,1.453,1.127c1.042,0.774,1.224,1.901,0.546,3.38
			c-0.314,0.049-0.581-0.097-0.8-0.438c-0.799-1.355-1.647-2.566-2.544-3.634C664.657,442.221,664.597,441.869,664.791,441.433z
			 M671.332,429.841l-0.728,0.108l-0.872,0.146c-0.582,0.145-0.896,0.581-0.945,1.309c-0.049,0.653-0.061,1.344-0.035,2.071
			c0.048,0.774,0.437,1.089,1.162,0.944l0.801-0.146c0.604-0.073,0.98-0.472,1.126-1.199l0.473-2.615
			C672.435,429.828,672.108,429.622,671.332,429.841z M671.478,441.798c0.098-0.121,0.51-0.024,1.236,0.29
			c1.064,0.484,2.131,1.114,3.196,1.891c0.873,0.388,1.31,1.029,1.31,1.926c0.049,0.92,0.023,1.43-0.072,1.525
			c-0.34,0.315-0.764,0.108-1.271-0.617c-1.141-1.211-2.46-2.458-3.961-3.743C671.429,442.633,671.284,442.21,671.478,441.798z"/>
		<polygon fill="#CB2B20" points="727.957,470.469 698.8,436.133 727.957,402.297 757.115,436.133 		"/>
		<path fill="#FFFFFF" stroke="#FFFFFF" stroke-miterlimit="10" d="M722.197,422.415c0.437-0.097,0.872-0.156,1.31-0.182
			c0.727-0.073,1.26,0.036,1.599,0.328c0.557,0.436,0.642,0.787,0.254,1.053l-2.979,0.545c-0.581,0.121-0.872,0.475-0.872,1.056
			l-0.073,5.306c0,0.581,0.387,0.788,1.163,0.618c0.339-0.098,0.678-0.158,1.018-0.184c0.484-0.046,0.97,0.085,1.454,0.401
			c0.389,0.269,0.483,0.545,0.29,0.836c-0.193,0.217-0.617,0.352-1.271,0.399c-0.581,0.071-1.177,0.182-1.781,0.326
			c-0.581,0.146-0.872,0.51-0.872,1.091l-0.072,6.432c0,0.729,0.389,0.909,1.163,0.547c0.823-0.389,1.647-0.739,2.472-1.055
			c0.581-0.292,0.933-0.184,1.054,0.328c-0.023,0.168-0.399,0.472-1.127,0.907c-3.004,1.673-6.008,3.283-9.013,4.834
			c-0.437,0.389-0.921,0.389-1.455,0c-0.896-0.68-1.308-1.091-1.233-1.235c0.121-0.146,0.313-0.269,0.581-0.365
			c1.672-0.557,3.344-1.162,5.016-1.815c0.654-0.266,0.981-0.666,0.981-1.198l0.071-7.088c0-0.581-0.389-0.786-1.162-0.618
			c-1.454,0.462-2.459,0.45-3.018-0.036c-0.558-0.387-0.667-0.727-0.326-1.017c1.113-0.17,2.266-0.388,3.452-0.654
			c0.678-0.146,1.019-0.472,1.019-0.982l0.071-5.269c0.024-0.729-0.339-1.029-1.09-0.909c-1.018,0.268-1.89,0.34-2.617,0.219
			c-0.727-0.146-1.103-0.521-1.126-1.126c0.097-0.098,0.509-0.207,1.235-0.328c0.944-0.049,1.938-0.229,2.979-0.545
			C720.258,422.793,721.227,422.587,722.197,422.415z M726.012,440.806c0.192-0.873,0.376-1.345,0.546-1.418
			c0.701,0.049,0.92,0.496,0.654,1.345c-0.024,1.913-0.377,3.599-1.056,5.051c-0.483,0.679-0.8,0.994-0.943,0.945
			c-0.511-0.313-0.775-0.956-0.801-1.926c0.05-0.243,0.242-0.605,0.581-1.092C725.431,442.842,725.77,441.87,726.012,440.806z
			 M738.659,420.198c0.63-0.191,1.261,0.158,1.891,1.056c0.023,0.509-0.389,0.728-1.235,0.653l-4.07,0.654
			c-0.581,0.146-0.873,0.508-0.873,1.09v1.381c0,0.581,0.389,0.787,1.164,0.617l1.744-0.397c0.654-0.22,1.271,0.108,1.854,0.979
			c-0.024,0.219-0.508,0.426-1.452,0.618l-2.437,0.438c-0.58,0.121-0.873,0.473-0.873,1.054v1.234c0,0.583,0.363,0.8,1.092,0.654
			c0.849-0.168,1.695-0.399,2.544-0.69c0.291-0.047,0.533-0.021,0.728,0.072c0.654,0.561,0.969,0.935,0.944,1.128
			c-0.121,0.194-0.654,0.375-1.599,0.545l-2.764,0.509c-0.604,0.146-0.908,0.509-0.908,1.092v1.09
			c0.023,0.727,0.425,1.005,1.199,0.836c1.31-0.291,2.616-0.532,3.925-0.728c0.412,0.024,0.775-0.146,1.091-0.511
			c0.483-0.627,1.065-0.52,1.744,0.328c0.46,0.509,0.447,0.922-0.035,1.235c-0.364,0.219-0.581,0.738-0.654,1.562
			c-1.261,6.59-2.558,11.437-3.891,14.536c-0.362,0.849-0.726,1.309-1.089,1.381c-0.098,0-0.437-0.361-1.018-1.089l-2.072-2.908
			c-0.703-0.896-1.054-1.418-1.054-1.562c0.169-0.605,0.545-0.666,1.127-0.184l1.926,2.072c0.581,0.558,1.065,0.496,1.454-0.183
			c1.404-3.586,2.386-7.654,2.943-12.211c0.072-0.63-0.243-0.909-0.944-0.837c-3.344,0.56-6.688,1.165-10.031,1.818
			c-0.581,0.098-0.908,0.313-0.98,0.653c0.098,0.509-0.085,0.788-0.545,0.835c-0.389-0.096-0.775-0.581-1.163-1.452
			c-0.099-0.486-0.099-0.97,0-1.454c0.679-3.587,0.689-8.323,0.036-14.21c-0.049-0.727-0.036-1.149,0.036-1.271
			c0.631-0.269,1.029,0.049,1.199,0.942c0.169,0.486,0.618,0.68,1.345,0.581C732.227,421.652,735.461,420.998,738.659,420.198z
			 M728.301,427.759c-0.121-0.122-0.182,0.097-0.182,0.653v6.869c0,0.581,0.388,0.787,1.163,0.617
			c0.896-0.194,1.792-0.351,2.689-0.472c0.581-0.121,0.872-0.475,0.872-1.056c-0.049-0.388-0.062-0.785-0.037-1.198
			c0-0.558-0.327-0.765-0.98-0.618c-0.389,0.073-0.775,0.183-1.164,0.328c-0.531,0.07-1.053,0.013-1.562-0.183
			c-0.363-0.072-0.581-0.292-0.653-0.653c-0.049-0.342,0.29-0.521,1.019-0.545l2.435-0.401c0.581-0.146,0.872-0.508,0.872-1.089
			v-1.346c0-0.58-0.363-0.823-1.091-0.727c-0.362,0.048-0.726,0.133-1.089,0.253C729.816,428.484,729.053,428.34,728.301,427.759z
			 M731.681,423.217l-0.654,0.108c-0.653,0.072-1.319,0.194-1.998,0.362c-0.581,0.17-0.872,0.545-0.872,1.126v1.31
			c0,0.581,0.363,0.836,1.092,0.763c0.799-0.096,1.635-0.241,2.507-0.437c0.679-0.17,1.018-0.496,1.018-0.98v-1.525
			C732.772,423.361,732.408,423.118,731.681,423.217z M729.065,439.533c0.169-0.048,0.46,0.29,0.873,1.018
			c0.436,0.849,0.823,1.696,1.162,2.544c0.267,0.679,0,1.466-0.799,2.362c-0.121,0.073-0.243,0.109-0.363,0.109
			c-0.316-0.194-0.485-0.715-0.51-1.562c-0.146-0.969-0.339-1.938-0.581-2.908C728.775,440.177,728.847,439.655,729.065,439.533z
			 M731.9,438.881c0.121-0.099,0.496,0.204,1.126,0.905c0.461,0.605,0.873,1.214,1.236,1.819c0.291,0.483,0.424,0.968,0.399,1.452
			c-0.146,0.727-0.388,1.272-0.728,1.636c-0.412-0.023-0.667-0.338-0.764-0.945c-0.29-0.969-0.629-1.938-1.019-2.905
			c-0.313-0.775-0.473-1.31-0.473-1.601C731.705,439.12,731.779,439.002,731.9,438.881z M734.916,438.262
			c0.242-0.413,0.68-0.194,1.31,0.653c0.437,0.483,0.823,0.969,1.163,1.452c0.848,0.681,0.872,1.709,0.072,3.09
			c-0.219,0.194-0.437,0.146-0.654-0.146c-0.557-1.405-1.163-2.812-1.816-4.217C734.819,438.903,734.794,438.624,734.916,438.262z"
			/>
		<polygon fill="#CB2B20" points="793.983,470.469 764.825,436.133 793.983,402.297 823.14,436.133 		"/>
		<path fill="#FFFFFF" stroke="#FFFFFF" stroke-miterlimit="10" d="M786.599,432.869c0.146-0.46,0.387-0.666,0.728-0.617
			c0.29,0.098,0.363,0.617,0.219,1.562l-3.271,11.63c-0.388,1.647-0.861,3.103-1.418,4.361c-0.363,0.969-1.018,0.787-1.962-0.545
			c-0.8-0.775-1.515-1.515-2.146-2.219c-0.17-0.312-0.134-0.567,0.109-0.762c0.12-0.098,0.605,0.012,1.454,0.327
			c0.799,0.29,1.38,0.071,1.743-0.655c0.63-1.453,1.32-3.391,2.07-5.813C785,437.716,785.823,435.293,786.599,432.869z
			 M779.222,430.106c0.46-0.24,0.968-0.145,1.524,0.292c0.802,0.412,1.637,0.908,2.51,1.489c0.677,0.533,0.884,1.454,0.616,2.763
			c-0.388,0.46-0.727,0.448-1.018-0.037l-2.146-2.472c-0.92-0.92-1.394-1.465-1.416-1.635L779.222,430.106z M782.201,421.931
			c0-0.268,0.109-0.4,0.327-0.4c0.774,0.218,2.095,0.934,3.961,2.145c0.68,0.704,0.873,1.611,0.582,2.726
			c-0.146,0.292-0.34,0.39-0.582,0.292c-1.018-1.139-2.084-2.29-3.196-3.452C782.566,422.586,782.201,422.148,782.201,421.931z
			 M804.48,426.618c0.75-0.339,1.502,0.099,2.253,1.31c-0.098,0.437-0.436,0.642-1.018,0.617c-1.357,0.171-2.727,0.376-4.107,0.617
			c-0.508,0.073-0.472,0.497,0.109,1.271c0.63,0.728,0.581,1.37-0.146,1.927c-0.292,0.437-0.484,0.921-0.582,1.453
			c-0.728,2.205-1.646,4.362-2.763,6.469c-0.314,0.607-0.229,1.262,0.256,1.963c3.003,4.919,6.152,7.476,9.449,7.669
			c0.993-0.098,1.452,0.255,1.381,1.055c-0.122,0.146-0.546,0.291-1.273,0.436c-1.187,0.049-2.387,0.184-3.598,0.4
			c-0.653,0.097-1.029,0.133-1.127,0.108c-0.363-0.023-0.666-0.278-0.908-0.764c-1.646-2.423-3.247-4.845-4.797-7.268
			c-0.509-0.776-0.993-0.824-1.453-0.146c-3.32,4.386-7.354,7.607-12.103,9.667c-0.703-0.362-0.521-0.812,0.546-1.345
			c3.924-2.132,7.473-5.379,10.646-9.739c0.461-0.728,0.448-1.453-0.036-2.181c-2.132-3.149-3.768-5.427-4.905-6.832
			c0.049-0.46,0.34-0.666,0.872-0.618c0.63,0.024,1.113,0.194,1.453,0.509c1.091,1.817,2.266,3.67,3.525,5.562
			c0.411,0.604,0.812,0.545,1.199-0.184c1.501-2.931,2.338-5.669,2.508-8.212c0-0.583-0.363-0.824-1.091-0.728
			c-2.786,0.461-5.573,0.969-8.358,1.525c-1.405,0.268-2.423-0.084-3.053-1.055c0.121-0.312,0.387-0.472,0.799-0.472
			c0.605,0.049,1.647-0.085,3.126-0.399c3.876-0.679,7.753-1.404,11.63-2.182L804.48,426.618z M794.777,419.532
			c0.411-0.363,0.884-0.146,1.416,0.653l2.362,2.907c0.437,0.34,0.595,0.824,0.474,1.454c-0.242,1.26-0.679,1.89-1.309,1.89
			c-0.194-0.193-0.389-0.63-0.581-1.309c-0.631-1.647-1.31-3.102-2.035-4.361C794.861,420.04,794.752,419.63,794.777,419.532z"/>
		<polygon fill="#CB2B20" points="860.008,470.469 830.851,436.133 860.008,402.297 889.166,436.133 		"/>
		<path fill="#FFFFFF" stroke="#FFFFFF" stroke-miterlimit="10" d="M850.352,419.705c0.193-0.192,0.496-0.145,0.908,0.146
			c1.065,0.654,1.609,1.309,1.635,1.963c-0.46,1.648-0.666,4.07-0.617,7.27c-0.023,0.557,0.353,0.763,1.127,0.617
			c0.508-0.122,1.019-0.206,1.525-0.255c0.728-0.023,1.272,0.108,1.637,0.399c0.75,0.653,0.677,1.078-0.219,1.271
			c-1.066,0.049-2.133,0.183-3.197,0.399c-0.583,0.146-0.873,0.509-0.873,1.09c-0.049,5.283-0.013,10.564,0.109,15.846
			c-0.024,1.188-0.098,2.41-0.218,3.67c-0.269,0.753-0.449,1.151-0.546,1.2c-0.268,0.073-0.521-0.134-0.765-0.618
			c-0.774-0.993-1.053-1.927-0.835-2.798c0.242-0.679,0.387-1.685,0.438-3.017c0.266-4.095,0.351-8.759,0.254-13.992
			c0-0.581-0.363-0.836-1.091-0.763c-0.944,0.291-1.732,0.398-2.362,0.327c-0.605-0.05-1.104-0.327-1.489-0.837
			c-0.097-0.241-0.108-0.41-0.036-0.509c0.097-0.146,0.496-0.267,1.198-0.362l2.908-0.438c0.581-0.096,0.872-0.437,0.872-1.018
			c-0.024-3.028-0.146-5.815-0.363-8.358C850.279,420.215,850.279,419.802,850.352,419.705z M863.362,419.523
			c0.389-0.363,0.837-0.29,1.345,0.218c0.68,0.534,0.896,1.249,0.655,2.146c-0.17,0.849-0.388,1.731-0.655,2.652
			c-0.169,0.581,0.135,0.787,0.909,0.617c1.31-0.192,2.192-0.374,2.653-0.545l1.127-0.8c0.217-0.047,0.544,0.098,0.979,0.437
			c0.849,0.534,0.934,1.066,0.255,1.6c-0.484,0.461-0.764,1.065-0.836,1.817c-0.314,1.479-0.764,2.921-1.346,4.324
			c-0.29,0.654-0.181,1.104,0.327,1.346c1.019,0.362,1.418,0.871,1.2,1.525c-0.194,0.484-0.34,1.175-0.437,2.071
			c-0.099,0.631,0.204,0.872,0.907,0.727l1.055-0.327c0.896-0.557,1.418-0.835,1.562-0.835c1.31,0.654,1.599,1.356,0.872,2.106
			c-0.267,0.341-0.437,0.934-0.509,1.781c-0.679,3.779-1.744,7.414-3.198,10.902c-0.558,0.872-0.908,1.271-1.054,1.198
			c-0.122-0.048-0.303-0.229-0.545-0.544c-0.775-1.212-1.49-2.182-2.146-2.907c-0.461-0.533-0.425-0.909,0.109-1.127
			c0.169-0.023,0.617,0.268,1.345,0.872c0.8,0.559,1.345,0.582,1.635,0.072c1.042-2.883,1.793-5.898,2.253-9.049
			c0.073-0.581-0.254-0.823-0.979-0.728c-0.315,0.024-0.631,0.085-0.945,0.183c-0.581,0.146-0.943,0.581-1.091,1.309
			c-0.849,4.337-2.943,8.298-6.286,11.883c-0.703,0.655-1.14,0.993-1.309,1.019c-0.17-0.024-0.305-0.108-0.4-0.254
			c-0.097-0.194,0.17-0.716,0.801-1.563c2.762-3.392,4.615-7.014,5.561-10.866c0.169-0.679-0.013-0.98-0.545-0.908
			c-0.581,0.071-1.019,0-1.309-0.219c-0.291-0.242-0.425-0.46-0.399-0.653c0.022-0.169,0.399-0.375,1.127-0.617l0.654-0.073
			c0.63-0.048,0.968-0.423,1.018-1.126c0.096-0.727,0.096-1.467,0-2.218c-0.122-0.63-0.4-0.558-0.837,0.219
			c-0.388,0.823-0.871,0.69-1.454-0.399c-0.388-0.604-0.822-1.211-1.308-1.817c-0.532-0.728-0.813-1.162-0.835-1.309
			c0.409-0.557,1.027-0.339,1.853,0.654c0.654,0.46,1.163,0.399,1.526-0.182c0.774-1.817,1.319-3.525,1.636-5.124
			c0.073-0.511-0.291-0.691-1.091-0.546l-2.508,0.473c-0.558,0.098-1.007,0.521-1.346,1.271c-0.822,1.891-1.89,3.646-3.196,5.271
			c-0.462,0.557-0.438,1.126,0.071,1.708c0.314,0.532,0.34,1.126,0.073,1.78c-0.17,0.679,0.108,0.934,0.836,0.764l1.019-0.327
			c0.727-0.509,1.308-0.604,1.743-0.291c0.921,0.581,0.97,1.272,0.146,2.072c-0.678,4.021-1.538,7.413-2.58,10.176
			c-0.218,0.75-0.533,1.271-0.944,1.563c-0.122,0-0.497-0.327-1.127-0.981c-0.169-0.243-0.388-0.484-0.653-0.727
			c-0.8-0.896-1.188-1.406-1.162-1.526c0.192-0.313,0.786-0.292,1.779,0.072c0.582,0.193,1.006-0.085,1.272-0.836
			c0.702-2.182,1.211-4.458,1.526-6.832c0.071-0.581-0.256-0.849-0.981-0.8l-0.51,0.108c-0.581,0.146-0.969,0.605-1.162,1.381
			c-0.922,4.021-2.666,7.655-5.233,10.902c-0.436,0.775-0.907,0.933-1.417,0.473c-0.024-0.17,0.193-0.617,0.654-1.345
			c2.229-3.295,3.683-6.639,4.36-10.03c0.146-0.581-0.146-0.822-0.872-0.728c-0.242,0-0.485,0.037-0.729,0.109
			c-0.726,0.098-1.211,0.062-1.453-0.109c-0.46-0.241-0.631-0.532-0.509-0.871c0.073-0.219,0.474-0.364,1.2-0.438l1.962-0.254
			c0.581-0.098,0.92-0.51,1.018-1.235l0.036-0.981c0.023-0.63-0.17-0.751-0.581-0.363c-0.631,0.559-1.054,0.547-1.271-0.035
			c0.023-0.146,0.242-0.461,0.654-0.945c1.502-1.551,2.968-3.779,4.396-6.688c0.241-0.58,0-0.822-0.728-0.728
			c-0.509,0.05-1.019,0.183-1.525,0.4c-0.654,0.049-1.26-0.341-1.818-1.163c0.17-0.438,0.644-0.63,1.418-0.582l2.764-0.327
			c0.581-0.072,0.969-0.483,1.163-1.235c0.361-1.308,0.531-2.519,0.508-3.634C863.337,420.104,863.291,419.621,863.362,419.523z"/>
		<polygon fill="#CB2B20" points="926.033,470.469 896.875,436.133 926.033,402.297 955.191,436.133 		"/>
		<path fill="#FFFFFF" stroke="#FFFFFF" stroke-miterlimit="10" d="M924.817,420.227c0.218-0.798,0.423-1.235,0.617-1.309
			c0.654,0.049,1.03,0.485,1.126,1.309c0.242,0.632,0.292,1.164,0.146,1.6c-0.072,0.122,0.242,0.521,0.944,1.199
			c4.53,4.459,8.347,7.318,11.448,8.578l2.762,0.545c0.268,0.216,0.4,0.436,0.4,0.653c-0.099,0.268-0.376,0.436-0.837,0.509
			c-0.97,0.146-1.938,0.328-2.907,0.545c-0.896,0.462-1.878-0.049-2.943-1.527c-0.582-0.557-0.979-0.46-1.198,0.292
			c-0.268,1.162-0.485,2.326-0.654,3.489c-0.073,0.581,0.049,1.018,0.363,1.309c0.313,0.29,0.46,0.509,0.437,0.653
			c-0.049,0.17-0.437,0.326-1.163,0.473c-3.876,0.268-7.754,0.617-11.629,1.056l-1.309,0.217c-0.582,0.121-0.873,0.304-0.873,0.546
			c0.023,0.582-0.194,0.835-0.654,0.763c-0.969-0.969-1.296-1.878-0.98-2.727c0.146-1.744,0-3.767-0.437-6.069
			c-0.049-0.58-0.46-0.557-1.235,0.073c-2.253,1.745-4.204,2.969-5.852,3.671c-0.485,0.024-0.666-0.193-0.545-0.652
			c1.985-1.406,3.974-2.859,5.96-4.362C920.552,427.011,923.556,423.401,924.817,420.227z M926.416,423.825
			c-0.654-0.557-1.199-0.545-1.636,0.036c-0.971,1.284-1.891,2.389-2.763,3.308c-0.751,0.752-0.764,1.104-0.036,1.056
			c1.817-0.341,3.634-0.63,5.451-0.873c0.483-0.146,0.969-0.255,1.454-0.328c0.629-0.144,1.224,0.243,1.779,1.164
			c-0.023,0.266-0.277,0.436-0.763,0.509l-7.269,1.09c-0.801,0.024-1.491-0.183-2.072-0.617c-0.17-0.168-0.497-0.036-0.98,0.4
			l-0.907,0.834c-0.438,0.364-0.485,0.788-0.146,1.271c0.268,0.438,0.765,0.607,1.49,0.511c3.974-0.557,7.983-1.164,12.029-1.818
			c0.63-0.313,0.581-0.821-0.146-1.524C930.086,427.12,928.256,425.449,926.416,423.825z M930.375,440.361
			c0.461-0.849,1.019-0.872,1.673-0.072c0.679,0.46,0.727,0.979,0.146,1.562c-0.121,0.242-0.206,0.607-0.255,1.091l-0.835,8.723
			l-0.218,0.907c-0.389,0.461-0.765,0.305-1.127-0.473c-0.243-0.483-0.729-0.715-1.454-0.69c-2.107,0.171-4.216,0.388-6.323,0.654
			c-0.581,0.146-0.897,0.413-0.945,0.8c0.023,0.558-0.146,0.885-0.509,0.982c-0.267,0-0.521-0.23-0.763-0.69
			c-0.509-0.824-0.57-1.552-0.183-2.181c0.314-3.344,0.389-6.191,0.218-8.542c-0.071-0.798-0.071-1.235,0-1.31
			c0.484-0.288,0.837-0.144,1.055,0.438c0.194,0.362,0.546,0.496,1.054,0.399l7.015-1.018
			C929.407,440.821,929.892,440.628,930.375,440.361z M923.654,433.165l-0.437,0.072l-1.235,0.146
			c-0.604,0.071-0.545,0.387,0.181,0.942c1.213,0.945,1.66,1.808,1.346,2.582c-0.389,0.702-0.643,1.041-0.763,1.018
			c-0.268-0.097-0.474-0.375-0.617-0.837l-0.837-1.816c-0.461-0.727-0.689-1.187-0.689-1.381c0.048-0.219-0.158-0.289-0.618-0.219
			c-0.412,0.072-0.604,0.474-0.581,1.2l0.108,2.727c0.023,0.581,0.398,0.849,1.127,0.798l3.38-0.398
			c0.557-0.049,0.823-0.46,0.8-1.235c-0.05-0.849-0.061-1.709-0.036-2.579C924.756,433.456,924.38,433.116,923.654,433.165z
			 M929.432,442.541c-2.398,0.268-4.798,0.571-7.196,0.909c-0.581,0.098-0.885,0.508-0.908,1.235v0.909
			c-0.023,0.532,0.363,0.738,1.162,0.617c1.311-0.121,2.812-0.388,4.507-0.801c0.729-0.121,1.261-0.061,1.6,0.184
			c0.34,0.34,0.533,0.593,0.583,0.764c0.021,0.217-0.438,0.41-1.382,0.581c-1.865,0.267-3.743,0.568-5.635,0.907
			c-0.58,0.097-0.884,0.521-0.907,1.272v0.763c-0.024,0.531,0.363,0.764,1.164,0.689c1.622-0.217,3.245-0.398,4.868-0.545
			l1.454-0.362c0.29-0.023,0.496-0.023,0.617,0c0.169,0.05,0.327-0.278,0.474-0.981c0.192-1.769,0.34-3.535,0.436-5.306
			C930.291,442.747,930.013,442.469,929.432,442.541z M927.942,432.62l-0.654,0.109c-0.63,0.097-0.933,0.496-0.907,1.198
			c-0.024,0.945-0.014,1.926,0.036,2.943c0.049,0.582,0.241,0.85,0.58,0.802c0.315-0.024,0.654-0.414,1.019-1.165
			c0.51-1.162,0.823-2.265,0.945-3.308c0.023-0.312,0.071-0.521,0.146-0.618C929.2,432.463,928.814,432.474,927.942,432.62z
			 M931.721,432.075l-1.417,0.184c-0.582,0.097-0.533,0.482,0.146,1.162c0.412,0.63,0.388,1.112-0.072,1.454
			c-0.314,0.482-0.594,0.968-0.836,1.453c-0.388,0.702-0.219,1.004,0.509,0.907l1.018-0.183c0.581-0.096,0.933-0.509,1.055-1.235
			l0.438-2.835C932.678,432.306,932.4,432.003,931.721,432.075z"/>
	</g>
</g>
</svg>
