<?xml version="1.0" encoding="utf-8"?>
<!-- Generator: Adobe Illustrator 16.0.0, SVG Export Plug-In . SVG Version: 6.00 Build 0)  -->
<!DOCTYPE svg PUBLIC "-//W3C//DTD SVG 1.1//EN" "http://www.w3.org/Graphics/SVG/1.1/DTD/svg11.dtd">
<svg version="1.1" id="Capa_1" xmlns="http://www.w3.org/2000/svg" xmlns:xlink="http://www.w3.org/1999/xlink" x="0px" y="0px"
	 width="595.279px" height="841.891px" viewBox="0 0 595.279 841.891" enable-background="new 0 0 595.279 841.891"
	 xml:space="preserve">
<path fill="none" stroke="#8B8B8B" stroke-width="5" stroke-miterlimit="10" d="M297.64,126.281
	c-162.74,0-294.663,131.924-294.663,294.664c0,162.747,131.923,294.663,294.663,294.663c162.74,0,294.663-131.916,294.663-294.663
	C592.303,258.205,460.38,126.281,297.64,126.281z"/>
<path fill="#8B8B8B" d="M368.137,328.987h-44.751c-5.296,0-11.192,6.951-11.192,16.265v32.312h55.938v46.06h-55.938v138.315h-52.831
	V423.624h-47.89v-46.06h47.89v-27.11c0-38.873,26.986-70.491,64.017-70.491h44.752L368.137,328.987L368.137,328.987z"/>
</svg>
