<?xml version="1.0" encoding="utf-8"?>
<!-- Generator: Adobe Illustrator 16.0.0, SVG Export Plug-In . SVG Version: 6.00 Build 0)  -->
<!DOCTYPE svg PUBLIC "-//W3C//DTD SVG 1.1//EN" "http://www.w3.org/Graphics/SVG/1.1/DTD/svg11.dtd">
<svg version="1.1" id="Layer_1" xmlns="http://www.w3.org/2000/svg" xmlns:xlink="http://www.w3.org/1999/xlink" x="0px" y="0px"
	 width="595.275px" height="595.275px" viewBox="0 0 595.275 595.275" enable-background="new 0 0 595.275 595.275"
	 xml:space="preserve">
<g>
	<g>
		<path fill="#FFFFFF" d="M47,292.941c1.335-2.798,4.439-4.797,3.884-8.791c-9.004,1.618-17.89,3.142-26.759,5.148
			c6.423-4.612,13.873-6.056,21.157-7.889c4.794-1.207,11.092-0.348,10.042-8.484c-0.142-1.1,0.98-1.662,2.101-1.728
			c1.592-0.09,3.141,0.58,3.371,2.032c0.909,5.706,4.199,4.323,7.975,3.282c5.238-1.445,10.602-3.219,16.113-1.424
			c2.159,0.704,5.525,1.242,4.727,4.384c-0.682,2.682-3.506,0.804-5.354,0.823c-4.862,0.055-9.747-0.387-14.583-0.061
			c-6.563,0.443-8.476,2.686-8.509,9.304c-0.056,10.74,1.48,21.48,0.029,32.224c-0.455,3.365-0.2,7.874-4.701,8.028
			c-4.639,0.162-8.202-3.013-10.664-6.997c-1.237-1.998-0.037-3.276,1.792-3.409c7.021-0.517,7.444-5.868,8.028-10.894
			c0.372-3.199-0.04-6.481,0.065-9.72c0.171-5.327-1.803-6.001-5.732-2.8C47.125,296.792,46.246,295.669,47,292.941z"/>
		<path fill="#FFFFFF" d="M13.271,324.255c-1.295,4.489-5.559,2.607-8.006,2.791c-2.427,0.185-1.17-3.345-0.99-5.439
			c0.995-11.616,2.63-23.191,2.55-34.883c-0.055-8.199,2.597-15.924,4.018-23.863c1.197-6.675,3.198-13.303,0.871-20.394
			c5.733,2.25,8.978,7.975,6.191,12.468c-7.189,11.605-7.48,24.011-5.915,36.855C9.736,302.719,5.781,313.714,13.271,324.255z"/>
		<path fill="#FFFFFF" d="M13.271,324.255c-6.421-0.519-6.503-6.016-5.958-9.786c0.968-6.687,1.035-13.332,0.775-19.959
			c-0.157-3.973,2.461-2.07,3.902-2.715c0.678,0.442,1.359,0.885,2.038,1.328c3.042,0.167,2.829,2.567,2.603,4.403
			c-0.438,3.566-0.163,7.192-0.967,10.718C15.583,313.687,15.743,319.167,13.271,324.255z"/>
		<path fill="#FFFFFF" d="M61.892,244.718c5.686-2.075,11.38-4.123,17.055-6.226c3.498-1.298,6.819-1.163,9.608,1.46
			c1.862,1.752,4.634,3.56,3.818,6.414c-0.715,2.511-3.721,1.888-5.858,2.014c-3.42,0.195-5.814,2.709-8.872,3.696
			c-1.587,0.513-3.284,0.976-4.569-0.325c-1.485-1.497,0.291-2.472,0.976-3.565c2.047-3.27,0.222-3.187-2.319-2.857
			c-2.804,0.366-5.641,0.464-8.462,0.674C61.938,246.506,61.663,245.881,61.892,244.718z"/>
		<path fill="#FFFFFF" d="M54.366,339.618c6.403-2.413,13.019-0.716,19.531-0.916c1.85-0.057,2.417,1.782,2.404,3.599
			c-0.038,5.46,0,10.919-0.003,16.378c-0.001,1.505-0.175,2.873-2.231,2.784c-2.029-0.086-2.089-1.528-2.099-2.977
			c-0.023-4.65,0.014-9.302-0.027-13.952c-0.016-1.748,0.39-3.74-2.555-3.688c-2.918,0.052-2.482,2.023-2.494,3.784
			c-0.03,4.651,0.001,9.303-0.025,13.953c-0.007,1.426,0.054,2.925-2.105,2.879c-2.145-0.048-2.004-1.593-2.017-2.972
			c-0.038-4.244-0.287-8.516,0.063-12.732c0.388-4.679-1.53-5.731-5.593-4.435C55.995,341.203,54.966,340.766,54.366,339.618z"/>
		<path fill="#FFFFFF" d="M187.643,350.294c0,2.633,0.024,5.264-0.01,7.894c-0.023,1.604,0.175,3.438-2.355,3.245
			c-2.16-0.164-1.758-1.856-1.776-3.163c-0.056-4.655-0.062-9.311-0.01-13.966c0.024-2.006-0.1-3.569-2.815-3.454
			c-2.553,0.104-2.244,1.824-2.26,3.385c-0.037,4.656,0.001,9.312-0.021,13.966c-0.009,1.638,0.077,3.483-2.387,3.259
			c-2.067-0.187-1.746-1.897-1.763-3.247c-0.046-3.846-0.022-7.691-0.017-11.537c0.008-8.02,2.783-10.103,10.699-8.215
			c1.919,0.459,2.741,1.435,2.718,3.336C187.616,344.626,187.642,347.46,187.643,350.294z"/>
		<path fill="#FFFFFF" d="M25.034,331.596c5.093-2.156,9.371-1.597,14.167-1.008c-6.28,2.178-4.697,7.131-4.723,11.475
			c-0.03,5.059,0.085,10.117-0.026,15.177c-0.032,1.591,0.88,4.073-2.004,4.179c-3.487,0.128-2.228-2.719-2.261-4.424
			c-0.125-6.476-0.067-12.952-0.041-19.426C30.161,334.48,30.85,330.969,25.034,331.596z"/>
		<path fill="#FFFFFF" d="M72.197,295.593c8.24,1.082,14.667,3.058,19.662,8.313c1.54,1.62,2.946,3.35,2.633,5.857
			c-0.173,1.408-0.035,3.049-1.469,3.771c-1.59,0.805-2.584-0.652-3.567-1.574C84.037,306.868,78.66,301.732,72.197,295.593z"/>
		<path fill="#FFFFFF" d="M53.258,248.142c-5.628,0.161-9.917,2.348-12.747,7.507c-0.755,1.378-2.914,2.044-4.511,2.882
			c-1.234,0.649-2.458,0.147-3.242-0.857c-0.779-0.996-1.159-2.527-0.13-3.348c3.973-3.167,5.398-7.979,8.123-11.937
			c1.694-2.462,3.697-2.271,3.918,0.776c0.326,4.493,3.162,3.848,5.993,3.707C51.912,246.511,53.299,245.862,53.258,248.142z"/>
		<path fill="#FFFFFF" d="M57.603,256.859c0.058-0.994-0.026-2.095,1.088-2.576c1.006-0.433,2.133-0.211,2.767,0.584
			c0.856,1.08,1.531,2.35,2.076,3.627c1.556,3.648,3.856,5.703,7.982,3.887c1.992-0.875,3.716-0.785,4.397,1.439
			c0.814,2.663-1.721,2.837-3.238,3.383C66.695,269.351,57.728,263.127,57.603,256.859z"/>
		<path fill="#FFFFFF" d="M15.662,308.243c-1.03-4.987,1.643-10.375-1.636-15.121c1.02-2.619,1.923-5.295,3.084-7.851
			c1.896-4.174,3.961-8.273,6.7-12.187C20.697,284.751,18.114,296.484,15.662,308.243z"/>
		<path fill="#FFFFFF" d="M47,292.941c0.215,1.779,1.164,2.83,2.984,3.031c-5.067,5.271-12.46,7.426-17.33,12.979
			c-0.748,0.85-1.855,1.933-3.08,0.71c-1.539-1.529-0.097-2.627,0.927-3.463C35.961,301.73,41.492,297.351,47,292.941z"/>
		<path fill="#FFFFFF" d="M152.037,359.27c2.799,0.157,3.825-1.028,3.653-3.93c-0.259-4.407-0.126-8.843-0.044-13.265
			c0.028-1.416-0.746-3.445,1.87-3.6c2.571-0.155,2.379,1.742,2.223,3.283c-0.644,6.26,1.542,12.7-1.176,18.827
			C156.325,360.456,153.609,362.709,152.037,359.27z"/>
		<path fill="#FFFFFF" d="M47.098,266.577c-0.023,3.309-1.811,5.66-4.269,7.551c-2.138,1.649-4.245,1.088-5.807-0.843
			c-1.667-2.06,0.2-3.088,1.536-4.333c1.445-1.347,2.622-2.975,3.988-4.414c0.9-0.95,1.635-2.595,3.34-1.727
			C47.382,263.58,47.054,265.198,47.098,266.577z"/>
		<path fill="#FFFFFF" d="M54.366,339.618c1.204,0.141,2.311,0.445,2.85,1.7c0.072,5.425,0.196,10.852,0.177,16.279
			c-0.004,1.426,0.723,3.549-1.747,3.744c-2.5,0.202-2.254-1.807-2.147-3.355C53.924,351.866,52.378,345.654,54.366,339.618z"/>
		<path fill="#FFFFFF" d="M147.335,360.335c-0.363-0.081-0.496-0.299-0.41-0.657c-0.608-6.817-0.666-13.631,0.026-20.444
			c0.243-0.702,0.712-0.896,1.394-0.627c2.649,1.298,1.597,3.757,1.803,5.805c0.492,4.872-0.957,9.852,0.778,14.662l-0.031-0.028
			C150.615,361.975,148.893,360.936,147.335,360.335z"/>
		<path fill="#FFFFFF" d="M150.929,359.074c-2.737-2.711-0.944-6.11-1.359-9.17c-0.506-3.752,0.931-7.715-1.223-11.297
			c3.525-0.054,2.233,2.643,2.297,4.315C150.85,348.301,150.847,353.689,150.929,359.074z"/>
		<path fill="#FFFFFF" d="M146.953,339.234c-0.009,6.813-0.02,13.627-0.026,20.441C145.909,352.861,145.861,346.048,146.953,339.234
			z"/>
		<path fill="#FFFFFF" d="M53.258,248.142c-0.864-0.423-1.731-0.849-2.596-1.268c3.603-1.453,7.429-1.732,11.23-2.155
			c0.458,0.426,0.915,0.856,1.376,1.286C59.931,246.718,56.593,247.427,53.258,248.142z"/>
		<path fill="#FFFFFF" d="M147.335,360.335c1.315-0.079,2.761,0.207,3.561-1.29c0.417-0.1,0.796-0.025,1.142,0.225
			c1.878,1.913,4.394,0.655,6.526,1.313C154.788,361.92,151.03,362.513,147.335,360.335z"/>
		<path fill="#FFFFFF" d="M134.544,277.483c-0.002-2.819,0.961-5.06,2.542-7.264c1.178-1.642,1.876-3.123,0.208-5.374
			c-5.084-6.862-4.183-10.964,3.072-15.25c3.264-1.928,5.838-4.299,7.277-7.82c1.462-3.573-0.637-8.74-4.333-9.948
			c-4.7-1.542-2.521,3.387-4.183,4.839c-1.062,0.933-0.795,3.498-2.962,3.151c-1.832-0.293-1.971-2.166-2.441-3.762
			c-1.207-4.086-4.075-5.993-8.839-5.956c8.479,12.969,4.828,23.359-5.466,32.617c1.505-0.364,3.012-0.724,4.521-1.09
			c1.242-1.323,2.799-2.68,4.333-0.98c1.14,1.259,1.398,3.234-0.755,4.357c-3.908,6.501-11.516,6.885-19.044,10.74
			c4.235,0.562,6.789,1.35,9.25,1.13c5.239-0.468,5.737,1.733,3.688,5.659c-2.795,5.363-4.822,11.183-9.277,15.572
			c-2.182,2.147-2.369,4.737-0.671,7.156c1.785,2.547,4.282,0.836,6.021,0.048c2.911-1.318,5.403-3.526,8.193-5.151
			c1.64-0.954,3.639-1.662,3.812,1.465c0.258,4.627,1.212,9.271-0.15,13.885c-0.595,2.017-1.299,4.128-3.921,3.811
			c-5.254-0.631-4.119,1.965-2.622,4.859c0.651,1.255,1.365,2.48,1.952,3.77c2.03,4.436,3.98,4.626,7.08,0.681
			c1.686-2.141,2.669-4.667,2.827-7.264c0.352-5.856,0.75-11.771,0.316-17.602c-0.549-7.42,0.159-14.046,6.607-18.907
			c0.631-0.474,1.424-1.505,0.401-2.526C135.467,285.652,134.553,284.976,134.544,277.483z M121.203,294.303
			c2.096-3.042,4.192-6.084,6.429-9.328C130.122,290.677,129.036,292.551,121.203,294.303z"/>
		<g>
			<path fill="#FFFFFF" d="M190.102,273.676c0.287,0.123,0.583,0.196,0.898,0.195C190.679,273.78,190.381,273.718,190.102,273.676z"
				/>
			<path fill="#FFFFFF" d="M208.345,293.853c-3.392-1.87-6.636-3.313-10.9-2.207c-5.737,1.492-7.284-0.107-7.373-6.015
				c-0.021-1.406-0.033-2.815-0.055-4.225c-0.249-1.689-1.112-2.4-2.312-2.584l-0.771-0.86l4.065-4.088
				c-0.317,0.001-0.612-0.073-0.898-0.195c-3.869-0.572-3.84,3.423-5.441,5.515c0.272,0.05,0.563,0.004,0.87-0.124
				c-1.144,1.458-0.803,3.465-0.912,5.256c-0.423,6.854-1.275,7.917-7.845,9.104c-1.727,0.31-3.842,1.227-4.922-0.803
				c-1.14-2.131,0.427-3.841,1.9-5.237c3.08-2.918,6.8-4.996,10.204-7.493c0.272-0.191,0.501-0.436,0.707-0.706h-0.001
				c1.602-2.09,1.573-6.086,5.441-5.515c-1.355-0.568-2.426-2.221-3.877-2.247c1.452,0.025,2.524,1.678,3.879,2.247
				c0.278,0.042,0.576,0.104,0.898,0.195c2.291-2.286,4.716-4.46,6.835-6.894c2.223-2.548,3.194-6.375,0.122-7.96
				c-5.449-2.816-5.982-7.043-5.836-12.121c0.065-2.205-0.002-4.333-2.785-5.411c-2.984-1.157-4.487,0.473-6.242,2.263
				c-3.747,3.819-5.925,8.656-8.758,13.069c-0.721,1.122-1.973,2.502-3.101,2.619c-1.667,0.174-1.885-1.817-2.066-3.098
				c-0.665-4.635-3.784-6.725-7.791-8.184c-1.707-0.624-3.435-2.102-4.725,0.162c-1.27,2.23,1.344,2.517,2.339,3.492
				c6.077,5.951,5.716,13.849-0.956,18.988c-2.245,1.731-4.523,3.42-6.715,5.216c-1.957,1.602-2.593,3.576-1.194,5.895
				c1.916,3.175,6.234,6.046,5.014,9.638c-1.189,3.508-5.038,6.115-7.721,9.113c-0.27,0.302-0.556,0.592-0.842,0.876
				c-1.614,1.616-3.584,3.592-1.598,5.667c1.695,1.773,3.648-0.419,5.356-1.26c4.261-2.104,8.269-5.393,13.475-2.644
				c-0.382,4.615-0.858,9.229-1.095,13.853c-0.091,1.784,0.2,4.303,2.182,4.469c2.475,0.213,2.843-2.386,3.212-4.378
				c0.701-3.767-0.269-7.693,1.087-11.399c-2.175-0.046-3.628-1.62-5.386-2.544h0.001c1.757,0.924,3.208,2.496,5.383,2.542v-0.001
				c-0.002-0.007-0.006-0.01-0.008-0.017c0.002,0.007,0.007,0.013,0.009,0.02v0.001c0.398-0.056,0.768-0.188,1.107-0.403v-0.001
				c2.006,1.672,4.014,3.345,6.021,5.016c-0.343-0.469-0.505-0.902-0.511-1.301c0.006,0.399,0.167,0.831,0.511,1.299
				c0.117-1.21,0.527-2.236,1.745-2.75c-0.208-0.154-0.415-0.31-0.619-0.463c0,0,0,0-0.001,0c-1.664-1.238-3.327-2.475-4.989-3.714
				c-0.64,0.729-1.375,1.347-2.158,1.913v-0.001c0.783-0.564,1.518-1.184,2.158-1.912c-0.23-0.172-0.461-0.34-0.689-0.514l0,0
				c2.668-5.223,7.571-4.872,12.23-4.628c1.665,0.086,3.694,9.117,2.325,10.964c-2.194,2.962-4.057-0.245-6.063-0.747
				c-0.758-0.188-1.465-0.593-2.194-0.898c-1.216,0.514-1.628,1.541-1.744,2.75c3.303,3.815,6.47,7.762,9.95,11.407
				c3.271,3.429,5.603,1.853,5.779-2.167c0.222-4.963-0.351-9.971-0.762-14.942c-0.514-6.199,1.429-8.083,7.677-7.001
				c2.579,0.447,5.095,1.34,7.684,1.639c1.604,0.187,3.284-0.486,3.824-2.334C211.006,295.258,209.586,294.536,208.345,293.853z
				 M158.702,288.788c-3.132,0.246-4.924-3.808-5.419-7.096c-0.312-2.082,6.18-6.949,8.563-6.645
				c3.153,0.402,1.917,2.885,2.125,4.755C163.359,283.505,163.301,288.428,158.702,288.788z M188.128,255.333
				c1.475-0.181,7.176,7.564,7.071,9.573c-0.139,2.573-2.495,1.726-3.724,1.836c-2.54,0.22-5.384-3.934-5.338-7.39
				C186.391,257.907,185.483,255.66,188.128,255.333z M181.221,252.793c0.906-0.835,2.046-2.643,3.411-1.247
				c1.343,1.377,1.242,3.595-0.141,4.94c-2.165,2.112-4.821,3.467-8.204,2.729C176.524,255.878,179.262,254.597,181.221,252.793z
				 M170.219,280.093c-0.371-9.389,4.537-15.307,12.858-15.987c1.048-0.086,2.034,0.069,2.545,1.131
				c0.622,1.296,0.034,2.362-0.891,3.212C180.223,272.61,175.89,277.003,170.219,280.093z"/>
		</g>
		<path fill="#FFFFFF" d="M132.116,355.444c-0.334-3.383-0.343-6.845-0.041-10.229c0.462-5.194-1.379-6.892-6.787-6.994
			c-5.713-0.106-7.495,1.752-6.641,7.09c0.251,1.573,0.039,3.22,0.035,4.831c-0.006,1.815,0.177,3.649-0.042,5.44
			c-0.502,4.084,0.269,6.483,5.292,6.014C128.166,361.202,132.79,362.29,132.116,355.444z M122.63,343.361
			c-0.275-2.323,1.123-2.619,2.988-2.57c3.146,0.076,1.83,2.463,2.16,3.816c0.062,2.014-0.334,3.293-2.66,3.186
			C121.745,347.637,122.843,345.168,122.63,343.361z M127.688,355.11c0.203,1.786,0.784,4.235-2.625,3.999
			c-3.855-0.265-1.802-3.212-2.41-4.744c0.048-2.123-0.564-4.422,2.727-4.211C129.217,350.398,127.486,353.318,127.688,355.11z"/>
		<path fill="#FFFFFF" d="M101.015,338.447c-8.126-1.592-10.203-0.005-10.198,8.041c0.001,1.218,0,2.436,0.004,3.653
			c0,2.842-0.024,5.684,0.011,8.524c0.016,1.419-0.1,2.963,2.134,2.767c1.687-0.149,1.802-1.302,1.818-2.553
			c0.028-2.029,0.099-4.063-0.003-6.088c-0.089-1.815,0.614-2.494,2.436-2.542c1.841-0.051,2.588,0.635,2.534,2.434
			c-0.054,1.826-0.019,3.65-0.003,5.481c0.011,1.643-0.139,3.374,2.364,3.289c2.033-0.071,2.137-1.411,2.132-2.92
			c-0.02-5.479-0.028-10.96-0.026-16.438C104.219,339.92,103.18,338.872,101.015,338.447z M97.339,347.771
			c-3.3-0.039-2.473-2.378-2.62-4.239c-0.164-2.072,0.778-2.81,2.825-2.761c3.047,0.073,2.013,2.302,2.207,3.066
			C99.862,346.388,99.726,347.802,97.339,347.771z"/>
		<path fill="#D9292B" d="M219.884,317.242c0.801,0.234,1.564,0.724,2.522,0.818c-0.206-1.04-1.042-1.532-1.409-2.227
			C220.765,316.422,220.418,316.911,219.884,317.242z"/>
		<path fill="#D9292B" d="M220.997,315.835c-0.049-0.096-0.083-0.196-0.114-0.299c-0.457,0.543-0.909,1.087-1.366,1.63
			c0.122,0.022,0.247,0.04,0.366,0.075C220.418,316.911,220.765,316.422,220.997,315.835z"/>
		<path fill="#D9292B" d="M219.517,317.166c-0.108,0.128-0.218,0.261-0.324,0.388c0.27-0.072,0.487-0.187,0.691-0.312
			C219.764,317.206,219.639,317.186,219.517,317.166z"/>
		<path fill="#D9292B" d="M220.883,315.536c0.029,0.103,0.064,0.203,0.114,0.299c0.088-0.224,0.168-0.459,0.23-0.706v-0.002v-0.001
			C221.11,315.263,220.998,315.4,220.883,315.536z"/>
		<path fill="#D62923" d="M417.808,324.516c-0.268,3.325,2.088,3.475,4.422,1.945c3.279-2.148,6.243-2.509,8.873,0.938
			c0.142-0.146,0.283-0.295,0.422-0.442c-0.249-1.034-0.83-1.812-1.709-2.4c-3.124-2.081-6.621,0.86-9.325-0.315
			c-2.358-1.025-2.259-5.675-5.984-5.718c-0.069,0.206-0.115,0.426-0.143,0.658C415.925,320.593,418.053,321.47,417.808,324.516z"/>
		<path fill="#92403F" d="M556.454,335.763c-1.442,0.583-3.283-0.456-4.446,1.035c-0.223,0.286-0.085,1.195,0.211,1.49
			c1.917,1.919,8.258-0.557,9.188-3.538C559.91,335.844,558.247,336.122,556.454,335.763z"/>
		<polygon fill="#CB2B20" points="212.582,324.822 246.847,285.059 281.112,324.822 246.847,365.174 		"/>
		<path fill="#FFFFFF" stroke="#FFFFFF" stroke-width="1.1752" stroke-miterlimit="10" d="M240.043,315.803
			c0.198-0.341,0.47-0.399,0.811-0.172c0.567,0.74,0.965,1.609,1.196,2.605c0,0.229-0.37,0.741-1.11,1.539l-2.308,2.948
			c-0.312,0.427-0.466,0.982-0.466,1.665c0.082,6.464,0.099,12.926,0.039,19.39c0.172,1.053-0.1,1.65-0.808,1.791
			c-1.595-1.449-2.093-2.773-1.494-3.972c0.283-0.965,0.457-2.049,0.514-3.245l-0.086-11.66c0-0.739-0.385-0.654-1.151,0.257
			c-1.282,1.396-2.676,2.833-4.187,4.313c-0.828,0.74-1.311,1.11-1.452,1.11c-0.682,0.058-0.856-0.229-0.513-0.856
			c4.413-4.527,7.418-8.143,9.011-10.847C238.976,319.162,239.644,317.54,240.043,315.803z M240.086,306.151
			c0.171-0.313,0.412-0.383,0.726-0.215c0.17,0.143,0.411,0.498,0.723,1.068c0.883,1.024,0.8,1.879-0.256,2.562l-2.306,3.418
			c-2.222,3.274-4.713,6.147-7.476,8.627c-0.367,0.028-0.611-0.114-0.723-0.427c0-0.171,0.367-0.667,1.107-1.493
			C236.554,314.478,239.289,309.967,240.086,306.151z M242.219,335.277c0.229-1.166,0.442-1.764,0.644-1.79
			c0.198,0,0.382,0.04,0.554,0.126c0.171,0.143,0.257,0.656,0.257,1.539c0.085,1.991-0.286,3.985-1.111,5.98
			c-0.598,1.023-0.996,1.536-1.195,1.536c-0.2-0.057-0.528-0.526-0.982-1.41c-0.316-0.739-0.229-1.307,0.255-1.706
			C241.266,338.808,241.793,337.385,242.219,335.277z M256.955,327.166c1.992-0.315,3.759-0.684,5.299-1.11
			c0.654,0.084,1.25,0.684,1.791,1.791c-0.085,0.201-0.571,0.37-1.452,0.515l-18.28,2.69c-1.052,0.256-2.05-0.112-2.988-1.109
			c0.141-0.626,0.795-0.841,1.963-0.642L256.955,327.166z M251.446,306.109c-0.086-0.911,0-1.396,0.256-1.451
			c0.2,0,0.712,0.413,1.539,1.238c0.625,0.626,0.755,1.198,0.383,1.709c-0.2,0.484-0.383,1.324-0.555,2.522
			c-0.114,0.766,0.142,1.095,0.769,0.981c2.93-0.428,5.539-1.011,7.813-1.751c0.826-0.057,1.496,0.468,2.007,1.581
			c0,0.172-0.042,0.312-0.125,0.427c-0.143,0.113-0.5,0.212-1.069,0.298c-2.932,0.428-5.864,0.897-8.796,1.409
			c-0.684,0.143-1.126,0.642-1.325,1.493l-0.171,0.856c-0.116,0.798,0.126,1.14,0.724,1.025l4.784-0.812
			c0.57-0.143,1.167-0.398,1.795-0.77c0.825-1.025,1.605-0.683,2.348,1.025c0,0.115-0.2,0.558-0.601,1.324
			c-0.399,1.311-0.682,2.577-0.854,3.801c-0.114,0.685,0.256,1.324,1.111,1.921c0.312,0.344,0.398,0.628,0.256,0.857
			c-0.314,0.285-0.84,0.399-1.581,0.341c-5.523,0.542-10.023,1.152-13.496,1.836c-0.709,0.142-1.067,0.384-1.067,0.725
			c0.085,0.656-0.115,1.084-0.599,1.282c-0.427-0.171-0.783-0.626-1.067-1.367c-0.398-0.767-0.498-1.48-0.298-2.132l0.042-2.051
			l-0.172-4.741c-0.027-0.854,0-1.324,0.085-1.409c0.456-0.226,0.812,0.017,1.067,0.726c0.199,0.428,0.726,0.585,1.581,0.47
			c1-0.198,2.036-0.357,3.117-0.47c0.599-0.056,0.969-0.555,1.111-1.493c0.083-0.285,0.126-0.569,0.126-0.856
			c0.085-0.685-0.299-0.982-1.151-0.896l-3.373,0.597c-1.483,0.484-2.621,0.456-3.418-0.085c-0.74-0.198-0.967-0.611-0.684-1.239
			c1.168-0.084,2.335-0.241,3.5-0.468l4.53-0.767c0.683-0.143,1.067-0.642,1.153-1.496
			C251.318,308.9,251.417,307.504,251.446,306.109z M246.919,319.136l-0.642,0.083c-0.709,0.144-1.025,0.271-0.94,0.384
			c0.029,1.225,0.1,2.449,0.213,3.674c0.03,0.74,0.458,1.054,1.284,0.938c0.965-0.113,1.438-0.554,1.407-1.323v-2.648
			C248.214,319.39,247.773,319.02,246.919,319.136z M245.724,333.527c0.056-0.313,0.241-0.456,0.554-0.425
			c0.144,0,0.471,0.425,0.984,1.282c2.563,4.783,6.094,7.358,10.593,7.729c0.709,0,0.965-0.385,0.767-1.153l-0.897-3.115
			l-0.171-1.024c0.568-0.542,0.983-0.386,1.24,0.466c0.683,1.766,1.479,3.474,2.392,5.125c0.995,1.251,0.981,1.994-0.044,2.222
			c-2.165,0.199-4.441-0.157-6.833-1.067C250.008,341.799,247.147,338.454,245.724,333.527z M251.871,318.367l-0.641,0.128
			c-0.797,0.113-1.196,0.482-1.196,1.107c-0.027,1-0.015,2.036,0.044,3.118c0.025,0.683,0.466,0.969,1.323,0.854l0.685-0.085
			c0.77-0.083,1.138-0.523,1.111-1.325v-2.647C253.169,318.665,252.728,318.279,251.871,318.367z M250.208,331.051
			c0.171-0.172,0.767,0.072,1.792,0.727c0.569,0.399,1.139,0.84,1.708,1.324c1.225,0.909,1.438,2.233,0.642,3.972
			c-0.369,0.058-0.683-0.113-0.94-0.515c-0.939-1.592-1.936-3.016-2.99-4.271C250.05,331.976,249.979,331.562,250.208,331.051z
			 M257.894,317.427l-0.855,0.126l-1.025,0.173c-0.684,0.17-1.053,0.683-1.111,1.537c-0.058,0.769-0.071,1.58-0.041,2.435
			c0.057,0.909,0.513,1.279,1.365,1.11l0.942-0.173c0.709-0.086,1.151-0.554,1.323-1.409l0.555-3.072
			C259.191,317.412,258.806,317.17,257.894,317.427z M258.066,331.479c0.115-0.142,0.599-0.028,1.453,0.341
			c1.25,0.568,2.504,1.309,3.755,2.223c1.026,0.455,1.541,1.209,1.541,2.263c0.057,1.081,0.026,1.682-0.085,1.793
			c-0.399,0.369-0.897,0.126-1.493-0.726c-1.342-1.423-2.892-2.889-4.655-4.399C258.009,332.461,257.838,331.964,258.066,331.479z"
			/>
		<polygon fill="#CB2B20" points="324.439,365.174 290.175,324.822 324.439,285.059 358.707,324.822 		"/>
		<path fill="#FFFFFF" stroke="#FFFFFF" stroke-width="1.1752" stroke-miterlimit="10" d="M317.671,308.7
			c0.515-0.114,1.025-0.183,1.54-0.214c0.854-0.086,1.48,0.043,1.879,0.386c0.654,0.512,0.755,0.925,0.299,1.237l-3.501,0.641
			c-0.683,0.142-1.024,0.559-1.024,1.241l-0.086,6.235c0,0.683,0.454,0.926,1.366,0.727c0.398-0.115,0.797-0.186,1.196-0.217
			c0.569-0.054,1.141,0.101,1.709,0.472c0.458,0.316,0.567,0.641,0.341,0.982c-0.227,0.255-0.726,0.414-1.493,0.47
			c-0.683,0.082-1.384,0.213-2.094,0.383c-0.683,0.171-1.024,0.6-1.024,1.282l-0.085,7.559c0,0.856,0.458,1.068,1.367,0.643
			c0.967-0.457,1.936-0.869,2.905-1.239c0.682-0.344,1.096-0.218,1.238,0.385c-0.027,0.197-0.469,0.555-1.324,1.066
			c-3.53,1.966-7.061,3.857-10.593,5.681c-0.513,0.457-1.082,0.457-1.709,0c-1.054-0.8-1.538-1.283-1.449-1.451
			c0.143-0.173,0.367-0.315,0.683-0.43c1.965-0.654,3.93-1.365,5.895-2.132c0.769-0.313,1.153-0.783,1.153-1.408l0.084-8.33
			c0-0.683-0.458-0.924-1.366-0.727c-1.709,0.543-2.89,0.529-3.547-0.042c-0.655-0.455-0.784-0.854-0.384-1.195
			c1.309-0.199,2.664-0.456,4.058-0.769c0.796-0.172,1.197-0.555,1.197-1.154l0.083-6.191c0.028-0.857-0.398-1.21-1.28-1.069
			c-1.196,0.316-2.222,0.399-3.076,0.258c-0.854-0.171-1.296-0.612-1.323-1.323c0.115-0.115,0.599-0.243,1.452-0.386
			c1.109-0.058,2.276-0.269,3.5-0.641C315.392,309.145,316.531,308.903,317.671,308.7z M322.155,330.313
			c0.225-1.025,0.441-1.58,0.642-1.666c0.823,0.058,1.081,0.583,0.769,1.58c-0.028,2.248-0.443,4.229-1.242,5.936
			c-0.566,0.799-0.939,1.169-1.107,1.111c-0.601-0.368-0.911-1.124-0.941-2.264c0.06-0.285,0.284-0.711,0.683-1.282
			C321.471,332.707,321.87,331.563,322.155,330.313z M337.016,306.094c0.74-0.224,1.483,0.187,2.224,1.242
			c0.026,0.598-0.458,0.854-1.452,0.767l-4.783,0.769c-0.683,0.171-1.026,0.597-1.026,1.281v1.622c0,0.684,0.458,0.926,1.368,0.726
			l2.05-0.466c0.769-0.26,1.494,0.126,2.18,1.149c-0.029,0.258-0.597,0.501-1.707,0.727l-2.864,0.515
			c-0.682,0.143-1.026,0.557-1.026,1.239v1.449c0,0.686,0.428,0.94,1.284,0.77c0.998-0.197,1.991-0.47,2.99-0.812
			c0.342-0.056,0.626-0.024,0.854,0.085c0.77,0.66,1.139,1.1,1.11,1.325c-0.143,0.229-0.77,0.44-1.88,0.641l-3.248,0.599
			c-0.709,0.171-1.067,0.599-1.067,1.283v1.281c0.027,0.854,0.5,1.181,1.409,0.982c1.54-0.342,3.075-0.626,4.612-0.855
			c0.484,0.027,0.911-0.172,1.282-0.602c0.568-0.736,1.252-0.61,2.05,0.386c0.54,0.599,0.525,1.084-0.041,1.452
			c-0.428,0.257-0.683,0.866-0.769,1.835c-1.481,7.744-3.007,13.441-4.573,17.083c-0.425,0.997-0.853,1.539-1.279,1.623
			c-0.115,0-0.513-0.424-1.196-1.28l-2.435-3.417c-0.827-1.053-1.239-1.667-1.239-1.836c0.199-0.711,0.641-0.782,1.325-0.217
			l2.263,2.436c0.683,0.656,1.252,0.583,1.709-0.215c1.65-4.214,2.804-8.995,3.459-14.35c0.084-0.74-0.286-1.069-1.109-0.984
			c-3.93,0.658-7.859,1.369-11.789,2.136c-0.683,0.116-1.067,0.369-1.151,0.769c0.115,0.598-0.1,0.926-0.64,0.981
			c-0.458-0.113-0.912-0.684-1.367-1.707c-0.117-0.571-0.117-1.14,0-1.709c0.798-4.215,0.809-9.781,0.042-16.699
			c-0.059-0.854-0.042-1.35,0.043-1.493c0.741-0.316,1.208,0.058,1.408,1.106c0.198,0.571,0.727,0.8,1.58,0.683
			C329.459,307.803,333.26,307.035,337.016,306.094z M324.844,314.981c-0.142-0.144-0.214,0.113-0.214,0.767v8.072
			c0,0.683,0.456,0.925,1.366,0.726c1.054-0.229,2.106-0.412,3.161-0.555c0.683-0.143,1.024-0.559,1.024-1.241
			c-0.058-0.456-0.073-0.922-0.043-1.407c0-0.656-0.385-0.9-1.152-0.727c-0.457,0.086-0.91,0.215-1.367,0.386
			c-0.624,0.081-1.238,0.015-1.836-0.216c-0.428-0.084-0.684-0.344-0.769-0.767c-0.057-0.403,0.341-0.613,1.198-0.641l2.861-0.472
			c0.683-0.172,1.025-0.597,1.025-1.279v-1.583c0-0.681-0.428-0.966-1.282-0.854c-0.426,0.056-0.854,0.156-1.279,0.297
			C326.625,315.833,325.728,315.664,324.844,314.981z M328.817,309.643l-0.77,0.126c-0.768,0.085-1.549,0.229-2.348,0.426
			c-0.683,0.2-1.025,0.641-1.025,1.323v1.539c0,0.683,0.428,0.983,1.283,0.897c0.94-0.113,1.923-0.283,2.947-0.514
			c0.798-0.2,1.196-0.583,1.196-1.151v-1.793C330.098,309.812,329.671,309.526,328.817,309.643z M325.742,328.817
			c0.199-0.057,0.541,0.341,1.026,1.197c0.512,0.997,0.968,1.992,1.365,2.989c0.313,0.798,0,1.723-0.938,2.775
			c-0.143,0.086-0.285,0.128-0.427,0.128c-0.372-0.229-0.57-0.84-0.599-1.835c-0.173-1.14-0.398-2.278-0.684-3.418
			C325.401,329.574,325.486,328.961,325.742,328.817z M329.074,328.052c0.143-0.117,0.583,0.24,1.323,1.062
			c0.542,0.712,1.026,1.427,1.453,2.139c0.342,0.567,0.498,1.137,0.468,1.706c-0.171,0.854-0.455,1.494-0.854,1.923
			c-0.484-0.026-0.784-0.397-0.897-1.111c-0.341-1.139-0.74-2.277-1.198-3.413c-0.367-0.911-0.556-1.54-0.556-1.882
			C328.844,328.332,328.931,328.194,329.074,328.052z M332.619,327.324c0.283-0.485,0.799-0.229,1.539,0.767
			c0.513,0.568,0.968,1.14,1.367,1.706c0.996,0.802,1.024,2.009,0.085,3.632c-0.259,0.229-0.515,0.172-0.77-0.171
			c-0.654-1.651-1.366-3.306-2.135-4.956C332.505,328.077,332.475,327.749,332.619,327.324z"/>
		<polygon fill="#CB2B20" points="402.034,365.174 367.767,324.822 402.034,285.059 436.299,324.822 		"/>
		<path fill="#FFFFFF" stroke="#FFFFFF" stroke-width="1.1752" stroke-miterlimit="10" d="M393.356,320.985
			c0.171-0.54,0.454-0.782,0.855-0.724c0.341,0.114,0.427,0.724,0.258,1.835l-3.845,13.667c-0.455,1.937-1.012,3.647-1.666,5.126
			c-0.427,1.139-1.196,0.925-2.306-0.641c-0.94-0.911-1.78-1.781-2.522-2.608c-0.2-0.366-0.157-0.666,0.128-0.896
			c0.142-0.114,0.712,0.014,1.709,0.385c0.938,0.341,1.622,0.084,2.049-0.771c0.74-1.707,1.552-3.984,2.433-6.831
			C391.477,326.682,392.444,323.835,393.356,320.985z M384.687,317.739c0.54-0.282,1.137-0.17,1.79,0.343
			c0.943,0.484,1.925,1.067,2.95,1.75c0.796,0.627,1.039,1.709,0.724,3.247c-0.456,0.54-0.854,0.526-1.196-0.044l-2.522-2.904
			c-1.081-1.081-1.638-1.722-1.664-1.922L384.687,317.739z M388.187,308.132c0-0.315,0.129-0.471,0.385-0.471
			c0.91,0.256,2.461,1.099,4.654,2.521c0.8,0.827,1.026,1.893,0.685,3.203c-0.171,0.344-0.399,0.459-0.685,0.344
			c-1.195-1.339-2.449-2.691-3.755-4.058C388.616,308.902,388.187,308.386,388.187,308.132z M414.37,313.639
			c0.882-0.398,1.765,0.117,2.647,1.54c-0.115,0.513-0.512,0.754-1.195,0.726c-1.596,0.2-3.206,0.441-4.827,0.724
			c-0.597,0.086-0.555,0.584,0.128,1.494c0.74,0.855,0.684,1.61-0.172,2.265c-0.343,0.515-0.568,1.082-0.684,1.708
			c-0.855,2.591-1.935,5.126-3.247,7.602c-0.37,0.714-0.27,1.484,0.301,2.307c3.529,5.781,7.23,8.787,11.104,9.013
			c1.167-0.114,1.707,0.301,1.623,1.241c-0.144,0.171-0.642,0.342-1.497,0.512c-1.394,0.057-2.805,0.217-4.228,0.471
			c-0.768,0.113-1.21,0.155-1.324,0.126c-0.428-0.026-0.783-0.326-1.067-0.897c-1.934-2.848-3.816-5.693-5.638-8.541
			c-0.598-0.912-1.167-0.969-1.707-0.172c-3.902,5.154-8.643,8.939-14.224,11.36c-0.826-0.426-0.612-0.954,0.642-1.58
			c4.611-2.506,8.782-6.321,12.511-11.446c0.542-0.854,0.526-1.707-0.042-2.562c-2.506-3.701-4.428-6.377-5.764-8.028
			c0.057-0.541,0.399-0.783,1.024-0.727c0.74,0.028,1.308,0.229,1.707,0.598c1.283,2.136,2.663,4.312,4.143,6.537
			c0.483,0.709,0.955,0.641,1.409-0.217c1.765-3.444,2.748-6.662,2.947-9.65c0-0.686-0.427-0.969-1.281-0.855
			c-3.274,0.542-6.55,1.139-9.823,1.792c-1.651,0.315-2.848-0.1-3.588-1.24c0.143-0.366,0.455-0.554,0.939-0.554
			c0.711,0.057,1.936-0.101,3.673-0.47c4.556-0.798,9.111-1.65,13.668-2.563L414.37,313.639z M402.967,305.312
			c0.483-0.426,1.039-0.171,1.664,0.768l2.776,3.416c0.513,0.399,0.699,0.969,0.557,1.709c-0.284,1.48-0.798,2.221-1.538,2.221
			c-0.229-0.227-0.458-0.74-0.683-1.537c-0.741-1.937-1.54-3.646-2.392-5.126C403.065,305.909,402.938,305.427,402.967,305.312z"/>
		<polygon fill="#CB2B20" points="479.627,365.174 445.361,324.822 479.627,285.059 513.893,324.822 		"/>
		<path fill="#FFFFFF" stroke="#FFFFFF" stroke-width="1.1752" stroke-miterlimit="10" d="M468.278,305.515
			c0.228-0.226,0.583-0.17,1.067,0.172c1.251,0.769,1.891,1.538,1.922,2.307c-0.541,1.938-0.783,4.783-0.726,8.543
			c-0.026,0.655,0.415,0.897,1.324,0.726c0.597-0.144,1.198-0.242,1.793-0.3c0.854-0.026,1.494,0.128,1.923,0.47
			c0.882,0.767,0.796,1.267-0.257,1.493c-1.253,0.058-2.507,0.216-3.757,0.469c-0.686,0.172-1.026,0.599-1.026,1.281
			c-0.058,6.209-0.015,12.415,0.128,18.622c-0.028,1.396-0.114,2.832-0.256,4.312c-0.316,0.885-0.527,1.354-0.641,1.41
			c-0.316,0.087-0.613-0.157-0.9-0.726c-0.909-1.166-1.237-2.265-0.981-3.288c0.285-0.798,0.455-1.98,0.516-3.546
			c0.312-4.812,0.412-10.293,0.299-16.443c0-0.683-0.428-0.982-1.283-0.896c-1.108,0.343-2.035,0.468-2.775,0.385
			c-0.712-0.06-1.298-0.385-1.75-0.984c-0.113-0.282-0.128-0.481-0.042-0.599c0.114-0.171,0.582-0.312,1.407-0.426l3.418-0.514
			c0.683-0.112,1.025-0.515,1.025-1.196c-0.029-3.559-0.173-6.834-0.428-9.822C468.192,306.115,468.192,305.63,468.278,305.515z
			 M483.567,305.302c0.457-0.427,0.983-0.341,1.581,0.256c0.8,0.628,1.053,1.468,0.77,2.522c-0.199,0.997-0.455,2.034-0.77,3.116
			c-0.199,0.683,0.159,0.925,1.068,0.726c1.54-0.226,2.576-0.44,3.118-0.641l1.324-0.94c0.255-0.055,0.64,0.115,1.151,0.514
			c0.997,0.627,1.097,1.253,0.299,1.881c-0.568,0.542-0.898,1.251-0.982,2.135c-0.369,1.738-0.898,3.434-1.582,5.081
			c-0.341,0.77-0.213,1.299,0.385,1.583c1.197,0.425,1.666,1.022,1.41,1.792c-0.229,0.568-0.399,1.38-0.515,2.434
			c-0.115,0.741,0.24,1.025,1.066,0.854l1.241-0.384c1.052-0.654,1.666-0.981,1.835-0.981c1.538,0.769,1.878,1.594,1.024,2.476
			c-0.314,0.4-0.514,1.097-0.598,2.093c-0.799,4.44-2.05,8.714-3.759,12.812c-0.655,1.025-1.067,1.494-1.238,1.408
			c-0.144-0.056-0.356-0.269-0.641-0.639c-0.911-1.425-1.751-2.564-2.522-3.417c-0.541-0.625-0.499-1.068,0.129-1.324
			c0.198-0.026,0.725,0.315,1.58,1.024c0.939,0.658,1.58,0.685,1.921,0.085c1.225-3.388,2.107-6.932,2.647-10.634
			c0.087-0.683-0.298-0.968-1.149-0.856c-0.371,0.029-0.741,0.1-1.111,0.216c-0.683,0.171-1.107,0.683-1.281,1.538
			c-0.998,5.097-3.459,9.752-7.388,13.965c-0.826,0.77-1.34,1.167-1.538,1.198c-0.199-0.029-0.359-0.128-0.471-0.299
			c-0.113-0.229,0.2-0.843,0.941-1.837c3.247-3.986,5.424-8.243,6.536-12.771c0.198-0.798-0.017-1.151-0.641-1.066
			c-0.683,0.083-1.198,0-1.539-0.258c-0.342-0.285-0.499-0.541-0.469-0.767c0.025-0.198,0.469-0.44,1.325-0.726l0.768-0.086
			c0.741-0.057,1.139-0.497,1.197-1.323c0.112-0.854,0.112-1.724,0-2.606c-0.144-0.74-0.471-0.656-0.983,0.257
			c-0.457,0.968-1.024,0.812-1.709-0.469c-0.456-0.71-0.967-1.424-1.537-2.135c-0.625-0.856-0.956-1.366-0.982-1.539
			c0.48-0.654,1.207-0.398,2.179,0.769c0.769,0.541,1.366,0.47,1.793-0.213c0.909-2.136,1.55-4.144,1.923-6.022
			c0.086-0.6-0.342-0.812-1.282-0.641l-2.948,0.555c-0.655,0.115-1.184,0.613-1.581,1.494c-0.967,2.223-2.221,4.284-3.757,6.194
			c-0.543,0.654-0.514,1.323,0.084,2.007c0.369,0.626,0.399,1.323,0.086,2.093c-0.199,0.798,0.127,1.097,0.982,0.897l1.197-0.385
			c0.854-0.598,1.538-0.709,2.049-0.342c1.082,0.683,1.14,1.495,0.172,2.436c-0.798,4.726-1.808,8.712-3.032,11.958
			c-0.256,0.882-0.627,1.494-1.109,1.838c-0.144,0-0.585-0.385-1.325-1.153c-0.198-0.286-0.455-0.568-0.768-0.854
			c-0.939-1.054-1.396-1.652-1.364-1.794c0.225-0.367,0.923-0.343,2.09,0.085c0.684,0.228,1.182-0.1,1.495-0.982
			c0.825-2.564,1.424-5.238,1.793-8.028c0.084-0.684-0.301-0.999-1.152-0.94l-0.6,0.127c-0.683,0.172-1.139,0.711-1.365,1.622
			c-1.083,4.727-3.133,8.997-6.15,12.812c-0.512,0.911-1.066,1.096-1.665,0.556c-0.027-0.2,0.228-0.725,0.769-1.58
			c2.619-3.872,4.328-7.802,5.123-11.788c0.173-0.683-0.171-0.965-1.024-0.854c-0.283,0-0.569,0.043-0.856,0.128
			c-0.853,0.115-1.423,0.072-1.707-0.128c-0.541-0.284-0.742-0.626-0.599-1.024c0.087-0.257,0.557-0.428,1.411-0.514l2.306-0.3
			c0.683-0.114,1.081-0.599,1.195-1.45l0.043-1.153c0.027-0.74-0.2-0.883-0.684-0.426c-0.741,0.656-1.238,0.643-1.493-0.042
			c0.027-0.172,0.284-0.541,0.769-1.11c1.765-1.822,3.488-4.441,5.166-7.859c0.284-0.682,0-0.966-0.855-0.856
			c-0.599,0.059-1.197,0.215-1.792,0.471c-0.769,0.058-1.481-0.401-2.137-1.366c0.199-0.516,0.756-0.74,1.666-0.685l3.248-0.385
			c0.684-0.084,1.14-0.567,1.367-1.451c0.425-1.537,0.624-2.96,0.598-4.271C483.539,305.984,483.485,305.417,483.567,305.302z"/>
		<polygon fill="#CB2B20" points="557.219,365.174 522.953,324.822 557.219,285.059 591.485,324.822 		"/>
		<path fill="#FFFFFF" stroke="#FFFFFF" stroke-width="1.1752" stroke-miterlimit="10" d="M555.789,306.129
			c0.257-0.938,0.497-1.451,0.726-1.537c0.77,0.057,1.211,0.568,1.323,1.537c0.285,0.743,0.344,1.368,0.171,1.88
			c-0.083,0.144,0.285,0.613,1.11,1.409c5.324,5.24,9.809,8.601,13.454,10.081l3.245,0.641c0.315,0.254,0.471,0.513,0.471,0.768
			c-0.117,0.314-0.442,0.513-0.983,0.599c-1.141,0.171-2.278,0.386-3.417,0.64c-1.054,0.543-2.207-0.057-3.459-1.795
			c-0.684-0.653-1.149-0.54-1.407,0.344c-0.315,1.365-0.57,2.733-0.769,4.101c-0.086,0.683,0.058,1.197,0.427,1.539
			c0.367,0.341,0.541,0.598,0.513,0.767c-0.057,0.199-0.513,0.383-1.366,0.557c-4.556,0.314-9.112,0.724-13.667,1.24l-1.537,0.255
			c-0.685,0.143-1.026,0.356-1.026,0.642c0.026,0.684-0.229,0.981-0.769,0.897c-1.139-1.14-1.523-2.207-1.152-3.205
			c0.172-2.05,0-4.427-0.513-7.132c-0.058-0.682-0.541-0.655-1.452,0.085c-2.647,2.051-4.94,3.488-6.877,4.313
			c-0.57,0.029-0.782-0.226-0.641-0.765c2.332-1.653,4.67-3.36,7.005-5.127C550.777,314.101,554.307,309.859,555.789,306.129z
			 M557.67,310.357c-0.77-0.654-1.41-0.641-1.924,0.042c-1.141,1.51-2.222,2.809-3.247,3.889c-0.882,0.884-0.897,1.297-0.042,1.24
			c2.136-0.4,4.271-0.74,6.406-1.025c0.566-0.171,1.139-0.3,1.709-0.386c0.738-0.169,1.438,0.285,2.09,1.368
			c-0.026,0.312-0.325,0.513-0.896,0.598l-8.542,1.28c-0.942,0.029-1.753-0.214-2.436-0.724c-0.2-0.197-0.584-0.043-1.152,0.469
			l-1.065,0.98c-0.515,0.428-0.57,0.926-0.172,1.494c0.315,0.515,0.9,0.713,1.752,0.601c4.67-0.654,9.381-1.368,14.137-2.137
			c0.74-0.367,0.683-0.965-0.173-1.791C561.982,314.229,559.832,312.265,557.67,310.357z M562.322,329.79
			c0.541-0.997,1.197-1.024,1.966-0.085c0.798,0.541,0.854,1.151,0.171,1.837c-0.143,0.284-0.242,0.714-0.3,1.281l-0.981,10.251
			l-0.256,1.066c-0.457,0.542-0.899,0.359-1.324-0.556c-0.285-0.567-0.857-0.84-1.709-0.812c-2.477,0.201-4.954,0.457-7.431,0.77
			c-0.683,0.172-1.055,0.485-1.111,0.939c0.028,0.656-0.171,1.04-0.598,1.155c-0.313,0-0.611-0.271-0.896-0.812
			c-0.598-0.969-0.67-1.824-0.216-2.563c0.37-3.929,0.458-7.275,0.258-10.038c-0.084-0.938-0.084-1.452,0-1.54
			c0.567-0.338,0.983-0.169,1.239,0.516c0.229,0.426,0.642,0.583,1.238,0.468l8.244-1.196
			C561.183,330.331,561.754,330.104,562.322,329.79z M554.423,321.333l-0.513,0.085l-1.452,0.173
			c-0.709,0.082-0.641,0.454,0.212,1.106c1.427,1.11,1.951,2.125,1.583,3.034c-0.458,0.825-0.757,1.224-0.897,1.196
			c-0.314-0.114-0.557-0.44-0.725-0.983l-0.983-2.135c-0.543-0.854-0.81-1.394-0.81-1.622c0.056-0.258-0.187-0.34-0.727-0.258
			c-0.484,0.084-0.71,0.557-0.684,1.41l0.128,3.205c0.026,0.683,0.467,0.997,1.324,0.938l3.972-0.468
			c0.654-0.058,0.968-0.541,0.94-1.451c-0.059-0.998-0.071-2.008-0.043-3.031C555.719,321.676,555.276,321.276,554.423,321.333z
			 M561.213,332.351c-2.818,0.316-5.638,0.672-8.457,1.069c-0.683,0.115-1.039,0.597-1.066,1.451v1.068
			c-0.027,0.626,0.427,0.867,1.365,0.726c1.541-0.143,3.306-0.457,5.297-0.942c0.856-0.143,1.482-0.071,1.881,0.217
			c0.399,0.399,0.626,0.697,0.685,0.897c0.024,0.255-0.515,0.482-1.624,0.684c-2.191,0.312-4.398,0.668-6.623,1.065
			c-0.682,0.114-1.038,0.612-1.064,1.494v0.897c-0.029,0.624,0.426,0.897,1.368,0.81c1.904-0.255,3.812-0.467,5.72-0.641
			l1.709-0.426c0.341-0.026,0.583-0.026,0.725,0c0.199,0.06,0.385-0.326,0.557-1.152c0.227-2.079,0.4-4.154,0.514-6.235
			C562.223,332.594,561.896,332.268,561.213,332.351z M559.462,320.693l-0.769,0.128c-0.74,0.114-1.096,0.583-1.065,1.408
			c-0.028,1.11-0.017,2.264,0.043,3.458c0.057,0.684,0.282,1,0.681,0.943c0.37-0.028,0.769-0.486,1.197-1.369
			c0.6-1.365,0.968-2.662,1.111-3.889c0.026-0.365,0.083-0.611,0.171-0.726C560.94,320.51,560.487,320.521,559.462,320.693z
			 M563.903,320.052l-1.665,0.217c-0.684,0.113-0.627,0.565,0.171,1.365c0.484,0.74,0.457,1.307-0.084,1.708
			c-0.369,0.567-0.698,1.139-0.983,1.708c-0.455,0.825-0.257,1.18,0.6,1.066l1.195-0.215c0.683-0.113,1.098-0.598,1.239-1.452
			l0.516-3.331C565.028,320.324,564.701,319.969,563.903,320.052z"/>
	</g>
</g>
</svg>
