<?xml version="1.0" encoding="utf-8"?>
<!-- Generator: Adobe Illustrator 16.0.0, SVG Export Plug-In . SVG Version: 6.00 Build 0)  -->
<!DOCTYPE svg PUBLIC "-//W3C//DTD SVG 1.1//EN" "http://www.w3.org/Graphics/SVG/1.1/DTD/svg11.dtd">
<svg version="1.1" id="圖層_1" xmlns="http://www.w3.org/2000/svg" xmlns:xlink="http://www.w3.org/1999/xlink" x="0px" y="0px"
	 width="1275.592px" height="1275.59px" viewBox="0 0 1275.592 1275.59" enable-background="new 0 0 1275.592 1275.59"
	 xml:space="preserve">
<g>
	<rect x="0" fill="#FFFFFF" width="1275.592" height="1275.59"/>
	<g>
		<path d="M1117.772,649.247c-5.212-23.69-9.483-47.593-20.136-69.775c-18.86-39.272-37.756-78.459-72.813-106.617
			c-6.061-4.865-5.196-9.063,0.294-13.596c16.797-13.854,34.437-26.39,54.438-35.297c4.311-5.485,18.003-2.898,13.632-15.843
			c-10.198-3.053-17.57,3.842-25.854,7.428c-4.381,1.896-8.57,4.236-12.843,6.377c-5.63,3.56-11.266,7.117-16.899,10.674
			c-1.359,0.893-2.724,1.781-4.082,2.671c-3.407,2.646-6.817,5.295-10.229,7.94c-0.194,0.74-0.673,1.104-1.438,1.095
			c-4.196,3.524-8.631,6.809-12.527,10.635c-5.169,5.073-8.08,2.814-10.479-2.532c-2.863-3.331-10.339-27.688-10.702-33.186
			c-12.218-0.849-13.609,0.818-11.146,12.921c1.091,5.36,12.179,32.332,19.021,38.959c9.133,8.85,8.985,19.828,8.221,31.777
			c-1.063,16.527,5.325,31.673,13.369,45.934c2.608,4.627,5.67,10.171,12.112,6.148c6.104-3.807,1.893-8.257-0.527-12.484
			c-8.192-14.321-13.076-29.517-11.373-46.299c0.298-2.938-0.345-6.731,2.892-7.961c3.152-1.192,5.354,1.759,7.512,3.882
			c11.354,11.154,19.856,24.447,28.739,37.515c56.709,83.434,64.729,172.855,31.955,266.738
			c-12.914,36.994-36.776,66.89-66.542,92.193c-5.796,4.928-8.813,4.219-10.851-3.008c-1.529-5.41-3.188-10.818-5.282-16.031
			c-12.046-29.973-20.756-59.051-29.605-90.209c-3.35-11.799-3.971-39.65-10.308-49.106c-6.337-9.457-16.291-14.263-25.407-19.875
			c-64.739-39.882-136.055-46.88-209.79-41.119c-4.832,0.375-10.318,0.59-14.234,2.967c-12.354,7.494-22.269,2.967-33.119-3.635
			c-7.356-4.479-7.745-7.611-3.521-14.75c22.821-38.583,41.331-79.26,55.829-121.648c10.979-32.11,16.572-65.447,19.881-99.171
			c-0.183-15.397,1.336-30.868-0.905-46.178c-5.97-40.727-17.039-79.971-35.592-116.86c-3.032-6.03-4.4-9.099,4.068-11.964
			c8.191-2.772,17.103-3.954,24.447-9.936c7.399-6.026,15.963-10.723,26.359-10.549c2.884,0.046,7.319-0.545,7.257-5.332
			c-0.054-3.89-2.682-6.383-6.229-7.062c-24.451-4.68-39.343-21.977-53.902-40.013c-11.313-14.012-21.67-29.039-36.319-39.934
			c-14.95-11.117-31.269-18.131-50.486-12.777c-3.949,1.101-8.887,2.482-8.324,7.6c0.616,5.603,5.871,5.286,9.865,4.563
			c20.327-3.679,36.134,4.606,49.227,18.944c20.772,22.751,36.741,49.922,64.226,67.295c-11.957,9.059-24.373,13.267-36.677,17.807
			c-4.893,1.803-6.793-1.001-9.014-4.223c-1.968-2.858-1.062-4.657,1.487-6.542c3.229-2.385,10.067-3.496,5.812-9.599
			c-3.92-5.62-9.209-2.446-14.134-0.357c-9.248,3.93-19.047,6.509-26.687,13.812c-4.087,3.905-9.18,1.705-13.821-0.051
			c-12.586-4.759-19.565-15.105-24.953-26.377c-7.452-15.592-19.336-24.062-36.185-27.167c-7.458-1.376-11.066,0.108-13.428,7.405
			c-9.216,28.51-22.97,54.879-38.432,80.467c-3.758,6.222-6.401,5.545-10.653,1.122c-10.726-11.159-16.88-24.547-20.417-39.457
			c-4.567-19.251,0.231-38.124,1.719-57.137c0.877-11.254-2.488-14.208-13.5-12.407c-15.292,2.5-29.455,9.169-45.095,10.864
			c-15.688,1.699-31.262,4.175-47.091,3.773c-2.881-0.073-6.835,0.644-7.965-2.654c-1.311-3.819,2.968-4.472,5.258-6.057
			c8.025-5.554,16.167-10.94,24.132-16.579c29.485-20.881,61.012-36.958,97.393-41.703c11.254-1.468,22.515-2.841,32.715,4.082
			c3.125,2.12,5.933,2.94,8.615-0.771c3.193-4.417-1.13-6.222-3.204-7.771c-8.631-6.445-18.841-6.97-29.104-6.293
			c-43.399,2.861-81.378,19.604-115.896,45.303c-11.968,8.913-22.941,19.446-37.612,24.179c-2.313,0.747-4.106,1.845-3.857,4.701
			c0.309,3.538,1.368,6.011,5.145,7.783c9.851,4.619,19.671,8.338,30.852,8.34c26.667,0.005,52.432-4.654,77.349-13.98
			c4.444-1.664,6.172,0.791,5.426,3.826c-1.915,7.794-0.465,15.646-1.461,23.43c-0.867,6.78-1.021,13.416-0.472,19.907
			c-0.002-0.001-0.004-0.003-0.007-0.005c-6.108-3.454-16.047,8.483-18.387,11.767c-10.444,14.679-18.522,30.892-24.491,47.573
			c-7.77,21.715-21.46,28.279-9.479,68.04c0.928,1.059,13.3,38.459,23.751,54.265c22.305,33.73,56.42,39.045,87.011,12.754
			c2.014-1.73,4.193-3.266,6.349-4.832c-2.105,17.713,1.399,37.763,2.794,54.894c1.698,20.909,1.026,41.291-5.615,61.263
			c-3.525,10.6-8.085,20.915-10.856,31.696c-8.173,31.782-20.002,62.252-32.204,92.602c-3.383,8.41-15.424,12.881-22.075,7.586
			c-22.805-18.158-50.267-22.849-77.618-28.05c-12.184-2.313-24.524-3.891-36.593-6.681c-39.193-9.066-69.616,9.189-94.444,34.861
			c-37.57,38.844-64.647,84.729-76.564,138.463c-2.132,9.609-1.976,19.877-6.886,29.422c-1.402-1.239-2.512-1.799-2.953-2.686
			c-1.839-3.697-3.67-7.42-5.162-11.267c-22.881-58.95-28.89-119.586-16.563-181.622c12.75-64.189,44.759-119.762,79.559-174.001
			c3.307-5.15,7.249-5.675,12.318-5.211c15.146,1.382,29.164-4.354,43.658-7.072c2.634-0.494,5.224-1.888,4.798-5.23
			c-0.429-3.361-2.653-5.433-6.058-5.601c-2.598-0.128-5.24,0.158-7.826,0.535c-9.912,1.443-19.795,3.089-29.714,4.484
			c-6.704,0.942-8.426-1.356-6.469-8.271c6.46-22.827,18.059-42.834,32.303-61.476c3.017-3.946,6.056-7.777,6.414-12.886
			c0.379-5.369-2.441-7.496-6.729-4.17c-4.996,3.874-9.688,8.439-13.532,13.454c-12.872,16.777-23.729,34.731-30.401,55.007
			c-0.938,2.853-0.641,7.654-5.259,7.545c-4.265-0.102-4.377-4.625-5.569-7.547c-2.271-5.562-3.745-11.46-6.223-16.915
			c-2.178-4.798-3.548-12.501-11.157-9.71c-7.395,2.711-4.315,9.268-2.427,14.526c4.448,12.362,8.79,24.776,13.733,36.945
			c2.834,6.979,2.151,12.745-1.979,19.033c-10.238,15.576-21.135,30.665-29.492,47.533c-23.479,47.374-43.98,95.567-48.459,149.077
			c-5.462,65.272,4.769,127.408,37.023,185.096c2.802,5.006,3.119,9.938,2.172,15.188c-3.428,19.004-2.258,38.209-2.896,57.354
			c-1.708,51.051,16.526,95.326,43.594,137.354c16.551,25.694,40.188,40.854,67.285,52.36
			c28.964,12.303,59.859,13.773,90.519,15.896c14.227,0.985,29.166,3.631,42.622-4.134c6.67-3.846,11.355-1.403,15.809,3.371
			c19.823,21.254,42.692,37.42,71.459,44.494c21.072,5.184,41.937,8.289,63.839,4.949c37.542-5.729,70.381-22.605,102.712-40.938
			c9.048-5.129,15.515-3.028,21.294,4.771c4.011,5.418,7.84,11.072,12.499,15.893c25.085,25.941,56.032,38.279,91.695,43.293
			c54.983,7.726,116.448-20.94,142.58-69.85c28.892-54.072,49.813-110.738,56.688-172.176c1.809-16.156,3.247-32.078,0.198-48.072
			c-0.803-4.205,0.552-6.391,3.863-8.111c11.271-5.873,20.067-14.957,27.674-24.557c8.063-10.183,21.556-14.937,26.57-27.787
			c-1.787-1.018,24.116-46.627,28.546-57.219c7.108-17.002,8.411-35.527,14.146-52.879
			C1119.056,711.641,1121.227,680.459,1117.772,649.247z M531.578,646.446c16.462-32.355,24.656-67.626,36.063-101.775
			c7.742-23.187,10.69-46.665,8.383-71.005c-1.347-14.195-1.813-28.492-2.229-42.757c-0.201-6.875-3.512-13.878-9.532-16.537
			c12.077-14.843,24.7-29.105,41.795-38.6c0.438-10.244-4.98-9.958-12.048-6.707c-2.453,4.452-7.812,4.758-11.291,8.481
			c-12.757,13.636-26.242,26.646-40.065,39.215c-21.913,19.922-46.558,15.843-61.966-9.758c-4.432-7.368-8.823-14.703-14.194-21.503
			c-4.604-5.832-17.447-46.956-16.608-53.294s4.21-17.419,7.111-25.869c7.304-21.252,17.509-41.163,28.719-60.599
			c1.466-2.542,8.229-7.667,10.813-11.913c1.747,11.831,5.901,23.159,12.536,33.939c0.382,0.75,0.763,1.501,1.144,2.248
			c1.034,1.634,2.067,3.267,3.104,4.902c7.621,6.753,15.224,13.528,22.872,20.253c3.055,2.687,6.174,5.362,10.707,3.218
			c0.148-0.555,0.511-0.875,1.076-0.961c13.578-28.221,33.017-53.509,41.813-84.134c3.854-13.416,11.767-15.318,20.882-4.552
			c5.755,6.8,9.96,14.913,14.845,22.446c11.036,17.026,25.857,26.784,46.939,24.058c3.899-0.505,6.454,1.618,9.16,3.423
			c4.489,2.993,9.251,5.362,14.643,4.816c6.722-0.682,9.563,2.561,10.479,8.561c6.42,9.854,11.296,20.384,13.89,31.906
			c6.956,7.891,25.178,86.845,20.276,122.34c-1.24,8.982-3.955,17.911-1.814,27.161c-4.279,43.041-16.788,83.764-34.523,123.038
			c-10.976,24.298-21.694,48.694-35.05,71.854c-4.032,6.994-7.689,9.277-15.962,6.088c-31.898-12.311-64.423-6.709-96.813-1.926
			c-5.943,0.881-11.903,1.723-17.793,2.894C530.657,657.045,527.17,655.114,531.578,646.446z M595.647,659.336
			c16.273-2.42,32.29-1.041,47.954,3.652c5.407,1.621,12.401,1.414,14.245,9.071c0.185,0.771,1.776,1.871,2.521,1.734
			c14.728-2.695,24.119,8.391,35.556,13.938c5.156,2.502,9.319,1.741,13.884-0.3c0.037-0.017,0.076-0.03,0.112-0.048
			c4.412,3.313,10.91,12.063,17.241,34.747c-2.229-1.13-4.872-1.892-8.122-2.088c-20.302-1.232-40.813,1.203-60.795-1.908
			c-32.09-5-64.641-2.467-96.646-7.479c-4.484-0.703-10.076,0.459-9.571,5.125c1.229,11.383-6.09,8.133-11.695,8.063
			c-4.126-0.053-8.265-0.951-12.369-0.774c-9.104,0.393-20.254-6.986-26.229,6.67c-0.452,1.037-4.212,0.91-6.418,0.836
			c-5.611-0.195-11.229-0.488-16.803-1.097c-2.911-0.315-5.442-0.409-6.052,3.046c-0.465,2.635-0.333,5.61,2.597,6.805
			c3.076,1.256,6.374,2.117,9.653,2.699c36.332,6.475,73.083,9.088,109.805,12.108c16.059,1.322,32.326,1.435,48.067,5.529
			c-28.638,1.276-57.174,0.434-85.717-1.301c-11.608-0.707-23.299-0.285-34.947-0.103c-3.752,0.06-8.938,0.863-7.742,5.813
			c2.105,8.713-3.278,7.28-8.049,7.188c-4.886-0.092-9.829-0.951-14.637-0.44c-6.343,0.674-16.391-4.076-17.229,6.754
			c-0.707,9.123,8.779,9.66,15.444,11.639c1.788,0.535,3.692,0.73,5.561,0.938c24.695,2.717,49.043,7.422,73.26,12.875
			c16.308,3.674,32.613,7.352,48.919,11.026c-37.324,2.914-74.132,1.965-110.913-0.401c-3.082-0.197-5.773-0.711-8.057-3.209
			c-9.511-10.398-21.662-16.357-34.196-22.677c-4.396-2.216-8.785-4.138-13.165-5.79c0.171-0.477,0.28-0.981,0.279-1.518
			c-0.046-44.819,12.784-70.156,23.555-83.52c7.583-9.408,15.239-14.359,19.641-16.664c2.601,1.617,5.254,2.357,8.538,0.369
			C531.646,663.396,564.247,664.008,595.647,659.336z M695.968,866.567c-3.127,0.899-8.754,1.344-7.169,6.672
			c1.423,4.789,5.735,1.742,8.728,1.203c16.256-2.918,32.292-6.762,48.246-10.979c0.014,0.048,0.014,0.096,0.028,0.145
			c6.509,21.672-2.847,89.864-5.358,107.039c-3.799-0.416-7.641-0.757-11.454-1.011c-7.867-0.521-12.92,1.406-13.563,10.629
			c-0.477,6.771-3.893,12.906-7.604,18.638c-1.793,2.768-3.157,6.639-7.23,6.184c-4.114-0.455-6.491-3.94-7.699-7.479
			c-2.058-6.027-3.233-12.353-5.133-18.443c-2.131-6.83-14.628-14.527-21.757-12.59c-7.297,1.979-8.322,8.641-8.396,15.221
			c-0.078,7.006-3.434,12.207-8.989,16.055c-9.063,6.273-18.834,11.232-29.977,12.019c-62.866,4.422-120.902-4.98-169.024-42.887
			c-12.294-52.279-5.239-98.267-2.381-112.806c12.024,4.43,23.456,10.059,32.461,20.592c4.882,5.709,12.994,4.062,19.06,8.041
			c3.205,2.105,4.933-5.373,8.116-7.852c3.101-2.41,6.358-2.215,9.614-1.953c18.697,1.521,37.38,3.236,56.067,4.885
			c-12.494,0.47-24.897,0.256-37.284,0.564c-5.647,0.137-14.182-1.701-14.229,6.736c-0.038,7.034,0.311,15.688,10.738,18.596
			c13.285,3.707,27.087,5.662,39.8,11.539c3.81,1.762,7.293,2.445,4.619,7.645c-4.169,8.115-7.021,16.996-14.188,25.3
			c-1.783-5.535-3.165-9.699-4.462-13.888c-1.917-6.192-5.027-11.768-9.078-16.75c-1.741-2.147-4.612-2.754-7.215-1.877
			c-2.519,0.853-3.29,3.408-2.156,5.543c7.15,13.459,8.946,28.652,14.101,42.742c1.183,3.229,2.782,6.721,6.571,6.977
			c4.314,0.289,6.302-3.26,8.164-6.68c4.314-7.922,8.908-15.692,13.2-23.625c9.77-18.057,9.677-17.832,30.28-13.912
			c7.566,1.438,15.904,5.199,23.435-2.828c-7.142-5.393-15.646-5.975-25.247-10.979c17.008,1.316,31.224,2.406,45.44,3.531
			c3.817,0.301,8.247,0.948,9.218-3.935c1.049-5.262-3.273-7.047-7.432-8.147c-2.153-0.574-4.459-0.627-6.701-0.845
			c-21.814-2.094-43.366-5.594-66.637-11.875c26.713,0.324,51.024,2.104,74.942,7.849c4.39,1.053,10.755,4.022,12.688-2.496
			c2.125-7.172-5.047-7.963-9.764-9.717c-9.396-3.496-18.867-6.787-28.307-10.162c10.961-0.316,21.597,0.578,32.23,1.504
			c3.106,0.27,6.339,0.33,7.884-2.881c1.79-3.723-0.428-6.412-3.245-8.656c-2.017-1.604-6.771-1.508-4.07-6.119
			c13.477-23.031,28.811-44.006,57.278-51.25c-0.5,7.674,1.785,12.715,9.6,14.164c9.558,1.771,19.811-0.416,21.885-9.156
			c2.956-12.463,9.869-9.045,17.146-8.065c6.332,0.85,12.751,1.49,18.912,3.072c11.311,2.901,22.604,6.129,30.271,16.069
			c4.205,5.447,5.04,9.332-3.73,10.199c-5.599,0.553-11.165,1.629-16.679,2.803C765.226,846.383,730.623,856.594,695.968,866.567z
			 M822.065,1054.495c1.212,3.799,2.208,7.471,7.379,6.418c4.522-0.922,4.542-4.027,3.819-7.777
			c-0.928-4.813-0.679-8.555,6.063-9.158c7.133-0.639,7.391,2.574,6.524,7.964c-0.492,3.069,1.408,5.395,4.618,4.733
			c4.355-0.901,7.095-5.117,5.234-8.428c-5.292-9.418,2.145-10.256,7.465-12.596c9.614-4.23,18.043-10.924,28.316-13.742
			c3.18-0.871,6.632-2.273,9.345,1.102c2.402,2.986,2.376,6.332,0.69,9.533c-9.608,18.228-18.251,37.043-33.924,51.336
			c-15.732,14.349-34.809,16.801-54.719,15.56c-17.288-1.074-34.421-1.597-51.714,0.641c-14.853,1.92-27.566-4.203-40.301-13.67
			c0.853-0.316-35.842-7.418-83.07,3.012c-44.355,9.797-91.22,9.334-136.181,11.619c-14.755,0.752-19.646-3.838-20.729-18.715
			c-0.637-8.715-2.116-17.17-5.411-25.229c-5.73-14.012-14.424-18.725-29.43-15.969c-11.857,2.178-23.717,4.75-33.911,11.543
			c-6.133,4.086-8.666,2.062-11.879-3.715c-18.89-33.947-8.553-66.018,5.472-98.035c2.627-5.996,5.22-6.342,9.418-1.451
			c8.626,10.045,17.782,18.771,27.396,26.346c0.058,0.214,0.11,0.428,0.167,0.643c0.538,2.013,2.356,3.34,4.346,3.34
			c0.218,0,0.438-0.021,0.658-0.054c42.979,31.497,94.673,41.123,149.677,41.861c18.336,0.245,36.511-2.033,52.738-12.978
			c9.167-6.18,16.604-12.539,18.666-23.875c0.411-2.266,0.609-5.908,4.114-5.758c3.434,0.146,3.282,3.68,3.82,6.066
			c1.579,7.012,3.513,13.87,7.593,19.887c8.854,13.041,23.202,13.268,32.538,0.69c3.657-4.92,6.313-10.381,7.527-16.239
			c1.455-6.998,3.183-11.724,12.235-10.521c8.396,1.111,14.654,2.695,14.566,12.887c-0.046,5.24,0.51,10.519,1.182,15.728
			c1.28,9.912,3.029,26.211,8.148,26.809c13.912,1.623,44.112,8.802,58.044,10.566
			C823.521,1045.495,821.01,1051.192,822.065,1054.495z M560.164,838.159c-14.289,0-28.582-0.084-42.869,0.035
			c-6.4,0.057-7.015-4.064-7.159-10.377c17.513,3.106,33.87,6.008,50.228,8.909C560.299,837.204,560.231,837.68,560.164,838.159z
			 M568.577,861.317c-16.714,2.729-33.055-0.279-49.501-1.275c-2.835-0.17-6.648-0.207-6.022-4.715
			c0.787-5.668,4.396-1.986,6.791-1.623C536.099,856.174,552.337,858.762,568.577,861.317z M653.707,841.61
			c-20.718-2.523-41.146-5.629-61.141-11.662c26.121,0,52.241,0,79.389,0C668.422,839.454,664.505,842.924,653.707,841.61z
			 M656.372,855.18c-0.533,8.207-5.054,9.529-11.624,8.289c-16.591-3.129-33.214-6.08-49.769-9.735
			C615.508,852,635.901,853.471,656.372,855.18z M695.983,810.815c-6.299,3.879-12.16,5.825-18.977,4.315
			c-38.905-8.619-77.769-17.442-116.646-26.195c28.472,0.378,56.325,4.693,84.233,8.64c15.991,2.262,32.071,3.912,48.13,5.682
			c3.742,0.412,8.155,0.625,8.801-4.49c0.55-4.33-2.327-6.856-6.449-7.922c-2.913-0.752-5.796-1.615-8.712-2.348
			c-17.73-4.479-35.471-8.93-53.209-13.389c23.332-0.914,46.552-2.238,69.499-0.332c10.732,0.893,17.518-6.89,27.261-6.945
			c3.614-0.021,3.4-5.051,0.93-8.229c-3.037-3.901-7.583-4.598-11.97-5.631c-9.332-2.2-19.063-3.121-27.019-9.914
			c13.128,0.578,26.251,1.435,39.386,1.593c0.434,0.005,0.88-0.008,1.33-0.034c0.071,0.373,0.145,0.729,0.216,1.104
			c3.801,20.132,5.827,39.54,6.619,48.195C724.145,796.625,709.871,802.264,695.983,810.815z M407.416,1121.575
			c-29.925-2.324-59.997-2.479-89.081-12.181c-40.978-13.672-67.117-41.143-87.101-79.166c-23.169-44.086-27.42-89.879-25-137.707
			c0.169-3.358,0.766-6.705,1.224-10.049c0.816-5.959,3.645-5.996,7.212-2.147c5.018,5.409,11.015,7.649,18.271,6.42
			c3.075-0.521,6.088-1.313,5.965-5.359c-0.096-3.148-2.173-4.014-4.964-5.031c-17.276-6.301-23.364-17.85-20.26-35.479
			c5.743-32.605,11.605-65.019,27.532-94.748c11.02-20.566,20.839-43.066,38.199-57.805c12.298-10.437,22.017-23.412,35.277-32.813
			c17.853-12.654,36.356-18.372,58.296-13.979c24.302,4.86,48.917,8.086,73.065,13.909c14.953,3.607,28.268,10.313,40.563,19.029
			c-5.056,3.146-11.649,8.256-18.204,16.243c-11.779,14.357-25.779,41.315-26.01,88.347c-29.252-8.621-58.229-5.099-87.501,7.935
			c-3.231,1.438-8.12,2.844-5.792,7.797c1.952,4.16,6.391,3.539,9.94,1.848c20.229-9.643,41.754-9.967,63.53-9.783
			c6.974,0.062,9.313,0.83,7.639,8.429c-1.975,8.93-4.099,17.625,8.188,23.266c8.706,3.998,14.226,1.055,20.521-2.732
			c17.675-10.643,20.879-10.758,34.4,4.65c7.354,8.375,9.604,19.678,7.852,30.42c-2.182,13.363-5.206,14.086-17.338,7.598
			c-1.591-0.848-3.471-1.139-5.182-1.782c-21.269-8.019-42.378-16.336-63.206-25.545c-16.103-7.119-30.628-17.4-47.498-22.755
			c-3.509-1.116-8.161-3.102-9.76,1.396c-1.654,4.637,2.237,7.729,6.698,8.527c8.351,1.483,15.085,5.651,22.034,10.346
			c7.622,5.147,16.568,8.317,24.897,12.428c8.518,4.205,17.704,7.056,26.803,10.089c-2.724,12.954-9.896,55.327-0.249,106.256
			c-5.471-4.998-10.801-10.399-15.977-16.242c-4.748-5.357-9.93-9.738-9.071-17.847c0.411-3.903-16.435,16.435-16.855,17.006
			c-10.384,14.13-9.668,32.078-16.405,47.527c-5.996,13.74-4.363,28.086,0.489,41.889c3.232,9.201,7.313,18.117,11.252,27.056
			c5.847,13.266,10.028,14.983,22.329,7.672c7.556-4.489,15.405-7.72,23.649-10.114c-1.86,6.866-2.035,16.587-0.53,29.339
			c1.79,15.169,5.287,29.003,5.435,29.585c0.078,0.307,0.194,0.591,0.327,0.863c-0.026,0.019-0.052,0.033-0.078,0.052
			C432.128,1121.956,419.969,1122.549,407.416,1121.575z M684.962,1131.366c-17.619,8.498-34.738,18.133-52.72,25.758
			c-31.542,13.383-63.973,17.049-98.081,9.17c-31.941-7.377-56.016-25.424-76.62-49.441c-1.972-2.298-3.946-3.837-6.005-4.521
			c0.013-0.409-0.011-0.823-0.116-1.239c-6.313-24.824-8.922-54.142-2.385-59.341c8.585-1.088,13.353,2.872,16.508,11.235
			c2.739,7.268,2.1,14.832,3.188,22.229c2.724,18.49,11.396,26.459,30.16,26.519c16.16,0.049,32.324-1.048,48.482-0.923
			c43.679,0.343,87.033-2.817,128.988-15.407c15.194-4.562,28.571-4.293,41.737,1.578c-0.171,0.505-0.268,1.043-0.246,1.605
			c0.529,14.357-6.909,24.298-9.669,27.474C702.058,1124.471,695.116,1126.467,684.962,1131.366z M966.494,1095.678
			c-4.257,9.617-8.936,19.062-13.712,28.437c-26.817,52.623-84.104,78.582-145.754,66.424c-33.416-6.59-61.042-22.115-81.688-49.805
			c-3.292-4.416-6.237-7.802-9.12-10.248c3.826-4.805,10.152-14.8,10.625-28.75c0.188,0.118,0.374,0.224,0.561,0.346
			c8.803,5.729,19.528,8.852,30.141,8.051c20.288-1.533,40.498-2.871,54.729-0.729c60.117,3.618,84.833-37.636,101.159-75.908
			c6.188-14.51-7.354-26.539-22.976-22.644c-9.257,2.31-17.322,7.16-25.529,11.718c-21.113,11.721-43.196,15.227-66.229,6.815
			c-8.184-2.983-16.528-4.815-25.003-5.328c-5.848-0.352-7.884-2.229-8.2-7.836c-0.526-9.373-1.907-18.694-2.455-28.063
			c-0.541-9.308-6.073-14.593-13.679-16.287c2.632-17.824,12.137-86.949,5.088-110.735c0.774-0.21,1.55-0.418,2.322-0.63
			c19.759-5.412,39.506-12.662,60.058-11.996c9.448,0.305,18.156,3.867,26.424-3.465c1.362-1.213,4.854-0.527,5.232-3.16
			c0.419-2.896-1.66-5.555-4.338-5.719c-9.283-0.562-11.955-7.75-15.568-14.279c-3.363-6.074-8.454-10.385-14.521-13.772
			c-13.453-7.509-28.552-7.787-43-11.158c-7.836-1.828-15.371-2.655-22.666-2.588c-0.793-8.711-2.855-28.596-6.75-49.241
			c-0.24-1.275-0.484-2.529-0.729-3.77c0.313-1.114,0.104-2.475-0.841-4.104c-5.584-26.596-12.442-44.239-20.798-53.426
			c7.2-2.313,14.624-3.715,22.172-4.051c60.773-2.696,120.235,2.675,175.917,30.025c11.509,5.652,31.808,10.557,40.932,26.161
			s1.332,37,16.84,87.521c8.724,21.146,18.543,41.873,25.427,63.814c3.337,10.633,3.458,18.563-7.75,24.26
			c-6.998,3.556-13.317,8.438-19.96,12.691c-3.793,2.43-6.728,5.391-4.124,10.146c3.216,5.873,6.947,2.007,10.247-0.045
			c6.381-3.963,12.687-8.061,18.903-12.276c6.732-4.564,9.479-2.252,9.51,5.201c0.018,4.883,0.004,9.766,0.004,14.645
			C1003.053,995.586,988.224,1046.573,966.494,1095.678z"/>
		<path d="M556.115,144.337c-1.097-3.092-1.124-6.592-1.448-9.927c-0.352-3.602-1.346-7.316-5.362-7.395
			c-5.061-0.104-5.354,4.331-5.539,8.162c-0.342,6.96,1.262,13.4,5.396,19.115c3.09,4.27,5.34,7.118-0.584,12.434
			c-6.201,5.568-8.656,14.689-9.637,23.262c0.121,4.591,0.678,8.612,6.234,9.229c5.846,0.652,6.76-2.768,6.842-7.598
			c0.149-8.92,5.593-16.187,8.778-24.058c1.607-3.975,7.269-6.911,11.446-0.486c6.002,9.228,15.57,10.134,23.96,6.665
			c14.267-5.901,23.452-1.999,30.438,10.742c1.631,2.974,4.055,6.158,7.985,4.466c4.246-1.829,3.897-5.802,2.91-9.678
			c-5.028-19.747-17.281-26.01-35.971-18.356c-1.737,0.71-3.49,1.384-5.266,1.984c-7.066,2.389-13.381,2.622-16.453-5.982
			c-2.389-6.685-8.213-8.486-13.549-6.352C558.919,153.52,557.694,148.776,556.115,144.337z"/>
		<path d="M580.577,116.481c7.38-11.966,17.789-21.154,27.999-30.5c3.271-2.995,7.131-6.806,11.778-4.344
			c4.957,2.627,2.537,8.099,2.31,12.325c-0.299,5.581-1.456,11.111-2.109,16.679c-0.41,3.478,0.905,5.75,4.761,6.045
			c2.585,0.196,5.935,1.146,6.714-2.103c2.76-11.501,7.951-22.975,2.521-35.012c-2.49-5.516-6.807-8.692-13.221-8.704
			c-14.246-0.027-46.247,34.606-45.483,49.402C578.929,120.895,579.488,118.25,580.577,116.481z"/>
		<path d="M525.594,133.576c-3.079,1.249-6.327,3.302-9.404,3.136c-14.325-0.759-24.316,8.66-35.806,14.513
			c-2.288,1.163-4.631,3.11-2.956,6.262c1.078,2.029,2.979,3.297,5.484,3.249c2.394-0.886,4.871-1.096,6.997-3.104
			c3.472-3.279,7.212-6.572,11.428-8.696c7.887-3.979,15.555-8.881,25.313-7.391c3.125,0.475,6.301-2.12,8.51-4.766
			c1.2-1.44,0.217-2.967-1.045-3.767C531.222,131.174,528.426,132.428,525.594,133.576z"/>
		<path d="M492.765,342.083c-1.049-0.687-6.47-1.288-6.62,2.621c-0.15,3.909,0.802,13.042,8.145,15.695
			c2.81,1.016,5.608-0.909,6.041-3.509C501.412,350.357,493.815,342.77,492.765,342.083z"/>
		<path d="M557.173,334.054c-0.439-0.105-0.762-0.188-1.019-0.257c-9.949-1.417-14.823,4.464-11.811,14.407
			c0.957,3.157,3.094,4.049,5.942,3.767c2.711-0.269,4.872-0.942,5.017-4.631C555.475,342.895,561.296,335.045,557.173,334.054z"/>
		<path d="M557.686,333.81c0,0-3.684-0.593-1.531-0.013c0.327,0.046,0.646,0.078,0.982,0.141
			C557.135,333.941,557.686,333.81,557.686,333.81z"/>
	</g>
</g>
</svg>
