<?xml version="1.0" encoding="utf-8"?>
<!-- Generator: Adobe Illustrator 16.0.0, SVG Export Plug-In . SVG Version: 6.00 Build 0)  -->
<!DOCTYPE svg PUBLIC "-//W3C//DTD SVG 1.1//EN" "http://www.w3.org/Graphics/SVG/1.1/DTD/svg11.dtd">
<svg version="1.1" id="圖層_1" xmlns="http://www.w3.org/2000/svg" xmlns:xlink="http://www.w3.org/1999/xlink" x="0px" y="0px"
	 width="1275.592px" height="1275.59px" viewBox="0 0 1275.592 1275.59" enable-background="new 0 0 1275.592 1275.59"
	 xml:space="preserve">
<g>
	<path fill="#FFFFFF" d="M930.162,715.418c-5.675,2.139-7.315,0.832-6.938-4.94c1.479-22.716,2.291-45.487,4.371-68.146
		c1.691-18.483,1.303-36.733-1.746-54.979c-2.384-14.271-4.189-16.168-18.521-19.325c-3.03-0.67-6.146-1.157-9.242-1.329
		c-33.938-1.883-67.933-3.083-101.817-5.653c-54.568-4.139-109.112,0.146-163.662-0.651c-2.976-0.044-5.606,0.651-7.102,3.519
		c-1.146,2.199-0.922,4.729,0.951,5.979c5.959,3.979,3.564,9.166,2.612,14.237c-7.78,41.4-14.396,82.912-11.015,125.289
		c1.479,18.549,1.453,17.779-16.982,20.15c-23.967,3.08-48.547,3.563-70.815,15.293c-5.27,2.771-7.497,5.799-7.589,11.35
		c-0.431,26.508-0.796,53.008-6.862,79.062c-0.57,2.448-3.778,8.089,3.179,8.354c4.304,0.168,8.046,1.428,9.941-5.75
		c6.212-23.525,7.066-47.457,7.591-71.445c0.149-7.002,2.257-10.355,9.01-12.741c25.149-8.88,51.396-9.375,77.474-10.718
		c8.311-0.428,11.348-2.863,10.392-11.01c-0.728-6.182-0.683-12.453-1.104-18.676c-0.853-12.564-0.876-12.248,12.06-12.738
		c20.8-0.787,41.771-0.16,62.011-6.496c5.885-1.842,11.197-3.957,11.539-11.484c0.857-18.928,1.793-37.854,2.877-56.767
		c1.178-20.502-4.824-27.646-25.232-30.059c-14.677-1.735-29.269-0.146-43.897,0.479c-3.566,0.151-10.709,3.069-8.812-4.696
		c1.396-5.691-3.029-15.358,9.035-16.151c58.305-3.832,116.579-3.152,174.844,0.416c25.825,1.582,51.745,1.396,77.516,4.214
		c5.338,0.583,7.329,2.558,8.084,7.923c1.648,11.753,0.753,23.464,1.05,35.175c0.51,20.281-1.414,40.383-2.523,60.486
		c-0.235,4.263-0.196,8.541-0.107,12.823c-0.381-0.052-0.761-0.104-1.138-0.161c-29.925-4.49-59.938-7.799-90.282-6.016
		c-3.769,0.221-7.612,0.91-7.631-5.107c-0.091-27.385-0.225-54.76,2.939-82.002c28.017,6.141,56.21,7.678,84.565,7.148
		c4.984-0.093,9.321-1.199,8.64-8.065c-0.644-6.48-4.845-5.943-9.428-5.9c-25.295,0.237-50.415-2.077-75.385-5.927
		c-13.238-2.04-19.039,2.043-19.911,14.789c-0.361,5.281-1.146,10.54-1.354,15.827c-0.878,22.405-2.929,44.845,0.427,67.2
		c2.309,15.396,4.625,17.232,20.021,16.732c12.784-0.414,25.544-0.68,38.3,0.584c16.802,1.663,33.607,3.267,50.407,4.939
		c-0.098,6.435-0.62,12.851-2.335,19.209c-0.795,2.949,1.704,4.789,4.936,5.582c6.658,1.637,11.979-0.926,17.511-4.15
		c14.565-8.492,20.215-6.244,27.509,9.092c5.031,10.578,7.527,21.701,8.668,33.133c2.728,27.375,5.277,54.725-10.151,79.953
		c-4.033,6.602-9.119,9.943-16.547,10.158c-14.646,0.424-29.313,0.512-43.944,1.273c-6.061,0.313-7.451-2.021-7.335-7.521
		c0.28-13.391-5.504-24.396-15.74-32.473c-17.619-13.891-37.563-19.289-59.721-13.258c-3.813,1.037-10.502,0.463-9.675,6.43
		c0.859,6.199,6.959,7.055,12.563,6.74c1.864-0.105,3.747-0.252,5.575-0.615c15.008-2.973,28.426,1.615,41.047,9.041
		c9.541,5.611,13.089,14.637,12.548,25.424c-0.161,3.213-3.57,19.873-4.421,23.428c-2.816,11.783-14.781,21.959-28.559,23.637
		c-12.705,1.547-24.256-4.23-29.839-14.926c-4.418-8.465,11.229-33.768,13.276-35.053c4.44-2.787,6.208-5.873,2.354-10.604
		c-3.785-4.65-7.518-3.582-11.179-0.234c-4.128,3.773-8.539,7.424-11.847,11.855c-2.822,3.779-5.641,4.854-10.2,4.604
		c-34.242-1.896-68.336-6.139-102.669-6.563c-3.524-0.044-6.48-0.398-8.698-4.016c-14.915-24.326-37.437-33.076-64.999-31.109
		c-5.73,0.406-11.014,2.143-15.357,6.063c-2.477,2.232-6.441,4.74-3.978,8.285c2.396,3.447,6.456,5.75,11.393,3.219
		c18.089-9.271,34.438-3.221,50.114,6.293c3.189,1.938,15.209,28.801,14.1,33.967c-1.182,5.494-5.922,7.934-9.311,11.326
		c-12.189,12.227-34.184,16.07-49.698,9.285c-9.963-4.357-15.776-15.334-14.131-25.916c0.319-2.057,7.039-15.441,11.464-20.133
		c-0.652-0.525-1.277-1.117-1.96-1.658c-9.04-7.182-13.751-6.771-22.059,1.814c-1.73,1.793-3.861,2.02-5.996,2.002
		c-19.732-0.148-39.922,4.643-58.768-5.432c-3.091-1.646-6.146-1.334-7.939,2.223c-1.667,3.303-0.813,6.285,2.205,8.133
		c3.161,1.934,6.577,3.557,10.061,4.83c14.115,5.162,28.875,4.361,43.521,4.264c13.727-0.094,13.711-0.209,16.034,13
		c0.645,3.662,1.01,7.439,2.202,10.928c2.222,6.48-15.35,5.58-18.089,4.92c-31.811-7.654-64.657-10.279-96.074-19.959
		c-10.229-3.148-18.535-8.605-24.837-17.24c-23.205-31.795-35.036-67.941-40.166-106.482c-2.388-17.914-3.521-35.979-9.479-53.262
		c-6.091-17.666-18.835-27.662-37.344-28.828c-31.146-1.967-58.353,15.992-66.556,47.639
		c-14.15,54.576-5.047,106.607,24.188,154.469c17.678,28.939,42.879,50.979,72.454,67.529
		c28.911,16.182,58.749,30.545,91.814,36.078c53.918,9.02,106.226,0.584,157.604-15.959c25.183-8.107,46.729-21.904,64.034-42.115
		c8.202-9.578,11.462-20.416,9.534-32.963c-0.932-6.064-6.988-9.42-7.753-15.469c2.641-2.287,5.509-1.084,8.146-0.939
		c21.797,1.203,43.574,2.836,65.385,3.648c8.175,0.303,14.448,0.32,13.812,11.438c-0.36,6.248,3.714,11.814,7.751,16.67
		c11.163,13.438,25.188,20.253,42.845,16.99c18.313-3.387,29.905-15.053,35.438-32.248c2.195-6.826,5.21-9.541,12.216-9.705
		c16.512-0.391,33.014-1.301,49.51-2.18c7.097-0.379,13.761-2.596,17.994-8.574c4.985-7.047,10.354-13.996,12.873-22.479
		c11.905-40.072,9.604-78.873-11.32-115.613C956.497,712.586,946.227,709.364,930.162,715.418z M645.117,612.103
		c18.628-0.803,37.179-3.823,55.935-0.813c6.183,0.995,8.848,3.194,8.415,9.482c-1.196,17.414-3.134,34.803-2.532,52.293
		c0.161,4.658-2.879,5.793-6.314,6.646c-20.347,5.064-41.21,5.418-61.967,6.689c-5.262,0.323-7.2-2.563-6.831-7.578
		c0.365-4.979,0.503-9.965,0.74-14.947c0.048-14.717,3.09-29.129,4.411-43.713C637.454,614.853,639.896,612.328,645.117,612.103z
		 M697.365,911.29c-15.733,16.652-34.478,28.555-56.331,35.449c-41.266,13.02-83.278,21.01-126.823,19.672
		c-28.477-0.873-54.767-9.537-80.66-20.436c-40.938-17.221-75.833-41.924-99.351-80.381
		c-20.071-32.832-27.763-69.063-27.153-109.045c2.021-7.859-1.744-18.105,3.007-27.436c1.176-2.309,1.688-7.678,5.832-3.188
		c2.646,2.869,12.535,2.814,5.594,10.865c-3.481,4.039-6.139,8.635-7.93,13.662c-0.974,2.723-1.49,5.758,1.711,7.373
		c2.795,1.41,5.42,0.74,7.351-2.021c1.786-2.551,3.777-4.959,5.576-7.502c4.34-6.135,8.42-12.289,16.886-4.818
		c2.607,2.299,5.539,0.202,6.874-2.396c1.476-2.865,1.967-7.02-1.397-8.307c-9.5-3.625-6.595-10.324-5.091-16.883
		c0.212-0.912,0.563-1.797,0.719-2.715c0.559-3.316,0.188-6.656-3.378-7.754c-4.119-1.26-5.203,2.145-6.18,5.24
		c-2.12,6.738-4.468,10.232-13.255,6.652c-7.812-3.186-6.772-5.637-3.231-10.873c10.168-15.041,36.532-25.115,53.121-19.945
		c2.852,0.891,7.104,1.281,7.327,4.799c0.25,3.957-2.218,7.85-5.043,10.545c-2.552,2.438-5.035-0.975-7.49-1.92
		c-2.021-0.775-3.851-2.045-5.854-2.883c-2.764-1.156-5.602-1.385-7.585,1.363c-1.837,2.547-0.089,4.748,1.282,6.814
		c0.854,1.289,1.861,2.511,2.945,3.617c8.739,8.957,8.89,9.07,0.143,18.808c-3.281,3.649-7.427,7.179-2.687,11.726
		c4.601,4.416,8.477,0.76,11.758-2.974c1.022-1.166,2.078-2.407,3.36-3.231c4.037-2.592,4.555-11.047,11.78-8.035
		c7.565,3.15,12.811,8.138,13.533,17.535c2.543,32.959,11.087,64.35,25.924,94.016c5.881,11.764,13.334,22.355,21.548,32.52
		c12.021,14.864,28.536,21.764,46.424,25.989c28.822,6.813,58.168,10.851,87.382,15.472c6.955,1.104,15.052,1.828,20.694-5.025
		c2.212-2.684,4.197-0.893,6.506,0.27c29.891,15,51.141,11.531,75.397-12.072c3.934-3.826,10.355-5.57,9.07-13.412
		c-0.325-1.986,4.015-2.035,6.479-2.106c3.991-0.118,6.271,2.188,7.891,5.507C707.757,891.442,704.855,903.366,697.365,911.29z"/>
	<path fill="#FFFFFF" d="M1046.74,180.455c-2.156-32.678-17.938-52.191-48.266-62.434c-38.975-13.163-79.138-20.391-119.834-24.07
		c-69.975-6.325-140.28-1.609-210.396-4.879c-44.219-2.062-88.539-2.07-132.814-2.718c-58.966-0.861-117.507-8.943-176.448-10.124
		c-2.434-0.121-8.996,0.115-11.08,0.095c-9.159,0.929-18.313,1.465-27.447-0.196c-7.929-0.825-16.268,1.499-23.792-2.295
		c-10.354-5.219-12.688-4.082-14.063,7.662c-0.252,2.163-0.646,4.313-1.049,6.455c-5.567,29.742-48.854,512.272-49.841,528.461
		c-4.862,79.818-4.664,159.637,1.646,239.336c5.917,74.713,6.622,149.541,6.488,224.387c-0.063,34.273-2.3,68.545-3.568,102.818
		c-0.202,5.498,5.236,10.432,9.684,7.854c5.014-2.902,10.173-3.079,15.313-2.971c64.859,1.379,129.745,1.469,194.567,4.453
		c41.108,1.896,82.202,5.117,123.4,3.443c31.781-1.287,63.53-3.521,95.319-4.488c73.291-2.23,146.563-1.242,219.813,2.248
		c16.804,0.799,61.576,6.274,66.141,6.837c0.02,2.206,1.287,3.46,4.024,4.183c4.028,1.064,5.649-2.07,6.522-5.1
		c0.67-2.326,0.787-4.963,0.504-7.385c-2.227-18.957,10.229-37.27,2.478-56.461c-0.195-0.484,0.282-1.205,0.306-1.822
		c1.151-33.447,8.122-66.152,12.577-99.184c5.385-39.902,6.046-80.197,9.313-120.271c6.848-83.908,13.979-167.789,20.563-251.721
		c8.068-102.879,10.978-206.078,20.313-308.862c2.227-24.468,3.48-49.032,4.815-73.571
		C1043.732,246.936,1048.958,214.032,1046.74,180.455z M1026.279,308.171c-4.285,76.573-9.579,153.084-14.068,229.647
		c-5.729,97.688-12.47,195.343-22.008,292.765c0.075,15.293-2.271,30.398-3.475,45.59c-1.939,24.531-3.604,49.086-5.47,73.619
		c-0.203,2.688-4.115,55.646-6.979,79.4c-4.063,33.721-10.857,67.094-12.959,101.07c-0.273,4.475,4.717,25.145,3.109,30.186
		c-2.701,8.476-2.031,17.871-2.398,26.944c-8.149-1.154-48.314-6.771-63.656-7.433c-11.911,0.281-23.856,1.32-35.66-1.338
		c-14.454-0.68-28.902-1.74-43.362-1.973c-78.192-1.252-156.33-0.212-234.417,4.748c-32.094,2.038-64.239-0.402-96.309-2.173
		c-76.015-4.188-152.1-5.509-228.196-6.185c-8.159-0.072-10.733-1.537-10.191-10.176c6.243-99.761,5.124-199.527-2.221-299.154
		c-6.205-84.158-6.418-168.221-0.624-252.367c1.047-15.212,2.652-65.872,3.833-71.645c7.792-38.134,36.033-403.572,45.044-441.401
		c0.498-2.082,0.776-5.424,3.097-5.146c7.371,0.882,13.431-3.712,20.803-3.639c48.651,0.48,97.146,3.163,145.665,6.964
		c94.881,7.432,190.088,5.014,285.14,7.351c57.636,1.417,115.405-1.745,172.549,8.888c29.419,5.475,58.996,10.193,86.478,23.003
		c9.347,4.356,15.297,10.991,18.445,20.964c3.813,12.051,5.537,24.213,5.53,36.783
		C1033.949,231.878,1028.419,269.908,1026.279,308.171z"/>
	<path fill="#FFFFFF" d="M614.737,338.848c11.962,7.777,13.205,15.669,11.524,27.841c-1.177,8.538-3.978,12.029-12.615,12.045
		c-11.128,0.02-22.391-0.566-32.873,5.107c-4.257,2.303-6.561,6.581-5.275,9.318c1.286,2.737,7.954,11.356,9.613,13.009
		c0.586,0.649,13.153,16.253,15.411,17.743c4.893,3.245,10.132,2.616,15.317,1.08c4.788-1.419,7.145,0.186,7.382,5.107
		c0.147,3.114,0.014,6.276,0.532,9.329c1.435,8.48-2.232,11.242-10.495,11.694c-14.29,0.782-28.697,1.167-42.673,4.954
		c-3.427,0.927-7.189,1.849-6.892,6.222c0.243,3.547,2.813,6.437,6.1,7.639c2.157,0.79,4.885,0.327,7.313,0.049
		c25.6-2.953,51.208-5.72,77.049-4.97c9.329,0.271,20.315-2.646,27.546,1.332c7.786,4.289,8.184,16.639,11.835,25.454
		c1.689,4.076,4.195,9.051,9.191,7.122c4.679-1.804,4.104-7.06,2.604-11.493c-5.287-15.642-10.478-31.316-15.897-46.915
		c-1.836-5.278-4.007-10.479-6.484-15.487c-1.68-3.4-4.954-5.146-8.625-3.356c-3.224,1.571-3.757,4.896-2.693,8.125
		c1.553,4.733,3.294,9.417,5.188,14.024c1.822,4.426,0.725,6.438-4.229,6.305c-7.17-0.195-14.351-0.163-21.521-0.268
		c-16.075-0.236-15.559-0.271-16.202-16.59c-0.352-8.957,2.251-13.688,11.324-15.587c13.051-2.735,22.634-11.532,31.531-20.755
		c7.618-7.895,4.931-15.501-5.943-17.667c-5.17-1.031-10.47-1.511-15.735-1.943c-4.962-0.407-10.728,1.085-14.753-0.971
		c-5.694-2.906-0.927-9.634-2.323-14.486c-0.17-0.592-0.043-1.302-0.313-1.826c-4.013-7.849-0.145-8.954,6.729-8.391
		c16.386,1.347,25.516-9.487,18.899-28.751c-0.916-2.671-2.342-6.745-5.978-6.292c-4.346,0.541-3.34,4.95-2.914,7.663
		c1.446,9.217-3.729,11.262-11.283,11.672c-23.214,1.259-41.089-19.851-35.5-42.085c1.237-4.93,2.982-11-3.536-12.54
		c-6.768-1.599-7.696,5.081-8.59,9.796C592.789,310.701,598.532,328.311,614.737,338.848z M623.171,397.086
		c-0.188,5.091,0.19,11.131-7.435,11.49c-4.098,0.193-13.71-2.91-17.731-6.66c-5.807-4.051-5.896-6.759,1.65-8.403
		c4.917-1.07,9.839-1.267,14.754-0.939C617.815,392.801,623.427,390.066,623.171,397.086z M642.434,392.058
		c4.535,0.185,9.083,0.038,15.979,0.038c-5.627,6.016-9.444,9.808-15.393,10.3c-2.776,0.229-6.555,2.572-6.447-3.016
		C636.649,395.578,636.989,391.835,642.434,392.058z"/>
	<path fill="#FFFFFF" d="M603.879,230.658c4.561,3.846,7.941,8.725,11.169,13.716c1.684,2.606,3.522,5.814,7.089,5.132
		c3.377-0.647,4.189-3.928,5.04-7.097c3.015-11.261,2.688-22.846,3.675-34.298c0.344-4.009,0.813-6.442,6.042-4.911
		c16.896,4.948,31.104,14.846,45.752,23.99c3.054,1.908,5.769,7.173,9.866,1.596c3.044-4.142,4.09-9.323-0.433-12.509
		c-16.527-11.652-34.167-21.693-53.115-28.613c-6.033-2.201-8.517-3.769-8.894-9.996c-0.488-8.046-1.384-16.193-5.475-23.463
		c-1.587-2.819-3.943-5.604-7.338-4.447c-3.92,1.335-1.623,4.925-0.985,7.273c3.631,13.368,4.402,26.984,3.69,40.726
		c0,5.604,0.004,11.207-0.005,16.813c0,0.622-0.063,1.244-0.092,1.866c-0.483,11.243-0.521,11.316-10.271,6.261
		c-2.563-1.329-5.147-3.389-7.313-0.213C600.344,225.33,600.982,228.216,603.879,230.658z"/>
	<path fill="#FFFFFF" d="M565.781,230.379c11.941-5.589,20.793-14.382,28.233-24.985c2.118-3.019,5.354-5.317,4.631-11.248
		c-0.62-1.49,0.071-5.615-3.973-6.949c-3.604-1.189-5.883,1.419-7.639,4.02c-6.149,9.119-13.825,16.703-22.611,23.25
		c-2.234,1.665-4.411,3.478-6.306,5.513c-3.03,3.263-3.964,7.095-1.063,10.88C560.049,234.771,562.613,231.862,565.781,230.379z"/>
	<path fill="#FFFFFF" d="M580.099,285.5c-0.313-2.189-1.903-4.069-4.297-4.381c-1.914-0.249-3.543,0.66-4.646,2.441
		c-3.846,6.223-0.307,32.786,5.182,37.559c2.469,2.148,5.263,3.626,8.063,0.334c2.159-2.536,4.048-6.04,0.763-8.084
		c-6.302-3.921-4.313-9.581-4.055-14.949C580.8,294.108,580.703,289.769,580.099,285.5z"/>
	<path fill="#FFFFFF" d="M623.735,281.02c-3.877-1.334-5.947,0.241-5.971,4.394c-0.032,5.924,14.155,20.253,19.952,20.139
		c4.35-0.086,7.515-5.913,4.65-9.78C637.557,289.276,631.643,283.74,623.735,281.02z"/>
	<path fill="#FFFFFF" d="M662.424,277.646c-2.766,1.776-2.387,5.252-1.321,7.634c2.78,6.227,4.298,12.695,5.784,19.303
		c1.146,5.107,4.506,5.245,7.921,1.22c1.991-2.346,1.9-5.114,2.08-8.145c-0.499-6.285-1.529-12.707-6.296-17.696
		C668.434,277.706,665.61,275.599,662.424,277.646z"/>
	<path fill="#FFFFFF" d="M323.907,659.157c16.721-2.211,33.166-8.5,46.986-18.15c8.446-5.897,20.076-17.063,17.155-28.605
		c-0.029-0.165-0.066-0.324-0.119-0.479c-0.051-0.179-0.117-0.337-0.192-0.479c-4.521-11.52-22.456-11.246-32.416-10.405
		c-18.083,1.532-36.211,8.249-51.059,18.619c-8.363,5.841-22.581,19.359-16.214,30.922c2.632,4.781,8.069,7.028,13.136,8.205
		C308.563,660.5,316.464,660.139,323.907,659.157z M296.873,639.944c-0.201-1.746,0.406-3.416,0.78-4.067
		c1.364-2.365,2.854-3.917,5.047-5.82c12.765-11.068,31.07-16.808,47.624-18.406c6.23-0.604,12.602-0.503,18.657,1.189
		c3.771,1.049,7.717,3.047,9.084,6.95c0.492,1.704,0.19,3.183-0.216,4.168c-0.504,1.221-0.479,1.111-1.438,2.492
		c-0.134,0.188-0.225,0.322-0.288,0.426c-0.09,0.097-0.218,0.244-0.4,0.46c-0.66,0.779-1.38,1.507-2.104,2.23
		c-4.877,4.874-12.268,8.802-18.857,11.653c-14.48,6.266-32.922,10.977-48.583,6.604
		C302.342,646.752,297.36,644.231,296.873,639.944z"/>
</g>
</svg>
