<?xml version="1.0" encoding="utf-8"?>
<!-- Generator: Adobe Illustrator 16.0.0, SVG Export Plug-In . SVG Version: 6.00 Build 0)  -->
<!DOCTYPE svg PUBLIC "-//W3C//DTD SVG 1.1//EN" "http://www.w3.org/Graphics/SVG/1.1/DTD/svg11.dtd">
<svg version="1.1" id="Layer_1" xmlns="http://www.w3.org/2000/svg" xmlns:xlink="http://www.w3.org/1999/xlink" x="0px" y="0px"
	 width="595.279px" height="841.891px" viewBox="0 0 595.279 841.891" enable-background="new 0 0 595.279 841.891"
	 xml:space="preserve">
<g>
	<path fill="none" stroke="#FFFFFF" stroke-width="2" stroke-miterlimit="10" d="M590.14,303.584c-0.8-2.617-1.575-5.24-2.497-7.817
		c-0.35-0.96-1.244-1.555-2.357-1.617c-0.899-0.051-1.798-0.104-2.821-0.166c-1.762-3.252-2.882-6.777-5.209-9.863
		c-1.099-0.051-2.283-0.24-3.446-0.131c-3.377,0.314-6.69,0.942-9.643,2.783c-0.23,0.143-0.509,0.217-0.739,0.354
		c-1.224,0.731-2.541,0.927-3.949,0.847c-1.914-0.114-3.843-0.052-5.755-0.206c-1.533-0.125-2.901,0.062-4.067,1.143
		c-0.201,0.184-0.445,0.32-0.669,0.48c-1.665,1.199-3.34,1.257-5.082,0.12c-1.056-0.691-2.047-1.515-3.313-1.927
		c-0.514,0.47-1.035,0.857-1.438,1.337c-0.935,1.108-2.075,1.749-3.531,1.829c-0.159,0.012-0.312,0.178-0.435,0.257
		c-0.522,0.663-1.025,1.297-1.503,1.908c-1.274,0.108-2.445,0.211-3.657,0.314c-0.243,0.564-0.491,1.051-0.663,1.56
		c-0.349,1.035-0.64,2.098-0.987,3.139c-0.146,0.417-0.285,0.941-0.604,1.183c-1.386,1.028-2.722,2.2-4.536,2.406
		c-4.018,0.446-7.843,0.137-10.981-2.846c-0.46-0.44-0.979-0.829-1.489-1.213c-0.628-0.469-0.989-1.103-1.037-1.855
		c-0.14-2.035-0.871-3.915-1.54-5.807c-0.462-1.297-0.669-2.438,0.525-3.474c0.322-0.28,0.458-0.771,0.749-1.297
		c-1.374-2.428-2.752-4.874-4.031-7.137c-0.454-0.132-0.632-0.229-0.8-0.229c-2.562,0.052-4.837-0.617-6.789-2.377
		c-0.58-0.525-1.44-0.754-2.205-1.028c-0.412-0.153-0.927-0.257-1.335-0.147c-2.224,0.577-4.339,0.2-6.438-0.549
		c-0.246-0.093-0.537-0.052-0.792-0.063c-0.257,0.16-0.514,0.28-0.714,0.457c-1.354,1.217-2.603,2.595-4.729,2.297
		c-0.368-0.051-0.812,0.36-1.212,0.571c-0.476,0.246-0.936,0.515-1.279,0.697c-1.283-0.269-1.85-1.058-2.318-1.994
		c-1.059-2.125-2.137-4.24-3.238-6.343c-0.283-0.55-0.687-1.029-1.062-1.577c-1.193,0.177-2.271,0.372-3.354,0.479
		c-0.437,0.046-1.011,0.069-1.311-0.165c-1.077-0.852-2.146-1.812-2.104-3.343c0.104-3.823-0.139-7.691,1.242-11.377
		c0.582-1.56,0.767-3.171,0.734-4.84c-0.055-2.737-0.16-5.486,0.583-8.177c0.143-0.516,0.145-1.086,0.143-1.636
		c-0.022-2.742-0.097-5.479-0.101-8.229c0-0.874-0.245-1.583-0.842-2.223c-1.063-1.132-2.166-2.24-3.106-3.475
		c-1.411-1.84-3.229-2.886-5.688-3.292c-0.874,0.714-1.981,1.411-2.816,2.349c-1.974,2.224-4.451,3.767-6.828,5.463
		c-1.186,0.852-2.38,1.245-3.84,0.972c-0.895-0.166-1.837-0.028-2.737-0.171c-3.383-0.542-6.52-0.063-9.346,1.994
		c-0.943,0.691-2.028,0.72-3.147,0.583c-1.182-0.149-2.371-0.2-3.544-0.366c-1.616-0.223-3.074,0.057-4.401,1.046
		c-1.209,0.908-2.595,1.292-4.114,1.171c-0.452-0.034-0.915,0.046-1.372,0.029c-1.858-0.063-3.64,0.166-5.223,1.263
		c-0.841,0.583-1.7,0.538-2.577,0.023c-0.469-0.275-0.982-0.48-1.466-0.744c-1.839-1.005-3.791-1.125-5.84-0.862
		c-1.12,1.737-2.199,3.411-3.31,5.137c-1.284-0.131-2.459-0.364-3.622-0.343c-1.269,0.029-2.528,0.286-3.657,0.429
		c-0.236,0.28-0.371,0.412-0.465,0.561c-1.569,2.589-3.243,5.046-5.66,6.982c-1.508,1.212-1.375,3.378-0.131,4.853
		c0.765,0.908,1.695,1.32,2.805,1.537c0.857,0.171,1.849-0.028,2.521,0.73c0.151,1.104-0.595,1.767-1.058,2.503
		c-2.597,4.194-5.297,8.331-7.831,12.561c-1.031,1.726-2.285,3.028-4.169,3.737c-0.506,0.188-0.957,0.514-1.497,0.806
		c-0.245,0.783-0.517,1.554-0.736,2.337c-0.752,2.634-1.47,5.28-2.233,7.909c-0.191,0.68-0.521,1.319-0.792,1.988
		c-0.592,0.046-1.042,0.107-1.494,0.107c-2.012-0.017-4.025,0.029-6.031-0.097c-1.893-0.114-3.604,0.217-5.209,1.269
		c-0.739,0.486-1.491,1.085-2.625,1.023c-1.338-1.27-2.5-2.748-2.923-4.691c-0.646-2.948-1.358-5.88-1.846-8.846
		c-0.353-2.12-1.525-3.554-3.063-4.965c-0.6,0.554-1.083,0.966-1.53,1.411c-2.136,2.126-4.509,3.72-7.702,3.468
		c-1.158-0.085-1.853,0.479-2.431,1.429c-1.567,2.571-3.15,5.144-4.831,7.646c-0.901,1.348-1.42,2.708-1.305,4.349
		c0.062,0.885,0.219,1.839-0.492,2.753c-1.786,0.429-3.702,0.149-5.601,0.194c-1.902,0.046-3.813,0.012-5.776,0.012
		c-1.478,2.125-2.886,4.143-4.286,6.166c-0.303,0.445-0.545,0.931-0.829,1.417c0.452,0.847,0.863,1.623,1.305,2.446
		c-1.982,2.938-3.847,5.845-5.908,8.537c-2.552,0.16-4.92,0.399-7.289,0.428c-1.723,0.019-3.229,0.417-4.523,1.562
		c-0.95,0.834-2.015,1.171-3.289,0.851c-1.282-0.319-2.54-0.268-3.677,0.532c-0.906,0.634-1.899,0.554-2.899,0.313
		c-1.687-0.412-3.366-0.84-5.059-1.223c-0.599-0.131-1.219-0.148-1.882-0.223c-0.332,0.799-0.677,1.445-0.869,2.137
		c-0.562,2.006-1.588,3.657-3.306,4.874c-0.917,0.646-1.503,1.561-1.978,2.578c-1.193,2.564-2.435,5.114-3.683,7.651
		c-0.312,0.64-0.734,1.223-1.121,1.852c-2.488-0.229-3.925,1.405-5.6,2.634c-0.135,1.549-0.264,3-0.393,4.452
		c-0.125,1.446,0.062,2.92-0.411,4.491c-1.42,0.491-2.865,1.04-4.337,1.497c-4.117,1.279-3.094,1.332-6.266-0.737
		c-1.76-1.144-3.852-0.708-4.991,1.018c-0.757,1.138-1.589,2.279-2.052,3.549c-0.529,1.439-1.519,1.96-2.853,2.178
		c-0.536,0.079-1.088,0.177-1.631,0.177c-0.966-0.005-1.749,0.354-2.494,0.943c-1.931,1.53-3.923,2.994-5.84,4.548
		c-1.506,1.217-3.22,1.595-5.188,1.617c-1.85-2.12-3.706-4.24-5.585-6.395c-1.875-0.097-3.694-0.2-5.518-0.269
		c-0.251-0.013-0.511,0.137-0.875,0.239c-0.12,0.497-0.271,1.018-0.359,1.537c-0.197,1.171-0.417,2.344-0.531,3.521
		c-0.112,1.12-0.746,1.806-1.623,2.389c-1.049,0.697-2.2,0.8-3.409,0.782c-1.629-0.028-3.26-0.005-5.018-0.005
		c-0.84,0.875-1.595,1.994-2.646,2.657c-1.032,0.65-2.363,0.84-3.631,1.257c-0.66,1.172-1.283,2.389-2.012,3.543
		c-2.068,3.285-3.711,6.702-3.714,10.708c0,1.062-0.646,1.604-1.608,1.948c-3.114,1.107-6.243,1.907-9.626,1.708
		c-3.123-0.178-5.62-1.4-7.574-3.743c-1.521-1.823-2.935-3.737-4.348-5.646c-0.674-0.908-1.472-1.587-2.5-2.062
		c-1.989-0.925-3.926-1.959-5.929-2.846c-1.336-0.589-2.2-1.474-2.797-2.812c-1.683-3.754-3.466-7.462-5.237-11.166
		c-0.392-0.817-0.806-1.668-1.392-2.342c-2.163-2.486-4.319-4.954-5.789-7.948c-0.251-0.521-0.849-1.046-1.391-1.195
		c-1.208-0.343-2.403-0.891-3.769-0.76c-1.543,1.406-3.092,2.812-4.535,4.115c-5.085-0.27-9.144-2.311-12.379-5.72
		c-0.566,0-0.936-0.041-1.289,0.011c-3.077,0.422-6.152,0.851-9.224,1.308c-1.097,0.172-2.153,0.2-3.254-0.045
		c-2.229-0.509-4.466-0.965-6.717-1.332c-1.257-0.205-2.2-0.726-2.963-1.749c-0.972-1.313-2.045-2.548-3.18-3.941
		c-1.018,0.309-1.7,0.57-2.403,0.72c-0.797,0.165-1.62,0.336-2.423,0.313c-2.837-0.062-5.666-0.239-8.494-0.303
		c-1.16-0.028-2.187-0.247-2.925-1.183c-1.135-1.43-2.634-1.868-4.372-1.635c-0.983,0.132-1.989,0.251-2.926,0.561
		c-1.909,0.622-3.792,1.332-5.657,2.074c-1.552,0.616-3.114,0.937-4.8,0.931c-2.475-0.011-4.083,1.275-4.729,3.703
		c-0.926,3.475-1.125,2.486,0.42,5.995c0.443,1,0.911,1.994,1.31,3.012c0.291,0.766,0.57,1.554,0.69,2.359
		c0.283,1.892,0.497,3.806,0.663,5.714c0.051,0.618-0.054,1.286-0.266,1.869c-0.646,1.76-0.642,3.583-0.684,5.411
		c-0.02,0.84,0.069,1.635,0.599,2.338c1.024,1.359,1.313,2.977,1.622,4.6c0.457,2.395-0.357,4.337-2.132,5.835
		c-2.377,2-4.871,3.851-7.309,5.783c-0.666,0.524-1.386,0.851-2.234,0.941c-1.748,0.189-3.343,0.853-4.929,1.583
		c-1.117,0.515-1.997,1.099-2.468,2.36c-0.257,0.687-1.021,1.263-1.678,1.715c-1.562,1.062-2.356,2.422-2.337,4.359
		c0.015,1.399-0.525,1.948-1.917,2.206c-0.98,0.183-1.994,0.2-2.997,0.252c-1.092,0.057-1.893,0.52-2.473,1.463
		c-0.567,0.926-1.054,1.965-2.091,2.486c-1.188,0.594-1.646,1.61-1.866,2.827c-0.094,0.538-0.266,1.047-0.42,1.646
		c-0.915,0.223-1.789,0.435-2.749,0.669c-0.42,0.634-0.862,1.314-1.319,1.994c-0.362,0.537-0.776,0.966-1.46,1.154
		c-1.616,0.458-2.251,1.771-2.54,3.251c-0.243,1.251-0.337,2.531-0.48,3.806c-0.226,2.011,0.183,3.811,1.774,5.217
		c0.183,0.166,0.251,0.469,0.316,0.601c0.022,1.251-0.978,1.805-1.469,2.662c-0.038,2.265,0.5,4.557-0.443,6.774
		c-0.306,0.714,0.009,1.43,0.684,1.92c0.66,0.477,1.303,0.967,1.934,1.44c0.085,1.974,0.066,3.767-1.527,5.134
		c-0.795,0.674-0.943,1.702-0.475,2.503c0.8,1.377,0.812,2.816,0.654,4.25c-0.24,2.172,0.66,3.498,2.632,4.213
		c0.937,0.342,1.894,0.646,2.825,1.005c1.565,0.617,2.008,1.258,1.763,2.949c-0.151,1.068-0.597,2.097-0.88,3.148
		c-0.186,0.695-0.472,1.417,0.352,2.223c1.443,0.092,3.074,0.257,4.708,0.28c1.711,0.021,3.229,0.582,4.644,1.456
		c0.423,0.269,0.88,0.761,0.977,1.224c0.537,2.536,0.774,5.073-0.982,7.325c-0.114,0.143-0.214,0.298-0.307,0.452
		c-1.097,1.941-0.923,3.354,0.743,4.834c0.794,0.702,1.337,1.479,1.577,2.57c-0.103,0.28-0.197,0.635-0.352,0.96
		c-0.746,1.605-1.887,2.703-3.764,2.697c-0.935-0.007-1.524,0.537-2.108,1.113c-0.595,0.595-1.271,0.669-2.018,0.436
		c-0.875-0.274-1.736-0.578-2.608-0.847c-0.635-0.193-1.294-0.234-1.828,0.223c-1.096,0.933-2.458,1.139-3.764,1.538
		c-0.754,0.234-1.683,0.114-2.313,1.085c0.337,1.179,0.631,2.503,1.103,3.761c0.397,1.046,0.274,1.938-0.239,2.874
		c-1.184,2.172-2.015,4.485-2.794,6.835c-0.495,1.468-1.047,2.932-1.697,4.33c-0.494,1.069-1.108,2.104-1.823,3.04
		c-1.211,1.602-2.748,2.636-4.908,2.424c-0.792-0.074-1.603,0.052-2.6,0.093c-0.303,1.965-0.478,3.896-1.923,5.102
		c0.049,1.16,0.366,1.999,1.058,2.669c1.822,1.761,2.438,4.005,2.644,6.436c0.054,0.69,0.242,1.371,0.359,2.011
		c1.141,0.286,1.975-0.165,2.85-0.359c2.757-0.629,5.497-1.515,8.291-1.742c3.074-0.258,6.206,0.073,9.306,0.217
		c1.346,0.062,2.683,0.303,4.114,0.469c0.134,0.755,0.294,1.359,0.349,1.978c0.143,1.641,0.26,3.279,0.357,4.921
		c0.091,1.548,0.188,3.104,0.199,4.655c0.016,1.584-0.987,2.354-2.497,1.915c-0.688-0.2-1.331-0.577-1.969-0.926
		c-0.725-0.389-1.398-0.868-2.128-1.241c-1.356-0.696-2.751-0.77-4.266-0.232c-0.406,1.604-0.191,3.159-0.217,4.691
		c-0.037,1.913,0.125,3.845-0.794,5.736c1.463,1.177,1.533,2.806,1.539,4.463c0.003,1.006-0.006,2.017,0.129,3.011
		c0.062,0.469,0.457,0.897,0.653,1.27c1.069-0.058,1.403-0.776,1.875-1.304c0.435-0.49,0.902-0.96,1.598-0.941
		c2.653,0.086,5.294,0.257,7.22,2.484c0.031,2.194-0.208,4.246-0.943,6.264c-0.399,1.103-0.729,2.28-0.776,3.445
		c-0.117,2.555-0.034,5.114-0.04,7.676c-0.002,1.519,0.437,2.866,1.414,4.051c0.405,0.485,0.939,0.972,1.097,1.548
		c0.174,0.635-0.018,1.366-0.051,2.069c1.455,0.776,2.834,1.484,4.469,1.297c1.734-0.188,2.965,0.72,4.062,1.868
		c0.565,0.589,1.029,1.279,1.562,1.902c0.935,1.092,1.997,1.893,3.562,1.561c1.221-0.256,2.098,0.239,2.812,1.239
		c0.36,0.497,0.846,1.104,1.383,1.251c1.777,0.475,3.606,0.749,5.243-0.483c1.535-1.155,3.057-2.326,4.562-3.51
		c0.751-0.59,1.555-0.933,2.522-0.88c0.549,0.033,1.104-0.053,1.646,0.012c1.585,0.183,2.761-0.464,3.893-1.543
		c3.103-2.978,6.263-5.881,9.448-8.761c1.009-0.915,2.11-1.754,3.276-2.457c1.734-1.04,3.417-2.098,4.393-3.926
		c2.236-0.103,4.024,0.469,5.417,2.211c1.025,1.28,2.206,2.446,3.325,3.652c0.863,0.925,1.743,1.84,2.578,2.72
		c0.727-0.062,1.267-0.097,1.809-0.154c3.003-0.303,6.014-0.418,9.032-0.147c0.945,0.079,1.751,0.262,2.229,1.268
		c0.551,1.154,1.574,1.43,2.777,1.075c0.786-0.229,1.585-0.43,2.356-0.709c1.289-0.464,2.566-0.96,3.837-1.474
		c0.991-0.4,1.935-0.516,2.837,0.205c0.216,0.171,0.457,0.304,0.698,0.429c1.677,0.892,3.058,0.343,3.605-1.451
		c0.402-1.31,0.773-2.624,1.143-3.949c0.386-1.377,1.217-2.177,2.689-2.325c0.705-0.074,1.557-0.153,2.057-0.57
		c1.026-0.874,2.131-1.794,2.44-3.223c0.425-2,1.616-3.446,3.22-4.591c0.711-0.508,1.1-1.176,1.423-1.953
		c1.648-3.96,3.423-7.873,4.968-11.88c1.438-3.702,3.34-7.086,6.016-10.027c1.036-1.144,2.033-2.326,3.051-3.486
		c1.454-0.045,2.908-0.103,4.366-0.131c2.088-0.034,4.206,0.159,6.156-0.886c0.123-0.063,0.343,0.062,0.585,0.113
		c1.433,1.366,1.488,3.463,2.443,5.058c1.157,1.938,0.357,3.862,0.452,5.749c2.468,0.291,2.517,0.269,3.104-1.681
		c0.317-1.052,0.561-2.126,0.936-3.153c0.371-1.023,0.854-2.006,1.316-2.99c0.32-0.69,0.892-1.131,1.568-1.456
		c2.469-1.194,4.872-2.594,7.794-1.995c0.177,0.035,0.369,0.019,0.549-0.01c1.951-0.338,3.332,0.634,4.531,1.993
		c0.471,0.537,0.912,1.107,1.48,1.806c1.562-1.103,2.877-2.354,4.282-3.479c0.721-0.583,1.34-1.194,1.574-2.165
		c0.243-0.995,1.083-1.446,2.023-1.618c0.715-0.126,1.488-0.279,2.174-0.131c1.837,0.389,2.929-0.544,3.88-1.893
		c0.522-0.749,1.045-1.503,1.643-2.188c0.529-0.616,1.117-1.205,1.755-1.708c1.23-0.972,2.576-1.742,4.202-1.812
		c1.595-0.062,2.777-0.749,3.543-2.178c0.478-0.881,1.04-1.714,1.537-2.588c0.365-0.652,0.817-1.149,1.482-1.549
		c2.117-1.264,4.166-2.636,6.277-3.915c1.434-0.862,2.551-2.051,3.683-3.245c0.657-0.691,1.137-1.451,1.148-2.412
		c0.021-1.531,0.669-2.812,1.414-4.085c0.789-1.337,1.51-2.715,2.173-4.114c0.417-0.868,0.974-1.457,1.867-1.881
		c2.478-1.16,4.938-2.371,7.354-3.656c1.408-0.749,2.895-1.12,4.451-1.188c0.522-0.023,1.174,0.045,1.546,0.343
		c0.957,0.771,2.031,0.755,3.123,0.755c2.193,0.018,4.369,0.058,6.557,0.337c2.896,0.371,5.81,0.354,8.729-0.188
		c1.683-0.314,3.495-0.377,5.183-0.121c2.888,0.446,2.494,0.479,5.1-1.662c0.353-0.292,0.703-0.584,1.056-0.875
		c2.773-2.314,2.773-2.314,3.11-5.959c0.018-0.184,0.037-0.367,0.034-0.549c-0.032-1.206,0.475-2.069,1.526-2.703
		c1.46-0.88,2.38-2.233,3.011-3.794c0.274-0.675,0.612-1.332,0.84-2.023c0.329-0.994,1.028-1.444,2.006-1.622
		c1.983-0.349,3.955-0.696,5.978-0.65c1.454,0.033,2.907-0.054,4.373-0.081c0.557-0.88,1.051-1.646,1.521-2.422
		c1.521-2.498,3.018-5.013,4.553-7.498c0.321-0.521,0.781-0.954,1.094-1.331c1.451-0.018,2.147,0.812,2.843,1.689
		c2.151,2.728,4.322,5.437,6.503,8.145c1.144,1.423,2.291,2.852,3.497,4.218c0.942,1.079,1.429,1.142,2.562,0.28
		c1.834-1.396,3.739-2.635,6.028-3.12c1.405-0.304,2.251-0.995,2.46-2.509c0.281-2.04,1.641-3.399,3.248-4.538
		c1.515-1.074,3.128-1.395,4.933-0.839c0.956,0.303,1.937,0.548,2.926,0.714c1.997,0.337,3.956,0.468,5.851-0.636
		c0.927-0.541,2.049-0.765,3.102-1.066c2.014-0.59,3.503-1.909,4.889-3.389c0.306-0.326,0.511-0.761,0.811-1.099
		c1.593-1.755,3.326-2.24,5.274-0.68c0.711,0.56,1.417,1.153,2.023,1.828c0.898,0.994,1.929,1.65,3.291,1.767
		c1.117-0.516,2.104-1.618,3.669-0.721c0.198,0.555,0.57,1.217,0.658,1.909c0.164,1.363,1.021,2.103,2.104,2.668
		c0.726,0.383,1.494,0.696,2.269,0.954c0.417,0.137,0.911,0.177,1.331,0.091c1.893-0.377,3.754-0.8,5.046-2.468
		c0.5-0.642,1.234-1.098,1.759-1.727c0.692-0.84,1.474-1.687,1.891-2.663c0.954-2.264,1.834-4.577,2.523-6.938
		c0.94-3.2,2.405-6.098,4.294-8.821c2.656-3.852,6.444-5.178,10.922-4.973c1.482,0.067,2.126,0.65,2.449,2.107
		c0.217,0.979,0.306,1.995,0.497,2.978c0.104,0.532,0.169,1.207,0.514,1.521c1.494,1.399,2.71,3.113,5.138,3.273
		c2.248,0.147,3.875,1.424,4.314,3.875c0.251,1.394,1.088,1.988,2.497,1.959c0.806-0.011,1.613-0.113,2.287-0.166
		c0.283,0.224,0.445,0.313,0.556,0.452c0.499,0.635,0.794,1.45,1.747,1.622c1.005,0.184,1.989,0.304,2.936-0.229
		c0.905-0.508,1.874-0.657,2.909-0.508c0.536,0.073,1.095,0.045,1.637,0c0.975-0.081,1.76-0.446,2.097-1.47
		c0.083-0.245,0.29-0.45,0.467-0.721c1.144-0.229,2.365-0.309,3.401-1.53c0.104-1.286,0.312-2.869,1.25-3.133
		c2.978-0.343,3.397,1.314,3.979,2.641c1.838,0.915,3.604,0.578,5.098-0.273c1.786-1.022,3.598-1.132,5.534-1.08
		c1.583,0.04,2.889,0.47,3.601,1.988c0.451,0.96,1.248,1.315,2.214,1.31c1.736-0.018,3.494,0.062,5.2-0.2
		c3.206-0.497,5.938,0.515,8.515,2.246c2.426,1.634,4.849,3.273,7.279,4.896c0.674,0.451,1.38,0.863,2.013,1.258
		c0.272-0.126,0.49-0.16,0.588-0.286c2.835-3.463,5.694-6.907,8.452-10.435c1.027-1.309,1.567-2.862,1.311-4.616
		c-0.156-1.081-0.156-2.188-0.22-3.279c-0.105-1.862,0.62-2.742,2.432-2.857c0.914-0.058,1.826-0.011,2.742-0.023
		c1.479-0.021,2.889-0.323,4.267-0.891c0.724-0.303,1.24-0.725,1.574-1.418c0.557-1.154,1.098-2.314,1.711-3.436
		c0.669-1.229,1.559-2.332,2.893-2.802c2.742-0.967,5.447-2.161,8.487-1.817c0.902,0.108,1.829,0.022,2.74,0.017
		c0.551,0,1.105,0.047,1.646-0.021c2.496-0.304,3.294-1.207,3.686-3.321c0.066-0.36,0.086-0.731,0.132-1.092
		c0.322-2.405-0.084-4.743-0.806-7.019c-1.605-5.057-2.632-10.256-3.767-15.422c-0.346-1.583,0.002-2.868,1.285-3.908
		c1.642-1.319,3.202-2.731,4.868-4.006c1.412-1.084,2.617-2.256,2.927-4.106c0.022-0.149,0.229-0.27,0.454-0.521
		c0.426-0.017,1.033-0.217,1.491-0.034c1.163,0.468,2.26,1.108,3.525,1.753c0.439-0.548,0.926-1.074,1.325-1.655
		c2.172-3.166,4.261-6.391,6.506-9.504c1.125-1.554,1.723-3.132,1.617-5.068c-0.078-1.429-0.163-2.908,0.267-4.257
		c1.371-1.034,2.769-0.979,4.266-0.727c1.991,0.338,3.942,0.452,5.746-0.914c1.079-0.816,2.334-0.76,3.578,0.058
		c0.731,0.485,1.664,0.736,2.541,0.908c1.769,0.338,2.484-0.178,3.031-1.896c0.331-1.041,0.619-2.114,1.126-3.063
		c0.941-1.771,2.009-3.479,3.077-5.183c1.226-1.953,2.69-3.685,4.843-4.702c0.226-0.103,0.371-0.371,0.691-0.709
		c-0.13-1.349-0.258-2.794-0.399-4.24c-0.275-2.725-0.571-5.429-0.418-8.193c0.183-3.194,1.119-6.109,2.831-8.728
		c0.743-1.131,1.052-2.08,0.539-3.268c-0.904-2.075-0.26-4.131-0.02-6.205c0.271-2.315,1.377-4.115,3.297-5.435
		c0.068-0.497,0.109-0.948,0.2-1.39c0.737-3.411,1.472-4.057,4.969-4.159c1.23-0.041,2.183-0.399,2.537-1.629
		c0.273-0.947,0.899-1.565,1.611-2.147c0.415-0.337,0.831-0.663,1.243-0.988C590.153,304.303,590.241,303.915,590.14,303.584z"/>
	<polyline fill="none" stroke="#FFFFFF" stroke-width="2" stroke-miterlimit="10" points="101.952,368.544 135.617,260.193 
		179.61,260.21 	"/>
	<text transform="matrix(1 0 0 1 203.947 266.6736)" fill="#FFFFFF" font-family="'NotoSansHant-DemiLight-B5pc-H'" font-size="24">臺中市和平</text>
</g>
</svg>
