<?xml version="1.0" encoding="utf-8"?>
<!-- Generator: Adobe Illustrator 16.0.0, SVG Export Plug-In . SVG Version: 6.00 Build 0)  -->
<!DOCTYPE svg PUBLIC "-//W3C//DTD SVG 1.1//EN" "http://www.w3.org/Graphics/SVG/1.1/DTD/svg11.dtd">
<svg version="1.1" id="Layer_1" xmlns="http://www.w3.org/2000/svg" xmlns:xlink="http://www.w3.org/1999/xlink" x="0px" y="0px"
	 width="595.279px" height="463.374px" viewBox="0 140.05 595.279 463.374" enable-background="new 0 140.05 595.279 463.374"
	 xml:space="preserve">
<g>
	<path fill="none" stroke="#FFFFFF" stroke-width="2" stroke-miterlimit="10" d="M590.14,320.726c-0.8-2.617-1.575-5.24-2.497-7.817
		c-0.35-0.96-1.244-1.555-2.357-1.617c-0.898-0.051-1.798-0.104-2.82-0.166c-1.763-3.252-2.883-6.776-5.209-9.862
		c-1.1-0.052-2.283-0.24-3.446-0.131c-3.377,0.313-6.69,0.941-9.643,2.782c-0.23,0.144-0.51,0.218-0.739,0.354
		c-1.225,0.73-2.541,0.927-3.949,0.847c-1.914-0.114-3.843-0.052-5.755-0.206c-1.533-0.125-2.901,0.062-4.067,1.144
		c-0.201,0.184-0.444,0.319-0.669,0.479c-1.665,1.199-3.34,1.257-5.082,0.12c-1.056-0.691-2.047-1.515-3.312-1.927
		c-0.515,0.47-1.035,0.856-1.438,1.337c-0.935,1.107-2.074,1.749-3.53,1.829c-0.159,0.012-0.312,0.178-0.436,0.257
		c-0.521,0.663-1.024,1.297-1.503,1.908c-1.273,0.107-2.445,0.211-3.657,0.313c-0.243,0.564-0.491,1.051-0.663,1.561
		c-0.349,1.035-0.64,2.098-0.986,3.139c-0.146,0.417-0.285,0.94-0.604,1.183c-1.386,1.028-2.722,2.2-4.536,2.406
		c-4.018,0.446-7.843,0.137-10.98-2.846c-0.46-0.44-0.979-0.829-1.489-1.213c-0.628-0.47-0.989-1.104-1.037-1.855
		c-0.14-2.035-0.871-3.915-1.54-5.807c-0.462-1.297-0.669-2.438,0.525-3.475c0.321-0.279,0.458-0.771,0.749-1.297
		c-1.374-2.428-2.752-4.874-4.031-7.137c-0.454-0.132-0.632-0.229-0.8-0.229c-2.562,0.052-4.837-0.617-6.789-2.378
		c-0.58-0.524-1.44-0.754-2.205-1.027c-0.412-0.153-0.927-0.257-1.335-0.147c-2.224,0.577-4.339,0.2-6.438-0.549
		c-0.246-0.093-0.536-0.052-0.792-0.062c-0.257,0.159-0.514,0.279-0.714,0.457c-1.354,1.217-2.603,2.595-4.729,2.297
		c-0.368-0.052-0.812,0.359-1.212,0.57c-0.477,0.246-0.937,0.516-1.279,0.697c-1.283-0.269-1.85-1.058-2.318-1.994
		c-1.059-2.125-2.137-4.239-3.237-6.343c-0.283-0.55-0.688-1.029-1.062-1.577c-1.192,0.177-2.271,0.372-3.354,0.479
		c-0.438,0.046-1.012,0.068-1.312-0.165c-1.077-0.853-2.146-1.812-2.104-3.343c0.104-3.823-0.14-7.691,1.241-11.378
		c0.582-1.56,0.768-3.171,0.734-4.84c-0.055-2.736-0.16-5.485,0.583-8.177c0.144-0.516,0.146-1.086,0.144-1.636
		c-0.022-2.742-0.098-5.479-0.102-8.229c0-0.874-0.245-1.583-0.842-2.223c-1.063-1.132-2.166-2.24-3.106-3.475
		c-1.411-1.841-3.229-2.887-5.688-3.292c-0.874,0.714-1.981,1.41-2.816,2.349c-1.974,2.224-4.451,3.767-6.828,5.463
		c-1.186,0.852-2.38,1.245-3.84,0.972c-0.895-0.166-1.837-0.027-2.736-0.171c-3.384-0.542-6.521-0.062-9.347,1.994
		c-0.942,0.691-2.027,0.72-3.146,0.583c-1.183-0.149-2.371-0.2-3.544-0.366c-1.616-0.223-3.074,0.058-4.401,1.046
		c-1.209,0.908-2.595,1.292-4.114,1.171c-0.452-0.033-0.915,0.047-1.372,0.029c-1.857-0.062-3.64,0.166-5.223,1.264
		c-0.841,0.582-1.7,0.537-2.577,0.022c-0.469-0.275-0.982-0.479-1.466-0.744c-1.839-1.005-3.791-1.125-5.84-0.861
		c-1.12,1.736-2.199,3.41-3.311,5.137c-1.284-0.131-2.459-0.364-3.622-0.343c-1.269,0.028-2.527,0.285-3.657,0.429
		c-0.235,0.28-0.37,0.412-0.465,0.561c-1.568,2.589-3.243,5.046-5.66,6.982c-1.508,1.212-1.375,3.378-0.131,4.853
		c0.766,0.908,1.695,1.32,2.806,1.537c0.856,0.171,1.849-0.027,2.521,0.73c0.151,1.104-0.595,1.767-1.058,2.503
		c-2.598,4.193-5.297,8.331-7.831,12.561c-1.031,1.727-2.285,3.028-4.169,3.737c-0.506,0.188-0.957,0.514-1.497,0.806
		c-0.245,0.783-0.518,1.555-0.736,2.337c-0.752,2.635-1.47,5.28-2.233,7.909c-0.19,0.681-0.521,1.319-0.792,1.988
		c-0.592,0.046-1.042,0.107-1.493,0.107c-2.013-0.018-4.025,0.028-6.031-0.098c-1.894-0.114-3.604,0.217-5.209,1.27
		c-0.739,0.485-1.491,1.085-2.625,1.022c-1.338-1.27-2.5-2.748-2.923-4.69c-0.646-2.948-1.358-5.88-1.847-8.847
		c-0.353-2.12-1.524-3.554-3.062-4.965c-0.601,0.554-1.083,0.966-1.53,1.411c-2.136,2.126-4.509,3.72-7.702,3.468
		c-1.157-0.085-1.853,0.479-2.431,1.43c-1.567,2.57-3.15,5.144-4.831,7.646c-0.901,1.348-1.42,2.708-1.305,4.349
		c0.062,0.886,0.219,1.84-0.492,2.753c-1.786,0.43-3.702,0.149-5.602,0.194c-1.901,0.046-3.812,0.012-5.775,0.012
		c-1.479,2.125-2.886,4.144-4.286,6.166c-0.303,0.445-0.545,0.932-0.829,1.417c0.452,0.847,0.863,1.623,1.305,2.446
		c-1.981,2.938-3.847,5.845-5.907,8.537c-2.553,0.16-4.92,0.398-7.289,0.428c-1.724,0.019-3.229,0.417-4.523,1.562
		c-0.95,0.834-2.015,1.171-3.289,0.851c-1.282-0.319-2.54-0.268-3.677,0.532c-0.906,0.634-1.899,0.554-2.899,0.312
		c-1.687-0.412-3.365-0.84-5.059-1.223c-0.599-0.131-1.219-0.148-1.882-0.223c-0.332,0.799-0.677,1.444-0.869,2.137
		c-0.562,2.006-1.588,3.657-3.306,4.874c-0.917,0.646-1.503,1.561-1.979,2.578c-1.192,2.563-2.435,5.113-3.683,7.65
		c-0.312,0.641-0.734,1.224-1.121,1.853c-2.488-0.229-3.925,1.404-5.601,2.634c-0.135,1.549-0.264,3-0.393,4.452
		c-0.125,1.446,0.062,2.92-0.411,4.491c-1.42,0.49-2.865,1.04-4.337,1.497c-4.117,1.278-3.094,1.331-6.266-0.737
		c-1.761-1.145-3.853-0.708-4.991,1.018c-0.757,1.139-1.589,2.279-2.052,3.549c-0.529,1.439-1.52,1.961-2.854,2.179
		c-0.536,0.079-1.088,0.177-1.631,0.177c-0.966-0.005-1.749,0.354-2.494,0.943c-1.931,1.529-3.923,2.993-5.84,4.548
		c-1.506,1.217-3.22,1.595-5.188,1.617c-1.85-2.12-3.705-4.24-5.585-6.396c-1.875-0.097-3.693-0.2-5.518-0.269
		c-0.251-0.014-0.511,0.137-0.875,0.238c-0.12,0.497-0.271,1.019-0.359,1.537c-0.196,1.171-0.417,2.345-0.53,3.521
		c-0.112,1.12-0.746,1.806-1.623,2.389c-1.05,0.697-2.2,0.8-3.409,0.782c-1.629-0.028-3.26-0.005-5.019-0.005
		c-0.84,0.875-1.595,1.994-2.646,2.657c-1.032,0.649-2.363,0.84-3.631,1.257c-0.66,1.172-1.283,2.389-2.013,3.543
		c-2.067,3.285-3.711,6.702-3.714,10.708c0,1.062-0.646,1.604-1.607,1.947c-3.114,1.107-6.243,1.907-9.626,1.709
		c-3.123-0.179-5.62-1.4-7.574-3.743c-1.521-1.823-2.936-3.737-4.348-5.646c-0.675-0.908-1.473-1.587-2.5-2.062
		c-1.989-0.926-3.927-1.959-5.93-2.847c-1.336-0.589-2.2-1.474-2.797-2.812c-1.683-3.754-3.466-7.462-5.237-11.166
		c-0.392-0.817-0.806-1.668-1.392-2.342c-2.163-2.486-4.319-4.954-5.789-7.948c-0.251-0.521-0.849-1.046-1.391-1.195
		c-1.208-0.343-2.403-0.891-3.77-0.76c-1.543,1.406-3.092,2.812-4.535,4.115c-5.085-0.271-9.144-2.312-12.379-5.721
		c-0.565,0-0.936-0.041-1.289,0.012c-3.076,0.422-6.151,0.851-9.224,1.308c-1.097,0.172-2.153,0.2-3.254-0.045
		c-2.229-0.509-4.466-0.965-6.717-1.332c-1.257-0.205-2.2-0.726-2.963-1.749c-0.973-1.312-2.045-2.548-3.181-3.941
		c-1.018,0.31-1.7,0.57-2.402,0.721c-0.798,0.165-1.62,0.336-2.424,0.312c-2.837-0.062-5.666-0.239-8.493-0.303
		c-1.16-0.028-2.188-0.247-2.926-1.183c-1.135-1.431-2.634-1.868-4.372-1.636c-0.982,0.132-1.988,0.251-2.926,0.562
		c-1.909,0.622-3.792,1.332-5.657,2.074c-1.552,0.615-3.113,0.937-4.8,0.931c-2.475-0.011-4.083,1.274-4.729,3.703
		c-0.926,3.475-1.125,2.485,0.42,5.995c0.442,1,0.911,1.994,1.31,3.012c0.291,0.766,0.57,1.554,0.69,2.359
		c0.283,1.892,0.497,3.806,0.663,5.714c0.051,0.618-0.055,1.286-0.267,1.869c-0.646,1.76-0.642,3.583-0.684,5.41
		c-0.021,0.841,0.069,1.636,0.599,2.339c1.024,1.358,1.313,2.977,1.622,4.6c0.457,2.395-0.356,4.337-2.132,5.835
		c-2.377,2-4.871,3.851-7.309,5.783c-0.666,0.523-1.387,0.851-2.234,0.94c-1.748,0.189-3.343,0.854-4.929,1.583
		c-1.117,0.516-1.997,1.1-2.468,2.36c-0.258,0.687-1.021,1.263-1.679,1.715c-1.562,1.062-2.355,2.422-2.337,4.359
		c0.016,1.398-0.524,1.947-1.917,2.206c-0.979,0.183-1.994,0.2-2.997,0.252c-1.092,0.057-1.893,0.52-2.473,1.463
		c-0.567,0.926-1.054,1.965-2.091,2.486c-1.188,0.594-1.646,1.609-1.866,2.826c-0.094,0.538-0.266,1.048-0.42,1.646
		c-0.915,0.223-1.789,0.435-2.749,0.669c-0.42,0.634-0.862,1.314-1.319,1.994c-0.361,0.537-0.775,0.967-1.46,1.154
		c-1.616,0.457-2.251,1.771-2.54,3.25c-0.243,1.252-0.337,2.531-0.479,3.807c-0.227,2.012,0.183,3.811,1.773,5.217
		c0.184,0.166,0.251,0.469,0.316,0.602c0.021,1.252-0.979,1.805-1.469,2.662c-0.038,2.266,0.5,4.557-0.443,6.773
		c-0.306,0.715,0.009,1.43,0.684,1.92c0.66,0.477,1.304,0.967,1.935,1.441c0.085,1.973,0.065,3.766-1.527,5.133
		c-0.795,0.674-0.942,1.703-0.475,2.504c0.8,1.377,0.812,2.814,0.653,4.25c-0.239,2.172,0.66,3.498,2.633,4.213
		c0.937,0.342,1.894,0.645,2.824,1.004c1.565,0.617,2.009,1.258,1.764,2.949c-0.151,1.068-0.598,2.098-0.88,3.148
		c-0.187,0.695-0.473,1.416,0.352,2.223c1.443,0.092,3.074,0.258,4.708,0.281c1.711,0.02,3.229,0.58,4.645,1.455
		c0.423,0.27,0.88,0.762,0.977,1.225c0.537,2.535,0.774,5.072-0.982,7.324c-0.113,0.143-0.214,0.299-0.307,0.451
		c-1.097,1.941-0.923,3.355,0.743,4.836c0.794,0.701,1.337,1.479,1.577,2.568c-0.104,0.281-0.197,0.635-0.353,0.961
		c-0.746,1.605-1.887,2.703-3.764,2.697c-0.936-0.008-1.524,0.537-2.108,1.113c-0.595,0.594-1.271,0.668-2.018,0.436
		c-0.875-0.273-1.736-0.578-2.608-0.848c-0.635-0.193-1.294-0.234-1.828,0.223c-1.096,0.934-2.458,1.141-3.764,1.539
		c-0.754,0.234-1.683,0.113-2.312,1.084c0.337,1.18,0.631,2.504,1.103,3.762c0.397,1.045,0.274,1.938-0.239,2.873
		c-1.184,2.172-2.015,4.486-2.794,6.836c-0.495,1.469-1.047,2.932-1.696,4.33c-0.494,1.068-1.108,2.104-1.823,3.039
		c-1.211,1.604-2.748,2.637-4.908,2.424c-0.792-0.072-1.603,0.053-2.6,0.094c-0.304,1.965-0.479,3.896-1.924,5.102
		c0.05,1.16,0.366,2,1.059,2.67c1.822,1.76,2.438,4.004,2.644,6.436c0.055,0.689,0.242,1.371,0.359,2.012
		c1.141,0.285,1.975-0.166,2.85-0.359c2.757-0.629,5.497-1.516,8.291-1.742c3.074-0.258,6.206,0.072,9.307,0.217
		c1.346,0.062,2.683,0.303,4.113,0.469c0.135,0.756,0.294,1.359,0.35,1.979c0.143,1.641,0.26,3.279,0.356,4.92
		c0.091,1.549,0.188,3.105,0.199,4.656c0.016,1.584-0.987,2.354-2.497,1.914c-0.688-0.199-1.331-0.576-1.969-0.926
		c-0.726-0.389-1.398-0.867-2.128-1.24c-1.356-0.697-2.751-0.77-4.267-0.232c-0.405,1.604-0.19,3.158-0.217,4.691
		c-0.037,1.912,0.125,3.844-0.794,5.736c1.463,1.176,1.533,2.805,1.539,4.463c0.003,1.006-0.006,2.016,0.129,3.01
		c0.062,0.469,0.457,0.898,0.653,1.271c1.069-0.059,1.403-0.777,1.875-1.305c0.435-0.49,0.902-0.961,1.598-0.941
		c2.653,0.086,5.294,0.258,7.221,2.484c0.03,2.193-0.208,4.246-0.943,6.264c-0.399,1.104-0.729,2.279-0.776,3.445
		c-0.117,2.555-0.034,5.113-0.04,7.676c-0.002,1.52,0.438,2.865,1.414,4.051c0.405,0.484,0.939,0.973,1.098,1.549
		c0.174,0.635-0.019,1.365-0.052,2.068c1.455,0.775,2.834,1.484,4.47,1.297c1.733-0.188,2.965,0.721,4.062,1.869
		c0.565,0.588,1.029,1.277,1.562,1.9c0.935,1.092,1.996,1.895,3.562,1.562c1.221-0.258,2.098,0.238,2.812,1.238
		c0.359,0.496,0.846,1.104,1.383,1.25c1.776,0.477,3.605,0.75,5.243-0.482c1.534-1.154,3.057-2.326,4.562-3.51
		c0.751-0.59,1.555-0.934,2.522-0.881c0.549,0.033,1.104-0.053,1.646,0.014c1.585,0.182,2.761-0.465,3.894-1.543
		c3.103-2.979,6.263-5.881,9.447-8.762c1.009-0.916,2.11-1.754,3.276-2.457c1.734-1.039,3.417-2.098,4.393-3.926
		c2.236-0.104,4.024,0.469,5.417,2.211c1.025,1.279,2.206,2.445,3.325,3.652c0.863,0.924,1.743,1.84,2.578,2.719
		c0.727-0.061,1.267-0.096,1.809-0.154c3.003-0.303,6.015-0.418,9.032-0.146c0.945,0.08,1.751,0.262,2.229,1.268
		c0.551,1.154,1.573,1.432,2.776,1.076c0.786-0.229,1.585-0.43,2.356-0.709c1.289-0.465,2.565-0.961,3.837-1.475
		c0.991-0.4,1.935-0.516,2.837,0.205c0.216,0.172,0.457,0.305,0.698,0.43c1.677,0.893,3.058,0.342,3.604-1.451
		c0.402-1.311,0.773-2.625,1.144-3.949c0.386-1.377,1.217-2.178,2.688-2.324c0.705-0.074,1.558-0.154,2.058-0.57
		c1.025-0.875,2.131-1.795,2.439-3.223c0.425-2,1.616-3.447,3.221-4.592c0.711-0.508,1.1-1.176,1.423-1.953
		c1.647-3.959,3.423-7.873,4.968-11.881c1.438-3.701,3.34-7.086,6.016-10.025c1.036-1.145,2.033-2.326,3.052-3.486
		c1.453-0.045,2.907-0.104,4.365-0.131c2.088-0.035,4.206,0.158,6.156-0.887c0.123-0.062,0.343,0.062,0.585,0.113
		c1.433,1.365,1.488,3.463,2.443,5.059c1.156,1.938,0.356,3.861,0.452,5.748c2.468,0.291,2.517,0.27,3.104-1.682
		c0.317-1.051,0.562-2.125,0.937-3.152c0.37-1.023,0.854-2.006,1.315-2.99c0.32-0.689,0.893-1.131,1.568-1.455
		c2.469-1.195,4.872-2.594,7.794-1.996c0.177,0.035,0.369,0.02,0.549-0.01c1.951-0.338,3.332,0.635,4.531,1.994
		c0.471,0.537,0.912,1.105,1.479,1.805c1.562-1.102,2.877-2.354,4.282-3.479c0.721-0.582,1.34-1.193,1.574-2.164
		c0.243-0.996,1.083-1.447,2.022-1.619c0.715-0.125,1.488-0.279,2.174-0.131c1.838,0.389,2.93-0.543,3.881-1.893
		c0.521-0.75,1.045-1.504,1.643-2.188c0.529-0.617,1.117-1.205,1.755-1.709c1.23-0.971,2.576-1.742,4.202-1.812
		c1.595-0.061,2.777-0.748,3.543-2.178c0.479-0.881,1.04-1.713,1.537-2.588c0.365-0.652,0.817-1.148,1.482-1.549
		c2.116-1.264,4.165-2.635,6.276-3.914c1.435-0.863,2.551-2.051,3.684-3.246c0.656-0.691,1.137-1.451,1.147-2.412
		c0.021-1.531,0.669-2.811,1.414-4.084c0.789-1.338,1.51-2.715,2.173-4.115c0.417-0.867,0.975-1.457,1.867-1.881
		c2.478-1.16,4.938-2.371,7.354-3.656c1.408-0.748,2.896-1.119,4.451-1.188c0.522-0.023,1.174,0.045,1.546,0.344
		c0.957,0.771,2.031,0.754,3.123,0.754c2.193,0.02,4.369,0.059,6.558,0.338c2.896,0.371,5.81,0.354,8.729-0.188
		c1.684-0.314,3.495-0.377,5.184-0.121c2.888,0.445,2.494,0.479,5.1-1.662c0.354-0.293,0.703-0.584,1.056-0.875
		c2.773-2.314,2.773-2.314,3.11-5.959c0.018-0.184,0.037-0.367,0.034-0.549c-0.032-1.207,0.475-2.07,1.525-2.703
		c1.461-0.881,2.381-2.234,3.012-3.795c0.273-0.674,0.611-1.332,0.84-2.023c0.329-0.994,1.028-1.443,2.006-1.621
		c1.983-0.35,3.955-0.695,5.979-0.65c1.453,0.033,2.906-0.053,4.372-0.08c0.558-0.881,1.052-1.646,1.521-2.422
		c1.521-2.498,3.018-5.014,4.553-7.498c0.321-0.521,0.781-0.955,1.094-1.332c1.451-0.018,2.147,0.812,2.844,1.689
		c2.15,2.729,4.321,5.438,6.503,8.145c1.144,1.424,2.291,2.852,3.497,4.219c0.941,1.078,1.429,1.141,2.562,0.279
		c1.834-1.396,3.739-2.635,6.028-3.119c1.405-0.305,2.251-0.996,2.46-2.51c0.281-2.039,1.641-3.398,3.248-4.537
		c1.515-1.074,3.128-1.396,4.933-0.84c0.956,0.303,1.938,0.549,2.926,0.715c1.997,0.336,3.956,0.467,5.852-0.637
		c0.927-0.541,2.049-0.766,3.102-1.066c2.015-0.59,3.503-1.908,4.89-3.389c0.306-0.326,0.511-0.762,0.811-1.1
		c1.593-1.754,3.326-2.24,5.274-0.68c0.711,0.561,1.417,1.154,2.022,1.828c0.898,0.994,1.93,1.65,3.291,1.768
		c1.117-0.516,2.104-1.619,3.669-0.721c0.198,0.555,0.57,1.217,0.658,1.908c0.164,1.363,1.021,2.104,2.104,2.668
		c0.726,0.383,1.493,0.695,2.269,0.955c0.417,0.137,0.911,0.176,1.331,0.09c1.893-0.377,3.754-0.799,5.046-2.467
		c0.5-0.643,1.234-1.1,1.759-1.729c0.692-0.84,1.475-1.686,1.892-2.662c0.954-2.264,1.834-4.578,2.522-6.938
		c0.94-3.201,2.405-6.1,4.294-8.822c2.656-3.852,6.444-5.178,10.922-4.973c1.482,0.066,2.126,0.65,2.449,2.107
		c0.217,0.979,0.307,1.994,0.497,2.979c0.104,0.531,0.169,1.207,0.515,1.52c1.493,1.4,2.71,3.113,5.138,3.273
		c2.248,0.146,3.875,1.424,4.313,3.875c0.251,1.395,1.088,1.988,2.497,1.959c0.807-0.01,1.613-0.113,2.287-0.166
		c0.283,0.225,0.445,0.312,0.557,0.453c0.499,0.635,0.794,1.449,1.747,1.621c1.005,0.184,1.988,0.305,2.936-0.229
		c0.905-0.508,1.874-0.658,2.909-0.508c0.536,0.072,1.095,0.045,1.637,0c0.976-0.082,1.76-0.447,2.098-1.471
		c0.083-0.244,0.29-0.449,0.467-0.721c1.144-0.229,2.365-0.309,3.4-1.529c0.104-1.287,0.312-2.869,1.25-3.135
		c2.979-0.342,3.397,1.314,3.979,2.643c1.838,0.914,3.604,0.578,5.098-0.273c1.786-1.021,3.599-1.133,5.534-1.08
		c1.583,0.039,2.889,0.471,3.602,1.988c0.45,0.959,1.247,1.314,2.214,1.311c1.735-0.02,3.493,0.061,5.199-0.201
		c3.206-0.496,5.938,0.516,8.516,2.246c2.426,1.635,4.849,3.273,7.278,4.896c0.675,0.451,1.381,0.863,2.014,1.258
		c0.271-0.127,0.49-0.16,0.588-0.287c2.835-3.463,5.694-6.906,8.452-10.434c1.026-1.309,1.566-2.863,1.311-4.617
		c-0.155-1.08-0.155-2.188-0.22-3.277c-0.105-1.863,0.62-2.742,2.432-2.857c0.914-0.059,1.826-0.012,2.742-0.023
		c1.479-0.021,2.889-0.322,4.268-0.891c0.724-0.303,1.239-0.725,1.573-1.418c0.558-1.154,1.099-2.314,1.711-3.436
		c0.669-1.23,1.56-2.332,2.894-2.803c2.742-0.967,5.447-2.162,8.487-1.816c0.901,0.107,1.828,0.021,2.739,0.016
		c0.552,0,1.105,0.047,1.646-0.02c2.496-0.305,3.294-1.207,3.686-3.322c0.066-0.359,0.086-0.73,0.132-1.092
		c0.322-2.404-0.084-4.742-0.806-7.02c-1.604-5.057-2.632-10.255-3.767-15.421c-0.347-1.583,0.002-2.868,1.284-3.908
		c1.643-1.318,3.202-2.73,4.868-4.006c1.412-1.084,2.617-2.256,2.927-4.105c0.022-0.149,0.229-0.271,0.454-0.521
		c0.427-0.017,1.033-0.217,1.491-0.034c1.163,0.468,2.26,1.108,3.525,1.753c0.438-0.548,0.926-1.073,1.325-1.654
		c2.172-3.166,4.261-6.392,6.506-9.504c1.125-1.555,1.723-3.133,1.617-5.068c-0.078-1.429-0.163-2.908,0.267-4.257
		c1.371-1.034,2.769-0.979,4.266-0.728c1.991,0.338,3.942,0.452,5.746-0.914c1.079-0.815,2.334-0.76,3.578,0.059
		c0.731,0.484,1.664,0.735,2.541,0.908c1.77,0.338,2.484-0.179,3.031-1.896c0.331-1.041,0.619-2.114,1.126-3.062
		c0.94-1.771,2.009-3.479,3.077-5.184c1.226-1.953,2.689-3.685,4.843-4.702c0.226-0.103,0.371-0.371,0.691-0.709
		c-0.131-1.349-0.259-2.794-0.399-4.239c-0.275-2.726-0.571-5.43-0.418-8.193c0.183-3.194,1.119-6.109,2.831-8.729
		c0.743-1.131,1.052-2.079,0.539-3.268c-0.904-2.075-0.26-4.131-0.021-6.205c0.271-2.314,1.377-4.115,3.297-5.435
		c0.068-0.497,0.109-0.948,0.2-1.391c0.737-3.411,1.473-4.057,4.97-4.159c1.229-0.041,2.183-0.398,2.536-1.629
		c0.273-0.946,0.899-1.564,1.611-2.146c0.415-0.337,0.831-0.663,1.243-0.988C590.153,321.445,590.241,321.056,590.14,320.726z"/>
	<polyline fill="none" stroke="#FFFFFF" stroke-width="2" stroke-miterlimit="10" points="101.952,385.686 135.617,277.335 
		179.61,277.352 	"/>
	<text transform="matrix(1 0 0 1 203.947 283.8157)" fill="#FFFFFF" font-family="'NotoSansHant-DemiLight-B5pc-H'" font-size="24">臺中市和平</text>
</g>
</svg>
