<?xml version="1.0" encoding="utf-8"?>
<!-- Generator: Adobe Illustrator 16.0.0, SVG Export Plug-In . SVG Version: 6.00 Build 0)  -->
<!DOCTYPE svg PUBLIC "-//W3C//DTD SVG 1.1//EN" "http://www.w3.org/Graphics/SVG/1.1/DTD/svg11.dtd">
<svg version="1.1" id="Layer_1" xmlns="http://www.w3.org/2000/svg" xmlns:xlink="http://www.w3.org/1999/xlink" x="0px" y="0px"
	 width="595.279px" height="595.275px" viewBox="0 123.307 595.279 595.275" enable-background="new 0 123.307 595.279 595.275"
	 xml:space="preserve">
<g>
	<path fill="none" stroke="#FFFFFF" stroke-miterlimit="10" d="M179.399,343.671c-0.969-52.525,41.738-96.179,95.907-102.309
		c22.35-2.528,44.704-3.475,66.157,4.273c36.507,13.186,59.438,39.07,68.763,76.834c0.715,2.891,1.041,5.875,1.549,8.816
		c1.461,1.978,1.397,4.167,0.899,6.417c-5.312,9.919-9.485,20.404-16.427,29.519c-14.86,19.515-34.188,32.635-56.832,41.271
		c-4.64,1.77-9.355,3.363-14.219,4.481c-2.014,0.466-3.93,1.035-5.312-1.16c-0.186-0.465-0.317-0.941-0.425-1.429
		c-0.594-2.735,0.805-5.984-1.082-8.214c-2.003-2.367-5.336-0.921-8.05-1.379c-3.838-0.647-3.994-3.378-3.956-6.336
		c0.073-5.728-0.291-6.124-5.892-6.444c-0.992-0.057-1.987-0.045-2.982-0.049c-6.744-0.028-6.872-0.038-7.379,6.535
		c-0.284,3.682-1.948,5.459-5.612,5.414c-0.661-0.008-1.325,0.022-1.988,0.049c-6.009,0.229-6.246,0.485-6.375,6.728
		c-0.041,1.981,0.119,3.985-0.543,5.909c-1.312,2.56-3.611,2.07-5.678,1.6c-23.934-5.467-44.853-16.28-60.771-35.391
		c-8.552-10.264-14.851-21.952-19.425-34.515c-1.271-3.488-2.842-6.866-3.873-10.44c5.173,16.031,11.951,31.331,22.735,44.39
		c14.385,17.416,32.967,28.47,54.724,34.352c4.153,1.123,8.443,1.633,12.539,2.988c2.604,0.742,5.28,0.489,7.926,0.546
		c3.459,0.074,4.993,1.756,5.297,5.194c0.604,6.848,1.058,7.167,8.037,7.686c1.323,0.1,2.656,0.01,3.979,0.085
		c3.488,0.199,5.354-1.217,5.178-4.895c-0.058-1.156,0.038-2.32,0.121-3.48c0.202-2.824,1.534-4.17,4.521-3.884
		c2.945,0.282,5.997,0.778,8.574-1.382c4.329-3.051,9.641-3.27,14.468-4.875c20.504-6.826,38.583-17.539,53.67-33.041
		c8.976-9.222,15.929-19.879,21.235-31.629c0.574-1.271,0.373-4.004,3.263-3.141c2.231,5.127,0.231,10.238-0.429,15.222
		c-1.81,13.673-6.668,26.351-13.591,38.307c-11.022,19.036-28.672,28.587-48.877,34.413c-11.679,3.365-23.594,5.709-35.772,6.443
		c-4.482,1.121-9.056,0.646-13.592,0.791c-3.694-0.064-7.386,0.061-11.073,0.286c-4.456-0.721-8.995,0.15-13.446-0.659
		c-7.045-1.107-14.145-1.816-21.152-3.254c-37.161-7.627-61.069-29.946-72.565-65.724
		C179.057,360.614,176.696,352.279,179.399,343.671z"/>
	<path fill="none" stroke="#FFFFFF" stroke-miterlimit="10" d="M179.399,343.671c-0.021,19.743,6.019,37.577,17.572,53.431
		c14.907,20.455,35.166,32.379,60.116,36.395c5.85,0.94,11.699,1.869,17.55,2.803c-0.684,1.729-2.373,2.242-3.775,3.072
		c-2.734,1.619-5.244,3.5-7.493,5.76c-9.398,9.441-9.358,21.535,0.14,30.847c15.283,14.985,48.265,14.592,63.158-0.756
		c8.975-9.244,8.901-20.498-0.126-29.583c-2.844-2.862-6.001-5.229-9.589-7.08c-1.215-0.625-3.05-0.75-3.042-2.78
		c18.604-1.611,36.649-5.494,53.669-13.403c12.885-5.987,22.821-15.311,29.896-27.561c9.298-16.11,13.979-33.547,14.175-52.166
		c-1.437-1.43,0.104-2.867-0.014-4.301c0.047-2.354,0.094-4.707,0.141-7.06c20.947,1.056,39.244,24.39,34.992,44.922
		c-2.84,13.716-12.754,20.413-25.27,24.06c-7.984,2.326-8.021,2.169-8.188,10.246c-0.437,21.141-6.418,39.908-23.104,54.121
		c-1.254,1.068-2.283,2.402-3.418,3.613c-5.367,7.422-12.903,11.83-21.199,15.113c-17.404,6.885-35.25,12.309-53.938,14.119
		c-15.007,1.455-29.896,0.002-44.576-3.597c-18.841-4.618-37.133-10.696-53.854-20.709c-6.56-3.928-12.66-8.596-17.392-14.809
		c-1.336-1.756-2.347-3.604-3.002-5.678c-6.574-10.109-9.302-21.275-8.685-33.213c0.211-4.114-0.812-6.215-5.199-7.045
		c-5.729-1.086-11.004-3.642-15.896-6.933c-17.321-11.657-20.11-30.846-6.752-46.904
		C162.438,351.215,170.171,346.281,179.399,343.671z"/>
	<path fill="none" stroke="#FFFFFF" stroke-miterlimit="10" d="M395.059,558.488c-3.937,18.52-15.457,31.35-31.231,40.646
		c-4.304,2.537-7.037,5.447-8.58,10.164c-2.207,6.748-5.027,13.3-7.744,20.343c3.354,0,6.166-0.123,8.965,0.022
		c7.491,0.392,13.426,5.724,14.032,12.471c0.562,6.253-4.606,12.693-12.174,13.438c-11.231,1.105-22.564,1.805-33.839,1.646
		c-9.402-0.133-14.043-7.168-12.904-16.764c0.96-8.082,1.273-16.242,2.062-24.35c0.262-2.689-0.631-3.621-3.23-3.465
		c-1.818,0.108-3.667-0.229-5.482-0.101c-3.589,0.256-8.52-2.156-10.341,0.207c-1.695,2.199-0.171,6.978,0.139,10.603
		c0.521,6.118,1.028,12.248,1.852,18.332c1.095,8.1-4.729,15.562-13.572,15.594c-11.124,0.043-22.288-0.562-33.364-1.621
		c-7.904-0.756-12.613-6.795-12.119-13.861c0.448-6.403,6.369-11.719,13.682-12.129c2.785-0.156,5.587-0.024,9.062-0.024
		c-3.05-7.947-5.829-15.382-8.771-22.748c-0.988-2.48-3.591-2.011-5.626-2.392c-18.623-3.487-34.749-11.19-45.941-27.196
		c-4.026-5.759-7.021-12.025-8.845-18.83c1.271-1.345,2.968-1.447,4.619-1.447c10.47-0.006,20.938-0.336,31.395,0.16
		c2.641,0.312,3.874,2.303,5.12,4.308c3.778,6.077,7.329,12.29,10.743,18.571c3.191,5.871,8.059,8.145,13.942,4.072
		c1.299-0.898,2.727-1.164,4.276-0.818c0.812,0.182,1.628,0.373,2.46,0.4c2.974,0.1,16.756-8.541,17.978-11.285
		c1.493-3.354-0.026-5.996-1.781-8.803c-1.067-1.711-4.422-3.538-0.889-6.098c8.818-0.869,17.633-0.847,26.44-0.037
		c2.669,1.11,1.455,2.905,0.698,4.521c-0.773,1.651-2.037,3.055-2.601,4.826c-1.33,4.192,0.271,8.067,4.457,9.153
		c3.498,0.908,6.428,2.244,9.01,4.824c1.747,1.746,4.367,1.736,6.642,0.961c2.86-0.973,5.342-0.719,8.142,0.521
		c4.417,1.954,8.36,0.147,10.592-4.625c2.187-4.675,3.981-9.53,6.093-14.241c1.062-2.375,1.79-5.135,4.777-6.065
		c12.588-0.938,25.18-0.324,37.767-0.343C392.455,557.027,393.948,557.288,395.059,558.488z"/>
	<path fill="none" stroke="#FFFFFF" stroke-miterlimit="10" d="M306.681,558.581c-9.681-0.013-19.358-0.024-29.039-0.037
		c-5.06-0.922-7.502-4.789-8.975-8.982c-4.309-12.275-10.22-23.841-15.312-35.768c-3.119-7.305-8.215-11.85-16.674-12.055
		c-9.122-0.221-15.631,3.66-19.934,11.555c-2.62,4.81-2.172,9.644,0.051,14.394c3.594,7.684,6.779,15.55,10.443,23.206
		c1.09,2.276,2.972,4.563,1.39,7.407c-12.518,0.058-25.032,0.115-37.551,0.173c-5.696-18.329-4.657-37.077-3.147-55.782
		c1.349-16.689,3.242-33.336,4.896-50.002c12.406,17.385,30.71,25.824,49.966,32.664c20.108,7.141,40.668,12.096,62.244,11.182
		c18.576-0.787,36.151-5.945,53.631-11.865c10.597-3.588,19.677-9.354,28.119-16.418c4.785,23.854,10.955,47.513,10.701,72.103
		c-0.062,6.11-0.584,12.23-2.433,18.135c-14.442-0.053-28.89-0.104-43.333-0.157c-0.69-1.521-0.088-2.931,0.392-4.343
		c3.741-11.034,7.067-22.198,10.291-33.389c2.979-10.353-2.115-19.396-12.479-22.617c-11.188-3.476-21.387,1.1-24.589,11.5
		c-4.062,13.194-8.558,26.271-11.583,39.774C312.835,553.374,311.211,557.122,306.681,558.581z"/>
	<path fill="#FFFFFF" d="M292.994,205.067c-13.078,0.628-25.854,3.385-35.031,14.718c-1.293,1.597-2.286,1.499-3.678,0.532
		c-1.741-1.21-0.537-2.208,0.215-3.271c3.358-4.75,7.892-8.09,13.084-10.487c15.188-7.01,30.705-7.971,46.468-2.045
		c5.385,2.024,9.991,5.24,13.562,9.815c0.8,1.024,1.865,2.085,0.16,3.322c-1.24,0.9-2.198,1.183-3.361-0.248
		C316.428,207.586,305.35,205.463,292.994,205.067z"/>
	<path fill="#FFFFFF" d="M287.836,184.613c3.034,0.301,6.128,0.833,9.041,2.085c1.226,0.525,2.482,1.207,1.62,2.952
		c-0.648,1.314-1.319,1.972-3.06,1.226c-5.992-2.573-11.932-2.292-17.572,1.117c-1.626,0.982-2.388,0.071-3.239-1.044
		c-1.365-1.786,0.273-2.323,1.295-2.93C279.549,185.868,283.557,184.955,287.836,184.613z"/>
	<path fill="none" stroke="#FFFFFF" stroke-miterlimit="10" d="M313.909,435.778c8.029,3.578,15.285,8.071,18.971,16.59
		c4.283,9.898,0.472,21.312-10.166,27.863c-17.597,10.842-35.993,11.342-53.892,1.151c-18.674-10.631-18.379-31.043,0.056-42.147
		c1.843-1.109,3.837-1.964,5.762-2.937c4.937,0.361,9.92-0.272,14.826,0.713c-0.345,1.652-1.839,2.267-2.943,3.211
		c-6.221,5.32-7.552,12.214-3.329,17.386c5.202,6.373,14.236,7.479,20.457,2.504c7.134-5.703,6.812-14.97-0.646-20.195
		c-1.271-0.894-3.247-1.154-3.345-3.275C304.409,436.351,309.159,436.065,313.909,435.778z"/>
	<path fill="#FFFFFF" d="M274.586,413.761c0.059-1.324,0.094-2.649,0.179-3.972c0.223-3.45-1.146-7.623,0.892-10.16
		c2.041-2.541,6.223-0.756,9.436-0.805c3.078-0.048,3.395-1.503,3.479-4.017c0.274-8.113,0.361-8.11,8.579-8.076
		c1.161,0.005,2.323-0.012,3.484,0.003c7.509,0.089,7.55,0.093,7.223,7.412c-0.145,3.199-0.297,5.648,4.405,5.545
		c8.611-0.191,8.608,0.12,8.449,9.021c-0.023,1.323,0.092,2.648,0.144,3.973c0.754,0.855,0.516,1.71,0,2.565
		c-0.112,1.921-0.895,3.14-3.054,3.032c-1.159-0.059-2.324,0.006-3.486,0.004c-6.771-0.013-7.028-0.003-6.746,6.964
		c0.173,4.26-1.264,5.621-5.369,5.088c-3.437-0.445-6.954-0.781-10.395-0.545c-3.894,0.268-4.219-1.611-4.17-4.735
		c0.114-7.571-0.011-7.522-7.521-7.65c-1.886-0.031-4.045,0.769-5.548-1.201C274.009,415.386,273.815,414.57,274.586,413.761z"/>
	<path fill="none" stroke="#FFFFFF" stroke-miterlimit="10" d="M299.659,436.64c2.376,1.414,4.999,2.438,6.918,4.566
		c3.859,4.279,4.689,10.871,1.927,15.67c-3.209,5.568-10.752,8.785-17.14,7.308c-6.188-1.433-11.091-6.168-11.735-11.341
		c-0.933-7.461,1.802-11.862,9.833-15.828C292.84,436.228,296.259,436.671,299.659,436.64z"/>
	<path fill="#FFFFFF" d="M274.586,413.761c-0.006,0.815-0.012,1.631-0.019,2.446c-25.558-4.796-47.986-15.39-65.224-35.441
		c-12.255-14.253-19.656-31.049-25.111-48.821c-0.142-0.456-0.206-0.974-0.144-1.439c0.033-0.235,0.438-0.419,0.767-0.708
		c1.979,0.646,1.685,2.587,2.168,4.024c7.106,21.037,16.634,40.61,33.887,55.416C236.429,402.553,254.514,410.357,274.586,413.761z"
		/>
	<path fill="#FFFFFF" d="M320.853,415.25c-0.001-0.856-0.002-1.712-0.002-2.566c27.022-5.592,49.859-18.613,68.511-38.894
		c8.735-9.499,15.38-20.373,20.006-32.446c0.472-1.231,0.682-2.624,2.268-2.997c1.778,1.428-0.461,2.867,0.014,4.299
		c-6.541,14.672-15,28.026-26.771,39.119C366.67,398.924,345.185,409.807,320.853,415.25z"/>
	<path fill="#FFFFFF" d="M215.75,443.753c0.7-1.434-1.231-5.049,2.71-4.596c2.615,0.301,6.94-0.685,6.103,4.828
		c-0.426,2.799-0.04,6.07,3.69,6.58c4.001,0.549,6.149-2.119,7.162-5.57c0.562-1.916,0.455-3.765,3.173-4.248
		c5.33-0.949,6.284-0.156,5.233,5.123c-1.914,9.621-10.675,15.543-18.917,12.789C219.125,456.729,215.755,451.382,215.75,443.753z"
		/>
	<path fill="#FFFFFF" d="M362.677,457.51c-7.494,0.015-13.012-5.661-12.95-13.426c0.012-1.33-0.682-3.551,1.649-3.379
		c2.209,0.164,5.196-1.338,6.454,2.014c0.287,0.771,0.394,1.609,0.574,2.418c0.571,2.548,1.891,4.492,4.756,3.976
		c2.842-0.514,5.067-2.078,4.383-5.498c-0.948-4.73,3.507-4.521,5.617-5.279c2.287-0.822,2.396,2.318,2.621,4.158
		C376.846,451.214,371.338,457.495,362.677,457.51z"/>
	<path fill="none" stroke="#FFFFFF" stroke-miterlimit="10" d="M228.633,558.3c-3.278-9.79-7.674-19.154-12.39-28.256
		c-6.554-12.645,0.854-23.246,9.093-27.367c11.458-5.729,23.454-1.913,28.539,9.386c5.587,12.412,11.908,24.518,16.063,37.552
		c1.274,4.004,4.641,6.379,7.704,8.932c1.271,1.729,2.511,3.483,3.817,5.187c4.187,5.44,2.509,11.669-3.874,13.937
		c-2.346,0.834-4.25,1.748-5.915,3.953c-2.247,2.978-5.753,4.519-9.698,3.111c-2.113-0.754-3.52-0.224-5.333,1.078
		c-4.777,3.428-10.119,2.271-13.235-2.783C238.365,574.855,233.545,566.55,228.633,558.3z"/>
	<path fill="none" stroke="#FFFFFF" stroke-miterlimit="10" d="M306.681,558.581c3.874-3.664,5.516-8.268,6.812-13.416
		c2.917-11.556,7.269-22.772,9.807-34.396c3.062-14.033,19.138-18.709,30.562-12.705c9.241,4.856,12.942,13.453,9.739,23.387
		c-3.963,12.291-6.806,24.945-11.877,36.877c-2.81,6.903-5.456,13.881-8.478,20.688c-2.315,5.221-7.916,7.022-12.959,4.159
		c-2.001-1.137-3.524-1.489-5.397-0.235c-0.27,0.182-0.604,0.303-0.927,0.354c-2.32,0.4-5.401,1.07-6.651-0.744
		c-3.798-5.512-12.285-3.227-15.182-9.516c-1.177-2.559-1.089-5.503,0.608-8.117C304.098,562.835,305.371,560.697,306.681,558.581z"
		/>
</g>
</svg>
