<?xml version="1.0" encoding="utf-8"?>
<!-- Generator: Adobe Illustrator 16.0.0, SVG Export Plug-In . SVG Version: 6.00 Build 0)  -->
<!DOCTYPE svg PUBLIC "-//W3C//DTD SVG 1.1//EN" "http://www.w3.org/Graphics/SVG/1.1/DTD/svg11.dtd">
<svg version="1.1" id="Capa_1" xmlns="http://www.w3.org/2000/svg" xmlns:xlink="http://www.w3.org/1999/xlink" x="0px" y="0px"
	 width="595.279px" height="841.891px" viewBox="0 0 595.279 841.891" enable-background="new 0 0 595.279 841.891"
	 xml:space="preserve">
<g>
	<path fill="#8B8B8B" d="M430.109,412.326c0.506-1.223,0.506-2.602,0-3.83c-0.258-0.617-0.627-1.173-1.088-1.64l-60.154-60.149
		c-1.961-1.96-5.129-1.96-7.09,0c-1.959,1.96-1.959,5.129,0,7.089l51.602,51.602H260.044c-2.768,0-5.013,2.24-5.013,5.013
		c0,2.771,2.246,5.012,5.013,5.012h153.334l-51.602,51.601c-1.959,1.96-1.959,5.128,0,7.089c0.979,0.978,2.262,1.469,3.545,1.469
		s2.566-0.491,3.545-1.469l60.154-60.154C429.482,413.499,429.851,412.942,430.109,412.326z"/>
	<path fill="#8B8B8B" d="M340.255,435.477c-2.766,0-5.014,2.24-5.014,5.013v100.265H174.819V280.067h160.423v100.265
		c0,2.772,2.248,5.013,5.014,5.013c2.768,0,5.014-2.241,5.014-5.013V275.054c0-2.772-2.246-5.014-5.014-5.014h-170.45
		c-2.767,0-5.013,2.241-5.013,5.014v270.713c0,2.773,2.246,5.014,5.013,5.014h170.45c2.768,0,5.014-2.24,5.014-5.014V440.489
		C345.269,437.717,343.023,435.477,340.255,435.477z"/>
</g>
<path fill="none" stroke="#8B8B8B" stroke-width="5" stroke-miterlimit="10" d="M296.641,116.281
	c-162.74,0-294.663,131.924-294.663,294.664c0,162.747,131.923,294.663,294.663,294.663s294.663-131.916,294.663-294.663
	C591.304,248.205,459.381,116.281,296.641,116.281z"/>
</svg>
