<?xml version="1.0" encoding="utf-8"?>
<!-- Generator: Adobe Illustrator 16.0.0, SVG Export Plug-In . SVG Version: 6.00 Build 0)  -->
<!DOCTYPE svg PUBLIC "-//W3C//DTD SVG 1.1//EN" "http://www.w3.org/Graphics/SVG/1.1/DTD/svg11.dtd">
<svg version="1.1" id="Layer_1" xmlns="http://www.w3.org/2000/svg" xmlns:xlink="http://www.w3.org/1999/xlink" x="0px" y="0px"
	 width="595.279px" height="841.891px" viewBox="0 0 595.279 841.891" enable-background="new 0 0 595.279 841.891"
	 xml:space="preserve">
<g>
	<g>
		<g>
			<path fill="#8B8B8B" d="M482.81,270.815H112.472c-4.877,0-8.818,3.941-8.818,8.818v264.519c0,4.876,3.941,8.817,8.818,8.817
				H482.81c4.867,0,8.816-3.941,8.816-8.817V279.633C491.626,274.756,487.677,270.815,482.81,270.815z M473.991,514.004
				L364.759,404.79l-12.467,12.466l118.084,118.078H124.905l118.084-118.078l-12.468-12.466L121.289,514.004V288.45h352.703V514.004
				z"/>
		</g>
	</g>
	<g>
		<g>
			<path fill="#8B8B8B" d="M456.171,288.45L297.64,446.973L139.11,288.45h-17.821v7.115l170.117,170.109
				c3.447,3.447,9.021,3.447,12.468,0l170.117-170.109v-7.115H456.171z"/>
		</g>
	</g>
</g>
<path fill="none" stroke="#8B8B8B" stroke-width="5" stroke-miterlimit="10" d="M297.641,117.281
	c-162.74,0-294.663,131.924-294.663,294.664c0,162.747,131.923,294.663,294.663,294.663s294.663-131.916,294.663-294.663
	C592.304,249.205,460.381,117.281,297.641,117.281z"/>
</svg>
