<?xml version="1.0" encoding="utf-8"?>
<!-- Generator: Adobe Illustrator 16.0.0, SVG Export Plug-In . SVG Version: 6.00 Build 0)  -->
<!DOCTYPE svg PUBLIC "-//W3C//DTD SVG 1.1//EN" "http://www.w3.org/Graphics/SVG/1.1/DTD/svg11.dtd">
<svg version="1.1" id="Layer_1" xmlns="http://www.w3.org/2000/svg" xmlns:xlink="http://www.w3.org/1999/xlink" x="0px" y="0px"
	 width="623.621px" height="623.622px" viewBox="0 0 623.621 623.622" enable-background="new 0 0 623.621 623.622"
	 xml:space="preserve">
<g>
	<g>
		<path fill="#FFFFFF" d="M236.331,382.226c0.043,1.604,0,12.158,0,12.158c0,0.152-0.499,0.482-1.495,0.979
			c-0.995,0.508-2.501,0.973-4.521,1.396c-2.012,0.422-4.456,0.631-7.336,0.631c-3.789-0.076-6.772-0.777-8.964-2.094
			c-2.195-1.318-3.743-3.283-4.658-5.93c-0.901-2.627-1.354-6.088-1.354-10.393c0.094-3.469,0.619-6.377,1.573-8.74
			c0.957-2.357,2.474-4.176,4.546-5.438c2.083-1.27,4.814-1.924,8.19-1.967c3.214,0,6.021,0.189,8.409,0.568
			c2.386,0.396,4.676,1.314,4.738,1.518c0,0,0.834,4.26,0.89,4.98c0.04,0.496-1.007-0.371-1.797-0.814
			c-0.861-0.479-1.983-0.908-3.383-1.283c-1.407-0.365-3.104-0.568-5.104-0.568c-0.938,0-1.672,0.029-2.212,0.078
			c-4.896,0.313-7.351,4.197-7.351,11.666c0,2.578,0.123,4.836,0.345,6.764c0.229,1.926,0.759,3.594,1.618,4.986
			c0.842,1.398,2.102,2.186,3.773,2.348c2.046,0,3.58-0.186,4.609-0.553c1.023-0.373,1.909-0.914,1.909-0.914v-9.547
			c0,0,6.028-0.086,7.342-0.045C236.18,382.019,236.329,382.15,236.331,382.226z"/>
		<path fill="#FFFFFF" d="M307.06,382.226c0.04,1.604,0,12.158,0,12.158c0,0.152-0.499,0.482-1.495,0.979
			c-0.996,0.508-2.502,0.973-4.519,1.396c-2.016,0.422-4.46,0.631-7.335,0.631c-3.789-0.076-6.777-0.777-8.975-2.094
			c-2.188-1.318-3.738-3.283-4.648-5.93c-0.91-2.627-1.354-6.088-1.354-10.393c0.093-3.469,0.619-6.377,1.571-8.74
			c0.958-2.357,2.478-4.176,4.546-5.438c2.083-1.27,4.813-1.924,8.194-1.967c3.214,0,6.018,0.189,8.406,0.568
			c2.387,0.396,4.673,1.314,4.737,1.518c0,0,0.832,4.26,0.892,4.98c0.038,0.496-1.007-0.371-1.801-0.814
			c-0.861-0.479-1.981-0.908-3.38-1.283c-1.41-0.365-3.104-0.568-5.104-0.568c-0.938,0-1.668,0.029-2.207,0.078
			c-4.896,0.313-7.354,4.197-7.354,11.666c0,2.578,0.117,4.836,0.346,6.764c0.231,1.926,0.76,3.594,1.618,4.986
			c0.841,1.398,2.102,2.186,3.771,2.348c2.047,0,3.578-0.186,4.609-0.553c1.021-0.373,1.906-0.914,1.906-0.914v-9.547
			c0,0,6.028-0.086,7.342-0.045C306.908,382.019,307.06,382.15,307.06,382.226z"/>
		<path fill="#FFFFFF" d="M261.713,397.109v-2.563c-0.191,0.443-0.83,0.99-1.925,1.645c-1.088,0.654-2.943,0.984-5.564,0.984
			c-2.234-0.076-4.092-0.656-5.57-1.715c-1.486-1.064-2.236-2.74-2.272-5.033c0-2.465,0.878-4.307,2.642-5.535
			c1.761-1.234,4.4-1.98,7.925-2.238c1.627-0.139,2.877-0.555,3.755-1.248c0.879-0.705,1.313-1.486,1.313-2.354
			c0-0.891-0.393-1.646-1.204-2.279c-0.805-0.635-1.898-0.953-3.27-0.953c-2.833,0-5.033,0.525-6.604,1.576
			c-1.57,1.037-2.913,2.744-3.085,2.623c-0.515-0.359,1.01-4.855,1.01-4.855c0-0.088,0.381-0.342,1.124-0.771
			c0.736-0.434,1.793-0.834,3.122-1.209c1.344-0.379,2.936-0.572,4.785-0.588c3.771,0,6.503,0.65,8.194,1.938
			c1.679,1.277,2.521,2.961,2.521,5.039v17.543h-6.896V397.109z M258.343,393.296c2.245-0.611,3.369-1.6,3.369-2.941v-5.572
			c-0.011,0.033-0.092,0.201-0.246,0.506c-0.156,0.311-0.511,0.611-1.058,0.904c-0.554,0.301-1.391,0.521-2.518,0.646
			c-1.908,0.268-3.37,0.688-4.369,1.279c-1.007,0.598-1.499,1.605-1.499,3.045c0.154,1.654,1.479,2.488,3.974,2.488
			C256.753,393.652,257.528,393.527,258.343,393.296z"/>
		<path fill="#FFFFFF" d="M373.61,397.109h-7.782v-34.213h23.276v4.266H373.61v9.98h12.921v4.258H373.61V397.109z"/>
		<path fill="#FFFFFF" d="M429.695,397.109v-24.443h6.9v3.018c0.031-0.025,0.166-0.197,0.419-0.508
			c0.258-0.322,0.646-0.652,1.163-1.002c0.509-0.348,1.201-0.666,2.089-0.984c0.939-0.396,2.146-0.596,3.607-0.596
			c1.112,0,1.823,0.057,2.104,0.148c0,0,1.165,3.73,0.595,3.531c-0.492-0.186-1.614-0.311-2.349-0.311
			c-1.585,0-2.908,0.297-3.96,0.896c-1.176,0.588-2.089,1.389-2.721,2.398c-0.627,1.014-0.95,1.949-0.95,2.801v15.051H429.695
			L429.695,397.109z"/>
		<path fill="#FFFFFF" d="M455.807,397.109v-24.443h6.896v1.99c1.427-1.422,3.609-2.131,6.546-2.131
			c2.074,0,3.536,0.371,4.389,1.125c0.838,0.752,1.334,1.385,1.479,1.885c0-0.025,0.242-0.295,0.723-0.813
			c0.474-0.512,1.172-0.979,2.09-1.406c0.914-0.42,2.09-0.662,3.516-0.727c2.604,0,4.57,0.604,5.883,1.797
			c1.309,1.193,1.964,2.754,1.964,4.662v18.061h-5.297v-17.473c0-2.195-1.313-3.295-3.953-3.295c-1.391,0.096-2.371,0.6-2.965,1.508
			c-0.597,0.902-0.94,1.65-1.07,2.234v17.025h-5.277v-17.473c0-0.947-0.331-1.729-0.968-2.361c-0.65-0.621-1.653-0.934-3.019-0.934
			c-1.46,0.145-2.461,0.688-3.042,1.635c-0.574,0.947-0.897,1.729-0.993,2.322v16.811H455.807L455.807,397.109z"/>
		<path fill="#FFFFFF" d="M503.371,362.835c1.222,0,2.168,0.375,2.865,1.139c0.688,0.766,1.023,1.684,1.023,2.74
			c0,1.096-0.346,2.021-1.053,2.799c-0.694,0.773-1.658,1.164-2.904,1.164c-1.195,0-2.146-0.391-2.851-1.168
			c-0.712-0.781-1.067-1.691-1.067-2.721c0-1.053,0.355-1.973,1.067-2.766C501.156,363.23,502.137,362.835,503.371,362.835z
			 M499.918,397.109v-24.443h6.822v24.443H499.918z"/>
		<path fill="#FFFFFF" d="M538.239,378.31v18.801h-5.144v-17.906c0-2.055-1.566-3.082-4.698-3.082
			c-1.523,0.182-2.625,0.67-3.295,1.43c-0.656,0.77-1.048,1.395-1.184,1.873v17.688h-6.906v-24.445h6.906v1.99
			c0.1-0.059,0.426-0.271,0.974-0.648c0.557-0.363,1.353-0.707,2.366-1.016c1.021-0.313,2.206-0.465,3.556-0.465
			c2.554,0,4.416,0.576,5.624,1.744C537.632,375.437,538.239,376.789,538.239,378.31z"/>
		<path fill="#FFFFFF" d="M558.053,402.539c3.765,0,5.649-1.125,5.649-3.367v-3.16c-1.737,0.875-3.872,1.307-6.391,1.307
			c-1.837-0.07-3.405-0.369-4.702-0.904c-1.299-0.521-2.414-1.709-3.315-3.545c-0.911-1.826-1.37-4.529-1.37-8.086
			c0.092-3.686,0.676-6.422,1.756-8.211c1.08-1.801,2.293-2.92,3.643-3.377c1.357-0.447,2.904-0.668,4.658-0.668
			c0.961,0.049,1.844,0.209,2.658,0.48c0.805,0.273,1.523,0.58,2.151,0.922c0.612,0.313,0.913,0.482,0.913,0.496v-1.762h6.837
			v25.396c0,4.957-3.656,7.498-10.952,7.631c-2.615,0-4.775-0.221-6.479-0.664c-1.699-0.453-2.914-1.033-2.914-1.033
			s-1.045-4.137-0.518-3.807c0.729,0.467,1.563,0.818,3.057,1.387C554.24,402.128,556.017,402.453,558.053,402.539z
			 M563.702,377.886c0-0.139-0.407-0.459-1.237-0.959c-0.816-0.514-1.74-0.854-2.789-1.039c-1.556,0-2.783,0.322-3.693,0.959
			c-0.915,0.643-1.57,1.609-1.966,2.902c-0.376,1.309-0.603,3.02-0.667,5.172c0,2.9,0.43,5.162,1.271,6.805
			c0.855,1.631,2.457,2.439,4.823,2.439c1.245-0.088,2.229-0.285,2.921-0.615c0.69-0.326,1.145-0.594,1.339-0.773L563.702,377.886
			L563.702,377.886z"/>
		<path fill="#FFFFFF" d="M332.45,397.109v-2.563c-0.189,0.443-0.827,0.99-1.921,1.645c-1.088,0.654-2.939,0.984-5.563,0.984
			c-2.241-0.076-4.093-0.656-5.573-1.715c-1.487-1.064-2.235-2.74-2.272-5.033c0-2.465,0.879-4.307,2.639-5.535
			c1.767-1.234,4.404-1.98,7.928-2.238c1.627-0.139,2.874-0.555,3.75-1.248c0.883-0.705,1.319-1.486,1.319-2.354
			c0-0.891-0.392-1.646-1.203-2.279c-0.809-0.635-1.901-0.953-3.271-0.953c-2.832,0-5.029,0.525-6.602,1.576
			c-1.572,1.037-2.913,2.744-3.089,2.623c-0.514-0.359,1.014-4.855,1.014-4.855c0-0.088,0.375-0.342,1.122-0.771
			c0.742-0.434,1.791-0.834,3.124-1.209c1.342-0.379,2.932-0.572,4.785-0.588c3.771,0,6.501,0.65,8.19,1.938
			c1.683,1.277,2.521,2.961,2.521,5.039v17.543h-6.896L332.45,397.109L332.45,397.109z M329.087,393.296
			c2.248-0.611,3.363-1.6,3.363-2.941v-5.572c-0.008,0.033-0.085,0.201-0.242,0.506c-0.156,0.311-0.511,0.611-1.061,0.904
			c-0.551,0.301-1.39,0.521-2.513,0.646c-1.904,0.268-3.367,0.688-4.373,1.279c-1.007,0.598-1.496,1.605-1.496,3.045
			c0.154,1.654,1.478,2.488,3.972,2.488C327.494,393.652,328.272,393.527,329.087,393.296z"/>
		<path fill="#FFFFFF" d="M412.593,397.109v-2.563c-0.194,0.443-0.828,0.99-1.933,1.645c-1.087,0.654-2.938,0.984-5.56,0.984
			c-2.233-0.076-4.091-0.656-5.567-1.715c-1.49-1.064-2.237-2.74-2.275-5.033c0-2.465,0.879-4.307,2.641-5.535
			c1.766-1.234,4.403-1.98,7.926-2.238c1.628-0.139,2.877-0.555,3.755-1.248c0.88-0.705,1.313-1.486,1.313-2.354
			c0-0.891-0.392-1.646-1.199-2.279c-0.813-0.635-1.907-0.953-3.271-0.953c-2.829,0-5.033,0.525-6.604,1.576
			c-1.57,1.037-2.911,2.744-3.086,2.623c-0.513-0.359,1.012-4.855,1.012-4.855c0-0.088,0.375-0.342,1.125-0.771
			c0.738-0.434,1.789-0.834,3.126-1.209c1.337-0.379,2.93-0.572,4.781-0.588c3.771,0,6.501,0.65,8.194,1.938
			c1.679,1.277,2.515,2.961,2.515,5.039v17.543h-6.891L412.593,397.109L412.593,397.109z M409.223,393.296
			c2.248-0.611,3.37-1.6,3.37-2.941v-5.572c-0.013,0.033-0.092,0.201-0.249,0.506c-0.152,0.311-0.515,0.611-1.061,0.904
			c-0.547,0.301-1.387,0.521-2.511,0.646c-1.908,0.268-3.37,0.688-4.37,1.279c-1.01,0.598-1.5,1.605-1.5,3.045
			c0.154,1.654,1.477,2.488,3.969,2.488C407.632,393.652,408.406,393.527,409.223,393.296z"/>
	</g>
	<g>
		<g>
			<path fill="#FFFFFF" d="M436.989,283.634c-2.552,2.861-4.649,5.488-7.039,7.836c-2.847,2.816-5.995,5.145-10.113,6.111
				c-2.026,0.486-3.893,0.77-5.865,0.299c-2.492-0.588-4.956-1.281-7.419-1.938c0.007-0.266,0.022-0.533,0.042-0.803
				c0.742-0.182,1.588-0.662,2.214-0.48c7.734,2.336,12.991-2.313,18.104-6.674c2.677-2.293,4.503-5.59,6.649-8.352
				c-4.888-6.012-11.672-9.139-20.255-3.914c-0.396-2.275,0.729-3.959,1.688-5.521c3.691-6.02,6.394-12.473,8.748-19.076
				c0.248-0.697,0.412-1.41,0.667-2.273c-2.867-1.109-5.755-0.818-8.556-1.125c-2.702-0.285-5.761,0.674-8.486-2.025
				c0.979-0.182,1.506-0.379,2.029-0.359c4.741,0.238,9.471,0.5,14.205,0.793c1.711,0.1,2.788-0.576,3.501-2.174
				c2.138-4.803,4.485-9.516,6.495-14.357c0.756-1.828,1.648-3.008,3.635-3.254c2.154-0.271,4.064,0.393,5.332,2.078
				c1.319,1.756,0.327,3.611-0.503,5.291c-1.872,3.801-3.828,7.578-5.735,11.381c-0.213,0.418-0.271,0.922-0.455,1.576
				c3.744,0.43,7.316,0.834,10.813,1.227c0.97-1.02,1.773-2.578,2.785-2.729c1.298-0.205,2.884,0.52,4.147,1.23
				c2.356,1.309,2.803,3.041,1.695,5.717c-3.637,8.775-7.375,17.496-13.163,25.16c-0.359,0.475-0.609,1.055-0.978,1.701
				c0.598,0.865,1.082,1.744,1.72,2.498c3.699,4.375,5.228,9.596,5.972,15.135c0.18,1.297,0.361,2.756-1.101,3.188
				c-0.901,0.256-2.131-0.182-3.062-0.629c-2.977-1.414-4.174-4.064-4.622-7.18C439.668,289.169,439.244,286.345,436.989,283.634z
				 M446.391,250.347c-3.357-0.459-6.188-0.758-8.977-1.266c-2.182-0.389-3.576,0.291-4.529,2.305
				c-2.775,5.818-5.643,11.607-8.455,17.373c3.937,1.93,7.799,3.82,11.816,5.781C440.431,267.054,443.261,259.064,446.391,250.347z"
				/>
			<path fill="#FFFFFF" d="M481.469,270.783c2.939,0.34,5.454,0.494,7.898,0.939c2.688,0.48,4.618-0.598,6.32-2.455
				c1.005-1.115,1.926-2.336,3.057-3.303c1.372-1.146,2.846-1.012,3.529,0.35c1.527,3.068,2.911,6.217,4.426,9.484
				c-1.777,1.443-3.934,1.137-5.973,0.834c-5.323-0.793-10.621-1.756-15.93-2.623c-1.201-0.197-2.438-0.277-4.029-0.465
				c-1.288,5.797-2.541,11.492-3.793,17.211c-0.965,4.393-1.88,8.805-2.896,13.191c-0.655,2.879-2.961,3.697-5.39,2.094
				c-4.467-2.965-8.956-5.887-13.422-8.857c-0.266-0.188-0.385-0.588-0.568-0.902c2.621-1.926,6.162-2.092,13.729-0.564
				c2.122-7.256,2.91-14.771,4.235-22.402c-3.271-1.309-6.515-1.023-9.701-1.201c-2.362-0.121-4.76-0.221-7.083-0.602
				c-1.229-0.203-2.35-0.986-3.398-1.996c6.756-0.76,13.372,0.162,20.555,0.354c0.231-2.063,0.786-4.133,0.607-6.143
				c-0.268-3.186-0.732-6.434-1.71-9.475c-0.604-1.883-0.305-2.535,1.253-3.551c5.029-3.27,9.996-6.65,14.834-10.211
				c1.73-1.262,3.753-2.547,4.405-5.424c-4.771-0.217-9.326-0.439-13.893-0.625c-2.373-0.1-4.769-0.018-7.131-0.205
				c-1.679-0.141-3.489-0.289-4.996-2.607c1.997,0.02,3.521,0.057,5.043,0.057c7.365,0.002,14.74,0.012,22.105-0.025
				c2.063-0.016,3.957,0.289,5.636,1.631c2.333,1.873,2.724,2.838,1.899,5.842c-0.331,1.205-0.634,2.451-1.17,3.563
				c-1.405,2.848-3.231,3.654-6.416,3.186c-0.944-0.145-1.979-0.213-2.89,0.008c-2.229,0.529-10.101,4.975-12.104,6.68
				C482.483,257.925,482.221,264.089,481.469,270.783z"/>
		</g>
		<g>
			<path fill="#FFFFFF" d="M528.733,334.091c3.438-0.436,6.354-0.803,9.733-1.232c-0.599-7.973,0.179-15.58-0.687-23.803
				c-4.589,0.813-8.567,1.523-12.85,2.281c-0.653,4.174-0.984,8.27-1.981,12.184c-0.966,3.775-1.835,7.988-4.137,10.908
				c-3.229,4.078-7.344,7.785-13.22,8.088c-1.717,0.092-3.424,0.414-5.246,0.646c-0.468-2.002,0.461-3.152,2.085-3.754
				c6.947-2.578,9.564-8.568,11.043-14.947c2.715-11.689,2.048-23.537,0.554-35.355c-0.063-0.465-0.146-0.941-0.311-1.385
				c-0.57-1.553-2.214-3.383-0.199-4.617c1.72-1.059,3.713-2.127,6.137-1.199c1.521,0.57,3.365,0.555,5.035,0.443
				c10.665-0.697,21.234-2.736,32.047-1.725c4.457,0.42,9.049-0.789,13.588-1.213c2.027-0.188,4.096-0.084,6.095-0.434
				c5.13-0.883,10.241-1.857,15.319-2.969c1.574-0.355,2.703-0.355,3.981,1.594c-1.329,0.578-2.345,1.326-3.431,1.441
				c-11.137,1.264-22.258,2.613-33.429,3.533c-5.953,0.488-11.999-0.037-17.972,0.35c-5.459,0.354-10.874,1.309-16.098,1.977
				c0.162,7.824,0.317,15.154,0.48,22.686c1.176-0.016,2.269,0.096,3.344-0.035c8.912-1.133,17.824-2.217,26.722-3.49
				c5.632-0.801,11.205-1.926,16.811-2.881c1.088-0.193,2.212-0.439,3.284-0.355c4.655,0.391,8.334-1.059,10.953-5.076
				c1.416-2.172,3.545-2.479,5.838-1.484c1.591,0.695,3.213,1.371,4.646,2.334c0.656,0.438,1.321,1.598,1.194,2.291
				c-0.115,0.645-1.214,1.48-1.979,1.592c-6.395,0.943-12.813,1.693-19.22,2.611c-5.447,0.775-10.897,1.693-16.354,2.594
				c-3.564,0.584-7.125,1.23-10.757,1.867c0.338,6.707-2.377,13.105-0.742,20.236c1.919-0.951,3.524-1.807,5.18-2.563
				c3.424-1.566,6.887-3.031,10.271-4.652c0.798-0.385,1.374-1.211,2.102-1.887c-1.808-3.932-6.712-5.195-8.188-9.762
				c4.431-0.863,7.661,0.334,10.655,2.646c2.072,1.611,4.247,3.119,6.979,5.104c2.063-3.396,3.935-6.26,5.562-9.246
				c1.353-2.432,2.813-3.154,6.732-2.752c2.215,0.217,4.387,1.904,4.77,3.938c0.158,0.863,0.149,2.119-0.341,2.676
				c-2.998,3.367-6.157,6.594-9.452,10.074c2.398,2.197,6.118,3.076,9.613,3.818c8.438,1.813,16.979,3.086,25.479,4.611
				c1.669,0.299,3.304,0.779,5.883,1.4c-1.173,1.469-1.69,2.77-2.579,3.127c-6.858,2.678-13.513,5.9-21.318,5.426
				c-3.501-0.209-6.567-0.902-9.256-2.857c-6.125-4.453-12.109-9.074-18.111-13.691c-2.407-1.857-3.631-2.328-5.194-0.104
				c-5.101,7.277-13.293,9.859-20.347,14.195c-1.873,1.152-3.73,2.324-5.521,3.6c-2.803,2.018-5.065,2.219-7.806,0.262
				c-1.536-1.088-2.998-2.352-4.253-3.748C529.266,336.724,529.212,335.554,528.733,334.091z"/>
			<path fill="#FFFFFF" d="M546.574,243.763c5.15,0.725,9.758,0.211,14.746-1.293c-0.264-3.391-0.521-6.648-0.823-10.434
				c1.241-0.504,2.604-1.396,4.05-1.572c2.59-0.318,5.396,0.646,7.612-1.66c0.22-0.234,1.46,0.223,1.975,0.658
				c0.255,0.217,0.11,1.482-0.193,1.635c-4.031,2.215-2.465,5.91-2.819,9.82c5.16-1.674,10.319-0.23,15.096-2.717
				c1.654-0.859,4.024-0.752,6.002-0.516c2.514,0.32,4.166,2.646,3.906,5.117c-0.787,7.514-1.705,15.016-2.5,22.531
				c-0.447,4.166-1.893,7.307-6.694,7.719c-1.041,0.1-2.021,0.777-3.407,1.355c-0.42-1.576-0.789-2.99-1.164-4.393
				c-9.07-0.236-60.936,7.184-66.261,9.674c-2.736-11.092-2.753-22.494-5.688-33.35c2.358-3.098,5.9-2.502,7.938-1.496
				c4.851,2.434,9.586,1.027,14.377,0.938c1.078-0.016,2.146-0.393,3.504-0.664c-0.512-3.977-1.004-7.816-1.479-11.586
				c3.113-1.875,9.6-2.266,14.677-0.436c-1.462,1.268-2.621,2.264-3.79,3.287C545.926,238.73,546.235,241.056,546.574,243.763z
				 M524.21,274.175c5.452-1.004,10.592-1.943,16.054-2.941c-0.729-4.047-1.369-7.527-2.055-11.279
				c-5.346,0.313-10.281,0.488-14.902,2.982C523.615,266.769,523.891,270.306,524.21,274.175z M584.957,254.197
				c-4.979,0.633-9.255,1.176-13.788,1.746c-0.134,4.113-0.257,7.967-0.398,12.307c4.533-0.568,8.633-1.092,12.992-1.652
				C584.155,262.433,584.527,258.605,584.957,254.197z M561.832,257.64c-5.313-0.504-9.826,0.16-14.229,1.227
				c0.19,6.93,0.338,7.727,2.035,11.092c4.239-0.484,8.537-0.855,12.964-2.072C562.323,264.251,562.097,261.162,561.832,257.64z
				 M523.483,259.119c4.929-0.621,9.401-1.193,14.093-1.797c-0.438-3.324-0.792-6.195-1.22-9.539
				c-4.082,0.141-7.847,0.189-11.583,0.447c-2.01,0.133-3.246,1.318-2.862,3.492C522.332,254.189,522.948,256.615,523.483,259.119z
				 M585.258,241.931c-5.031,0.463-9.637-0.766-13.754,1.977c-0.35,3.059-1.096,5.955,0.324,9.037
				c4.343-0.918,8.847,0.545,13.146-2.098C585.058,248.117,585.155,245.335,585.258,241.931z M547.83,256.121
				c4.921-0.623,9.051-1.145,13.768-1.748c-0.14-2.857-0.275-5.697-0.412-8.682c-4.548,0.221-8.42,0.383-12.299,0.613
				c-0.588,0.029-1.163,0.35-2.205,0.684C547.042,249.876,547.411,252.712,547.83,256.121z"/>
			<path fill="#FFFFFF" d="M530.546,296.421c4.396-1.023,8.729-2.365,13.179-2.994c6.712-0.951,13.497-1.336,20.238-2.07
				c3.275-0.359,6.518-1.021,9.789-1.451c3.104-0.398,5.613-1.773,7.898-3.895c3.057-2.861,8.627-2.539,11.364,0.492
				c1.026,1.143,0.761,2.473-0.711,2.949c-1.047,0.342-2.168,0.422-3.259,0.592c-8.103,1.293-16.189,2.658-24.305,3.844
				c-4.361,0.652-8.801,0.914-13.182,1.494c-6.251,0.814-12.479,1.777-18.715,2.631c-0.702,0.088-1.436-0.1-2.146-0.15
				C530.643,297.384,530.599,296.9,530.546,296.421z"/>
		</g>
		<g>
			<path fill="#FFFFFF" d="M403.516,317.365c-0.481,0.066-0.967,0.242-1.44,0.521c-0.729,0.422-1.414,0.742-2.073,0.984
				c-0.654,0.23-1.33,0.447-1.98,0.646c-1.032,0.326-2.083,0.656-3.104,1.084c-0.735,0.305-1.277,0.264-2.065-0.188
				c-0.503-0.289-1.007-0.57-1.524-0.852c-0.699-0.395-1.435-0.791-2.138-1.221c-0.867-0.529-1.708-1.08-2.594-1.684
				c-0.246-0.158-0.496-0.322-0.749-0.488c0.029-0.023,0.04-0.059,0.063-0.08c0.34-0.387,0.678-0.775,1.021-1.166
				c0.742-0.824,1.517-1.682,2.183-2.6c1.362-1.871,2.356-3.896,3.443-6.152c0.568-1.209,0.219-2.438-0.949-3.305
				c-1.44-1.07-3.061-1.119-4.453-1.084c-0.242,0.004-0.463,0.029-0.649,0.053c-1.086,0.162-1.683,0.721-2.056,1.951
				c-0.127,0.383-0.191,0.773-0.258,1.164c-0.045,0.246-0.094,0.496-0.146,0.746c-0.365,1.514-1.172,2.807-2.021,4.166
				c-0.147,0.236-0.281,0.463-0.427,0.693c-0.222,0.361-0.495,0.705-0.778,1.064c-0.027,0.029-0.056,0.063-0.081,0.088
				c-2.609-2.281-6.596-7.678-7.356-9.678c0.021-0.006,0.041-0.016,0.061-0.02c0.384-0.141,0.742-0.268,1.104-0.33
				c0.467-0.084,0.933-0.156,1.397-0.234c0.593-0.08,1.097-0.137,1.578-0.158c0.687-0.02,1.379-0.105,2.121-0.199
				c2.108-0.314,4.17-0.883,6.172-1.438c0.596-0.158,1.194-0.328,1.789-0.494c0.886-0.225,1.753-0.469,2.63-0.697
				c1.982-0.543,4.027-1.084,6.044-1.568c1.069-0.248,1.894-0.764,2.554-1.598l0.209-0.258l-0.158-0.293
				c-0.854-1.58-1.522-2.205-2.976-2.773c-0.079-0.037-0.164-0.064-0.257-0.1c-0.295-0.109-0.564-0.207-0.759-0.359
				c-0.775-0.613-1.645-0.754-2.493-0.891l-0.354-0.059c-1.352-0.23-2.319,0.313-2.972,1.676c-0.229,0.48-0.475,0.951-0.719,1.418
				c-0.229,0.438-0.465,0.873-0.685,1.314c-0.202,0.434-0.39,0.596-0.753,0.652c-0.803,0.145-1.588,0.359-2.355,0.576l-0.393,0.105
				c-0.304,0.072-0.602,0.182-0.904,0.279c-0.446,0.145-0.874,0.289-1.313,0.375c-1.815,0.338-3.638,0.676-5.452,0.994
				c-1.495,0.283-2.994,0.549-4.493,0.834c-0.198,0.037-0.375,0.07-0.521,0.092c-0.467,0.066-0.467,0.066-0.812-0.805
				c-0.154-0.363-0.269-0.74-0.375-1.16c-0.211-0.697-0.421-1.432-0.832-2.066c-0.548-0.826-0.805-1.738-1.069-2.705
				c-0.092-0.318-0.172-0.639-0.271-0.961c-0.179-0.557-0.331-1.125-0.496-1.721c-0.031-0.117-0.063-0.238-0.088-0.35l2.316-0.604
				c3.18-0.818,6.373-1.646,9.569-2.467c0.246-0.063,0.513-0.094,0.766-0.121c0.01,0.139,0.031,0.271,0.046,0.393
				c0.085,0.58,0.147,1.131,0.26,1.674c0.24,1.209,0.961,1.855,1.925,1.721c0.349-0.045,0.713-0.203,1.087-0.453
				c0.644-0.43,1.271-0.928,1.938-1.52c0.329-0.291,0.771-0.738,0.888-1.283l0.072-0.377c0.267-1.283,0.539-2.613,0.594-3.947
				c0.055-1.248,0.008-2.52-0.037-3.738c-0.018-0.725-0.047-1.443-0.057-2.158c0-0.189,0.039-0.4,0.085-0.625
				c0.063-0.336,0.145-0.705,0.081-1.092c-0.274-1.596-0.127-3.164,0.009-4.811c0.092-1.059,0.184-2.131,0.175-3.219
				c-0.035-1.406,0-2.766,0.674-3.988c0.073-0.129,0.25-0.488,0.194-0.855c-0.029-0.178-0.036-0.363-0.05-0.563
				c-0.032-0.641-0.071-1.293-0.521-1.688c-0.911-0.809-1.941-1.59-3.367-1.85c-1.423-0.246-2.784-0.152-4.227,0.303
				c-0.449,0.133-0.881,0.318-1.289,0.492c-0.44,0.188-0.851,0.354-1.282,0.488c-2.333,0.705-4.717,1.369-7.027,2.018l-0.118,0.031
				c-1.614,0.449-3.232,0.908-4.849,1.346l-2.46,0.666c-0.053,0.02-0.106,0.031-0.171,0.047c-0.213,0.033-0.479,0.09-0.698,0.283
				c-0.672,0.615-1.539,0.797-2.453,0.986c-0.302,0.064-0.61,0.139-0.922,0.211c0.649-0.412,1.181-0.93,1.697-1.43
				c0.227-0.238,0.474-0.471,0.72-0.691c0.448-0.393,1.007-0.709,1.511-0.865c1.233-0.375,2.266-1.076,3.246-1.748
				c0.479-0.322,0.974-0.658,1.468-0.943c0.149-0.086,0.29-0.191,0.392-0.291c0.202-0.178,0.29-0.238,0.482-0.225
				c0.575,0.031,1.359-0.629,1.479-1.188c0.245-1.121,0.896-2.014,1.578-2.973c0.175-0.242,0.344-0.479,0.504-0.709
				c0.63-0.926,0.692-1.752,0.236-2.693c-0.163-0.314-0.324-0.619-0.511-0.902c1.418-0.295,2.9-0.588,4.42-0.813
				c1.474-0.213,2.796-0.326,4.048-0.354c0.338-0.004,0.689-0.084,0.93-0.225c0.419-0.27,0.884-0.434,1.479-0.518
				c0.243-0.033,0.498-0.061,0.818-0.074c0.698-0.025,1.393-0.451,1.826-1.1c0.347-0.506,0.479-1.063,0.36-1.561
				c-0.287-1.182-0.823-2.59-2.522-3.068l-0.101-0.027c-0.896-0.248-1.753-0.479-2.266-1.238c-0.211-0.305-0.575-0.408-0.866-0.5
				l-0.146-0.043c-0.396-0.125-0.795-0.162-1.18-0.113c-0.757,0.113-1.354,0.547-1.91,0.965l-0.161,0.129l-0.026,0.217
				c-0.167,1.418-0.305,1.738-1.239,2.777c-0.058,0.066-0.121,0.117-0.188,0.178c-0.188,0.197-0.419,0.406-0.531,0.709
				c-0.173,0.455-0.426,0.572-1.146,0.693c-2.239,0.396-4.466,0.854-6.631,1.297c-2.61,0.521-5.325,1.104-8.094,1.689
				c-1.756,0.379-3.589,0.801-5.626,1.268c-0.377,0.088-0.748,0.205-1.113,0.313c-0.617,0.188-1.194,0.354-1.789,0.416
				c-0.188,0.023-0.354,0.043-0.503,0.063c-0.521,0.084-1.053,0.205-1.322,0.633c-0.313,0.467-0.229,1.068,0.036,2.082l0.108,0.41
				l0.421-0.031c0.39-0.041,0.784-0.053,1.179-0.072c0.948-0.037,1.982-0.117,2.767-0.371c2.164-0.705,4.438-1.162,6.642-1.613
				c0.55-0.1,1.096-0.221,1.641-0.326c0.331-0.068,0.688-0.137,1.104-0.193c0.314-0.045,0.637-0.086,0.944-0.129
				c0.198-0.021,0.399-0.061,0.61-0.076c0.603,0.818,0.637,1.502,0.14,2.229c-0.229,0.35-0.467,0.691-0.706,1.039
				c-0.584,0.875-1.205,1.779-1.838,2.648c-0.329,0.443-0.771,0.838-1.199,1.23l-0.096,0.076c-0.52,0.475-1.049,0.93-1.58,1.387
				c-1.02,0.877-2.076,1.791-3.049,2.754c-0.61,0.6-1.198,0.906-1.937,1.029c-0.351,0.043-0.714,0.051-1.089,0.059
				c-0.166,0.008-0.327,0.008-0.491,0.008c-0.323,0.016-0.604,0.037-0.843,0.064c-0.511,0.082-1.229,0.242-1.532,0.859
				c-0.328,0.693,0.062,1.551,0.491,2.305c0.511,0.893,0.832,1.84,0.999,2.986l0.189,1.264c0.317,2.18,0.657,4.441,0.951,6.656
				c0.173,1.418,0.347,2.832,0.519,4.266c0.258,2.176,0.521,4.424,0.837,6.629c0.132,0.857,0.516,1.645,0.874,2.416
				c0.089,0.191,0.17,0.375,0.25,0.547c0.224,0.488,0.936,0.605,1.146,0.637c0.449,0.053,0.901,0.045,1.313-0.016l0.079-0.016
				c0.722-0.117,1.427-0.26,2.176-0.41c0.183-0.037,0.373-0.076,0.568-0.113c0.073,0.105,0.145,0.23,0.228,0.326
				c0.302,0.447,0.584,0.859,0.784,1.309c0.352,0.809,0.674,1.66,0.986,2.482c0.246,0.646,0.492,1.293,0.768,1.934
				c0.303,0.738,0.64,1.457,0.996,2.203c0.088,0.209,0.184,0.404,0.281,0.605c-0.092,0.045-0.152,0.092-0.212,0.111
				c-0.419,0.104-0.839,0.209-1.247,0.311c-0.63,0.152-1.272,0.303-1.902,0.5c-2.137,0.633-4.291,1.316-6.384,1.975l-0.868,0.273
				c-0.792,0.244-1.569,0.512-2.291,0.775c-0.398,0.146-0.713,0.43-0.876,0.785c-0.151,0.344-0.165,0.73-0.026,1.109
				c0.189,0.504,0.934,0.9,1.442,0.889c0.575-0.002,1.149-0.176,1.688-0.334l0.211-0.059c0.338-0.104,0.676-0.221,1.014-0.346
				c0.419-0.15,0.819-0.287,1.224-0.395c1.181-0.309,2.354-0.596,3.534-0.887c1.87-0.467,3.808-0.949,5.701-1.465
				c0.535-0.145,0.846-0.078,1.184,0.346c0.213,0.27,0.424,0.521,0.643,0.781c0.417,0.5,0.818,0.984,1.168,1.496
				c1.57,2.354,3.406,4.574,5.598,6.754c0.832,0.826,1.602,1.701,2.411,2.613c0.292,0.314,0.575,0.627,0.869,0.961
				c-0.104,0.162-0.185,0.32-0.272,0.4c-0.486,0.432-0.949,0.871-1.431,1.301c-1.385,1.275-2.813,2.602-4.318,3.779
				c-0.863,0.682-1.881,1.242-2.863,1.783c-0.431,0.229-0.86,0.465-1.28,0.711c-0.375,0.211-1.224,0.713-0.994,1.754
				c0.184,0.838,0.878,1.314,1.809,1.248c0.889-0.063,1.646-0.184,2.311-0.393c0.826-0.25,1.646-0.512,2.449-0.779
				c1.033-0.342,2.1-0.68,3.158-0.98c0.924-0.252,1.672-0.684,2.356-1.355c0.966-0.949,1.983-1.891,2.95-2.799
				c0.305-0.291,0.609-0.576,0.911-0.857l1.23,0.699c1.114,0.639,2.202,1.268,3.278,1.881c0.878,0.496,1.762,0.98,2.64,1.469
				c1.954,1.07,3.976,2.186,5.869,3.391c1.386,0.887,2.663,0.846,3.732,0.684c0.309-0.037,0.605-0.096,0.922-0.162
				c0.538-0.109,1.076-0.369,1.458-0.715c1.132-1.012,2.094-1.93,2.914-2.801c1.651-1.756,2.592-3.945,3.519-6.047l0.233-0.564
				l-0.391-0.225C405.51,317.474,404.504,317.224,403.516,317.365z M358.248,277.138c0.081-0.035,0.166-0.072,0.233-0.104
				c0.479-0.189,0.915-0.377,1.365-0.498c0.946-0.275,1.908-0.525,2.841-0.783c1.878-0.498,3.824-1.014,5.678-1.693
				c1.799-0.672,3.811-1.148,6.313-1.51c0.218-0.033,0.438-0.063,0.657-0.096l0.092-0.008c0.492-0.074,0.979-0.193,1.451-0.309
				c0.273-0.064,0.547-0.137,0.834-0.186c0.544-0.113,1.095-0.221,1.741-0.35l0.365-0.064l-0.073,3
				c-0.085,0.066-0.175,0.133-0.256,0.158c-3.042,1.063-6.12,2.115-9.123,3.139c-1.661,0.559-3.315,0.922-5.067,1.123
				c-1.488,0.162-2.971,0.529-4.383,0.904c-0.612,0.148-1.226,0.309-1.828,0.449c-0.184,0.033-0.354,0.086-0.551,0.139
				c-0.262-0.428-0.244-0.908-0.197-1.605C358.377,278.318,358.423,277.724,358.248,277.138z M379.952,265.351
				c0.015,0.596-0.007,1.201-0.032,1.844c0,0.227-0.012,0.457-0.019,0.693c-0.075,0.053-0.186,0.125-0.223,0.141
				c-0.206,0.004-0.419,0.025-0.636,0.061c-0.771,0.109-1.491,0.355-2.195,0.592c-0.678,0.23-1.322,0.459-1.998,0.547l-0.053,0.02
				c-1.374,0.178-2.741,0.398-4.113,0.617l-0.914,0.146c-0.308,0.055-0.6,0.148-0.892,0.242c-0.553,0.189-1.101,0.395-1.64,0.592
				c-1.146,0.434-2.328,0.854-3.505,1.188c-1.353,0.357-2.714,0.627-4.146,0.918c-0.483,0.092-0.978,0.188-1.474,0.289
				c-0.271-1.139-0.171-2.229-0.081-3.371c0.047-0.443,0.081-0.912,0.102-1.385c0.328-0.074,0.639-0.145,0.949-0.211
				c1.065-0.246,2.068-0.484,3.088-0.748c0.54-0.141,1.051-0.336,1.543-0.504c0.197-0.076,0.402-0.158,0.607-0.23
				c0.214-0.08,0.434-0.162,0.646-0.238c0.437-0.174,0.854-0.332,1.272-0.436c0.146-0.027,0.287-0.059,0.424-0.092
				c0.886-0.193,1.801-0.387,2.631-1.068c0.221-0.176,0.592-0.246,0.996-0.338c0.229-0.047,0.465-0.092,0.691-0.162
				c0.697-0.217,1.369-0.494,2.026-0.748c1.161-0.475,2.267-0.908,3.452-1.08h0.027c0.209-0.037,0.432-0.074,0.637-0.104
				c0.423-0.078,0.832-0.145,1.264-0.174c0.823-0.061,1.268,0.262,1.426,1.012c0.127,0.564,0.134,1.209,0.134,1.832v0.156H379.952
				L379.952,265.351z M358.947,287.16c-0.104-0.922-0.204-1.789-0.269-2.662c-0.021-0.215-0.011-0.342,0.41-0.488
				c2.394-0.813,4.677-1.363,6.969-1.693l0.412-0.059c2.968-0.432,5.186-1.047,7.192-2c1.063-0.492,2.212-0.885,3.325-1.256
				c0.538-0.184,1.091-0.367,1.625-0.566c0.465-0.156,0.842-0.146,1.228,0.074l0.106,3.533c-0.292,0.096-0.566,0.182-0.847,0.271
				c-0.825,0.271-1.609,0.521-2.396,0.746c-3.122,0.881-6.199,1.74-9.306,2.566c-0.72,0.188-1.47,0.334-2.2,0.475
				c-0.632,0.117-1.282,0.254-1.922,0.404c-0.771,0.193-1.473,0.455-2.079,0.773c-0.459,0.25-0.938,0.346-1.35,0.404
				c-0.188,0.02-0.356,0.043-0.55,0.063c-0.094,0.016-0.19,0.016-0.282,0.031C358.987,287.572,358.961,287.359,358.947,287.16z"/>
			<path fill="#FFFFFF" d="M339.911,279.585c-1.333-0.016-2.413-0.096-3.391-0.23c-0.978-0.133-1.595,0.133-2.056,0.834
				c-0.438,0.656-1.076,1.051-2.138,1.301c-1.478,0.338-2.961,0.746-4.374,1.189c-0.505,0.158-0.982,0.359-1.441,0.559
				c-0.483,0.201-0.949,0.396-1.434,0.533c-1.264,0.387-2.557,0.713-3.814,1.031c-0.488,0.133-0.972,0.266-1.455,0.387
				c-0.354,0.1-0.713,0.184-1.076,0.271l-0.108,0.023c-0.061-0.104-0.083-0.193-0.104-0.266c-0.346-1.549-1.256-2.332-2.765-2.408
				c-0.732-0.037-1.453-0.197-2.206-0.363c-0.297-0.061-0.582-0.117-0.863-0.182c-1.376-0.27-2.385,0.115-3.332,1.205l-0.229,0.279
				l0.186,0.313c0.106,0.188,0.208,0.391,0.3,0.592c0.253,0.533,0.513,1.084,0.997,1.41c0.509,0.355,0.782,0.75,0.928,1.375
				c0.192,0.748,0.358,1.568,0.53,2.57c0.257,1.426,0.404,2.898,0.549,4.311c0.192,1.896,0.394,3.84,0.832,5.738
				c0.392,1.711,0.619,3.486,0.855,5.213c0.112,0.852,0.228,1.697,0.354,2.531c0.085,0.527,0.166,1.078,0.348,1.602
				c0.349,0.963,1.041,1.438,1.925,1.309c0.25-0.037,0.515-0.121,0.79-0.262c0.117-0.047,0.226-0.117,0.334-0.188
				c0.14-0.088,0.287-0.168,0.386-0.189c2.377-0.383,4.347-1.611,6.128-2.877c1.313-0.951,2.777-1.52,4.396-2.123
				c0.757-0.287,1.543-0.523,2.311-0.77c0.467-0.146,0.93-0.293,1.399-0.443c0.252-0.096,0.508-0.197,0.765-0.293
				c0.438-0.186,0.841-0.346,1.251-0.428c0.081-0.02,0.163-0.031,0.24-0.037c0.271-0.039,0.354-0.01,0.354-0.01
				c0.036,0.027,0.101,0.184,0.186,0.672c0.317,1.938,0.639,2.248,2.586,2.594c0.108,0.016,0.209,0.033,0.309,0.041
				c1.902,0.209,4.269-1.363,4.049-3.611c-0.049-0.365-0.056-0.734-0.068-1.111c-0.019-0.4-0.033-0.834-0.081-1.254
				c-0.226-2.152-0.094-4.35,0.037-6.477c0.059-0.846,0.099-1.697,0.14-2.547c0.033-0.959,0.192-1.885,0.356-2.865
				c0.198-1.281,0.426-2.611,0.353-3.996c-0.008-0.174-0.019-0.359-0.019-0.535c-0.033-0.662-0.058-1.334-0.221-2.016
				C342.467,280.144,341.802,279.607,339.911,279.585z M320.379,299.666c-0.102-0.629-0.204-1.24-0.274-1.844
				c-0.275-2.305-0.54-5.053-0.459-7.883c0-0.193-0.017-0.395-0.024-0.598c-0.02-0.221-0.057-0.613,0.01-0.705
				c0.102-0.117,0.52-0.199,0.803-0.262c0.154-0.025,0.319-0.066,0.471-0.096c0.607-0.166,1.22-0.318,1.829-0.475
				c0.935-0.234,1.864-0.467,2.788-0.717c0.463-0.133,0.92-0.303,1.369-0.471c0.303-0.113,0.6-0.223,0.905-0.32
				c0.501-0.16,0.993-0.326,1.499-0.488c1.594-0.523,3.246-1.066,4.898-1.539c0.176-0.047,0.323-0.088,0.457-0.102
				c0.2-0.031,0.338-0.027,0.402,0.02c0.063,0.061,0.173,0.244,0.229,0.895c0.107,1.439,0.132,2.932,0.154,4.367l0.018,1.08
				c0.037,1.813,0.047,3.623,0.066,5.436l0.011,0.604c0,0.24-0.021,0.482-0.04,0.725c0,0.115-0.008,0.244-0.019,0.365
				c-0.055,1.1-0.77,1.898-1.906,2.137c-1.09,0.221-2.085,0.643-3.038,1.051c-0.853,0.367-1.657,0.697-2.515,0.906
				c-0.71,0.188-1.38,0.467-2.018,0.758c-0.808,0.344-1.554,0.672-2.388,0.789l-0.044,0.008c-0.604,0.088-1.139,0.395-1.661,0.684
				c-0.257,0.137-0.506,0.279-0.738,0.387c-0.13,0.055-0.264,0.092-0.434,0.141C320.891,302.796,320.636,301.212,320.379,299.666z"
				/>
			<path fill="#FFFFFF" d="M404.2,283.74c-0.48-0.955-1.099-1.861-1.683-2.73c-0.194-0.287-0.373-0.582-0.565-0.863
				c-0.606-0.939-1.364-1.416-2.317-1.463c-0.313-0.02-0.631-0.061-0.965-0.104c-0.613-0.092-1.245-0.186-1.885-0.1l-0.191,0.029
				c-2.063,0.293-3.971,0.949-3.918,3.686v0.318l0.302,0.133c0.186,0.068,0.367,0.137,0.55,0.201
				c0.338,0.113,0.646,0.23,0.857,0.395c1.396,1.152,2.521,2.541,3.345,4.145c0.638,1.232,0.982,1.535,2.399,1.451l0.071-0.008
				c0.209-0.016,0.411-0.029,0.547,0.02c0.411,0.139,0.853,0.188,1.299,0.113c0.601-0.082,1.143-0.344,1.635-0.607
				c0.586-0.314,1.232-1.156,1.222-1.857C404.903,285.603,404.638,284.601,404.2,283.74z"/>
		</g>
		<g>
			<path fill="#FFFFFF" d="M292.342,328.404c-0.619-0.059-1.27,0.025-1.917,0.23c-1.017,0.32-1.938,0.521-2.822,0.629
				c-0.854,0.104-1.754,0.178-2.612,0.266c-1.342,0.102-2.734,0.217-4.097,0.463c-0.996,0.164-1.653-0.041-2.484-0.813
				c-0.537-0.496-1.086-0.979-1.646-1.467c-0.763-0.664-1.543-1.367-2.283-2.07c-0.924-0.9-1.802-1.818-2.72-2.789
				c-0.258-0.266-0.525-0.553-0.777-0.818c0.027-0.023,0.064-0.053,0.094-0.082c0.52-0.393,1.057-0.764,1.587-1.146
				c1.145-0.805,2.331-1.639,3.405-2.588c2.175-1.916,3.966-4.119,5.915-6.602c1.056-1.314,0.951-2.934-0.235-4.311
				c-1.488-1.715-3.44-2.227-5.179-2.566c-0.299-0.061-0.556-0.098-0.802-0.117c-1.382-0.109-2.264,0.414-3.068,1.813
				c-0.257,0.453-0.443,0.916-0.643,1.359c-0.125,0.285-0.244,0.596-0.382,0.875c-0.874,1.756-2.221,3.131-3.645,4.564
				c-0.235,0.24-0.474,0.484-0.701,0.721c-0.379,0.395-0.807,0.738-1.253,1.092c-0.044,0.029-0.091,0.068-0.138,0.1
				c-2.566-3.529-5.951-11.26-6.335-13.93c0.023,0,0.055,0,0.078-0.006c0.502-0.063,0.988-0.115,1.445-0.096
				c0.604,0.029,1.196,0.053,1.791,0.102c0.729,0.059,1.382,0.143,1.972,0.236c0.849,0.15,1.727,0.266,2.654,0.338
				c2.674,0.211,5.372,0.086,7.98-0.039c0.775-0.037,1.565-0.072,2.343-0.104c1.139-0.045,2.279-0.09,3.412-0.143
				c2.586-0.104,5.254-0.223,7.859-0.232c1.391-0.021,2.524-0.428,3.575-1.264l0.317-0.262l-0.108-0.396
				c-0.606-2.184-1.253-3.133-2.876-4.238c-0.094-0.061-0.184-0.121-0.287-0.188c-0.323-0.209-0.635-0.416-0.826-0.648
				c-0.786-0.979-1.82-1.387-2.807-1.775l-0.438-0.176c-1.593-0.662-2.92-0.27-4.1,1.232c-0.412,0.516-0.851,1.025-1.289,1.531
				c-0.394,0.467-0.801,0.947-1.194,1.426c-0.373,0.473-0.644,0.617-1.095,0.604c-1.032-0.055-2.066,0-3.071,0.041l-0.499,0.025
				c-0.406,0.02-0.787,0.053-1.188,0.092c-0.604,0.059-1.172,0.113-1.73,0.088c-2.315-0.072-4.638-0.176-6.963-0.275
				c-1.914-0.08-3.839-0.164-5.746-0.238c-0.27-0.002-0.484-0.021-0.666-0.027c-0.584-0.051-0.584-0.051-0.777-1.201
				c-0.071-0.496-0.108-1-0.14-1.527c-0.052-0.938-0.117-1.889-0.442-2.779c-0.441-1.182-0.498-2.354-0.549-3.611
				c-0.03-0.42-0.047-0.83-0.081-1.254c-0.058-0.742-0.094-1.482-0.129-2.256c0-0.154-0.013-0.301-0.021-0.455l3.023-0.092
				c4.129-0.121,8.273-0.246,12.438-0.363c0.317-0.016,0.648,0.02,0.957,0.055c-0.008,0.17-0.023,0.334-0.044,0.496
				c-0.063,0.738-0.125,1.438-0.134,2.119c-0.05,1.564,0.653,2.563,1.877,2.648c0.438,0.037,0.931-0.049,1.453-0.248
				c0.912-0.355,1.825-0.791,2.803-1.336c0.474-0.266,1.16-0.693,1.438-1.324l0.196-0.439c0.688-1.502,1.397-3.057,1.837-4.684
				c0.398-1.523,0.701-3.086,0.988-4.604c0.171-0.893,0.334-1.779,0.528-2.662c0.054-0.234,0.162-0.475,0.277-0.746
				c0.177-0.387,0.375-0.83,0.404-1.318c0.108-2.027,0.713-3.908,1.341-5.902c0.411-1.262,0.819-2.572,1.099-3.9
				c0.363-1.734,0.779-3.396,1.947-4.701c0.134-0.154,0.438-0.537,0.472-1c0.021-0.219,0.056-0.463,0.103-0.697
				c0.137-0.803,0.272-1.621-0.152-2.221c-0.903-1.252-1.967-2.5-3.639-3.199c-1.679-0.709-3.378-0.979-5.277-0.814
				c-0.572,0.047-1.158,0.146-1.713,0.25c-0.588,0.105-1.143,0.201-1.711,0.238c-3.062,0.221-6.177,0.383-9.194,0.533l-0.158,0.006
				c-2.098,0.111-4.208,0.207-6.315,0.307l-3.209,0.141c-0.061,0.012-0.145,0-0.219,0c-0.264-0.012-0.611-0.021-0.929,0.148
				c-1.007,0.57-2.124,0.553-3.299,0.541c-0.384-0.012-0.786-0.012-1.19,0.004c0.914-0.322,1.71-0.822,2.488-1.297
				c0.354-0.219,0.713-0.443,1.078-0.645c0.666-0.367,1.422-0.604,2.08-0.648c1.627-0.115,3.074-0.686,4.481-1.234
				c0.678-0.27,1.368-0.539,2.06-0.746c0.226-0.072,0.398-0.172,0.563-0.262c0.306-0.146,0.43-0.205,0.661-0.137
				c0.684,0.199,1.843-0.381,2.153-1.047c0.603-1.301,1.642-2.236,2.757-3.215c0.271-0.246,0.549-0.482,0.812-0.729
				c1.025-0.955,1.343-1.953,1.034-3.234c-0.099-0.436-0.238-0.855-0.365-1.266c1.816,0.041,3.729,0.098,5.636,0.238
				c1.871,0.154,3.528,0.379,5.088,0.695c0.398,0.088,0.855,0.088,1.187-0.029c0.596-0.213,1.213-0.273,1.964-0.213
				c0.313,0.018,0.643,0.076,1.03,0.139c0.855,0.146,1.837-0.176,2.548-0.842c0.563-0.527,0.88-1.168,0.868-1.824
				c-0.014-1.521-0.284-3.404-2.236-4.469l-0.116-0.055c-1.03-0.551-2.021-1.076-2.448-2.156c-0.167-0.426-0.586-0.662-0.911-0.846
				l-0.169-0.096c-0.446-0.258-0.928-0.422-1.424-0.455c-0.951-0.08-1.811,0.273-2.603,0.643l-0.246,0.105l-0.081,0.26
				c-0.604,1.699-0.859,2.045-2.305,3.066c-0.083,0.064-0.183,0.111-0.271,0.18c-0.296,0.18-0.624,0.379-0.854,0.713
				c-0.327,0.504-0.694,0.58-1.598,0.529c-2.85-0.139-5.728-0.195-8.501-0.25c-3.353-0.066-6.854-0.125-10.402-0.162
				c-2.265-0.029-4.63-0.029-7.257-0.004c-0.498,0.004-0.979,0.033-1.453,0.063c-0.813,0.061-1.584,0.111-2.335,0.02
				c-0.229-0.02-0.435-0.047-0.617-0.059c-0.669-0.059-1.343-0.045-1.81,0.41c-0.501,0.486-0.574,1.234-0.526,2.563l0.021,0.539
				l0.526,0.066c0.485,0.059,0.979,0.158,1.462,0.242c1.178,0.217,2.477,0.398,3.511,0.309c2.854-0.264,5.771-0.193,8.58-0.133
				c0.714,0.016,1.427,0.041,2.129,0.049c0.419,0.004,0.866,0.025,1.407,0.068c0.393,0.029,0.793,0.064,1.186,0.105
				c0.266,0.031,0.521,0.059,0.771,0.084c0.521,1.16,0.372,2.018-0.438,2.775c-0.396,0.354-0.778,0.709-1.164,1.076
				c-0.963,0.904-1.96,1.855-2.975,2.744c-0.526,0.447-1.188,0.809-1.837,1.176l-0.138,0.074c-0.766,0.426-1.542,0.838-2.319,1.252
				c-1.499,0.795-3.033,1.613-4.512,2.531c-0.912,0.564-1.717,0.789-2.659,0.725c-0.438-0.033-0.882-0.125-1.351-0.225
				c-0.2-0.045-0.402-0.09-0.611-0.129c-0.402-0.072-0.736-0.109-1.047-0.141c-0.652-0.059-1.576-0.049-2.112,0.617
				c-0.604,0.75-0.356,1.924-0.039,2.961c0.39,1.242,0.507,2.494,0.396,3.945l-0.12,1.604c-0.207,2.771-0.417,5.631-0.694,8.438
				c-0.157,1.799-0.353,3.58-0.536,5.373c-0.284,2.736-0.58,5.584-0.793,8.381c-0.095,1.09,0.143,2.17,0.386,3.211
				c0.051,0.252,0.117,0.496,0.163,0.744c0.138,0.646,0.968,0.988,1.226,1.084c0.543,0.189,1.089,0.309,1.619,0.35l0.096,0.004
				c0.919,0.059,1.826,0.076,2.785,0.105c0.234,0.004,0.482,0.016,0.729,0.02c0.063,0.158,0.119,0.316,0.192,0.467
				c0.233,0.625,0.467,1.225,0.582,1.818c0.219,1.1,0.385,2.219,0.54,3.328c0.118,0.854,0.245,1.711,0.404,2.574
				c0.16,0.996,0.382,1.967,0.606,2.99c0.059,0.271,0.121,0.539,0.174,0.822c-0.115,0.033-0.205,0.063-0.279,0.066
				c-0.545,0.018-1.087,0.031-1.635,0.035c-0.806,0.016-1.637,0.021-2.467,0.076c-2.799,0.199-5.639,0.438-8.387,0.674l-1.141,0.088
				c-1.051,0.078-2.063,0.189-3.021,0.313c-0.54,0.066-0.996,0.33-1.297,0.721c-0.292,0.383-0.419,0.855-0.348,1.359
				c0.102,0.68,0.896,1.367,1.523,1.494c0.715,0.15,1.463,0.102,2.177,0.053l0.263-0.016c0.459-0.033,0.896-0.072,1.354-0.141
				c0.555-0.063,1.082-0.119,1.614-0.145c1.526-0.043,3.052-0.068,4.575-0.102c2.431-0.059,4.933-0.111,7.408-0.219
				c0.702-0.021,1.057,0.129,1.361,0.754c0.182,0.387,0.371,0.762,0.564,1.139c0.374,0.738,0.738,1.438,1.01,2.164
				c1.287,3.336,2.926,6.555,5.006,9.855c0.787,1.234,1.5,2.518,2.238,3.861c0.269,0.465,0.527,0.943,0.785,1.418
				c-0.166,0.188-0.313,0.344-0.447,0.422c-0.703,0.395-1.402,0.797-2.098,1.209c-2.068,1.18-4.197,2.398-6.36,3.436
				c-1.249,0.596-2.647,0.992-4.009,1.381c-0.591,0.176-1.186,0.342-1.781,0.525c-0.503,0.164-1.688,0.543-1.708,1.889
				c0,1.064,0.717,1.848,1.887,2.027c1.104,0.164,2.063,0.225,2.938,0.164c1.078-0.08,2.164-0.176,3.226-0.281
				c1.359-0.121,2.769-0.258,4.153-0.32c1.197-0.055,2.235-0.375,3.271-1.021c1.449-0.893,2.945-1.766,4.39-2.611
				c0.456-0.268,0.917-0.537,1.37-0.803l1.305,1.199c1.197,1.096,2.352,2.156,3.51,3.219c0.938,0.855,1.893,1.689,2.831,2.523
				c2.101,1.873,4.271,3.795,6.265,5.816c1.455,1.461,3.029,1.766,4.393,1.869c0.384,0.025,0.777,0.039,1.17,0.051
				c0.701,0.02,1.427-0.154,1.991-0.459c1.679-0.934,3.115-1.801,4.368-2.643c2.52-1.691,4.281-4.109,5.984-6.461l0.449-0.617
				l-0.42-0.383C294.748,329.08,293.603,328.5,292.342,328.404z M247.94,266.427c0.109-0.008,0.223-0.025,0.319-0.041
				c0.632-0.104,1.224-0.199,1.812-0.234c1.232-0.072,2.481-0.125,3.706-0.178c2.438-0.084,4.968-0.18,7.435-0.498
				c2.396-0.322,4.996-0.352,8.174-0.105c0.273,0.029,0.551,0.051,0.83,0.076l0.109,0.008c0.633,0.053,1.261,0.037,1.872,0.033
				c0.356-0.012,0.713-0.012,1.069,0c0.709,0.004,1.414,0.035,2.237,0.059l0.47,0.016l-0.93,3.658
				c-0.105,0.063-0.246,0.129-0.345,0.129c-4.036,0.463-8.103,0.904-12.083,1.318c-2.189,0.23-4.324,0.225-6.527-0.037
				c-1.874-0.205-3.79-0.146-5.642-0.105c-0.794,0.029-1.572,0.045-2.36,0.049c-0.238,0-0.465,0.008-0.711,0.027
				c-0.203-0.602-0.044-1.188,0.2-2.029C247.767,267.925,247.987,267.216,247.94,266.427z M277.87,258.007
				c-0.168,0.732-0.36,1.473-0.57,2.252c-0.064,0.27-0.138,0.559-0.205,0.836c-0.104,0.053-0.26,0.123-0.313,0.115
				c-0.255-0.049-0.521-0.082-0.808-0.098c-0.973-0.088-1.921,0.016-2.847,0.119c-0.902,0.096-1.762,0.188-2.612,0.125l-0.069-0.014
				c-1.734-0.16-3.481-0.268-5.217-0.371l-1.159-0.084c-0.391-0.02-0.775,0.012-1.168,0.061c-0.731,0.076-1.451,0.172-2.183,0.271
				c-1.519,0.199-3.089,0.396-4.623,0.471c-1.749,0.072-3.507,0.033-5.349-0.025c-0.625-0.014-1.242-0.027-1.887-0.047
				c-0.015-1.471,0.404-2.781,0.854-4.158c0.163-0.537,0.338-1.088,0.494-1.664c0.419,0,0.819-0.012,1.222-0.012
				c1.389,0,2.674-0.004,4.008-0.053c0.688-0.02,1.364-0.109,2.029-0.193c0.263-0.045,0.536-0.082,0.803-0.117
				c0.279-0.029,0.576-0.07,0.861-0.104c0.59-0.104,1.146-0.182,1.688-0.182c0.186-0.004,0.363,0,0.536,0
				c1.145,0.016,2.322,0.033,3.528-0.58c0.317-0.156,0.801-0.15,1.313-0.133c0.302,0,0.604,0.012,0.904-0.02
				c0.907-0.068,1.818-0.217,2.687-0.355c1.562-0.246,3.036-0.488,4.556-0.357h0.029c0.271,0.014,0.533,0.035,0.813,0.051
				c0.528,0.021,1.068,0.053,1.586,0.133c1.033,0.17,1.479,0.672,1.479,1.652c-0.01,0.738-0.185,1.518-0.335,2.273L277.87,258.007z
				 M246.006,278.939c0.134-1.16,0.252-2.248,0.421-3.34c0.035-0.258,0.08-0.43,0.639-0.479c3.15-0.346,6.109-0.383,9.03-0.156
				l0.515,0.043c3.771,0.301,6.656,0.162,9.386-0.447c1.444-0.322,2.96-0.471,4.429-0.633c0.722-0.063,1.443-0.135,2.154-0.225
				c0.606-0.082,1.061,0.039,1.479,0.414l-0.854,4.377c-0.375,0.031-0.738,0.063-1.104,0.092c-1.088,0.109-2.118,0.197-3.145,0.254
				c-4.093,0.225-8.1,0.43-12.146,0.572c-0.94,0.023-1.901,0-2.831-0.025c-0.805-0.027-1.646-0.047-2.467-0.047
				c-1.005,0.027-1.945,0.148-2.779,0.385c-0.628,0.174-1.239,0.15-1.76,0.111c-0.228-0.014-0.455-0.041-0.693-0.064
				c-0.116-0.014-0.239-0.031-0.362-0.039C245.949,279.46,245.978,279.197,246.006,278.939z"/>
			<path fill="#FFFFFF" d="M224.737,264.353c-1.614-0.396-2.924-0.777-4.091-1.219c-1.149-0.445-1.993-0.283-2.759,0.443
				c-0.722,0.697-1.607,0.988-2.976,1.008c-1.918,0.008-3.841,0.096-5.709,0.242c-0.648,0.055-1.299,0.176-1.919,0.281
				c-0.664,0.125-1.277,0.238-1.907,0.279c-1.653,0.109-3.339,0.162-4.979,0.201c-0.632,0.025-1.259,0.045-1.893,0.057
				c-0.455,0.029-0.924,0.029-1.385,0.045h-0.154c-0.029-0.139-0.044-0.262-0.044-0.354c0-2.008-0.889-3.221-2.733-3.734
				c-0.889-0.248-1.719-0.631-2.609-1.049c-0.338-0.158-0.665-0.316-1.011-0.471c-1.604-0.699-2.956-0.521-4.418,0.564l-0.361,0.277
				l0.136,0.428c0.084,0.262,0.146,0.539,0.208,0.814c0.167,0.725,0.33,1.459,0.832,1.998c0.54,0.592,0.759,1.143,0.766,1.951
				c0.021,0.971-0.007,2.025-0.061,3.307c-0.094,1.814-0.313,3.662-0.531,5.447c-0.284,2.365-0.576,4.814-0.576,7.268
				c0.009,2.203-0.188,4.467-0.392,6.635c-0.088,1.076-0.191,2.148-0.267,3.223c-0.048,0.674-0.088,1.354-0.007,2.059
				c0.146,1.27,0.874,2.055,1.989,2.133c0.321,0.031,0.667-0.01,1.041-0.092c0.154-0.039,0.313-0.092,0.465-0.143
				c0.2-0.074,0.402-0.141,0.521-0.129c3.023,0.18,5.793-0.771,8.318-1.846c1.896-0.781,3.826-1.092,5.99-1.373
				c1.01-0.133,2.05-0.229,3.04-0.307c0.613-0.055,1.225-0.1,1.837-0.156c0.353-0.037,0.694-0.09,1.041-0.146
				c0.577-0.1,1.117-0.18,1.646-0.166c0.107,0,0.218,0.008,0.312,0.016c0.346,0.029,0.427,0.072,0.427,0.072
				c0.047,0.061,0.073,0.262,0.036,0.891c-0.136,2.469,0.165,2.941,2.466,3.9c0.121,0.053,0.247,0.096,0.363,0.141
				c2.271,0.793,5.611-0.488,5.964-3.324c0.068-0.455,0.14-0.902,0.229-1.381c0.102-0.504,0.202-1.025,0.258-1.555
				c0.309-2.701,1.096-5.367,1.842-7.941c0.303-1.033,0.604-2.047,0.869-3.078c0.313-1.17,0.757-2.262,1.234-3.434
				c0.609-1.518,1.26-3.088,1.543-4.799c0.035-0.219,0.08-0.443,0.129-0.672c0.15-0.809,0.297-1.648,0.297-2.533
				C227.742,265.751,227.064,264.906,224.737,264.353z M195.182,283.585c0.058-0.805,0.092-1.568,0.176-2.336
				c0.313-2.912,0.75-6.355,1.636-9.809c0.053-0.23,0.093-0.486,0.13-0.734c0.035-0.27,0.106-0.779,0.217-0.871
				c0.14-0.117,0.688-0.096,1.04-0.084c0.213,0,0.422,0.004,0.615,0c0.794-0.012,1.578-0.045,2.382-0.066
				c1.207-0.025,2.412-0.059,3.625-0.109c0.604-0.037,1.217-0.109,1.798-0.193c0.404-0.053,0.805-0.109,1.206-0.145
				c0.66-0.063,1.307-0.117,1.964-0.182c2.114-0.205,4.293-0.398,6.451-0.535c0.224-0.008,0.425-0.008,0.592,0
				c0.255,0.02,0.423,0.08,0.481,0.15c0.063,0.08,0.155,0.338,0.04,1.139c-0.269,1.818-0.65,3.656-1.023,5.428l-0.277,1.324
				c-0.455,2.238-0.937,4.461-1.429,6.684l-0.158,0.75c-0.077,0.299-0.157,0.584-0.236,0.877c-0.046,0.146-0.091,0.299-0.125,0.445
				c-0.375,1.334-1.48,2.115-2.941,2.086c-1.396-0.023-2.729,0.217-4.031,0.451c-1.146,0.205-2.223,0.404-3.332,0.408
				c-0.926,0.025-1.823,0.205-2.686,0.375c-1.076,0.205-2.091,0.395-3.142,0.305l-0.063-0.008c-0.771-0.055-1.516,0.174-2.229,0.387
				c-0.358,0.104-0.692,0.205-1.023,0.271c-0.161,0.033-0.347,0.045-0.555,0.057C194.955,287.568,195.076,285.556,195.182,283.585z"
				/>
			<path fill="#FFFFFF" d="M302.525,287.314c-0.338-1.318-0.83-2.594-1.306-3.826c-0.154-0.408-0.313-0.811-0.458-1.221
				c-0.492-1.318-1.285-2.121-2.438-2.432c-0.383-0.119-0.758-0.26-1.16-0.408c-0.729-0.279-1.483-0.557-2.292-0.629l-0.236-0.021
				c-2.62-0.197-5.151,0.064-5.842,3.428l-0.084,0.404l0.342,0.238c0.187,0.145,0.407,0.273,0.617,0.404
				c0.374,0.225,0.729,0.447,0.935,0.721c1.395,1.795,2.39,3.826,2.955,6.02c0.439,1.684,0.779,2.152,2.55,2.439l0.092,0.016
				c0.254,0.051,0.521,0.076,0.665,0.176c0.467,0.287,0.994,0.455,1.563,0.496c0.766,0.063,1.501-0.104,2.173-0.291
				c0.803-0.219,1.835-1.066,2.026-1.941C302.854,289.791,302.826,288.492,302.525,287.314z"/>
		</g>
	</g>
	<path fill="#FFFFFF" d="M219.789,373.957"/>
	<g>
		<path fill="#FFFFFF" d="M163.974,342.617c-0.813-10.256-5.047-19.438-9.819-28.387c-0.756-1.418-2.919-2.871-0.328-4.615
			c0.171-0.115,0.1-0.637,0.089-0.969c-0.264-8.256-0.369-16.58-2.887-24.51c-2.059-6.494-5.699-11.992-12.488-14.652
			c-3.685-1.441-7.548-1.906-11.415-2.506c-5.372-0.834-10.268,0.283-14.868,3.008c-5.057,2.99-9.231,6.598-9.644,13.072
			c-0.263,4.15,2.044,6.787,6.206,6.537c1.898-0.111,3.788-0.566,5.658-0.979c5.154-1.129,9.555,0.121,13.112,4.063
			c0.428,0.477,1.027,1.146,0.957,1.645c-0.116,0.828-1.067,0.521-1.688,0.57c-5.817,0.473-11.269,2.104-16.395,4.932
			c-6.25,3.447-11.849,7.754-17.133,12.514c-1.763,1.586-3.882,2.869-5.308,4.707c-2.297,2.963-4.978,5.557-7.44,8.838
			c-0.373-1.305,0.106-1.895,0.471-2.545c1.792-3.234,2.995-6.689,3.727-10.314c0.466-2.318-0.03-2.912-2.335-2.844
			c-1.568,0.049-3.257,0.758-4.354-1.283c-0.405-0.754-1.529-0.305-2.275,0.146c-1.243,0.75-1.761,2.004-2.063,3.309
			c-1.088,4.707-2.134,9.424-3.132,14.15c-0.156,0.742-0.571,1.758,0.439,2.229c0.793,0.369,1.695,0.896,2.607,0.293
			c1.032-0.686,1.034-1.641,0.482-2.633c-0.301-0.537-0.149-1.023,0.216-1.354c0.478-0.426,0.882,0.189,1.329,0.293
			c0.653,0.152,0.604,0.619,0.47,1.168c-0.2,0.803-0.72,2.057-0.392,2.371c1.912,1.83,0.152,2.994-0.525,4.41
			c-0.961,2.006-1.748,2.152-3.626,0.609c-2.915-2.396-6.004-4.217-9.313-5.162c-0.488-1.24-2.22-3.402-2.583-3.842
			c-6.018-7.26-14.869-22.018-17.002-31.17c-3.063-13.148-2.396-25.818,4.349-37.818c4.546-8.09,9.069-16.035,17.699-20.838
			c8.751-4.869,17.66-8.221,27.857-6.826c6.935,0.947,10.362-12.148,10.097-14.434c-0.267-2.283-4.494-10.709-6.382-12.162
			c-2.675-2.062-5.494-3.699-8.779-4.61c-4.5-1.247-8.947-0.563-13.372,0.187c-8.229,1.393-16.483,2.945-23.886,6.998
			c-4.502,2.465-8.362,5.91-11.828,9.779c-4.534,5.068-9.396,9.844-13.395,15.389c-2.922,4.051-5.809,8.123-7.578,12.83
			c-7.566,20.111-9.236,40.693-4.685,61.721c0.88,4.07,1.795,8.207,3.677,11.922c1.634,3.223,3.884,6.137,5.919,9.146
			c0.601,0.889,0.72,1.563-0.458,1.834c-2.217,0.514-3.636,2.229-5.364,3.451c-5.223,3.701-10.146,7.746-12.806,13.803
			c-2.221,5.057-3.775,10.246-4.21,15.863c-0.822,10.678,0.677,20.914,4.575,30.828c3.972,10.104,9.41,19.271,17.128,27.037
			c2.792,2.813,6.428,4.395,9.316,7.043c2.906,2.668,6.373,2.938,10.075,1.758c5.854-1.861,11.021-4.633,14.62-9.881
			c2.698-3.932,4.587-6.75,5.6-8.516c0.403-0.705,0.719-1.58,1.804-1.422c2.645,0.393,5.423,0.313,7.716,2.008
			c6.454,4.777,13.297,4.908,20.374,1.656c5.997-2.756,11.377-6.484,16.277-10.883c1.326-1.189,2.734-1.588,4.346-1.029
			c1.505,0.521,0.919,1.957,1.05,3.029c0.896,7.379,6.799,10.602,13.425,7.268c1.941-0.977,3.615-2.309,5.213-3.816
			c3.313-3.131,5.8-6.973,9.474-9.854c5.911-4.645,9.705-11.145,13.533-17.518C160.591,366.878,164.994,355.449,163.974,342.617z
			 M114.255,286.47c-1.788,0.396-3.583,0.764-5.38,1.117c-1.78,0.352-2.973-0.227-3.156-2.176c-0.4-4.229,0.647-8.07,3.981-10.777
			c5.502-4.471,11.674-7.078,18.989-5.418c0.325,0.072,0.656,0.127,0.987,0.16c10.755,1.029,16.055,5.879,19.031,17.424
			c1.668,6.467,1.646,13.207,2.023,19.859c0.019,0.285-0.129,0.58-0.261,1.135c-1.995-2.205-3.725-4.299-5.646-6.197
			c-3.373-3.338-7.148-5.914-12.188-6.021c-0.66-0.016-2.776,0.09-1.491-1.926c0.287-0.449-0.123-0.754-0.385-1.07
			C126.442,287.349,121.074,284.962,114.255,286.47z M76.053,318.039c-1.057-0.781,0.118-2.57,0.364-3.902
			c0.253-1.361,0.832-2.41,2.969-1.631c0.297,0.186,1.578-0.854,1.865,0.521c0.23,1.109-0.523,1.838-1.49,2.346
			c-0.359,0.188-0.661,0.504-0.949,0.801C77.987,317.023,77.224,318.904,76.053,318.039z M14.335,296.552
			c-2.142-11.729-1.364-23.443,0.59-35.104c1.751-10.445,4.541-20.527,11.053-29.191c5.327-7.086,11.325-13.584,17.649-19.766
			c4.919-4.809,10.809-8.09,17.536-9.688c4.706-1.117,9.434-2.148,14.185-3.058c6.064-1.161,11.953-0.938,17.32,2.687
			c2.832,1.914,6.544,7.039,7.382,10.588c0.838,3.553-2.222,13.299-8.291,12.471c-6.857-0.936-13.521-0.189-19.785,2.82
			c-6.531,3.143-13.403,5.982-18.038,11.854c-5.651,7.16-10.506,14.955-13.2,23.707c-4.756,15.449-2.638,30.453,4.014,45.006
			c2.03,4.445,9.688,14.922,13.026,18.479c0.207,0.219,0.527,0.469,0.905,0.717c-2.427-0.193-4.966,0.1-7.635,0.984
			c-0.79,0.264-1.371,0.191-2.058-0.34c-6.141-4.771-13.104-5.941-20.542-4.271c-1.703,0.381-2.544,0.02-3.552-1.219
			C18.564,315.435,16.081,306.128,14.335,296.552z M58.087,406.996c-4.509,8.164-9.911,15.293-19.674,17.6
			c-1.411,0.334-2.795,0.6-4.185,0.18c-2.431-0.736-4.134-3.561-6.83-5.713C12.811,407.416,5.29,391.824,2.384,373.785
			c-1.245-7.725-0.761-15.498,1.42-23.063c3.094-10.734,10.938-17.215,20.277-22.314c0.95-0.518,6.664-2.34,7.479-2.424
			c5.604-0.564,10.758,0.785,15.481,3.82c0.7,0.449,1.444,0.748,0.55,1.861c-4.791,5.957-6.705,12.986-7.121,20.451
			c-0.138,2.457-0.944,2.814-3.014,1.959c-1.688-0.693-3.446-1.229-5.198-1.748c-0.531-0.154-1.292-0.154-1.532,0.494
			c-0.29,0.785,0.526,0.891,0.992,1.158c1.969,1.141,4.146,1.744,6.302,2.389c2.279,0.688,3.715,4.656,2.254,6.531
			c-0.687,0.881-1.642,1.553-2.722,2.543c-0.402-2.174,0.101-3.85,0.272-5.541c0.118-1.168,0.401-2.479-1.354-2.646
			c-1.638-0.154-1.563,1.145-1.694,2.193c-0.237,1.9-0.442,3.809-0.701,6.057c-1.32-1.887-1.617-3.855-1.76-5.719
			c-0.131-1.766-1.172-1.896-2.315-1.834c-1.479,0.084-1.305,1.178-1.021,2.232c0.946,3.531,1.751,7.117,3.729,10.271
			c2.127,3.396,4.884,5.715,9.221,5.123c1.434-0.197,2.013,0.395,2.443,1.762c2.007,6.355,3.883,12.76,6.369,18.957
			c1.425,3.545,3.287,6.76,6.776,8.689C58.434,405.496,58.607,406.056,58.087,406.996z M42.278,373.107
			c-1.198,0.691-2.759,0.648-3.99-0.299c-1.575-1.209-2.765-2.729-3.526-5.021c1.927,0.826,3.519,1.123,5.108-0.131
			c0.805-0.633,1.561,0.07,1.951,0.871c0.252,0.51,0.425,1.092,0.484,1.654C42.414,371.177,43.419,372.451,42.278,373.107z
			 M43.502,357.462c0.329-0.07,1.027,0.154,1.045,0.301c0.1,0.965-0.771,1.246-1.649,2.311
			C42.907,358.681,42.19,357.742,43.502,357.462z M59.707,386.646c-0.616,1.141-1.211,2.293-1.905,3.607
			c-0.927-2.137,0.204-4.037,0.043-5.949c-1.099-0.314-2.207-0.752-3.279,0.678c-0.31-1.832-0.812-3.146-0.604-4.98
			c1.551,1.418,2.907,2.658,4.265,3.896C60.926,384.255,60.96,384.322,59.707,386.646z M61.09,390.878
			c0.546-1.594,1.72-0.805,2.688-0.779c0.968,0.02,1.012,0.648,0.841,1.33c-0.078,2.174-1.013,4.049-1.866,5.902
			c-0.641,1.385-1.878,0.471-2.851,0.287c-1.241-0.232-0.965-1.041-0.636-1.879C59.9,394.13,60.528,392.517,61.09,390.878z
			 M153.016,373.736c-1.788,3.193-3.602,6.383-5.877,9.271c-0.934,1.852-2.172,3.473-3.688,4.883
			c-0.037,0.053-0.075,0.105-0.113,0.158c0.031-0.059,0.063-0.119,0.093-0.18c0.297-1.836,1.241-3.398,2.119-4.988
			c0.124-0.906,0.288-1.813,0.36-2.725c0.058-0.721,0.314-1.668-0.594-1.969c-1.027-0.344-1.188,0.73-1.447,1.338
			c-1.788,4.145-4.091,8.014-6.372,11.891c-0.637,1.076-1.399,2.08-1.994,3.176c-1.313,2.418-10.032,11.715-14.135,12.6
			c-3.021,0.652-5.359-0.871-5.801-3.963c-0.495-3.488-0.613-6.625,2.291-9.775c5.198-5.637,9.577-12.057,11.778-19.559
			c1.503-5.127,1.438-10.295,0.604-15.717c-1.323-8.604-5.5-15.85-9.014-23.5c-1.835-3.998-3.481-8.047-6.111-11.59
			c-5.061-6.818-10.938-8.346-18.602-4.834c-6.628,3.039-11.134,8.314-14.73,14.449c-0.607,1.035-0.849,2.344-1.021,3.559
			c-0.155,1.098,0.51,2.053,1.573,2.256c1.671,0.314,0.685-1.121,0.874-1.709c2.396-7.422,10.127-16.451,19.315-17.896
			c5.083-0.801,11.396,3.654,12.4,8.551c0.192,0.938-0.436,1.443-0.941,1.895c-5.281,4.691-10.075,9.896-15.453,14.512
			c-2.847,2.441-5.505,5.24-8.1,8.023c-0.449,0.479-1.01,1.545-0.24,1.563c1.904,0.053,3.019,1.881,4.991,1.701
			c7.052-0.629,14.133-0.891,21.114-2.258c4.079-0.801,4.408-0.934,4.563-5.047c0.086-2.201,0.017-4.404,0.245-6.629
			c4.767,8.436,7.771,17.279,6.563,27.102c-1.237,10.027-7.418,17.439-13.438,24.91c-0.295,0.365-0.843,1.049-1.138,0.738
			c-2.598-2.729-3.94,0.535-5.279,1.412c-4.164,2.732-7.796,6.227-11.959,9.023c-4.063,2.732-8.563,4.438-13.177,5.826
			c-1.479,0.447-3.128,0.18-4.782-0.604c-2.924-1.383-5.985-2.352-8.362-4.768c-0.807-0.816-2.271-0.846-3.549-0.465
			c-0.889,0.264-1.98,0.422-2.521-0.4c-0.063-0.096-3.362-1.047-3.416-0.99c-0.098,0.098-1.398-0.299-1.902-0.604
			c-0.839-0.508-1.603-1.117-2.302-2.199c1.328-0.449,2.383-0.996,3.571-0.553c0.657,0.244,6.534-1.813,7.349-3.527
			c0.823-1.73,1.926-2.102,3.329-0.98c3.005,2.395,6.368,2.967,10.107,2.674c4.724-0.369,9.501,0.752,14.213-0.42
			c0.66-0.164,1.056,0.387,1.561,0.645c0.93,0.477,1.98,0.482,2.378-0.523c0.674-1.711,2.177-2.088,3.574-2.34
			c2.62-0.475,3.822-2.197,4.504-4.457c1.808-5.996,3.485-12.014,3.137-18.393c-0.081-1.482,0.213-2.982,0.313-4.477
			c0.057-0.861-0.001-1.723-0.949-2.109c-0.854-0.35-1.652-0.305-2.1,0.678c-0.384,0.85-0.924,0.885-1.533,0.281
			c-2.11-2.096-3.949-0.965-5.681,0.529c-0.942,0.813-1.741,1.791-2.593,2.711c-1.809,1.957-2.177,1.918-3.521-0.414
			c-2.156-3.738-4.044-4.02-7.078-0.912c-2.464,2.52-4.328,5.49-6.092,8.527c-1.104,1.896-1.874,1.916-2.892-0.049
			c-0.722-1.395-1.113-2.953-1.66-4.439c-1.039-2.816-2.411-3.145-4.469-1.012c-2.72,2.82-5.127,5.902-7.511,9.01
			c-2.116,2.762-2.382,2.748-5.012,0.393c-0.925-0.828-1.729-1.688-2.192-2.953c-0.545-1.488-2.709-1.664-3.058-0.287
			c-0.453,1.783-1.603,0.93-2.474,1.164c-0.728,1.277-0.318,2.602-0.117,3.898c0.683,4.41,1.529,8.783,2.917,13.066
			c-2.688-5.428-4.772-11.063-6.288-16.908c-0.087-0.145-0.196-0.277-0.257-0.43c-1.436-3.693-1.395-3.572,2.273-4.77
			c7.24-2.363,14.155-5.365,19.451-11.143c0.725-0.791,2.256-1.705,1.066-2.816c-1.06-0.992-2.405,0.031-3.244,0.963
			c-5.086,5.654-11.777,8.549-18.731,10.986c-0.9,0.314-2.268,1.289-2.8-0.121c-0.544-1.436-1.972-3.236,0.122-4.658
			c1.809-1.229,2.348-3.854,5.028-4.504c-0.192,1.252-0.38,2.301-0.509,3.355c-0.132,1.084,0.444,1.762,1.441,1.99
			c1.235,0.285,1.268-0.654,1.423-1.508c0.463-2.49,1.985-4.813,1.217-7.506c-2.346-0.508-4.688-0.994-6.828,1.656
			c0.163-2.172,0.598-3.055,2.313-2.561c1.504,0.436,3.135-0.145,4.636,0.469c2.916-0.031,5.832-0.055,8.748-0.104
			c0.857-0.014,2.021,0.336,2.033-1.113c0.014-1.379-0.983-1.588-2.08-1.479c-6.168,0.598-12.307,0.084-18.448-0.428
			c-1.146-0.098-1.857-0.371-1.804-1.764c0.282-7.057,1.979-13.637,6.076-19.521c1.221-1.754,5.438-4.361,6.42-4.529
			c4.822-0.822,14.226,3.305,16.839,7.314c0.546,0.838,0.354,1.5-0.006,2.314c-0.976,2.209-1.854,4.459-2.771,6.693
			c0.069,1.35-1.438,3.338,0.712,3.855c1.977,0.475,1.117-1.947,1.868-2.867c0.202-0.248,0.315-0.57,0.472-0.857
			c-0.014-0.117,0.027-0.209,0.122-0.275c0.035-1.307,0.932-2.232,1.263-3.598c0.423,0.34,0.639,0.447,0.761,0.623
			c0.454,0.643,1.009,1.332,1.813,0.908c0.736-0.389,0.211-1.234,0.103-1.813c-0.391-2.08-1.35-4.193,0.79-5.922
			c3.63-6.66,8.713-12.17,13.905-17.59c6.739-7.039,14.294-13.021,23.077-17.316c5.245-2.564,10.813-3.826,16.709-3.367
			c5.563,0.436,10.199,2.984,13.544,7.195c8.677,10.93,14.854,23.098,16.418,37.189
			C162.026,353.476,158.536,363.878,153.016,373.736z M114.062,340.373c-0.452-0.189-0.604-0.555-0.527-1.006
			c0.278-1.674,1.306-3.24-0.063-5.074c-0.296-0.396,1.258-2.115,2.784-2.889c0.658,5.939,1.798,11.689,1.152,17.6
			c-0.094,0.834-0.497,1.15-1.258,1.252c-3.623,0.461-7.241,0.938-11.192,1.449c0.697-1.879,1.31-2.977,2.986-3.316
			c1.354-0.275,2.007-1.686,2.899-2.656c0.954-1.043,1.803-2.17,3.065-2.912C115.069,342.138,116.328,341.326,114.062,340.373z
			 M70.161,379.062c-0.686-2.229,1.279-2.816,2.225-3.988c0.408-0.504,0.802,0.197,1.004,0.646c0.751,1.666,1.563,3.301,2.777,4.688
			c0.498,0.566,0.319,1.053-0.087,1.535c-2.114,2.51-4.232,5.016-6.351,7.521c-0.126-0.068-0.252-0.139-0.379-0.209
			c0.327-2.166,0.731-4.322,0.954-6.5C70.431,381.535,70.509,380.205,70.161,379.062z M78.335,390.195
			c1.729,0.77,2.658-0.52,3.531-1.578c0.985-1.191,1.777-2.549,3.051-4.414c-0.536,4.064-2.284,7.088-2.585,10.467
			c-0.041,0.459-0.472,0.645-0.901,0.725c-3.409,0.615-6.575,0.33-9.313-2.146c-0.872-0.785-0.475-1.189,0.039-1.805
			c1.273-1.52,2.521-3.064,3.776-4.602c0.88-1.188,1.636-2.494,3.354-3.563c-0.496,1.617-0.488,2.939-1.814,3.648
			C77.557,388.072,76.718,389.478,78.335,390.195z M98.196,376.193c-0.2-2.777,1.159-4.246,2.681-5.902
			c0.633-0.688,1.336-2.037,2.33-1.342c1.038,0.729,2.56,1.285,2.635,3.02c0.174,4.045,0.254,8.072-1.144,11.969
			c-0.871,2.914-0.95,6.125-3.033,8.596c0.55-3.09,1.859-5.969,1.874-9.143c-1.186-1.174-2.397-0.855-3.574-0.021
			c-1.672,1.189-3.313,2.416-4.969,3.625c-0.103,0.201-0.223,0.426-0.472,0.234c-0.047-0.037,0.113-0.342,0.18-0.523
			C96.035,383.238,98.472,379.978,98.196,376.193z M98.564,388.232c0.011,5.93-3.67,7.752-12.147,7.004
			c0.551-0.863,0.979-1.469,1.334-2.113c0.56-1.018,0.979-1.674,2.384-0.801c1.818,1.131,3.518,0.076,4.99-1.076
			C96.283,390.341,97.344,389.31,98.564,388.232z M94.483,375.849c-1.71,3.023-3.303,6.125-5.74,9.168
			c0.191-2.074,0.38-3.764,0.495-5.455c0.064-0.92,0.059-1.85-1.028-2.305c-1.014-0.428-1.726,0.016-2.483,0.633
			c-0.897,0.729-1.896,1.34-2.688,1.891c-0.228-0.729,0.574-1.652,1.089-2.635c1.202-2.305,2.783-4.344,4.472-6.307
			c0.813-0.943,1.439-1.596,2.329,0.084c0.758,1.428,1.611,2.938,3.364,3.523C95.165,374.742,94.776,375.328,94.483,375.849z"/>
		<path fill="#FFFFFF" d="M91.85,210.978c1.236-0.074,2.443-0.637,2.346-2.305c-0.083-1.373-2.133-3.908-3.216-3.818
			c-1.521,0.639-1.299,2.092-1.233,3.357C89.811,209.539,90.035,211.089,91.85,210.978z"/>
		<path fill="#FFFFFF" d="M77.412,221.738c1.236,0.08,1.745-0.711,1.742-1.422c-0.195-2.119-0.345-3.986-2.486-4.1
			c-1.196-0.063-1.861,1.281-1.705,2.314C75.171,219.916,75.449,221.615,77.412,221.738z"/>
		<path fill="#FFFFFF" d="M118.223,278.13c-1.249-0.135-2.091,0.855-2.076,1.965c0.021,1.605,1.579,1.293,2.381,1.564
			c1.313,0.066,2.414-0.182,2.353-1.434C120.803,278.757,119.439,278.259,118.223,278.13z"/>
		<path fill="#FFFFFF" d="M111.341,274.996c-1.574,0.113-2.175,1.498-2.632,2.66c-0.366,0.936,0.693,1.107,1.44,1.252
			c3.52-0.473,2.366-2.314,2.371-2.404S112.288,274.929,111.341,274.996z"/>
	</g>
</g>
</svg>
