<?xml version="1.0" encoding="utf-8"?>
<!-- Generator: Adobe Illustrator 16.0.0, SVG Export Plug-In . SVG Version: 6.00 Build 0)  -->
<!DOCTYPE svg PUBLIC "-//W3C//DTD SVG 1.1//EN" "http://www.w3.org/Graphics/SVG/1.1/DTD/svg11.dtd">
<svg version="1.1" id="Layer_1" xmlns="http://www.w3.org/2000/svg" xmlns:xlink="http://www.w3.org/1999/xlink" x="0px" y="0px"
	 width="623.621px" height="623.622px" viewBox="0 0 623.621 623.622" enable-background="new 0 0 623.621 623.622"
	 xml:space="preserve">
<g>
	<g>
		<g>
			<path fill="#FCFCFC" d="M312.363,247.12c8.617-4.489,17.58-7.723,27.463-7.701c0.508,0.001,1.318-0.029,1.457-0.309
				c1.143-2.266,1.6-4.678,1.111-7.209c-0.416-2.179-1.84-3.209-3.959-3.304c-1.457-0.065-2.924,0.091-4.375,0.007
				c-0.955-0.057-1.965-0.392-1.994-1.58c-0.029-0.996,0.826-1.363,1.652-1.629c2.699-0.871,5.309-1.914,7.381-3.945
				c3.33-3.264,2.844-6.619-1.338-8.782c-1.758-0.907-3.65-1.54-5.447-2.382c-0.646-0.307-1.289-0.842-1.143-1.695
				c0.129-0.734,0.832-0.982,1.449-0.902c7.574,0.979,13.773-3.84,20.854-4.93c0.615-0.096,1.242-0.229,1.818-0.456
				c1.178-0.458,2.043,0.006,2.756,0.871c0.711,0.872,0.33,1.708-0.1,2.61c-3.471,7.359-6.877,14.752-10.357,22.106
				c-1.584,3.336-2.377,6.867-3.094,10.458c-0.289,1.475,0.309,1.872,1.43,2.131c3.164,0.725,6.234,1.676,9.213,2.998
				c1.932,0.856,3.934-0.039,5.83-0.486c11.803-2.785,21.09-9.707,29.436-18.135c0.84-0.851,1.277-1.891,1.713-2.955
				c0.516-1.242,0.881-2.869,2.766-2.049c1.637,0.711,1.793,2.08,1.174,3.686c-1.133,2.939-1.775,5.99-1.982,9.148
				c-0.313,4.745,0.18,9.157,4.014,12.607c0.617,0.554,1.549,1.482,0.596,2.656c-0.873,1.066-2.1,1.356-3.076,0.725
				c-3.063-1.975-5.963-1.005-8.912,0.124c-2.174,0.834-4.277,1.61-3.934,4.71c0.127,1.113-0.785,2.291-2.006,2.516
				c-1.369,0.254-2.631-0.256-3.586-1.414c-1.092-1.326-1.902-2.979-4.232-2.482c-4.662,0.99-5.303,2.111-3.666,6.48
				c3.861,10.312,3.752,20.645-0.389,30.832c-2.006,4.924-4.533,9.568-7.736,13.911c-3.084,4.185-5.734,8.729-8.172,13.332
				c-3.332,6.297-8.803,10.314-15.311,10.998c-5.023,0.525-10.711,1.344-15.74-1.209c-3.072-1.559-4.934-4.125-5.084-7.658
				c-0.092-2.082-0.758-2.707-2.906-2.057c-2.678,0.813-5.481,1.217-8.231,1.799c-2.854-0.012-5.705-0.023-8.563-0.035
				c-6.224-0.971-12.613-1.16-18.609-3.223c-7.755-2.67-15.439-5.583-21.896-10.912c-0.805-0.666-1.538-1.431-2.395-2.017
				c-9.249-6.334-13.539-15.188-14.827-26.26c-1.384-11.816-0.482-23.324,2.047-34.81c1.796-8.149,3.054-16.466,5.875-24.334
				c3.604-10.049,6.996-20.223,12.146-29.631c1.307-2.388,3.507-4.286,5.322-6.442c-1.556-1.135-3.25-1.412-4.971-1.726
				c-8.408-1.524-16.824-3.026-25.2-4.729c-4.536-0.926-8.722-2.855-12.479-5.606c-0.833-0.61-1.809-1.224-1.597-2.479
				c0.229-1.387,1.436-1.289,2.445-1.454c6.305-1.029,12.624-1.156,19.016-0.909c7.921,0.307,15.855,0.101,23.785,0.115
				c1.873,0.003,2.378-1.557,3.002-2.809c5.137-10.303,12.108-19.396,18.757-28.708c4.472-6.258,10.117-11.341,16.125-15.983
				c8.194-6.332,15.987-13.229,25.247-18.131c2.418-1.278,3.781-0.975,5.602,0.905c5.432,5.625,8.928,12.479,12.566,19.235
				c5.539,10.283,11.295,20.466,15.25,31.521c1.369,3.847,2.533,7.715,3.014,11.796c0.146,1.242,0.221,2.623-0.834,2.95
				c-0.895,0.276-2.262-0.479-2.867-1.502c-5.273-8.851-13.102-15.426-20.111-22.732c-1.645-1.717-3.215-3.534-4.594-5.471
				c-0.805-1.128-1.73-2.265-2.918-1.525c-1.238,0.775-3.549,0.799-3.301,3.172c0.291,2.789-0.463,4.521-3.729,4.054
				c-0.902-0.128-1.162,0.652-1.426,1.369c-1.889,5.158-2.885,10.345-2.395,15.961c0.236,2.751-0.668,5.705-0.473,8.609
				c-0.832,2.663-2.889,0.832-4.352,1.183c0.049-1.771,0.008-3.551,0.18-5.311c0.195-2.073-0.744-3.008-2.67-3.477
				c-10.232-2.494-20.48-4.603-31.105-4.563c-5.26,0.019-8.964,1.426-10.939,6.696c-0.854,2.281-0.458,2.629,1.686,2.746
				c4.787,0.26,9.577,0.568,14.342,1.077c9.033,0.966,17.806,3.334,26.644,5.315c1.098,0.707,2.092,1.525,3.574,0.623
				c0.852-0.517,1.791,0.096,2.586,0.618c3.041,2.354,6.838,2.761,10.338,3.876c5.395,1.723,10.895,3.12,15.918,5.854
				c1.676,0.909,3.225,1.938,4.324,3.523c1.074,1.545,0.67,2.626-1.174,2.862c-2.061,0.267-4.154,0.438-6.232,0.401
				c-7.727-0.141-15.459-0.319-23.129-1.363c-1.92-0.261-2.607,0.283-3.211,2.237c-3.133,10.229-5.834,20.556-10.328,30.416
				c-4.062,8.918-6.408,18.619-7.868,28.42c-0.058,0.384-0.35,0.734-0.528,1.102c-0.853,2.157-1.354,4.35-0.813,7.342
				C305.091,252.306,308.925,249.948,312.363,247.12z M352.851,144.352c2.053,3.084,4.809,5.445,7.768,7.694
				c-1.02-3.549-1.545-7.196-3.816-10.188c-1.73-3.568-3.406-7.161-5.199-10.697c-4.674-9.216-9.332-18.443-15.023-27.101
				c-1.475-2.25-2.801-2.561-5.297-0.971c-10.674,6.814-20.177,15.074-29.886,23.121c-8.136,6.743-12.47,16.184-18.903,23.969
				c0.347,0.43,0.405,0.57,0.468,0.572c12.142,0.194,24.169,1.134,35.695,5.402c0.736,0.271,1.723,0.232,1.783-0.659
				c0.33-4.88,1.096-9.666,2.586-14.329c0.053-0.166-0.098-0.396-0.156-0.597c-1.113-3.923-1.104-4.008,2.736-3.769
				c2.5,0.155,3.467-0.633,2.73-3.186c-0.322-1.103-0.4-2.98,0.662-3.059c3.367-0.247,2.344-2.273,2.172-4.137
				c-0.096-1.021-0.184-2.18,1.063-2.682c1.207-0.489,1.959,0.383,2.715,1.086c0.453,0.423,0.814,0.946,1.23,1.415
				C341.619,132.382,346.734,138.828,352.851,144.352z M245.067,265.495c-0.268,6.219,1.485,12.223,1.906,18.365
				c0.188,2.729,1.374,5.348,3.11,7.43c5.046,6.054,11.034,11.398,17.877,14.951c8.565,4.449,17.998,6.899,27.753,8.26
				c12.221,1.711,23.314-0.814,33.583-7.051c9.285-5.635,14.348-13.795,12.654-25.168c-0.27-1.813-0.586-3.754-2.143-4.707
				c-5.928-3.637-11.855-5.666-18.141-1.563c-2.646,1.724-4.896,3.884-7.227,5.972c-4.561,4.086-10.536,3.32-14.185-1.58
				c-2.538-3.408-3.598-7.246-3.719-11.418c-0.479-16.141,3.425-31.563,8.979-46.42c4.094-10.947,8.481-21.747,11.526-33.057
				c0.693-2.58,0.236-3.47-2.494-3.768c-10.999-1.204-21.968-2.648-32.961-3.91c-2.546-0.292-5.114-1.355-7.698-0.217
				c-4.504,1.987-7.403,5.692-9.36,9.934c-3.273,7.102-6.286,14.34-9.046,21.658c-3.724,9.896-5.865,20.234-8.049,30.561
				C245.917,250.954,245.298,258.194,245.067,265.495z M333.582,324.179c9.006,1.242,14.684-3.26,18.691-10.734
				c2.961-5.525,6.652-10.596,9.957-15.897c4.951-7.934,8.588-16.376,8.016-26.188c-0.693-11.853-5.436-21.057-16.689-25.662
				c-16.336-6.688-38.844,0.195-49.674,14.201c-4.691,6.059-4.063,11.182-0.781,17.69c2.464,4.896,5.729,5.161,9.622,1.335
				c3.83-3.771,7.953-7.066,13.354-8.35c8.207-1.946,17.613,2.974,19.57,10.49c1.551,5.973,0.992,11.77-2.18,17.239
				c-4.164,7.177-10.434,11.804-17.824,15.14c-2.488,1.125-3.619,3.518-2.781,6.094c0.893,2.74,2.816,4.373,5.715,4.617
				C330.232,324.294,331.91,324.179,333.582,324.179z M315.789,174.843c-15.32-4.65-29.147-6.834-37.286-5.791
				C291.116,169.795,303.063,174.799,315.789,174.843z M284.838,178.154c-3.4-3.087-23.743-5.687-29.247-4.092
				C265.172,175.889,274.717,176.96,284.838,178.154z M236.48,170.127c3.436,1.28,6.923,1.925,10.545,1.645
				C243.702,169.936,240.007,170.403,236.48,170.127z"/>
			<path fill="#FCFCFC" d="M277.418,189.375c0.046-0.513,0.058-1.031,0.148-1.538c0.197-1.068,0.05-2.529,1.741-2.359
				c1.357,0.138,2.306,1.079,2.371,2.458c0.07,1.529-0.053,3.086-0.271,4.604c-0.093,0.642-0.485,1.433-1.333,1.515
				c-0.876,0.086-1.681-0.233-2.078-1.053C277.447,191.87,277.344,190.631,277.418,189.375z"/>
			<path fill="#FCFCFC" d="M300.832,190.564c-0.22,0.853-0.289,1.841-0.725,2.627c-0.74,1.337-1.629,3.055-3.496,2.307
				c-1.702-0.679-0.62-2.335-0.49-3.559c0.11-1.021,0.476-2.014,0.668-3.028c0.161-0.846-0.432-2.086,0.873-2.338
				c1.323-0.258,2.066,0.788,2.585,1.823C300.565,189.028,300.635,189.782,300.832,190.564z"/>
			<path fill="#FCFCFC" d="M318.47,254.112c1.947,0.574,2.713,2.053,3.055,3.885c0.27,1.425-0.688,1.927-1.752,2.033
				c-2.268,0.229-2.311-1.695-2.604-3.125C316.937,255.813,317.011,254.593,318.47,254.112z"/>
			<path fill="#FCFCFC" d="M311.033,262.462c0.101,1.206-0.382,2.033-1.692,2.039c-2.642,0.007-2.276-2.262-2.706-3.821
				c-0.335-1.214,0.381-2.233,1.596-2.131C310.485,258.739,310.798,260.631,311.033,262.462z"/>
		</g>
	</g>
	<g>
		<path fill="#FCFCFC" d="M156.914,502.15c0.043,1.631,0,12.314,0,12.314c0,0.158-0.506,0.492-1.521,0.992
			c-1.004,0.52-2.528,0.984-4.569,1.416c-2.039,0.43-4.515,0.643-7.431,0.643c-3.838-0.078-6.862-0.795-9.082-2.121
			c-2.224-1.336-3.795-3.33-4.717-6.004c-0.918-2.66-1.373-6.166-1.373-10.529c0.094-3.508,0.629-6.455,1.594-8.852
			c0.972-2.389,2.507-4.227,4.604-5.504c2.111-1.281,4.877-1.945,8.302-1.998c3.252,0,6.094,0.199,8.512,0.582
			c2.418,0.402,4.738,1.332,4.804,1.535c0,0,0.846,4.314,0.899,5.043c0.043,0.498-1.019-0.377-1.819-0.826
			c-0.873-0.482-2.013-0.92-3.425-1.299c-1.424-0.375-3.146-0.572-5.17-0.572c-0.955,0-1.692,0.025-2.239,0.072
			c-4.957,0.316-7.443,4.256-7.443,11.816c0,2.609,0.121,4.896,0.347,6.852c0.233,1.951,0.771,3.643,1.644,5.049
			c0.854,1.424,2.129,2.215,3.817,2.381c2.069,0,3.629-0.189,4.67-0.563c1.037-0.377,1.937-0.924,1.937-0.924v-9.674
			c0,0,6.104-0.084,7.437-0.039C156.764,501.947,156.91,502.074,156.914,502.15z"/>
		<path fill="#FCFCFC" d="M228.549,502.15c0.039,1.631,0,12.314,0,12.314c0,0.158-0.508,0.492-1.52,0.992
			c-1.007,0.52-2.529,0.984-4.574,1.416c-2.037,0.43-4.517,0.643-7.426,0.643c-3.841-0.078-6.865-0.795-9.091-2.121
			c-2.217-1.336-3.784-3.33-4.709-6.004c-0.922-2.66-1.373-6.166-1.373-10.529c0.093-3.508,0.627-6.455,1.593-8.852
			c0.971-2.389,2.508-4.227,4.604-5.504c2.11-1.281,4.873-1.945,8.299-1.998c3.261,0,6.095,0.199,8.521,0.582
			c2.416,0.402,4.729,1.332,4.795,1.535c0,0,0.847,4.314,0.902,5.043c0.038,0.498-1.017-0.377-1.818-0.826
			c-0.873-0.482-2.012-0.92-3.428-1.299c-1.427-0.375-3.146-0.572-5.173-0.572c-0.946,0-1.69,0.025-2.233,0.072
			c-4.955,0.316-7.444,4.256-7.444,11.816c0,2.609,0.118,4.896,0.351,6.852c0.231,1.951,0.771,3.643,1.639,5.049
			c0.853,1.424,2.129,2.215,3.82,2.381c2.071,0,3.621-0.189,4.67-0.563c1.033-0.377,1.937-0.924,1.937-0.924v-9.674
			c0,0,6.104-0.084,7.435-0.039C228.393,501.947,228.545,502.074,228.549,502.15z"/>
		<path fill="#FCFCFC" d="M182.619,517.226v-2.598c-0.195,0.455-0.845,1.006-1.949,1.67c-1.1,0.664-2.979,0.996-5.633,0.996
			c-2.271-0.082-4.146-0.668-5.646-1.734c-1.509-1.078-2.267-2.779-2.3-5.104c0-2.49,0.884-4.357,2.671-5.605
			c1.786-1.25,4.457-2.01,8.03-2.266c1.646-0.145,2.91-0.563,3.799-1.266c0.888-0.717,1.332-1.51,1.332-2.387
			c0-0.898-0.393-1.666-1.219-2.307c-0.815-0.646-1.924-0.965-3.313-0.965c-2.862,0-5.095,0.527-6.685,1.592
			c-1.601,1.049-2.953,2.781-3.129,2.658c-0.521-0.363,1.022-4.922,1.022-4.922c0-0.084,0.386-0.344,1.142-0.779
			c0.748-0.439,1.813-0.844,3.162-1.221c1.358-0.389,2.973-0.584,4.848-0.6c3.82,0,6.588,0.658,8.3,1.955
			c1.7,1.301,2.549,2.996,2.549,5.107v17.768h-6.98L182.619,517.226L182.619,517.226z M179.205,513.365
			c2.274-0.619,3.414-1.621,3.414-2.982v-5.645c-0.008,0.037-0.088,0.207-0.248,0.518c-0.16,0.313-0.522,0.613-1.072,0.914
			c-0.557,0.313-1.407,0.529-2.547,0.654c-1.935,0.271-3.414,0.697-4.428,1.303c-1.021,0.602-1.519,1.615-1.519,3.078
			c0.155,1.676,1.496,2.521,4.022,2.521C177.594,513.724,178.383,513.605,179.205,513.365z"/>
		<path fill="#FCFCFC" d="M295.947,517.226h-7.879V482.58h23.57v4.314h-15.691v10.111h13.084v4.311h-13.084V517.226L295.947,517.226
			z"/>
		<path fill="#FCFCFC" d="M352.75,517.226V492.47h6.988v3.055c0.029-0.025,0.166-0.199,0.424-0.512
			c0.264-0.326,0.66-0.66,1.182-1.021c0.514-0.35,1.217-0.67,2.113-0.996c0.951-0.395,2.176-0.602,3.654-0.602
			c1.127,0,1.85,0.057,2.129,0.152c0,0,1.182,3.775,0.605,3.574c-0.496-0.186-1.637-0.314-2.379-0.314
			c-1.605,0-2.945,0.307-4.012,0.91c-1.189,0.592-2.111,1.406-2.76,2.432c-0.635,1.02-0.963,1.973-0.963,2.828v15.246h-6.984v0.004
			H352.75z"/>
		<path fill="#FCFCFC" d="M379.197,517.226V492.47h6.982v2.016c1.445-1.439,3.654-2.156,6.633-2.156c2.096,0,3.58,0.379,4.441,1.137
			c0.85,0.768,1.35,1.404,1.496,1.908c0-0.02,0.242-0.291,0.729-0.814c0.48-0.52,1.191-0.99,2.117-1.432
			c0.926-0.42,2.117-0.67,3.561-0.729c2.643,0,4.627,0.607,5.959,1.816c1.32,1.209,1.988,2.785,1.988,4.723v18.287h-5.363v-17.689
			c0-2.227-1.332-3.338-4.008-3.338c-1.402,0.096-2.398,0.604-3.004,1.52c-0.602,0.918-0.951,1.678-1.082,2.271v17.236h-5.348
			v-17.691c0-0.961-0.332-1.748-0.98-2.395c-0.646-0.635-1.672-0.943-3.051-0.943c-1.479,0.146-2.494,0.695-3.082,1.654
			c-0.582,0.961-0.914,1.754-1.008,2.354v17.021H379.197L379.197,517.226z"/>
		<path fill="#FCFCFC" d="M427.371,482.507c1.232,0,2.193,0.393,2.904,1.16c0.691,0.771,1.031,1.701,1.031,2.773
			c0,1.109-0.346,2.051-1.064,2.834c-0.699,0.783-1.682,1.184-2.938,1.184c-1.215,0-2.174-0.396-2.891-1.186
			c-0.723-0.793-1.082-1.719-1.082-2.758c0-1.063,0.359-1.996,1.082-2.801C425.131,482.914,426.117,482.507,427.371,482.507z
			 M423.873,517.226V492.47h6.91v24.756H423.873z"/>
		<path fill="#FCFCFC" d="M462.681,498.185v19.041h-5.207v-18.129c0-2.084-1.588-3.125-4.758-3.125
			c-1.539,0.182-2.658,0.678-3.336,1.445c-0.668,0.783-1.063,1.408-1.199,1.896v17.91h-7v-24.756h7v2.018
			c0.1-0.063,0.434-0.273,0.986-0.658c0.564-0.367,1.367-0.715,2.395-1.025c1.039-0.314,2.236-0.473,3.605-0.473
			c2.588,0,4.473,0.586,5.691,1.764C462.068,495.277,462.681,496.65,462.681,498.185z"/>
		<path fill="#FCFCFC" d="M482.748,522.728c3.816,0,5.729-1.145,5.729-3.416v-3.195c-1.766,0.889-3.922,1.324-6.477,1.324
			c-1.859-0.072-3.447-0.379-4.76-0.916c-1.316-0.533-2.443-1.732-3.361-3.592c-0.922-1.855-1.391-4.592-1.391-8.193
			c0.1-3.73,0.688-6.498,1.781-8.314c1.092-1.818,2.324-2.961,3.688-3.42c1.379-0.455,2.939-0.678,4.723-0.678
			c0.973,0.051,1.865,0.213,2.686,0.488c0.816,0.277,1.547,0.588,2.182,0.934c0.623,0.314,0.93,0.492,0.93,0.506v-1.783h6.92v25.723
			c0,5.02-3.703,7.594-11.092,7.729c-2.646,0-4.836-0.223-6.559-0.676c-1.717-0.455-2.949-1.043-2.949-1.043
			s-1.063-4.191-0.527-3.855c0.74,0.471,1.582,0.826,3.094,1.402C478.888,522.312,480.687,522.64,482.748,522.728z M488.476,497.757
			c0-0.137-0.416-0.465-1.258-0.975c-0.824-0.518-1.764-0.865-2.826-1.055c-1.574,0-2.82,0.328-3.74,0.977
			c-0.926,0.654-1.594,1.631-1.984,2.938c-0.387,1.318-0.611,3.057-0.68,5.236c0,2.939,0.439,5.234,1.285,6.895
			c0.867,1.648,2.488,2.475,4.895,2.475c1.262-0.088,2.242-0.293,2.959-0.623c0.693-0.334,1.146-0.6,1.354-0.789v-15.078H488.476z"
			/>
		<path fill="#FCFCFC" d="M254.264,517.226v-2.598c-0.19,0.455-0.839,1.006-1.949,1.67c-1.099,0.664-2.978,0.996-5.631,0.996
			c-2.271-0.082-4.146-0.668-5.642-1.734c-1.508-1.078-2.271-2.779-2.307-5.104c0-2.49,0.893-4.357,2.676-5.605
			c1.785-1.25,4.459-2.01,8.024-2.266c1.646-0.145,2.914-0.563,3.804-1.266c0.893-0.717,1.334-1.51,1.334-2.387
			c0-0.898-0.396-1.666-1.226-2.307c-0.815-0.646-1.923-0.965-3.308-0.965c-2.873,0-5.103,0.527-6.688,1.592
			c-1.593,1.049-2.946,2.781-3.129,2.658c-0.519-0.363,1.026-4.922,1.026-4.922c0-0.084,0.379-0.344,1.142-0.779
			c0.743-0.439,1.813-0.844,3.162-1.221c1.356-0.389,2.967-0.584,4.846-0.6c3.813,0,6.589,0.658,8.298,1.955
			c1.696,1.301,2.551,2.996,2.551,5.107v17.768h-6.983V517.226L254.264,517.226z M250.856,513.365
			c2.276-0.619,3.408-1.621,3.408-2.982v-5.645c-0.009,0.037-0.086,0.207-0.246,0.518c-0.157,0.313-0.515,0.613-1.069,0.914
			c-0.563,0.313-1.41,0.529-2.548,0.654c-1.935,0.271-3.411,0.697-4.428,1.303c-1.021,0.602-1.519,1.615-1.519,3.078
			c0.158,1.676,1.496,2.521,4.021,2.521C249.242,513.724,250.03,513.605,250.856,513.365z"/>
		<path fill="#FCFCFC" d="M335.431,517.226v-2.598c-0.195,0.455-0.842,1.006-1.955,1.67c-1.102,0.664-2.975,0.996-5.631,0.996
			c-2.264-0.082-4.143-0.668-5.645-1.734c-1.504-1.078-2.266-2.779-2.303-5.104c0-2.49,0.893-4.357,2.674-5.605
			c1.789-1.25,4.461-2.01,8.027-2.266c1.646-0.145,2.914-0.563,3.799-1.266c0.893-0.717,1.332-1.51,1.332-2.387
			c0-0.898-0.395-1.666-1.213-2.307c-0.82-0.646-1.926-0.965-3.314-0.965c-2.865,0-5.098,0.527-6.689,1.592
			c-1.59,1.049-2.945,2.781-3.123,2.658c-0.52-0.363,1.023-4.922,1.023-4.922c0-0.084,0.379-0.344,1.139-0.779
			c0.746-0.439,1.814-0.844,3.166-1.221c1.355-0.389,2.965-0.584,4.842-0.6c3.824,0,6.59,0.658,8.299,1.955
			c1.703,1.301,2.547,2.996,2.547,5.107v17.768h-6.975V517.226L335.431,517.226z M332.015,513.365
			c2.277-0.619,3.416-1.621,3.416-2.982v-5.645c-0.012,0.037-0.096,0.207-0.256,0.518c-0.154,0.313-0.516,0.613-1.07,0.914
			c-0.553,0.313-1.406,0.529-2.545,0.654c-1.926,0.271-3.408,0.697-4.43,1.303c-1.016,0.602-1.51,1.615-1.51,3.078
			c0.148,1.676,1.488,2.521,4.018,2.521C330.404,513.724,331.189,513.605,332.015,513.365z"/>
	</g>
	<g>
		<g>
			<path fill="#FCFCFC" d="M344.183,404.205c-2.582,2.896-4.711,5.56-7.129,7.939c-2.881,2.854-6.07,5.207-10.242,6.189
				c-2.053,0.49-3.943,0.776-5.938,0.299c-2.523-0.592-5.021-1.299-7.521-1.963c0.01-0.271,0.029-0.543,0.047-0.812
				c0.75-0.185,1.607-0.676,2.24-0.491c7.834,2.368,13.156-2.343,18.338-6.759c2.707-2.321,4.561-5.659,6.734-8.453
				c-4.951-6.09-11.822-9.256-20.514-3.965c-0.395-2.31,0.74-4.01,1.707-5.594c3.742-6.101,6.477-12.634,8.863-19.322
				c0.25-0.705,0.416-1.428,0.676-2.301c-2.906-1.127-5.824-0.832-8.666-1.144c-2.736-0.287-5.834,0.68-8.594-2.053
				c0.992-0.18,1.525-0.385,2.055-0.361c4.801,0.24,9.592,0.504,14.385,0.801c1.734,0.104,2.826-0.579,3.549-2.2
				c2.162-4.86,4.543-9.634,6.576-14.543c0.764-1.854,1.672-3.048,3.682-3.298c2.182-0.274,4.117,0.402,5.396,2.113
				c1.34,1.773,0.334,3.652-0.508,5.353c-1.893,3.854-3.873,7.678-5.809,11.524c-0.213,0.426-0.273,0.938-0.457,1.603
				c3.789,0.435,7.412,0.842,10.949,1.239c0.979-1.034,1.795-2.612,2.813-2.764c1.32-0.211,2.932,0.523,4.209,1.248
				c2.383,1.32,2.836,3.076,1.713,5.787c-3.678,8.887-7.465,17.721-13.326,25.48c-0.367,0.479-0.619,1.063-0.99,1.721
				c0.604,0.883,1.094,1.77,1.74,2.533c3.75,4.432,5.295,9.717,6.049,15.326c0.18,1.313,0.361,2.793-1.115,3.225
				c-0.914,0.266-2.156-0.18-3.098-0.637c-3.018-1.432-4.229-4.111-4.684-7.27C346.896,409.816,346.47,406.951,344.183,404.205z
				 M353.705,370.494c-3.396-0.473-6.264-0.77-9.088-1.281c-2.211-0.395-3.623,0.289-4.59,2.332
				c-2.811,5.896-5.719,11.761-8.564,17.599c3.984,1.948,7.896,3.864,11.971,5.854C347.67,387.414,350.533,379.322,353.705,370.494z
				"/>
			<path fill="#FCFCFC" d="M389.232,391.193c2.98,0.342,5.525,0.494,8.002,0.947c2.723,0.482,4.684-0.604,6.398-2.482
				c1.02-1.133,1.951-2.367,3.098-3.346c1.396-1.162,2.881-1.027,3.574,0.354c1.551,3.105,2.951,6.295,4.484,9.607
				c-1.803,1.461-3.986,1.145-6.049,0.84c-5.395-0.803-10.76-1.779-16.135-2.652c-1.213-0.198-2.469-0.282-4.08-0.473
				c-1.307,5.869-2.578,11.639-3.842,17.432c-0.979,4.449-1.904,8.916-2.93,13.361c-0.666,2.912-3.002,3.746-5.461,2.117
				c-4.523-3.002-9.07-5.959-13.6-8.973c-0.27-0.188-0.389-0.598-0.574-0.916c2.652-1.947,6.24-2.111,13.906-0.566
				c2.148-7.355,2.945-14.959,4.289-22.693c-3.311-1.324-6.6-1.035-9.828-1.217c-2.393-0.119-4.813-0.225-7.176-0.609
				c-1.24-0.198-2.375-0.993-3.438-2.018c6.84-0.771,13.541,0.164,20.814,0.357c0.238-2.096,0.795-4.188,0.621-6.225
				c-0.277-3.226-0.748-6.515-1.734-9.599c-0.611-1.901-0.309-2.565,1.27-3.588c5.092-3.315,10.123-6.738,15.021-10.353
				c1.752-1.271,3.801-2.578,4.459-5.487c-4.826-0.218-9.441-0.445-14.068-0.63c-2.4-0.104-4.824-0.018-7.221-0.213
				c-1.701-0.141-3.531-0.295-5.057-2.643c2.02,0.018,3.568,0.057,5.105,0.057c7.461,0.004,14.93,0.013,22.389-0.022
				c2.094-0.021,4.006,0.293,5.707,1.646c2.363,1.896,2.76,2.875,1.926,5.92c-0.332,1.22-0.643,2.48-1.186,3.607
				c-1.422,2.881-3.273,3.703-6.502,3.227c-0.957-0.145-1.998-0.217-2.922,0.011c-2.266,0.534-10.23,5.032-12.266,6.762
				C390.258,378.169,389.992,384.416,389.232,391.193z"/>
		</g>
		<g>
			<path fill="#FCFCFC" d="M437.097,455.312c3.48-0.443,6.436-0.814,9.859-1.254c-0.604-8.074,0.18-15.779-0.691-24.105
				c-4.648,0.82-8.678,1.543-13.014,2.313c-0.662,4.229-0.998,8.367-2.01,12.338c-0.979,3.818-1.859,8.092-4.189,11.053
				c-3.268,4.123-7.438,7.885-13.387,8.188c-1.738,0.092-3.467,0.416-5.316,0.656c-0.471-2.033,0.473-3.197,2.113-3.803
				c7.039-2.613,9.693-8.68,11.188-15.139c2.746-11.842,2.074-23.84,0.563-35.813c-0.064-0.472-0.148-0.957-0.318-1.402
				c-0.568-1.572-2.234-3.426-0.195-4.678c1.742-1.064,3.76-2.152,6.213-1.215c1.539,0.577,3.41,0.563,5.102,0.448
				c10.801-0.709,21.502-2.771,32.457-1.746c4.516,0.429,9.162-0.799,13.76-1.229c2.053-0.186,4.148-0.082,6.172-0.434
				c5.193-0.896,10.377-1.889,15.521-3.012c1.592-0.361,2.734-0.361,4.027,1.615c-1.346,0.586-2.373,1.344-3.475,1.459
				c-11.275,1.275-22.541,2.646-33.854,3.578c-6.027,0.494-12.152-0.037-18.199,0.35c-5.533,0.363-11.02,1.332-16.311,2.006
				c0.168,7.924,0.324,15.35,0.49,22.977c1.191-0.016,2.297,0.098,3.387-0.039c9.027-1.145,18.057-2.238,27.064-3.529
				c5.703-0.813,11.352-1.951,17.025-2.924c1.102-0.19,2.236-0.444,3.322-0.354c4.717,0.395,8.441-1.074,11.094-5.146
				c1.438-2.199,3.594-2.509,5.916-1.498c1.609,0.7,3.25,1.385,4.709,2.356c0.662,0.443,1.34,1.619,1.205,2.322
				c-0.113,0.652-1.227,1.502-2,1.607c-6.477,0.961-12.979,1.717-19.463,2.645c-5.521,0.785-11.043,1.717-16.564,2.629
				c-3.611,0.592-7.219,1.246-10.896,1.891c0.34,6.799-2.406,13.271-0.754,20.496c1.947-0.963,3.574-1.83,5.25-2.598
				c3.467-1.58,6.973-3.064,10.402-4.709c0.803-0.393,1.387-1.229,2.129-1.912c-1.836-3.979-6.799-5.264-8.297-9.887
				c4.484-0.873,7.762,0.342,10.795,2.682c2.096,1.637,4.299,3.16,7.064,5.17c2.094-3.443,3.98-6.34,5.635-9.361
				c1.359-2.467,2.844-3.197,6.814-2.791c2.246,0.223,4.441,1.932,4.832,3.99c0.156,0.879,0.15,2.146-0.348,2.709
				c-3.037,3.41-6.234,6.676-9.574,10.207c2.428,2.229,6.195,3.111,9.736,3.863c8.551,1.838,17.195,3.125,25.811,4.672
				c1.689,0.301,3.344,0.785,5.953,1.418c-1.186,1.488-1.709,2.807-2.609,3.166c-6.941,2.713-13.686,5.975-21.592,5.496
				c-3.547-0.211-6.656-0.912-9.375-2.895c-6.203-4.506-12.264-9.191-18.346-13.867c-2.439-1.879-3.672-2.359-5.262-0.105
				c-5.162,7.371-13.465,9.988-20.604,14.379c-1.902,1.17-3.781,2.355-5.594,3.648c-2.842,2.045-5.135,2.246-7.906,0.262
				c-1.559-1.102-3.037-2.379-4.305-3.793C437.642,457.976,437.588,456.787,437.097,455.312z"/>
			<path fill="#FCFCFC" d="M455.172,363.826c5.219,0.73,9.881,0.211,14.934-1.313c-0.266-3.434-0.527-6.732-0.832-10.564
				c1.262-0.512,2.643-1.414,4.105-1.592c2.621-0.326,5.465,0.652,7.711-1.686c0.223-0.234,1.479,0.227,1.996,0.666
				c0.26,0.219,0.107,1.506-0.197,1.654c-4.078,2.245-2.49,5.987-2.855,9.944c5.23-1.688,10.453-0.229,15.287-2.746
				c1.68-0.873,4.078-0.771,6.074-0.521c2.551,0.317,4.221,2.676,3.961,5.184c-0.799,7.604-1.73,15.205-2.537,22.816
				c-0.449,4.223-1.914,7.396-6.771,7.817c-1.061,0.097-2.053,0.785-3.453,1.371c-0.434-1.603-0.797-3.028-1.186-4.446
				c-9.186-0.244-61.713,7.274-67.104,9.795c-2.771-11.23-2.789-22.781-5.758-33.773c2.385-3.139,5.971-2.533,8.035-1.514
				c4.912,2.461,9.711,1.041,14.561,0.949c1.092-0.017,2.17-0.398,3.547-0.677c-0.518-4.021-1.014-7.918-1.498-11.733
				c3.156-1.896,9.73-2.289,14.863-0.438c-1.48,1.276-2.652,2.295-3.836,3.326C454.51,358.732,454.826,361.082,455.172,363.826z
				 M432.521,394.625c5.523-1.019,10.73-1.972,16.256-2.979c-0.732-4.101-1.387-7.621-2.078-11.424
				c-5.414,0.313-10.414,0.493-15.096,3.021C431.92,387.123,432.199,390.705,432.521,394.625z M494.047,374.394
				c-5.043,0.639-9.375,1.189-13.969,1.766c-0.131,4.168-0.258,8.068-0.402,12.465c4.592-0.576,8.74-1.106,13.158-1.67
				C493.232,382.736,493.609,378.857,494.047,374.394z M470.627,377.878c-5.385-0.514-9.955,0.164-14.414,1.242
				c0.195,7.018,0.344,7.823,2.059,11.231c4.299-0.492,8.65-0.871,13.135-2.101C471.121,384.576,470.89,381.447,470.627,377.878z
				 M431.783,379.376c4.992-0.629,9.52-1.207,14.271-1.816c-0.443-3.365-0.801-6.275-1.234-9.664
				c-4.133,0.145-7.945,0.189-11.729,0.455c-2.039,0.135-3.289,1.338-2.898,3.533C430.623,374.388,431.242,376.839,431.783,379.376z
				 M494.349,361.97c-5.096,0.471-9.758-0.773-13.93,2c-0.354,3.094-1.109,6.031,0.33,9.15c4.396-0.931,8.955,0.551,13.311-2.121
				C494.144,368.234,494.248,365.419,494.349,361.97z M456.447,376.337c4.98-0.629,9.162-1.152,13.938-1.766
				c-0.139-2.9-0.277-5.771-0.416-8.794c-4.605,0.222-8.529,0.386-12.453,0.623c-0.598,0.027-1.178,0.351-2.232,0.687
				C455.638,370.019,456.021,372.89,456.447,376.337z"/>
			<path fill="#FCFCFC" d="M438.935,417.156c4.453-1.037,8.842-2.396,13.35-3.031c6.803-0.963,13.672-1.354,20.496-2.1
				c3.32-0.363,6.605-1.037,9.914-1.467c3.146-0.41,5.689-1.801,8.004-3.945c3.1-2.902,8.734-2.57,11.514,0.498
				c1.041,1.158,0.77,2.504-0.725,2.99c-1.063,0.348-2.193,0.426-3.305,0.596c-8.201,1.311-16.395,2.691-24.611,3.889
				c-4.42,0.664-8.908,0.935-13.352,1.521c-6.328,0.826-12.639,1.797-18.955,2.664c-0.711,0.086-1.451-0.104-2.17-0.154
				C439.037,418.13,438.992,417.64,438.935,417.156z"/>
		</g>
		<g>
			<path fill="#FCFCFC" d="M310.281,438.369c-0.486,0.064-0.979,0.244-1.459,0.523c-0.736,0.43-1.436,0.75-2.102,1.002
				c-0.664,0.229-1.349,0.451-2.008,0.652c-1.046,0.332-2.111,0.664-3.146,1.1c-0.737,0.309-1.291,0.264-2.092-0.191
				c-0.508-0.291-1.017-0.576-1.541-0.857c-0.713-0.396-1.453-0.805-2.166-1.229c-0.877-0.537-1.729-1.096-2.629-1.709
				c-0.246-0.156-0.498-0.326-0.761-0.494c0.033-0.027,0.045-0.059,0.071-0.078c0.339-0.396,0.683-0.787,1.033-1.184
				c0.748-0.838,1.531-1.701,2.207-2.637c1.377-1.895,2.392-3.939,3.49-6.229c0.572-1.225,0.221-2.469-0.961-3.344
				c-1.468-1.086-3.104-1.139-4.515-1.104c-0.242,0.006-0.468,0.031-0.656,0.057c-1.104,0.166-1.7,0.729-2.084,1.977
				c-0.127,0.385-0.188,0.787-0.258,1.18c-0.049,0.248-0.096,0.502-0.149,0.758c-0.369,1.527-1.187,2.842-2.041,4.215
				c-0.149,0.246-0.287,0.473-0.435,0.703c-0.229,0.371-0.504,0.719-0.793,1.082c-0.022,0.027-0.049,0.061-0.08,0.092
				c-2.646-2.318-6.678-7.777-7.453-9.805c0.025-0.01,0.041-0.016,0.063-0.018c0.393-0.143,0.754-0.273,1.118-0.338
				c0.476-0.084,0.944-0.16,1.416-0.238c0.603-0.08,1.11-0.137,1.601-0.16c0.692-0.021,1.397-0.105,2.149-0.205
				c2.136-0.313,4.222-0.889,6.248-1.449c0.604-0.162,1.213-0.33,1.813-0.502c0.896-0.227,1.776-0.473,2.666-0.703
				c2.007-0.553,4.075-1.1,6.118-1.592c1.084-0.254,1.92-0.775,2.586-1.619l0.212-0.258l-0.162-0.303
				c-0.866-1.601-1.536-2.229-3.011-2.805c-0.09-0.035-0.166-0.07-0.264-0.103c-0.293-0.111-0.568-0.211-0.764-0.365
				c-0.787-0.618-1.664-0.764-2.525-0.899l-0.359-0.058c-1.368-0.235-2.354,0.313-3.004,1.695c-0.233,0.481-0.483,0.961-0.733,1.437
				c-0.229,0.44-0.467,0.885-0.69,1.329c-0.201,0.438-0.394,0.604-0.765,0.666c-0.808,0.144-1.604,0.365-2.385,0.578l-0.396,0.11
				c-0.31,0.074-0.61,0.181-0.918,0.277c-0.451,0.148-0.888,0.295-1.33,0.379c-1.838,0.349-3.683,0.688-5.521,1.017
				c-1.516,0.284-3.032,0.551-4.551,0.844c-0.203,0.035-0.379,0.067-0.525,0.095c-0.477,0.063-0.477,0.063-0.823-0.816
				c-0.153-0.365-0.267-0.754-0.379-1.176c-0.214-0.709-0.429-1.451-0.845-2.094c-0.555-0.837-0.813-1.761-1.084-2.734
				c-0.094-0.328-0.172-0.65-0.272-0.979c-0.183-0.563-0.334-1.144-0.502-1.743c-0.032-0.115-0.06-0.242-0.09-0.355l2.346-0.607
				c3.22-0.83,6.457-1.67,9.699-2.494c0.243-0.063,0.515-0.1,0.771-0.125c0.012,0.139,0.032,0.271,0.051,0.394
				c0.082,0.594,0.146,1.149,0.261,1.698c0.243,1.226,0.976,1.877,1.948,1.742c0.354-0.049,0.724-0.205,1.104-0.459
				c0.646-0.438,1.287-0.938,1.957-1.539c0.334-0.293,0.781-0.748,0.899-1.297l0.074-0.385c0.271-1.301,0.547-2.646,0.599-3.994
				c0.061-1.27,0.012-2.559-0.033-3.787c-0.019-0.736-0.053-1.467-0.058-2.191c0-0.188,0.039-0.405,0.082-0.629
				c0.065-0.344,0.147-0.721,0.084-1.108c-0.278-1.61-0.127-3.201,0.009-4.869c0.092-1.067,0.186-2.159,0.178-3.256
				c-0.035-1.426,0-2.799,0.685-4.045c0.071-0.131,0.25-0.494,0.194-0.865c-0.03-0.18-0.035-0.366-0.049-0.563
				c-0.033-0.648-0.074-1.313-0.524-1.715c-0.925-0.813-1.968-1.609-3.41-1.865c-1.446-0.252-2.821-0.156-4.284,0.301
				c-0.451,0.139-0.89,0.324-1.302,0.5c-0.446,0.189-0.856,0.357-1.301,0.496c-2.363,0.715-4.777,1.387-7.121,2.041l-0.117,0.033
				c-1.637,0.451-3.271,0.918-4.911,1.359l-2.486,0.676c-0.06,0.02-0.112,0.033-0.178,0.049c-0.214,0.037-0.481,0.088-0.703,0.285
				c-0.685,0.625-1.563,0.813-2.483,1c-0.308,0.063-0.619,0.141-0.938,0.213c0.661-0.414,1.194-0.939,1.723-1.443
				c0.231-0.242,0.479-0.48,0.729-0.695c0.453-0.402,1.021-0.727,1.525-0.885c1.25-0.383,2.299-1.09,3.293-1.77
				c0.479-0.326,0.979-0.664,1.481-0.953c0.151-0.092,0.289-0.197,0.399-0.299c0.199-0.178,0.293-0.246,0.487-0.229
				c0.578,0.035,1.375-0.631,1.496-1.201c0.25-1.133,0.903-2.036,1.601-3.008c0.176-0.25,0.347-0.481,0.508-0.722
				c0.644-0.938,0.703-1.771,0.242-2.725c-0.166-0.32-0.33-0.631-0.521-0.918c1.437-0.297,2.938-0.596,4.478-0.818
				c1.489-0.217,2.832-0.33,4.097-0.358c0.348-0.004,0.704-0.084,0.942-0.228c0.428-0.271,0.896-0.438,1.502-0.524
				c0.244-0.03,0.504-0.058,0.828-0.069c0.707-0.031,1.409-0.459,1.853-1.113c0.354-0.514,0.482-1.078,0.364-1.582
				c-0.289-1.195-0.838-2.621-2.556-3.105l-0.104-0.031c-0.903-0.248-1.771-0.481-2.289-1.252c-0.213-0.313-0.584-0.416-0.879-0.506
				l-0.149-0.045c-0.397-0.127-0.803-0.166-1.192-0.115c-0.767,0.115-1.369,0.555-1.937,0.977l-0.16,0.134l-0.028,0.221
				c-0.166,1.438-0.308,1.763-1.258,2.813c-0.058,0.066-0.121,0.119-0.188,0.176c-0.19,0.205-0.426,0.416-0.538,0.721
				c-0.177,0.465-0.437,0.582-1.16,0.703c-2.271,0.402-4.522,0.861-6.715,1.313c-2.646,0.531-5.394,1.117-8.193,1.711
				c-1.776,0.386-3.639,0.812-5.7,1.283c-0.379,0.092-0.757,0.211-1.127,0.318c-0.627,0.184-1.211,0.355-1.813,0.42
				c-0.191,0.023-0.357,0.043-0.509,0.063c-0.526,0.084-1.062,0.205-1.338,0.638c-0.319,0.479-0.231,1.082,0.037,2.112l0.106,0.414
				l0.426-0.034c0.396-0.039,0.795-0.052,1.192-0.068c0.962-0.043,2.013-0.12,2.802-0.375c2.19-0.723,4.498-1.185,6.729-1.639
				c0.551-0.099,1.106-0.224,1.66-0.328c0.336-0.069,0.69-0.144,1.123-0.194c0.313-0.048,0.639-0.085,0.952-0.132
				c0.201-0.021,0.404-0.063,0.613-0.075c0.61,0.825,0.649,1.52,0.146,2.254c-0.234,0.352-0.474,0.703-0.718,1.055
				c-0.588,0.887-1.219,1.803-1.858,2.684c-0.332,0.449-0.783,0.852-1.217,1.244l-0.095,0.08c-0.528,0.48-1.063,0.939-1.604,1.398
				c-1.03,0.895-2.099,1.815-3.084,2.793c-0.619,0.604-1.217,0.922-1.959,1.045c-0.354,0.043-0.728,0.051-1.103,0.059
				c-0.17,0.008-0.336,0.008-0.504,0.01c-0.324,0.012-0.608,0.033-0.849,0.064c-0.521,0.082-1.25,0.248-1.56,0.867
				c-0.327,0.705,0.065,1.574,0.502,2.336c0.517,0.904,0.845,1.863,1.015,3.021l0.188,1.281c0.324,2.209,0.664,4.493,0.966,6.739
				c0.176,1.438,0.35,2.871,0.524,4.32c0.258,2.203,0.524,4.479,0.844,6.711c0.138,0.869,0.522,1.668,0.89,2.447
				c0.088,0.197,0.172,0.381,0.254,0.557c0.229,0.49,0.944,0.611,1.16,0.646c0.455,0.053,0.912,0.047,1.325-0.017l0.082-0.018
				c0.729-0.121,1.442-0.262,2.205-0.414c0.185-0.037,0.377-0.076,0.578-0.115c0.065,0.107,0.146,0.228,0.226,0.332
				c0.309,0.455,0.598,0.865,0.797,1.324c0.354,0.814,0.683,1.682,1.002,2.514c0.246,0.656,0.494,1.312,0.776,1.955
				c0.302,0.752,0.644,1.479,1.007,2.238c0.09,0.209,0.184,0.4,0.286,0.609c-0.096,0.049-0.155,0.092-0.215,0.115
				c-0.426,0.104-0.854,0.209-1.265,0.313c-0.641,0.147-1.293,0.302-1.93,0.505c-2.166,0.641-4.347,1.326-6.468,1.988l-0.879,0.283
				c-0.806,0.248-1.59,0.521-2.315,0.787c-0.408,0.145-0.724,0.439-0.888,0.797c-0.153,0.352-0.168,0.736-0.03,1.121
				c0.194,0.512,0.944,0.91,1.465,0.898c0.578-0.004,1.164-0.174,1.705-0.338l0.215-0.061c0.343-0.104,0.688-0.221,1.029-0.348
				c0.428-0.152,0.83-0.289,1.237-0.398c1.192-0.311,2.386-0.6,3.582-0.895c1.894-0.479,3.853-0.963,5.771-1.484
				c0.545-0.146,0.86-0.08,1.199,0.352c0.211,0.27,0.426,0.525,0.646,0.789c0.426,0.512,0.829,0.994,1.188,1.514
				c1.588,2.387,3.446,4.635,5.666,6.844c0.844,0.836,1.616,1.719,2.438,2.646c0.297,0.32,0.584,0.639,0.879,0.975
				c-0.101,0.16-0.185,0.326-0.274,0.406c-0.49,0.436-0.964,0.883-1.445,1.316c-1.401,1.291-2.854,2.633-4.375,3.824
				c-0.875,0.689-1.899,1.26-2.899,1.807c-0.437,0.232-0.866,0.475-1.293,0.725c-0.379,0.213-1.239,0.719-1.008,1.773
				c0.18,0.848,0.887,1.33,1.827,1.27c0.896-0.068,1.664-0.189,2.341-0.402c0.834-0.246,1.668-0.518,2.479-0.787
				c1.047-0.35,2.125-0.688,3.2-0.996c0.935-0.256,1.688-0.688,2.388-1.365c0.979-0.969,2.008-1.916,2.987-2.842
				c0.31-0.295,0.617-0.584,0.923-0.865l1.248,0.709c1.127,0.645,2.231,1.273,3.321,1.904c0.889,0.498,1.782,0.99,2.67,1.482
				c1.979,1.086,4.029,2.217,5.949,3.432c1.396,0.896,2.694,0.855,3.773,0.695c0.313-0.037,0.615-0.096,0.936-0.164
				c0.547-0.113,1.092-0.377,1.479-0.729c1.148-1.02,2.119-1.953,2.949-2.834c1.676-1.777,2.629-3.998,3.565-6.125l0.236-0.576
				l-0.395-0.225C312.305,438.48,311.279,438.224,310.281,438.369z M264.438,397.621c0.08-0.031,0.168-0.065,0.237-0.098
				c0.484-0.195,0.927-0.381,1.382-0.508c0.955-0.277,1.935-0.533,2.877-0.797c1.903-0.502,3.875-1.021,5.754-1.717
				c1.817-0.678,3.854-1.16,6.384-1.523c0.229-0.029,0.45-0.063,0.672-0.098l0.094-0.008c0.498-0.072,0.99-0.195,1.47-0.312
				c0.276-0.063,0.56-0.14,0.844-0.188c0.556-0.117,1.106-0.222,1.769-0.355l0.373-0.064l-0.08,3.037
				c-0.082,0.068-0.174,0.137-0.254,0.16c-3.084,1.076-6.201,2.146-9.246,3.18c-1.684,0.564-3.354,0.937-5.131,1.137
				c-1.506,0.173-3.008,0.537-4.44,0.918c-0.615,0.152-1.235,0.314-1.849,0.453c-0.187,0.039-0.36,0.088-0.56,0.142
				c-0.267-0.433-0.25-0.916-0.196-1.625C264.568,398.822,264.612,398.222,264.438,397.621z M286.42,385.685
				c0.011,0.604-0.008,1.219-0.032,1.875c0,0.223-0.015,0.457-0.021,0.697c-0.072,0.053-0.188,0.129-0.224,0.145
				c-0.209,0.006-0.427,0.02-0.646,0.059c-0.778,0.111-1.512,0.359-2.223,0.604c-0.688,0.231-1.341,0.465-2.027,0.552l-0.053,0.021
				c-1.395,0.176-2.773,0.401-4.162,0.616l-0.929,0.156c-0.313,0.051-0.606,0.148-0.901,0.242c-0.556,0.197-1.115,0.398-1.66,0.6
				c-1.164,0.437-2.356,0.863-3.547,1.199c-1.371,0.367-2.75,0.639-4.199,0.934c-0.487,0.093-0.989,0.191-1.489,0.294
				c-0.276-1.152-0.177-2.259-0.086-3.414c0.049-0.451,0.086-0.927,0.103-1.404c0.334-0.069,0.651-0.146,0.965-0.211
				c1.084-0.25,2.101-0.491,3.127-0.758c0.545-0.144,1.063-0.343,1.562-0.513c0.203-0.078,0.408-0.162,0.625-0.233
				c0.213-0.08,0.435-0.162,0.646-0.242c0.447-0.174,0.873-0.338,1.293-0.438c0.146-0.03,0.289-0.059,0.431-0.096
				c0.896-0.197,1.817-0.391,2.659-1.084c0.226-0.172,0.601-0.246,1.005-0.338c0.237-0.051,0.476-0.094,0.713-0.162
				c0.703-0.221,1.381-0.506,2.045-0.76c1.177-0.48,2.304-0.918,3.5-1.102h0.026c0.211-0.031,0.437-0.068,0.646-0.104
				c0.427-0.071,0.845-0.146,1.279-0.176c0.832-0.058,1.284,0.267,1.446,1.024c0.125,0.574,0.133,1.224,0.133,1.854v0.16h-0.003
				V385.685L286.42,385.685z M265.143,407.777c-0.104-0.938-0.203-1.814-0.271-2.693c-0.021-0.219-0.01-0.352,0.416-0.496
				c2.424-0.819,4.735-1.383,7.058-1.715l0.42-0.063c3.004-0.434,5.252-1.061,7.287-2.021c1.071-0.5,2.239-0.897,3.364-1.27
				c0.545-0.191,1.104-0.377,1.646-0.578c0.476-0.158,0.854-0.146,1.242,0.074l0.108,3.574c-0.295,0.105-0.576,0.189-0.856,0.283
				c-0.836,0.271-1.629,0.522-2.429,0.752c-3.16,0.895-6.274,1.768-9.42,2.602c-0.731,0.189-1.487,0.34-2.229,0.479
				c-0.64,0.119-1.299,0.26-1.946,0.408c-0.781,0.199-1.49,0.461-2.104,0.787c-0.463,0.252-0.952,0.346-1.368,0.41
				c-0.188,0.018-0.358,0.043-0.558,0.063c-0.09,0.015-0.19,0.021-0.289,0.033C265.186,408.197,265.16,407.976,265.143,407.777z"/>
			<path fill="#FCFCFC" d="M245.867,400.107c-1.354-0.02-2.443-0.1-3.438-0.234c-0.988-0.131-1.613,0.135-2.08,0.849
				c-0.44,0.666-1.093,1.063-2.164,1.315c-1.498,0.342-3,0.752-4.433,1.205c-0.506,0.156-0.996,0.361-1.461,0.562
				c-0.489,0.206-0.961,0.405-1.449,0.538c-1.276,0.394-2.588,0.729-3.862,1.052c-0.498,0.133-0.981,0.267-1.476,0.39
				c-0.36,0.096-0.721,0.186-1.088,0.272l-0.115,0.028c-0.055-0.104-0.079-0.199-0.102-0.27c-0.351-1.572-1.273-2.365-2.8-2.441
				c-0.745-0.039-1.474-0.201-2.237-0.367c-0.301-0.061-0.588-0.118-0.871-0.186c-1.397-0.271-2.418,0.117-3.377,1.225l-0.229,0.279
				l0.185,0.314c0.108,0.191,0.217,0.398,0.307,0.602c0.261,0.541,0.521,1.096,1.011,1.43c0.519,0.355,0.789,0.761,0.94,1.396
				c0.195,0.761,0.365,1.586,0.539,2.604c0.26,1.439,0.401,2.931,0.554,4.361c0.194,1.918,0.397,3.889,0.842,5.813
				c0.396,1.73,0.629,3.529,0.871,5.277c0.112,0.861,0.229,1.717,0.36,2.564c0.084,0.531,0.162,1.094,0.349,1.619
				c0.354,0.979,1.056,1.455,1.95,1.324c0.25-0.033,0.521-0.123,0.796-0.262c0.122-0.055,0.231-0.119,0.34-0.193
				c0.146-0.09,0.293-0.168,0.396-0.189c2.401-0.393,4.401-1.633,6.209-2.914c1.322-0.961,2.81-1.539,4.447-2.15
				c0.764-0.289,1.563-0.533,2.336-0.777c0.477-0.146,0.946-0.297,1.414-0.447c0.26-0.096,0.52-0.203,0.776-0.299
				c0.446-0.184,0.854-0.35,1.271-0.434c0.082-0.02,0.166-0.033,0.243-0.039c0.272-0.037,0.356-0.01,0.356-0.01
				c0.037,0.029,0.104,0.191,0.188,0.684c0.323,1.963,0.646,2.273,2.618,2.627c0.106,0.018,0.207,0.031,0.313,0.041
				c1.922,0.207,4.32-1.383,4.097-3.66c-0.043-0.367-0.058-0.742-0.069-1.125c-0.015-0.406-0.031-0.841-0.082-1.27
				c-0.228-2.179-0.095-4.4,0.036-6.558c0.06-0.856,0.104-1.721,0.14-2.577c0.041-0.976,0.203-1.91,0.367-2.902
				c0.198-1.303,0.436-2.646,0.356-4.051c-0.009-0.175-0.021-0.365-0.021-0.543c-0.033-0.67-0.056-1.351-0.222-2.037
				C248.455,400.666,247.781,400.123,245.867,400.107z M226.082,420.443c-0.103-0.643-0.205-1.258-0.276-1.865
				c-0.281-2.338-0.548-5.121-0.464-7.983c0-0.193-0.02-0.396-0.026-0.604c-0.017-0.227-0.058-0.627,0.009-0.719
				c0.104-0.117,0.528-0.199,0.817-0.266c0.151-0.023,0.317-0.064,0.467-0.098c0.621-0.166,1.24-0.318,1.858-0.478
				c0.945-0.238,1.886-0.476,2.824-0.729c0.467-0.129,0.931-0.304,1.386-0.474c0.307-0.114,0.61-0.228,0.918-0.321
				c0.506-0.164,1.008-0.332,1.519-0.492c1.616-0.541,3.288-1.088,4.963-1.562c0.178-0.047,0.328-0.092,0.465-0.106
				c0.201-0.031,0.342-0.021,0.401,0.024c0.068,0.06,0.179,0.24,0.233,0.899c0.109,1.461,0.132,2.972,0.154,4.431l0.021,1.092
				c0.037,1.832,0.045,3.662,0.067,5.502l0.008,0.611c0,0.241-0.018,0.487-0.038,0.731c0,0.117-0.009,0.246-0.019,0.369
				c-0.06,1.109-0.781,1.924-1.938,2.158c-1.099,0.229-2.104,0.652-3.076,1.068c-0.858,0.367-1.676,0.705-2.543,0.916
				c-0.72,0.189-1.396,0.475-2.041,0.77c-0.813,0.352-1.578,0.678-2.42,0.803l-0.043,0.006c-0.61,0.088-1.153,0.396-1.685,0.689
				c-0.262,0.141-0.51,0.283-0.746,0.395c-0.131,0.059-0.272,0.09-0.44,0.141C226.6,423.613,226.344,422.005,226.082,420.443z"/>
			<path fill="#FCFCFC" d="M310.977,404.314c-0.49-0.967-1.109-1.887-1.701-2.77c-0.194-0.291-0.379-0.588-0.574-0.879
				c-0.613-0.947-1.385-1.431-2.35-1.476c-0.313-0.021-0.639-0.063-0.979-0.106c-0.618-0.097-1.259-0.187-1.901-0.099l-0.197,0.025
				c-2.09,0.301-4.021,0.965-3.969,3.731v0.324l0.305,0.133c0.188,0.07,0.373,0.141,0.556,0.207c0.345,0.115,0.653,0.234,0.87,0.393
				c1.414,1.173,2.557,2.58,3.389,4.201c0.643,1.25,0.994,1.554,2.434,1.467l0.07-0.004c0.215-0.02,0.42-0.032,0.557,0.021
				c0.416,0.141,0.859,0.186,1.313,0.111c0.605-0.086,1.154-0.348,1.65-0.611c0.598-0.32,1.252-1.172,1.238-1.891
				C311.686,406.199,311.419,405.183,310.977,404.314z"/>
		</g>
		<g>
			<path fill="#FCFCFC" d="M197.684,449.548c-0.625-0.063-1.283,0.025-1.94,0.234c-1.027,0.322-1.959,0.521-2.854,0.637
				c-0.869,0.105-1.779,0.182-2.646,0.266c-1.354,0.104-2.771,0.221-4.146,0.473c-1.013,0.168-1.675-0.039-2.521-0.822
				c-0.545-0.502-1.104-0.992-1.662-1.484c-0.772-0.678-1.563-1.383-2.315-2.098c-0.931-0.914-1.819-1.846-2.756-2.824
				c-0.259-0.27-0.527-0.559-0.783-0.83c0.026-0.023,0.065-0.055,0.095-0.078c0.524-0.4,1.069-0.771,1.606-1.164
				c1.153-0.818,2.36-1.664,3.446-2.619c2.203-1.941,4.019-4.182,5.994-6.689c1.063-1.33,0.963-2.971-0.242-4.365
				c-1.506-1.738-3.481-2.25-5.244-2.596c-0.303-0.064-0.563-0.104-0.813-0.123c-1.396-0.111-2.291,0.42-3.104,1.838
				c-0.256,0.455-0.45,0.93-0.649,1.373c-0.129,0.295-0.248,0.605-0.389,0.889c-0.884,1.781-2.246,3.174-3.691,4.629
				c-0.233,0.236-0.478,0.484-0.709,0.729c-0.383,0.396-0.815,0.746-1.269,1.105c-0.045,0.027-0.092,0.07-0.139,0.1
				c-2.603-3.576-6.031-11.4-6.416-14.104c0.026,0,0.053,0,0.078-0.012c0.51-0.063,0.998-0.118,1.465-0.094
				c0.606,0.027,1.213,0.053,1.813,0.105c0.742,0.053,1.399,0.139,1.998,0.232c0.854,0.154,1.744,0.271,2.688,0.348
				c2.707,0.215,5.438,0.088,8.082-0.043c0.789-0.035,1.582-0.074,2.373-0.105c1.149-0.045,2.312-0.09,3.455-0.145
				c2.62-0.105,5.317-0.227,7.965-0.236c1.405-0.021,2.558-0.43,3.617-1.277l0.323-0.264l-0.11-0.404
				c-0.613-2.209-1.271-3.172-2.914-4.288c-0.095-0.063-0.185-0.13-0.287-0.193c-0.332-0.209-0.647-0.416-0.844-0.655
				c-0.791-0.99-1.841-1.402-2.841-1.802l-0.44-0.178c-1.608-0.672-2.961-0.271-4.151,1.25c-0.416,0.521-0.86,1.039-1.304,1.551
				c-0.399,0.476-0.813,0.959-1.211,1.449c-0.379,0.476-0.651,0.623-1.108,0.604c-1.047-0.054-2.093,0-3.11,0.041l-0.507,0.026
				c-0.411,0.021-0.799,0.049-1.202,0.097c-0.609,0.057-1.187,0.112-1.75,0.088c-2.351-0.072-4.697-0.176-7.056-0.281
				c-1.935-0.08-3.89-0.166-5.815-0.234c-0.271-0.006-0.492-0.021-0.679-0.035c-0.59-0.047-0.59-0.047-0.78-1.215
				c-0.078-0.498-0.115-1.016-0.146-1.549c-0.05-0.945-0.119-1.91-0.447-2.814c-0.444-1.19-0.502-2.383-0.558-3.658
				c-0.028-0.426-0.043-0.842-0.079-1.266c-0.06-0.754-0.099-1.502-0.136-2.285c0-0.154-0.012-0.307-0.021-0.465l3.065-0.092
				c4.181-0.121,8.377-0.25,12.595-0.365c0.323-0.02,0.657,0.016,0.972,0.055c-0.013,0.172-0.023,0.338-0.043,0.504
				c-0.063,0.748-0.136,1.449-0.14,2.146c-0.052,1.584,0.664,2.595,1.901,2.685c0.442,0.033,0.94-0.049,1.469-0.256
				c0.925-0.354,1.854-0.797,2.839-1.349c0.483-0.271,1.178-0.707,1.461-1.347l0.198-0.438c0.689-1.527,1.412-3.102,1.857-4.748
				c0.399-1.543,0.713-3.119,1-4.662c0.174-0.904,0.34-1.805,0.534-2.697c0.054-0.233,0.168-0.479,0.287-0.758
				c0.177-0.387,0.375-0.838,0.41-1.332c0.108-2.055,0.719-3.963,1.354-5.979c0.416-1.279,0.826-2.607,1.106-3.955
				c0.371-1.754,0.791-3.439,1.976-4.764c0.139-0.15,0.442-0.543,0.479-1.008c0.017-0.221,0.055-0.473,0.104-0.713
				c0.135-0.81,0.271-1.642-0.162-2.242c-0.914-1.271-1.985-2.537-3.683-3.246c-1.7-0.717-3.416-0.982-5.347-0.82
				c-0.577,0.049-1.174,0.152-1.73,0.25c-0.599,0.105-1.166,0.207-1.734,0.242c-3.098,0.225-6.256,0.385-9.313,0.543l-0.161,0.006
				c-2.123,0.107-4.259,0.211-6.395,0.311l-3.247,0.142c-0.063,0.01-0.149,0-0.224,0c-0.271-0.011-0.619-0.021-0.945,0.151
				c-1.018,0.576-2.146,0.558-3.338,0.547c-0.387-0.012-0.795-0.012-1.203,0.002c0.923-0.329,1.73-0.827,2.52-1.313
				c0.358-0.221,0.725-0.442,1.096-0.646c0.672-0.375,1.438-0.609,2.104-0.658c1.649-0.115,3.117-0.691,4.539-1.25
				c0.687-0.271,1.392-0.547,2.086-0.754c0.229-0.072,0.403-0.178,0.571-0.27c0.31-0.148,0.435-0.209,0.671-0.136
				c0.688,0.201,1.864-0.392,2.183-1.063c0.608-1.319,1.663-2.264,2.788-3.254c0.276-0.248,0.56-0.492,0.82-0.739
				c1.041-0.968,1.364-1.979,1.051-3.273c-0.103-0.44-0.241-0.868-0.371-1.282c1.843,0.045,3.774,0.098,5.705,0.242
				c1.896,0.153,3.576,0.387,5.153,0.702c0.406,0.093,0.871,0.093,1.199-0.026c0.603-0.217,1.229-0.283,1.992-0.217
				c0.313,0.02,0.646,0.075,1.041,0.141c0.869,0.147,1.858-0.185,2.58-0.851c0.571-0.536,0.896-1.187,0.879-1.852
				c-0.017-1.541-0.285-3.445-2.269-4.521l-0.115-0.056c-1.047-0.563-2.043-1.095-2.479-2.188c-0.166-0.433-0.596-0.67-0.922-0.853
				l-0.176-0.097c-0.449-0.268-0.937-0.432-1.438-0.467c-0.967-0.078-1.836,0.279-2.637,0.652l-0.248,0.104l-0.086,0.263
				c-0.61,1.728-0.869,2.073-2.332,3.112c-0.08,0.064-0.185,0.115-0.276,0.183c-0.293,0.185-0.625,0.383-0.854,0.722
				c-0.334,0.51-0.707,0.586-1.625,0.532c-2.881-0.135-5.797-0.194-8.604-0.25c-3.396-0.067-6.938-0.127-10.533-0.164
				c-2.295-0.028-4.69-0.028-7.353-0.004c-0.502,0.004-0.989,0.028-1.475,0.062c-0.82,0.063-1.604,0.115-2.359,0.021
				c-0.233-0.021-0.44-0.051-0.629-0.063c-0.683-0.059-1.354-0.043-1.832,0.418c-0.506,0.49-0.58,1.252-0.535,2.595l0.019,0.547
				l0.537,0.069c0.494,0.058,0.987,0.154,1.479,0.24c1.188,0.223,2.508,0.41,3.554,0.316c2.896-0.271,5.848-0.195,8.69-0.139
				c0.725,0.021,1.444,0.043,2.155,0.053c0.429,0.002,0.877,0.02,1.429,0.068c0.394,0.026,0.805,0.063,1.205,0.104
				c0.264,0.026,0.521,0.058,0.771,0.082c0.526,1.183,0.379,2.041-0.438,2.812c-0.404,0.358-0.791,0.727-1.185,1.094
				c-0.978,0.916-1.981,1.881-3.009,2.777c-0.541,0.455-1.205,0.821-1.864,1.188l-0.138,0.078c-0.774,0.43-1.563,0.85-2.353,1.271
				c-1.512,0.803-3.071,1.635-4.565,2.563c-0.926,0.574-1.737,0.801-2.69,0.734c-0.446-0.035-0.896-0.129-1.371-0.229
				c-0.2-0.041-0.403-0.091-0.62-0.125c-0.402-0.076-0.746-0.115-1.063-0.146c-0.653-0.062-1.588-0.047-2.133,0.619
				c-0.612,0.764-0.365,1.954-0.039,3.008c0.392,1.256,0.511,2.521,0.396,3.992l-0.118,1.625c-0.21,2.803-0.425,5.702-0.701,8.547
				c-0.164,1.819-0.356,3.618-0.547,5.438c-0.283,2.772-0.587,5.655-0.802,8.481c-0.094,1.109,0.146,2.203,0.39,3.256
				c0.057,0.259,0.121,0.507,0.168,0.757c0.139,0.651,0.979,1.002,1.237,1.102c0.558,0.188,1.104,0.312,1.646,0.353l0.093,0.006
				c0.933,0.057,1.851,0.074,2.819,0.105c0.24,0.002,0.49,0.014,0.735,0.016c0.065,0.164,0.123,0.318,0.197,0.477
				c0.239,0.633,0.474,1.236,0.592,1.844c0.222,1.111,0.39,2.246,0.548,3.365c0.116,0.865,0.243,1.736,0.405,2.611
				c0.164,1.004,0.39,1.988,0.616,3.027c0.056,0.272,0.125,0.547,0.177,0.832c-0.121,0.035-0.211,0.063-0.28,0.069
				c-0.556,0.013-1.104,0.027-1.66,0.033c-0.813,0.015-1.654,0.026-2.496,0.078c-2.828,0.198-5.705,0.442-8.49,0.68l-1.155,0.091
				c-1.063,0.081-2.088,0.194-3.063,0.321c-0.545,0.063-1.004,0.328-1.313,0.728c-0.295,0.389-0.424,0.866-0.353,1.379
				c0.103,0.688,0.904,1.383,1.545,1.51c0.726,0.154,1.479,0.102,2.203,0.059l0.269-0.018c0.463-0.039,0.903-0.074,1.366-0.141
				c0.563-0.066,1.099-0.125,1.636-0.148c1.549-0.041,3.09-0.064,4.638-0.104c2.459-0.055,4.993-0.111,7.504-0.22
				c0.707-0.021,1.065,0.129,1.377,0.765c0.185,0.391,0.377,0.77,0.576,1.154c0.375,0.744,0.743,1.447,1.02,2.188
				c1.306,3.381,2.959,6.639,5.07,9.98c0.797,1.254,1.519,2.555,2.267,3.906c0.269,0.48,0.534,0.961,0.791,1.443
				c-0.162,0.188-0.31,0.346-0.447,0.422c-0.715,0.398-1.424,0.814-2.125,1.23c-2.099,1.193-4.25,2.428-6.44,3.479
				c-1.267,0.605-2.688,1.002-4.062,1.4c-0.601,0.18-1.201,0.346-1.804,0.527c-0.51,0.164-1.713,0.551-1.731,1.912
				c0,1.08,0.726,1.873,1.908,2.059c1.119,0.162,2.092,0.227,2.978,0.162c1.094-0.078,2.19-0.178,3.271-0.281
				c1.371-0.127,2.795-0.268,4.203-0.324c1.211-0.059,2.266-0.383,3.312-1.033c1.473-0.906,2.985-1.795,4.452-2.648
				c0.457-0.271,0.925-0.543,1.384-0.814l1.323,1.217c1.211,1.107,2.382,2.186,3.554,3.262c0.946,0.859,1.918,1.717,2.862,2.563
				c2.129,1.893,4.328,3.844,6.351,5.885c1.472,1.482,3.063,1.791,4.447,1.895c0.389,0.027,0.782,0.045,1.182,0.053
				c0.713,0.021,1.44-0.154,2.021-0.465c1.701-0.947,3.154-1.822,4.427-2.672c2.551-1.719,4.33-4.166,6.062-6.547l0.459-0.629
				l-0.431-0.387C200.125,450.234,198.963,449.646,197.684,449.548z M152.715,386.781c0.113-0.01,0.226-0.023,0.328-0.043
				c0.638-0.105,1.236-0.201,1.83-0.238c1.25-0.071,2.513-0.125,3.754-0.174c2.47-0.09,5.031-0.188,7.529-0.51
				c2.428-0.328,5.063-0.355,8.276-0.105c0.274,0.025,0.56,0.049,0.84,0.074l0.11,0.01c0.646,0.054,1.275,0.035,1.896,0.031
				c0.356-0.01,0.723-0.01,1.084,0c0.723,0.004,1.434,0.039,2.266,0.062l0.479,0.019l-0.942,3.704
				c-0.104,0.062-0.248,0.132-0.346,0.132c-4.091,0.469-8.207,0.911-12.24,1.334c-2.217,0.233-4.377,0.227-6.61-0.037
				c-1.896-0.209-3.839-0.146-5.709-0.105c-0.808,0.027-1.597,0.045-2.394,0.047c-0.24,0-0.472,0.008-0.724,0.027
				c-0.207-0.609-0.045-1.201,0.201-2.055C152.541,388.292,152.766,387.574,152.715,386.781z M183.028,378.251
				c-0.166,0.74-0.361,1.488-0.574,2.279c-0.065,0.272-0.142,0.563-0.217,0.848c-0.099,0.053-0.257,0.119-0.313,0.115
				c-0.26-0.048-0.528-0.086-0.817-0.101c-0.985-0.088-1.946,0.015-2.883,0.119c-0.918,0.1-1.785,0.19-2.646,0.131l-0.072-0.017
				c-1.756-0.162-3.522-0.271-5.282-0.377l-1.173-0.084c-0.395-0.02-0.786,0.017-1.182,0.062c-0.74,0.078-1.474,0.176-2.209,0.272
				c-1.539,0.203-3.129,0.402-4.685,0.48c-1.771,0.076-3.554,0.031-5.42-0.025c-0.63-0.02-1.259-0.035-1.908-0.051
				c-0.015-1.488,0.41-2.814,0.86-4.207c0.168-0.549,0.347-1.107,0.505-1.691c0.42,0,0.832-0.014,1.235-0.014
				c1.406,0,2.709-0.002,4.062-0.045c0.694-0.025,1.379-0.113,2.06-0.203c0.262-0.039,0.539-0.08,0.81-0.117
				c0.286-0.028,0.586-0.067,0.87-0.104c0.601-0.105,1.164-0.184,1.714-0.184c0.185-0.002,0.368,0,0.543,0
				c1.155,0.016,2.353,0.033,3.569-0.592c0.324-0.156,0.813-0.146,1.334-0.131c0.304,0,0.606,0.012,0.914-0.021
				c0.914-0.072,1.842-0.218,2.722-0.361c1.579-0.25,3.075-0.491,4.612-0.36h0.026c0.276,0.016,0.541,0.03,0.822,0.047
				c0.534,0.029,1.084,0.059,1.608,0.145c1.045,0.166,1.498,0.678,1.498,1.668c-0.01,0.75-0.188,1.535-0.342,2.307L183.028,378.251z
				 M150.756,399.451c0.138-1.178,0.261-2.279,0.431-3.381c0.033-0.264,0.078-0.438,0.646-0.488c3.188-0.35,6.185-0.385,9.146-0.158
				l0.519,0.048c3.819,0.307,6.744,0.163,9.51-0.457c1.459-0.324,2.996-0.478,4.484-0.638c0.727-0.063,1.463-0.139,2.184-0.229
				c0.609-0.08,1.07,0.045,1.498,0.422l-0.866,4.432c-0.384,0.029-0.748,0.063-1.119,0.097c-1.103,0.11-2.146,0.202-3.185,0.254
				c-4.146,0.229-8.203,0.437-12.301,0.58c-0.953,0.026-1.927,0-2.867-0.024c-0.815-0.027-1.668-0.05-2.5-0.046
				c-1.019,0.025-1.969,0.147-2.813,0.392c-0.633,0.176-1.256,0.149-1.782,0.108c-0.229-0.012-0.457-0.043-0.701-0.065
				c-0.119-0.01-0.238-0.023-0.367-0.035C150.701,399.98,150.731,399.705,150.756,399.451z"/>
			<path fill="#FCFCFC" d="M129.215,384.683c-1.637-0.404-2.957-0.789-4.139-1.238c-1.17-0.449-2.022-0.285-2.795,0.451
				c-0.734,0.707-1.629,1-3.017,1.018c-1.942,0.008-3.89,0.099-5.783,0.246c-0.653,0.057-1.313,0.178-1.944,0.291
				c-0.668,0.123-1.291,0.234-1.933,0.275c-1.674,0.111-3.383,0.166-5.039,0.209c-0.639,0.02-1.272,0.043-1.92,0.059
				c-0.459,0.027-0.931,0.029-1.397,0.041h-0.156c-0.03-0.137-0.045-0.262-0.045-0.357c0-2.026-0.897-3.258-2.77-3.776
				c-0.896-0.252-1.738-0.646-2.646-1.065c-0.342-0.152-0.672-0.314-1.018-0.474c-1.623-0.713-2.996-0.528-4.479,0.57l-0.365,0.28
				l0.14,0.437c0.086,0.263,0.147,0.547,0.211,0.819c0.17,0.736,0.336,1.48,0.842,2.029c0.545,0.604,0.767,1.156,0.777,1.971
				c0.021,0.988-0.013,2.06-0.063,3.355c-0.093,1.836-0.318,3.704-0.541,5.514c-0.285,2.397-0.584,4.879-0.584,7.363
				c0.014,2.229-0.188,4.521-0.396,6.717c-0.097,1.09-0.195,2.184-0.271,3.266c-0.046,0.682-0.087,1.375-0.007,2.084
				c0.148,1.285,0.884,2.078,2.015,2.156c0.328,0.035,0.679-0.008,1.06-0.09c0.155-0.039,0.313-0.09,0.469-0.146
				c0.201-0.068,0.41-0.137,0.529-0.127c3.062,0.186,5.864-0.781,8.422-1.865c1.918-0.795,3.873-1.105,6.069-1.396
				c1.021-0.133,2.068-0.229,3.08-0.309c0.617-0.057,1.235-0.104,1.856-0.158c0.354-0.039,0.703-0.09,1.06-0.149
				c0.582-0.101,1.125-0.183,1.662-0.166c0.11,0,0.224,0.01,0.313,0.019c0.353,0.026,0.433,0.063,0.433,0.063
				c0.049,0.065,0.077,0.271,0.039,0.91c-0.142,2.495,0.17,2.977,2.498,3.944c0.118,0.058,0.25,0.101,0.368,0.146
				c2.295,0.803,5.681-0.498,6.037-3.363c0.069-0.467,0.144-0.915,0.235-1.399c0.099-0.51,0.203-1.037,0.261-1.572
				c0.31-2.734,1.104-5.436,1.862-8.045c0.306-1.047,0.608-2.072,0.877-3.121c0.318-1.18,0.771-2.287,1.248-3.473
				c0.623-1.537,1.279-3.131,1.563-4.859c0.039-0.223,0.086-0.451,0.132-0.684c0.157-0.82,0.303-1.67,0.303-2.564
				C132.259,386.095,131.574,385.24,129.215,384.683z M99.285,404.156c0.057-0.811,0.094-1.586,0.176-2.361
				c0.316-2.953,0.761-6.44,1.656-9.938c0.055-0.234,0.094-0.488,0.131-0.744c0.039-0.27,0.108-0.787,0.222-0.883
				c0.146-0.113,0.696-0.1,1.055-0.082c0.214,0,0.429,0.006,0.621,0c0.804-0.018,1.603-0.045,2.412-0.068
				c1.226-0.028,2.442-0.059,3.672-0.115c0.612-0.032,1.231-0.106,1.824-0.19c0.407-0.053,0.813-0.108,1.217-0.146
				c0.67-0.063,1.324-0.121,1.99-0.184c2.141-0.205,4.346-0.402,6.532-0.544c0.229-0.004,0.435-0.004,0.599,0
				c0.26,0.021,0.426,0.082,0.489,0.154c0.066,0.084,0.156,0.338,0.037,1.153c-0.271,1.843-0.653,3.703-1.035,5.494l-0.278,1.342
				c-0.461,2.269-0.948,4.521-1.45,6.769l-0.156,0.759c-0.071,0.303-0.156,0.598-0.237,0.891c-0.048,0.152-0.095,0.305-0.134,0.455
				c-0.377,1.35-1.5,2.143-2.978,2.108c-1.418-0.022-2.762,0.22-4.082,0.457c-1.161,0.207-2.252,0.408-3.375,0.416
				c-0.938,0.024-1.848,0.207-2.717,0.375c-1.093,0.216-2.121,0.402-3.187,0.313l-0.063-0.006c-0.776-0.058-1.528,0.172-2.254,0.391
				c-0.365,0.104-0.703,0.209-1.037,0.271c-0.17,0.036-0.353,0.047-0.563,0.055C99.055,408.193,99.174,406.15,99.285,404.156z"/>
			<path fill="#FCFCFC" d="M208.002,407.935c-0.346-1.332-0.842-2.625-1.325-3.877c-0.156-0.412-0.318-0.816-0.464-1.238
				c-0.498-1.33-1.303-2.148-2.469-2.463c-0.394-0.113-0.771-0.258-1.179-0.41c-0.733-0.281-1.506-0.563-2.319-0.637l-0.238-0.023
				c-2.653-0.199-5.217,0.064-5.918,3.471l-0.088,0.408l0.347,0.246c0.19,0.146,0.416,0.275,0.627,0.404
				c0.381,0.23,0.741,0.457,0.948,0.73c1.41,1.82,2.421,3.879,2.992,6.102c0.447,1.699,0.789,2.18,2.58,2.467l0.094,0.02
				c0.257,0.048,0.527,0.074,0.675,0.181c0.471,0.287,1.01,0.461,1.577,0.502c0.779,0.063,1.521-0.104,2.205-0.297
				c0.813-0.226,1.859-1.078,2.054-1.972C208.334,410.441,208.307,409.123,208.002,407.935z"/>
		</g>
	</g>
</g>
</svg>
