<?xml version="1.0" encoding="utf-8"?>
<!-- Generator: Adobe Illustrator 16.0.0, SVG Export Plug-In . SVG Version: 6.00 Build 0)  -->
<!DOCTYPE svg PUBLIC "-//W3C//DTD SVG 1.1//EN" "http://www.w3.org/Graphics/SVG/1.1/DTD/svg11.dtd">
<svg version="1.1" id="Layer_1" xmlns="http://www.w3.org/2000/svg" xmlns:xlink="http://www.w3.org/1999/xlink" x="0px" y="0px"
	 width="623.621px" height="623.622px" viewBox="0 0 623.621 623.622" enable-background="new 0 0 623.621 623.622"
	 xml:space="preserve">
<g>
	<g>
		<path fill="#FCFCFC" d="M156.914,491.569c0.043,1.631,0,12.316,0,12.316c0,0.158-0.506,0.492-1.519,0.992
			c-1.004,0.52-2.529,0.984-4.571,1.416c-2.039,0.43-4.514,0.641-7.429,0.641c-3.838-0.078-6.864-0.793-9.082-2.121
			c-2.223-1.336-3.795-3.33-4.717-6.004c-0.918-2.66-1.373-6.166-1.373-10.529c0.094-3.508,0.629-6.455,1.594-8.85
			c0.97-2.389,2.505-4.227,4.604-5.504c2.11-1.283,4.876-1.947,8.3-1.998c3.253,0,6.094,0.199,8.512,0.582
			c2.418,0.402,4.738,1.332,4.803,1.535c0,0,0.846,4.313,0.9,5.043c0.043,0.498-1.018-0.377-1.82-0.826
			c-0.873-0.484-2.011-0.92-3.424-1.299c-1.424-0.375-3.145-0.572-5.17-0.572c-0.954,0-1.692,0.025-2.24,0.072
			c-4.957,0.316-7.443,4.256-7.443,11.816c0,2.611,0.121,4.898,0.347,6.852c0.233,1.951,0.77,3.641,1.642,5.049
			c0.854,1.422,2.129,2.213,3.819,2.379c2.069,0,3.629-0.188,4.67-0.561c1.037-0.377,1.935-0.924,1.935-0.924v-9.674
			c0,0,6.104-0.084,7.437-0.039C156.763,491.366,156.91,491.495,156.914,491.569z"/>
		<path fill="#FCFCFC" d="M228.55,491.569c0.038,1.631,0,12.316,0,12.316c0,0.158-0.508,0.492-1.52,0.992
			c-1.006,0.52-2.53,0.984-4.574,1.416c-2.038,0.43-4.517,0.641-7.427,0.641c-3.84-0.078-6.865-0.793-9.089-2.121
			c-2.218-1.336-3.785-3.33-4.71-6.004c-0.921-2.66-1.373-6.166-1.373-10.529c0.093-3.508,0.627-6.455,1.593-8.85
			c0.971-2.389,2.507-4.227,4.603-5.504c2.111-1.283,4.874-1.947,8.299-1.998c3.26,0,6.095,0.199,8.52,0.582
			c2.416,0.402,4.73,1.332,4.796,1.535c0,0,0.846,4.313,0.901,5.043c0.039,0.498-1.016-0.377-1.817-0.826
			c-0.873-0.484-2.012-0.92-3.428-1.299c-1.427-0.375-3.146-0.572-5.173-0.572c-0.946,0-1.69,0.025-2.233,0.072
			c-4.955,0.316-7.445,4.256-7.445,11.816c0,2.611,0.119,4.898,0.349,6.852c0.233,1.951,0.771,3.641,1.639,5.049
			c0.852,1.422,2.129,2.213,3.82,2.379c2.073,0,3.622-0.188,4.67-0.561c1.034-0.377,1.937-0.924,1.937-0.924v-9.674
			c0,0,6.104-0.084,7.433-0.039C228.392,491.366,228.545,491.495,228.55,491.569z"/>
		<path fill="#FCFCFC" d="M182.62,506.645v-2.596c-0.195,0.455-0.845,1.006-1.95,1.67c-1.1,0.664-2.979,0.996-5.633,0.996
			c-2.269-0.082-4.146-0.668-5.646-1.736c-1.508-1.078-2.265-2.779-2.299-5.102c0-2.49,0.884-4.359,2.671-5.605
			c1.787-1.25,4.456-2.008,8.03-2.264c1.646-0.146,2.91-0.563,3.799-1.266c0.888-0.717,1.332-1.51,1.332-2.387
			c0-0.898-0.393-1.666-1.218-2.307c-0.817-0.646-1.925-0.965-3.314-0.965c-2.863,0-5.095,0.529-6.685,1.592
			c-1.599,1.049-2.953,2.781-3.128,2.658c-0.522-0.363,1.023-4.922,1.023-4.922c0-0.084,0.384-0.342,1.14-0.779
			c0.748-0.438,1.815-0.844,3.162-1.221c1.36-0.387,2.973-0.584,4.849-0.598c3.82,0,6.587,0.66,8.298,1.955
			c1.701,1.301,2.549,2.998,2.549,5.109v17.766H182.62z M179.205,502.786c2.275-0.619,3.415-1.621,3.415-2.982v-5.645
			c-0.009,0.037-0.089,0.207-0.249,0.518c-0.159,0.309-0.522,0.613-1.072,0.914c-0.557,0.309-1.407,0.529-2.546,0.654
			c-1.935,0.271-3.415,0.697-4.429,1.303c-1.021,0.598-1.518,1.615-1.518,3.078c0.157,1.676,1.496,2.52,4.024,2.52
			C177.594,503.143,178.383,503.024,179.205,502.786z"/>
		<path fill="#FCFCFC" d="M295.947,506.645h-7.879v-34.646h23.571v4.314h-15.692v10.113h13.085v4.309h-13.085V506.645z"/>
		<path fill="#FCFCFC" d="M352.75,506.645v-24.756h6.988v3.055c0.029-0.025,0.166-0.199,0.424-0.512
			c0.264-0.326,0.66-0.66,1.182-1.02c0.514-0.35,1.217-0.67,2.113-0.996c0.951-0.396,2.176-0.602,3.654-0.602
			c1.127,0,1.85,0.057,2.129,0.152c0,0,1.182,3.775,0.605,3.574c-0.496-0.184-1.637-0.313-2.379-0.313
			c-1.605,0-2.945,0.305-4.01,0.912c-1.191,0.59-2.113,1.406-2.758,2.428c-0.635,1.021-0.963,1.973-0.963,2.83v15.246H352.75z"/>
		<path fill="#FCFCFC" d="M379.198,506.645v-24.756h6.982v2.016c1.445-1.439,3.654-2.156,6.633-2.156
			c2.096,0,3.58,0.379,4.441,1.137c0.85,0.766,1.35,1.404,1.496,1.908c0-0.02,0.244-0.291,0.729-0.814
			c0.48-0.52,1.191-0.992,2.117-1.432c0.926-0.42,2.117-0.67,3.561-0.73c2.641,0,4.627,0.609,5.959,1.818
			c1.32,1.209,1.988,2.785,1.988,4.723v18.287h-5.363v-17.691c0-2.225-1.332-3.338-4.008-3.338c-1.402,0.096-2.4,0.605-3.004,1.521
			c-0.602,0.918-0.951,1.678-1.082,2.271v17.236h-5.348v-17.691c0-0.961-0.332-1.748-0.98-2.395
			c-0.648-0.633-1.672-0.943-3.051-0.943c-1.479,0.146-2.494,0.695-3.082,1.654c-0.582,0.961-0.914,1.754-1.008,2.354v17.021
			H379.198z"/>
		<path fill="#FCFCFC" d="M427.371,471.928c1.232,0,2.193,0.391,2.904,1.16c0.691,0.771,1.031,1.701,1.031,2.773
			c0,1.111-0.346,2.051-1.064,2.834c-0.699,0.785-1.682,1.184-2.938,1.184c-1.215,0-2.174-0.398-2.889-1.186
			c-0.721-0.793-1.082-1.717-1.082-2.756c0-1.063,0.361-1.996,1.082-2.801C425.131,472.334,426.117,471.928,427.371,471.928z
			 M423.873,506.645v-24.756h6.91v24.756H423.873z"/>
		<path fill="#FCFCFC" d="M462.682,487.604v19.041h-5.207v-18.129c0-2.084-1.588-3.125-4.758-3.125
			c-1.539,0.182-2.658,0.678-3.336,1.447c-0.668,0.783-1.063,1.408-1.199,1.895v17.912h-7v-24.756h7v2.016
			c0.1-0.059,0.434-0.273,0.986-0.658c0.564-0.367,1.367-0.715,2.395-1.025c1.039-0.314,2.236-0.473,3.604-0.473
			c2.588,0,4.473,0.586,5.693,1.764C462.069,484.696,462.682,486.069,462.682,487.604z"/>
		<path fill="#FCFCFC" d="M482.748,512.147c3.816,0,5.729-1.143,5.729-3.416v-3.195c-1.766,0.889-3.922,1.324-6.477,1.324
			c-1.859-0.072-3.447-0.379-4.76-0.916c-1.316-0.533-2.443-1.732-3.361-3.592c-0.922-1.854-1.391-4.59-1.391-8.193
			c0.1-3.73,0.688-6.498,1.781-8.313c1.092-1.822,2.324-2.961,3.689-3.42c1.377-0.455,2.939-0.678,4.721-0.678
			c0.973,0.051,1.865,0.213,2.686,0.488c0.816,0.277,1.547,0.588,2.182,0.934c0.623,0.314,0.93,0.492,0.93,0.506v-1.785h6.92v25.721
			c0,5.02-3.703,7.594-11.092,7.729c-2.646,0-4.836-0.223-6.559-0.676c-1.717-0.455-2.949-1.043-2.949-1.043
			s-1.063-4.191-0.527-3.854c0.74,0.469,1.582,0.828,3.094,1.404C478.889,511.731,480.688,512.059,482.748,512.147z
			 M488.477,487.178c0-0.137-0.416-0.465-1.258-0.975c-0.824-0.516-1.764-0.865-2.826-1.053c-1.574,0-2.82,0.328-3.74,0.975
			c-0.926,0.654-1.594,1.631-1.988,2.939c-0.383,1.318-0.611,3.055-0.676,5.236c0,2.939,0.438,5.234,1.285,6.893
			c0.867,1.65,2.488,2.475,4.891,2.475c1.262-0.088,2.246-0.293,2.959-0.623c0.697-0.334,1.15-0.6,1.354-0.789V487.178
			L488.477,487.178z"/>
		<path fill="#FCFCFC" d="M254.263,506.645v-2.596c-0.19,0.455-0.837,1.006-1.948,1.67c-1.099,0.664-2.977,0.996-5.631,0.996
			c-2.271-0.082-4.146-0.668-5.642-1.736c-1.508-1.078-2.27-2.779-2.307-5.102c0-2.49,0.893-4.359,2.677-5.605
			c1.785-1.25,4.458-2.008,8.024-2.264c1.647-0.146,2.915-0.563,3.803-1.266c0.893-0.717,1.334-1.51,1.334-2.387
			c0-0.898-0.396-1.666-1.225-2.307c-0.815-0.646-1.921-0.965-3.307-0.965c-2.872,0-5.101,0.529-6.688,1.592
			c-1.592,1.049-2.948,2.781-3.13,2.658c-0.517-0.363,1.028-4.922,1.028-4.922c0-0.084,0.378-0.342,1.141-0.779
			c0.744-0.438,1.812-0.844,3.162-1.221c1.357-0.387,2.967-0.584,4.845-0.598c3.815,0,6.588,0.66,8.298,1.955
			c1.697,1.301,2.55,2.998,2.55,5.109v17.766H254.263z M250.855,502.786c2.278-0.619,3.408-1.621,3.408-2.982v-5.645
			c-0.008,0.037-0.085,0.207-0.246,0.518c-0.157,0.309-0.514,0.613-1.069,0.914c-0.563,0.309-1.411,0.529-2.547,0.654
			c-1.934,0.271-3.412,0.697-4.429,1.303c-1.02,0.598-1.517,1.615-1.517,3.078c0.157,1.676,1.496,2.52,4.021,2.52
			C249.243,503.143,250.029,503.024,250.855,502.786z"/>
		<path fill="#FCFCFC" d="M335.432,506.645v-2.596c-0.195,0.455-0.842,1.006-1.955,1.67c-1.102,0.664-2.975,0.996-5.631,0.996
			c-2.264-0.082-4.143-0.668-5.645-1.736c-1.504-1.078-2.266-2.779-2.303-5.102c0-2.49,0.893-4.359,2.674-5.605
			c1.789-1.25,4.461-2.008,8.027-2.264c1.648-0.146,2.914-0.563,3.799-1.266c0.893-0.717,1.332-1.51,1.332-2.387
			c0-0.898-0.395-1.666-1.213-2.307c-0.82-0.646-1.926-0.965-3.314-0.965c-2.865,0-5.098,0.529-6.689,1.592
			c-1.59,1.049-2.945,2.781-3.123,2.658c-0.52-0.363,1.023-4.922,1.023-4.922c0-0.084,0.379-0.342,1.139-0.779
			c0.746-0.438,1.814-0.844,3.166-1.221c1.355-0.387,2.965-0.584,4.842-0.598c3.824,0,6.59,0.66,8.299,1.955
			c1.703,1.301,2.547,2.998,2.547,5.109v17.766H335.432z M332.016,502.786c2.277-0.619,3.416-1.621,3.416-2.982v-5.645
			c-0.012,0.037-0.096,0.207-0.256,0.518c-0.154,0.309-0.516,0.613-1.07,0.914c-0.553,0.309-1.406,0.529-2.545,0.654
			c-1.926,0.271-3.408,0.697-4.43,1.303c-1.016,0.598-1.51,1.615-1.51,3.078c0.148,1.676,1.488,2.52,4.018,2.52
			C330.405,503.143,331.19,503.024,332.016,502.786z"/>
	</g>
	<g>
		<g>
			<path fill="#FCFCFC" d="M344.184,393.625c-2.582,2.895-4.711,5.557-7.129,7.938c-2.881,2.854-6.07,5.207-10.242,6.191
				c-2.053,0.49-3.943,0.777-5.939,0.299c-2.523-0.592-5.02-1.299-7.52-1.963c0.01-0.27,0.029-0.543,0.047-0.811
				c0.75-0.184,1.607-0.676,2.24-0.492c7.834,2.369,13.156-2.342,18.338-6.758c2.707-2.322,4.559-5.66,6.734-8.453
				c-4.951-6.09-11.822-9.256-20.514-3.965c-0.395-2.309,0.74-4.01,1.707-5.594c3.742-6.1,6.477-12.633,8.863-19.322
				c0.25-0.705,0.416-1.428,0.676-2.301c-2.906-1.127-5.824-0.832-8.666-1.143c-2.736-0.287-5.834,0.68-8.594-2.053
				c0.992-0.18,1.525-0.385,2.055-0.361c4.801,0.24,9.592,0.504,14.385,0.801c1.734,0.104,2.826-0.58,3.549-2.201
				c2.162-4.861,4.543-9.633,6.576-14.543c0.764-1.854,1.672-3.047,3.682-3.297c2.182-0.275,4.117,0.402,5.396,2.113
				c1.34,1.773,0.334,3.652-0.508,5.352c-1.893,3.854-3.873,7.678-5.809,11.525c-0.213,0.426-0.273,0.938-0.457,1.602
				c3.789,0.434,7.412,0.842,10.949,1.24c0.98-1.035,1.795-2.613,2.813-2.764c1.32-0.211,2.932,0.523,4.209,1.248
				c2.383,1.32,2.836,3.076,1.713,5.787c-3.678,8.887-7.465,17.721-13.326,25.482c-0.367,0.479-0.619,1.064-0.99,1.719
				c0.604,0.883,1.094,1.77,1.74,2.533c3.75,4.432,5.295,9.717,6.049,15.328c0.18,1.311,0.361,2.793-1.115,3.223
				c-0.914,0.266-2.156-0.178-3.098-0.635c-3.018-1.432-4.229-4.113-4.684-7.27C346.897,399.235,346.471,396.372,344.184,393.625z
				 M353.705,359.915c-3.396-0.473-6.264-0.771-9.088-1.281c-2.211-0.396-3.623,0.289-4.59,2.332
				c-2.811,5.896-5.719,11.758-8.564,17.596c3.984,1.951,7.896,3.867,11.971,5.854C347.67,376.834,350.533,368.741,353.705,359.915z
				"/>
			<path fill="#FCFCFC" d="M389.233,380.612c2.98,0.342,5.525,0.494,8.002,0.947c2.721,0.484,4.68-0.602,6.398-2.482
				c1.02-1.133,1.951-2.367,3.098-3.346c1.393-1.162,2.881-1.027,3.574,0.354c1.551,3.105,2.951,6.295,4.484,9.607
				c-1.803,1.461-3.986,1.146-6.049,0.84c-5.395-0.803-10.76-1.779-16.135-2.652c-1.213-0.199-2.469-0.283-4.08-0.473
				c-1.307,5.869-2.578,11.639-3.842,17.432c-0.977,4.449-1.904,8.916-2.93,13.361c-0.666,2.912-3.002,3.746-5.461,2.117
				c-4.523-3.002-9.07-5.959-13.596-8.971c-0.27-0.189-0.389-0.598-0.576-0.916c2.654-1.949,6.242-2.113,13.908-0.568
				c2.148-7.354,2.945-14.959,4.289-22.693c-3.311-1.324-6.6-1.035-9.828-1.217c-2.393-0.119-4.814-0.225-7.176-0.609
				c-1.24-0.199-2.375-0.994-3.438-2.018c6.84-0.77,13.541,0.164,20.814,0.357c0.238-2.094,0.795-4.186,0.621-6.223
				c-0.277-3.225-0.748-6.514-1.734-9.598c-0.611-1.902-0.309-2.566,1.27-3.588c5.092-3.316,10.123-6.738,15.021-10.352
				c1.752-1.271,3.801-2.578,4.459-5.488c-4.826-0.217-9.441-0.445-14.068-0.629c-2.4-0.104-4.824-0.018-7.221-0.213
				c-1.701-0.141-3.531-0.295-5.057-2.643c2.021,0.018,3.568,0.057,5.105,0.057c7.461,0.004,14.93,0.012,22.389-0.023
				c2.094-0.02,4.006,0.293,5.707,1.646c2.363,1.896,2.76,2.875,1.926,5.92c-0.332,1.219-0.643,2.48-1.186,3.607
				c-1.42,2.881-3.273,3.703-6.502,3.227c-0.957-0.145-1.998-0.217-2.92,0.01c-2.264,0.535-10.232,5.033-12.264,6.762
				C390.258,367.59,389.992,373.836,389.233,380.612z"/>
		</g>
		<g>
			<path fill="#FCFCFC" d="M437.098,444.731c3.48-0.443,6.436-0.813,9.859-1.254c-0.604-8.074,0.18-15.779-0.691-24.105
				c-4.648,0.82-8.678,1.543-13.014,2.313c-0.662,4.227-0.998,8.367-2.01,12.338c-0.979,3.818-1.859,8.09-4.189,11.051
				c-3.268,4.123-7.438,7.885-13.387,8.189c-1.738,0.092-3.467,0.416-5.316,0.656c-0.471-2.033,0.473-3.197,2.113-3.803
				c7.039-2.613,9.693-8.68,11.188-15.139c2.746-11.842,2.074-23.84,0.559-35.811c-0.064-0.471-0.148-0.957-0.318-1.404
				c-0.568-1.572-2.234-3.424-0.195-4.676c1.742-1.066,3.76-2.154,6.213-1.215c1.539,0.578,3.41,0.561,5.102,0.449
				c10.801-0.709,21.502-2.77,32.457-1.746c4.516,0.428,9.162-0.799,13.76-1.229c2.053-0.186,4.148-0.082,6.172-0.434
				c5.193-0.896,10.377-1.889,15.52-3.012c1.592-0.361,2.736-0.361,4.029,1.615c-1.346,0.586-2.373,1.344-3.475,1.459
				c-11.275,1.277-22.541,2.648-33.852,3.578c-6.029,0.496-12.154-0.037-18.201,0.35c-5.533,0.363-11.018,1.332-16.309,2.006
				c0.168,7.924,0.324,15.35,0.49,22.977c1.191-0.016,2.297,0.098,3.387-0.039c9.027-1.145,18.055-2.238,27.063-3.529
				c5.703-0.814,11.352-1.953,17.027-2.924c1.1-0.191,2.236-0.445,3.322-0.355c4.717,0.396,8.441-1.074,11.094-5.145
				c1.436-2.199,3.592-2.508,5.916-1.498c1.609,0.701,3.25,1.385,4.709,2.357c0.662,0.443,1.338,1.619,1.205,2.322
				c-0.115,0.652-1.227,1.502-2,1.607c-6.477,0.961-12.979,1.717-19.463,2.646c-5.523,0.785-11.043,1.717-16.566,2.629
				c-3.611,0.592-7.217,1.246-10.895,1.889c0.34,6.799-2.406,13.273-0.754,20.498c1.947-0.963,3.574-1.832,5.25-2.598
				c3.467-1.58,6.973-3.066,10.402-4.709c0.803-0.393,1.387-1.23,2.129-1.912c-1.836-3.98-6.799-5.264-8.297-9.887
				c4.486-0.873,7.762,0.342,10.795,2.682c2.096,1.635,4.299,3.16,7.066,5.17c2.092-3.445,3.98-6.34,5.633-9.363
				c1.361-2.465,2.844-3.199,6.816-2.791c2.246,0.221,4.441,1.93,4.832,3.992c0.156,0.877,0.15,2.146-0.348,2.709
				c-3.037,3.41-6.234,6.674-9.574,10.207c2.428,2.225,6.195,3.111,9.736,3.863c8.551,1.838,17.197,3.125,25.811,4.672
				c1.689,0.301,3.344,0.785,5.953,1.418c-1.184,1.488-1.709,2.805-2.609,3.166c-6.943,2.713-13.686,5.973-21.592,5.496
				c-3.547-0.211-6.656-0.912-9.375-2.896c-6.203-4.506-12.264-9.191-18.346-13.867c-2.438-1.879-3.672-2.359-5.26-0.105
				c-5.164,7.371-13.465,9.988-20.604,14.379c-1.902,1.17-3.781,2.355-5.594,3.648c-2.842,2.045-5.135,2.246-7.906,0.262
				c-1.559-1.102-3.037-2.379-4.305-3.793C437.643,447.395,437.588,446.208,437.098,444.731z"/>
			<path fill="#FCFCFC" d="M455.172,353.247c5.219,0.73,9.881,0.211,14.934-1.313c-0.266-3.434-0.527-6.732-0.832-10.564
				c1.262-0.512,2.641-1.414,4.102-1.592c2.623-0.326,5.465,0.652,7.711-1.686c0.223-0.234,1.479,0.227,1.996,0.666
				c0.26,0.219,0.111,1.506-0.197,1.654c-4.078,2.246-2.49,5.988-2.852,9.945c5.229-1.689,10.453-0.23,15.287-2.746
				c1.678-0.873,4.078-0.77,6.074-0.521c2.551,0.318,4.221,2.676,3.961,5.184c-0.799,7.604-1.732,15.205-2.537,22.816
				c-0.449,4.223-1.914,7.396-6.775,7.818c-1.057,0.096-2.049,0.785-3.453,1.371c-0.43-1.6-0.797-3.029-1.182-4.447
				c-9.186-0.244-61.713,7.275-67.104,9.795c-2.771-11.23-2.789-22.781-5.758-33.773c2.385-3.139,5.971-2.533,8.035-1.514
				c4.912,2.461,9.711,1.041,14.561,0.949c1.092-0.016,2.17-0.398,3.547-0.676c-0.518-4.021-1.014-7.918-1.498-11.734
				c3.156-1.896,9.727-2.289,14.863-0.438c-1.48,1.279-2.652,2.295-3.836,3.326C454.51,348.151,454.826,350.502,455.172,353.247z
				 M432.522,384.045c5.523-1.018,10.729-1.971,16.256-2.98c-0.736-4.098-1.387-7.621-2.078-11.424
				c-5.414,0.316-10.414,0.496-15.096,3.02C431.92,376.543,432.199,380.125,432.522,384.045z M494.047,363.813
				c-5.043,0.639-9.375,1.191-13.969,1.766c-0.131,4.168-0.258,8.068-0.402,12.465c4.592-0.576,8.74-1.107,13.158-1.67
				C493.233,372.155,493.61,368.276,494.047,363.813z M470.627,367.299c-5.385-0.514-9.955,0.164-14.414,1.242
				c0.195,7.016,0.344,7.824,2.059,11.232c4.299-0.492,8.65-0.871,13.135-2.1C471.121,373.997,470.891,370.868,470.627,367.299z
				 M431.783,368.797c4.992-0.629,9.52-1.207,14.271-1.818c-0.443-3.365-0.801-6.275-1.234-9.664
				c-4.133,0.145-7.945,0.191-11.729,0.455c-2.039,0.135-3.289,1.338-2.898,3.535C430.623,363.807,431.242,366.26,431.783,368.797z
				 M494.35,351.389c-5.096,0.471-9.758-0.773-13.93,2c-0.354,3.094-1.109,6.033,0.33,9.152c4.396-0.93,8.955,0.551,13.311-2.121
				C494.145,357.653,494.248,354.84,494.35,351.389z M456.448,365.758c4.98-0.629,9.162-1.154,13.936-1.766
				c-0.137-2.9-0.277-5.771-0.416-8.793c-4.604,0.221-8.529,0.385-12.453,0.623c-0.598,0.027-1.178,0.35-2.232,0.686
				C455.639,359.438,456.022,362.309,456.448,365.758z"/>
			<path fill="#FCFCFC" d="M438.936,406.577c4.453-1.037,8.842-2.396,13.35-3.031c6.799-0.963,13.67-1.354,20.496-2.1
				c3.32-0.363,6.604-1.037,9.914-1.467c3.146-0.41,5.689-1.801,8.004-3.945c3.096-2.902,8.734-2.57,11.51,0.498
				c1.041,1.158,0.77,2.504-0.721,2.99c-1.063,0.348-2.197,0.426-3.305,0.596c-8.201,1.311-16.395,2.691-24.611,3.889
				c-4.42,0.664-8.91,0.932-13.352,1.521c-6.328,0.826-12.639,1.797-18.955,2.664c-0.711,0.086-1.451-0.104-2.17-0.154
				C439.037,407.551,438.992,407.059,438.936,406.577z"/>
		</g>
		<g>
			<path fill="#FCFCFC" d="M310.281,427.79c-0.487,0.064-0.979,0.244-1.458,0.523c-0.738,0.43-1.436,0.75-2.102,1.002
				c-0.664,0.229-1.349,0.451-2.008,0.652c-1.045,0.332-2.111,0.664-3.146,1.1c-0.738,0.309-1.291,0.264-2.091-0.191
				c-0.508-0.291-1.016-0.576-1.542-0.859c-0.712-0.398-1.453-0.803-2.166-1.23c-0.877-0.537-1.73-1.096-2.628-1.709
				c-0.246-0.156-0.499-0.326-0.761-0.494c0.034-0.027,0.045-0.059,0.072-0.078c0.338-0.396,0.682-0.787,1.034-1.184
				c0.748-0.838,1.531-1.701,2.207-2.635c1.377-1.893,2.39-3.941,3.489-6.23c0.573-1.225,0.221-2.469-0.96-3.344
				c-1.467-1.086-3.103-1.137-4.514-1.1c-0.242,0.004-0.467,0.031-0.656,0.053c-1.104,0.166-1.702,0.73-2.084,1.977
				c-0.128,0.385-0.19,0.787-0.258,1.18c-0.049,0.248-0.096,0.502-0.15,0.758c-0.369,1.527-1.186,2.842-2.042,4.215
				c-0.15,0.246-0.286,0.473-0.434,0.703c-0.228,0.371-0.504,0.719-0.793,1.082c-0.023,0.027-0.049,0.061-0.08,0.092
				c-2.644-2.318-6.677-7.777-7.452-9.805c0.025-0.01,0.041-0.016,0.063-0.018c0.392-0.143,0.753-0.273,1.118-0.338
				c0.476-0.084,0.946-0.16,1.417-0.238c0.602-0.08,1.11-0.137,1.6-0.16c0.692-0.021,1.398-0.105,2.15-0.205
				c2.134-0.313,4.22-0.889,6.248-1.449c0.604-0.162,1.213-0.33,1.812-0.502c0.897-0.227,1.777-0.473,2.667-0.703
				c2.005-0.553,4.075-1.1,6.119-1.592c1.083-0.254,1.919-0.775,2.586-1.619l0.21-0.258l-0.161-0.303
				c-0.867-1.6-1.538-2.229-3.011-2.805c-0.089-0.035-0.166-0.07-0.263-0.102c-0.293-0.111-0.568-0.211-0.765-0.365
				c-0.786-0.619-1.664-0.764-2.524-0.9l-0.36-0.057c-1.368-0.236-2.353,0.313-3.004,1.695c-0.234,0.484-0.484,0.961-0.733,1.436
				c-0.231,0.441-0.468,0.885-0.692,1.33c-0.201,0.441-0.392,0.605-0.764,0.666c-0.807,0.143-1.604,0.365-2.384,0.578l-0.396,0.113
				c-0.309,0.074-0.611,0.178-0.917,0.277c-0.451,0.148-0.888,0.295-1.331,0.379c-1.838,0.346-3.681,0.686-5.521,1.014
				c-1.516,0.287-3.032,0.551-4.55,0.844c-0.204,0.035-0.38,0.07-0.526,0.094c-0.477,0.064-0.477,0.064-0.823-0.816
				c-0.155-0.365-0.267-0.754-0.38-1.176c-0.212-0.709-0.427-1.451-0.844-2.094c-0.555-0.836-0.812-1.76-1.083-2.734
				c-0.094-0.328-0.173-0.65-0.273-0.979c-0.182-0.563-0.334-1.141-0.502-1.744c-0.033-0.115-0.06-0.242-0.09-0.354l2.345-0.609
				c3.22-0.83,6.457-1.67,9.7-2.494c0.243-0.063,0.514-0.1,0.769-0.125c0.013,0.139,0.034,0.27,0.052,0.393
				c0.082,0.594,0.146,1.15,0.259,1.699c0.244,1.225,0.975,1.877,1.95,1.742c0.354-0.049,0.722-0.205,1.103-0.459
				c0.646-0.438,1.287-0.938,1.958-1.539c0.334-0.293,0.781-0.748,0.9-1.297l0.074-0.385c0.27-1.299,0.546-2.645,0.598-3.994
				c0.06-1.268,0.012-2.557-0.034-3.787c-0.018-0.736-0.052-1.467-0.056-2.191c0-0.188,0.038-0.406,0.081-0.629
				c0.067-0.344,0.148-0.721,0.085-1.109c-0.28-1.611-0.128-3.201,0.008-4.869c0.092-1.068,0.185-2.16,0.177-3.256
				c-0.035-1.426,0-2.799,0.684-4.045c0.072-0.131,0.25-0.494,0.195-0.865c-0.03-0.18-0.034-0.367-0.048-0.564
				c-0.033-0.65-0.075-1.314-0.526-1.715c-0.924-0.814-1.967-1.609-3.41-1.865c-1.447-0.252-2.821-0.158-4.285,0.299
				c-0.45,0.139-0.889,0.326-1.301,0.5c-0.446,0.191-0.857,0.359-1.301,0.498c-2.362,0.713-4.776,1.385-7.12,2.041l-0.118,0.033
				c-1.637,0.451-3.271,0.918-4.911,1.359l-2.487,0.676c-0.059,0.018-0.112,0.033-0.177,0.049c-0.213,0.037-0.483,0.088-0.704,0.285
				c-0.684,0.625-1.562,0.811-2.484,1c-0.307,0.064-0.618,0.141-0.938,0.213c0.661-0.414,1.194-0.941,1.723-1.445
				c0.232-0.242,0.479-0.479,0.729-0.695c0.453-0.402,1.021-0.725,1.525-0.885c1.25-0.381,2.3-1.088,3.294-1.768
				c0.479-0.326,0.98-0.664,1.482-0.953c0.152-0.092,0.289-0.199,0.399-0.299c0.199-0.178,0.293-0.246,0.488-0.23
				c0.578,0.037,1.375-0.629,1.496-1.201c0.251-1.133,0.904-2.037,1.6-3.008c0.177-0.25,0.347-0.482,0.508-0.719
				c0.643-0.938,0.704-1.773,0.242-2.725c-0.165-0.32-0.329-0.631-0.519-0.918c1.435-0.297,2.938-0.596,4.476-0.818
				c1.491-0.217,2.832-0.33,4.097-0.361c0.347-0.004,0.705-0.084,0.943-0.225c0.427-0.273,0.896-0.439,1.502-0.527
				c0.244-0.031,0.504-0.055,0.828-0.07c0.706-0.031,1.409-0.459,1.852-1.113c0.354-0.514,0.484-1.078,0.365-1.582
				c-0.289-1.195-0.838-2.621-2.555-3.105l-0.105-0.031c-0.905-0.248-1.771-0.482-2.289-1.252c-0.214-0.313-0.584-0.416-0.879-0.506
				l-0.15-0.045c-0.399-0.127-0.804-0.166-1.194-0.115c-0.765,0.115-1.368,0.555-1.935,0.977l-0.16,0.133l-0.03,0.219
				c-0.165,1.438-0.306,1.762-1.258,2.814c-0.056,0.066-0.121,0.119-0.188,0.176c-0.19,0.205-0.425,0.416-0.538,0.719
				c-0.176,0.465-0.436,0.582-1.16,0.703c-2.271,0.404-4.524,0.863-6.716,1.314c-2.646,0.531-5.393,1.117-8.192,1.711
				c-1.778,0.385-3.639,0.809-5.701,1.283c-0.38,0.092-0.756,0.211-1.128,0.318c-0.627,0.184-1.211,0.355-1.814,0.42
				c-0.19,0.023-0.356,0.043-0.508,0.063c-0.527,0.084-1.061,0.205-1.337,0.637c-0.32,0.477-0.233,1.082,0.036,2.113l0.107,0.414
				l0.426-0.035c0.396-0.039,0.795-0.051,1.193-0.07c0.961-0.043,2.012-0.121,2.801-0.375c2.192-0.721,4.498-1.182,6.729-1.637
				c0.552-0.098,1.108-0.223,1.661-0.328c0.336-0.072,0.691-0.143,1.122-0.197c0.315-0.047,0.64-0.084,0.954-0.131
				c0.2-0.021,0.404-0.064,0.613-0.076c0.611,0.826,0.649,1.52,0.146,2.254c-0.234,0.352-0.473,0.703-0.717,1.055
				c-0.588,0.887-1.218,1.803-1.859,2.684c-0.331,0.449-0.783,0.852-1.217,1.244l-0.094,0.08c-0.529,0.48-1.063,0.939-1.604,1.398
				c-1.032,0.895-2.099,1.818-3.085,2.793c-0.618,0.607-1.216,0.922-1.959,1.045c-0.355,0.043-0.727,0.051-1.101,0.059
				c-0.171,0.008-0.336,0.008-0.505,0.01c-0.324,0.012-0.608,0.033-0.848,0.064c-0.519,0.082-1.249,0.248-1.558,0.867
				c-0.329,0.705,0.065,1.574,0.502,2.336c0.516,0.904,0.844,1.863,1.014,3.021l0.188,1.283c0.324,2.209,0.665,4.494,0.965,6.74
				c0.177,1.436,0.351,2.871,0.525,4.32c0.259,2.203,0.525,4.479,0.845,6.711c0.137,0.869,0.522,1.668,0.889,2.447
				c0.087,0.197,0.172,0.381,0.253,0.557c0.229,0.49,0.945,0.611,1.16,0.645c0.456,0.051,0.913,0.045,1.327-0.016l0.081-0.018
				c0.73-0.121,1.444-0.262,2.206-0.414c0.183-0.037,0.376-0.076,0.578-0.115c0.066,0.107,0.145,0.227,0.225,0.332
				c0.309,0.455,0.598,0.865,0.797,1.324c0.354,0.814,0.682,1.682,1.001,2.514c0.246,0.656,0.495,1.311,0.777,1.955
				c0.302,0.752,0.644,1.479,1.007,2.238c0.09,0.209,0.184,0.4,0.287,0.609c-0.097,0.049-0.157,0.092-0.215,0.115
				c-0.426,0.104-0.854,0.209-1.265,0.314c-0.64,0.15-1.292,0.301-1.93,0.504c-2.165,0.641-4.345,1.328-6.466,1.992l-0.88,0.283
				c-0.804,0.248-1.589,0.521-2.315,0.787c-0.408,0.143-0.723,0.436-0.888,0.797c-0.153,0.348-0.168,0.736-0.03,1.121
				c0.195,0.512,0.945,0.91,1.464,0.898c0.578-0.004,1.164-0.174,1.706-0.338l0.215-0.061c0.342-0.104,0.688-0.221,1.028-0.348
				c0.428-0.152,0.831-0.289,1.239-0.398c1.193-0.311,2.384-0.6,3.582-0.895c1.892-0.475,3.851-0.963,5.771-1.484
				c0.545-0.146,0.861-0.08,1.199,0.352c0.212,0.27,0.427,0.525,0.646,0.789c0.426,0.512,0.831,0.994,1.188,1.514
				c1.587,2.387,3.446,4.635,5.666,6.844c0.844,0.836,1.617,1.719,2.438,2.646c0.297,0.32,0.585,0.639,0.879,0.975
				c-0.099,0.16-0.184,0.326-0.274,0.406c-0.49,0.436-0.963,0.883-1.445,1.316c-1.403,1.291-2.854,2.633-4.375,3.824
				c-0.875,0.689-1.9,1.26-2.901,1.807c-0.435,0.232-0.866,0.475-1.293,0.725c-0.379,0.213-1.239,0.719-1.007,1.773
				c0.18,0.848,0.886,1.33,1.828,1.27c0.896-0.068,1.663-0.189,2.339-0.402c0.835-0.246,1.668-0.518,2.479-0.787
				c1.046-0.35,2.125-0.691,3.2-0.996c0.935-0.256,1.688-0.689,2.388-1.369c0.979-0.965,2.008-1.916,2.988-2.838
				c0.308-0.295,0.616-0.584,0.922-0.869l1.247,0.709c1.128,0.646,2.232,1.277,3.322,1.908c0.89,0.498,1.783,0.99,2.671,1.482
				c1.98,1.086,4.028,2.217,5.949,3.432c1.396,0.895,2.694,0.855,3.774,0.695c0.313-0.037,0.615-0.096,0.935-0.164
				c0.546-0.113,1.092-0.377,1.478-0.729c1.148-1.02,2.12-1.953,2.95-2.834c1.676-1.777,2.628-3.998,3.564-6.125l0.238-0.576
				l-0.396-0.225C312.304,427.899,311.28,427.643,310.281,427.79z M264.437,387.042c0.081-0.031,0.168-0.068,0.238-0.098
				c0.484-0.195,0.926-0.381,1.381-0.508c0.956-0.277,1.935-0.533,2.877-0.797c1.904-0.502,3.876-1.021,5.754-1.717
				c1.818-0.678,3.854-1.16,6.384-1.523c0.228-0.029,0.45-0.063,0.672-0.098l0.094-0.008c0.497-0.072,0.99-0.195,1.468-0.311
				c0.278-0.063,0.56-0.137,0.844-0.188c0.556-0.117,1.108-0.221,1.769-0.357l0.372-0.063l-0.079,3.037
				c-0.083,0.068-0.174,0.137-0.255,0.16c-3.083,1.076-6.2,2.146-9.245,3.18c-1.684,0.564-3.354,0.934-5.131,1.137
				c-1.507,0.17-3.009,0.537-4.441,0.918c-0.616,0.152-1.236,0.313-1.849,0.453c-0.186,0.039-0.361,0.088-0.558,0.139
				c-0.266-0.43-0.25-0.916-0.198-1.625C264.568,388.241,264.611,387.641,264.437,387.042z M286.421,375.104
				c0.009,0.604-0.009,1.219-0.034,1.875c0,0.223-0.013,0.457-0.021,0.699c-0.072,0.051-0.188,0.127-0.224,0.143
				c-0.209,0.006-0.425,0.021-0.645,0.059c-0.779,0.111-1.512,0.359-2.222,0.604c-0.686,0.232-1.34,0.465-2.027,0.551l-0.054,0.021
				c-1.392,0.176-2.772,0.402-4.162,0.617l-0.927,0.156c-0.313,0.051-0.607,0.148-0.902,0.242c-0.556,0.197-1.116,0.4-1.661,0.6
				c-1.163,0.436-2.357,0.863-3.547,1.199c-1.371,0.367-2.75,0.639-4.199,0.934c-0.488,0.092-0.989,0.191-1.489,0.293
				c-0.277-1.152-0.176-2.258-0.087-3.414c0.049-0.451,0.087-0.926,0.103-1.404c0.334-0.07,0.651-0.145,0.965-0.211
				c1.084-0.25,2.1-0.492,3.126-0.758c0.546-0.143,1.065-0.342,1.562-0.512c0.202-0.078,0.408-0.162,0.625-0.234
				c0.213-0.08,0.433-0.162,0.646-0.242c0.446-0.174,0.872-0.338,1.292-0.438c0.147-0.031,0.289-0.059,0.43-0.096
				c0.896-0.197,1.818-0.391,2.66-1.084c0.225-0.172,0.6-0.246,1.005-0.338c0.238-0.051,0.474-0.094,0.712-0.162
				c0.703-0.221,1.381-0.506,2.046-0.76c1.175-0.48,2.303-0.918,3.5-1.1h0.027c0.21-0.033,0.436-0.07,0.644-0.104
				c0.427-0.072,0.845-0.146,1.279-0.176c0.833-0.057,1.285,0.266,1.447,1.025c0.125,0.574,0.134,1.223,0.134,1.854v0.16H286.421z
				 M265.142,397.196c-0.104-0.936-0.203-1.813-0.271-2.693c-0.021-0.219-0.011-0.352,0.416-0.496
				c2.423-0.82,4.735-1.383,7.057-1.715l0.419-0.063c3.005-0.432,5.253-1.059,7.288-2.021c1.072-0.5,2.239-0.898,3.365-1.27
				c0.544-0.191,1.104-0.377,1.645-0.578c0.474-0.158,0.854-0.146,1.241,0.074l0.11,3.576c-0.295,0.104-0.576,0.189-0.858,0.283
				c-0.835,0.271-1.628,0.523-2.427,0.752c-3.161,0.893-6.276,1.766-9.421,2.6c-0.731,0.191-1.487,0.34-2.229,0.48
				c-0.639,0.119-1.3,0.26-1.947,0.408c-0.782,0.199-1.491,0.461-2.104,0.787c-0.463,0.252-0.952,0.346-1.368,0.41
				c-0.188,0.018-0.36,0.043-0.557,0.063c-0.09,0.014-0.191,0.018-0.289,0.033C265.185,397.616,265.16,397.395,265.142,397.196z"/>
			<path fill="#FCFCFC" d="M245.867,389.526c-1.353-0.018-2.443-0.098-3.438-0.234c-0.987-0.131-1.612,0.135-2.08,0.848
				c-0.44,0.666-1.092,1.063-2.163,1.316c-1.498,0.342-3,0.752-4.432,1.205c-0.506,0.156-0.997,0.361-1.462,0.561
				c-0.489,0.207-0.961,0.406-1.449,0.539c-1.277,0.393-2.588,0.729-3.863,1.051c-0.497,0.133-0.982,0.266-1.475,0.389
				c-0.361,0.096-0.72,0.186-1.088,0.273l-0.114,0.029c-0.056-0.105-0.081-0.199-0.103-0.27c-0.35-1.572-1.272-2.365-2.799-2.441
				c-0.745-0.039-1.473-0.201-2.237-0.367c-0.301-0.061-0.588-0.119-0.871-0.186c-1.399-0.27-2.418,0.117-3.378,1.225l-0.229,0.279
				l0.184,0.314c0.109,0.193,0.217,0.4,0.306,0.602c0.26,0.541,0.521,1.096,1.01,1.43c0.518,0.355,0.79,0.76,0.941,1.395
				c0.195,0.76,0.365,1.586,0.539,2.605c0.26,1.439,0.403,2.93,0.553,4.361c0.195,1.918,0.399,3.889,0.842,5.813
				c0.396,1.73,0.629,3.529,0.871,5.277c0.114,0.861,0.229,1.717,0.361,2.564c0.085,0.533,0.163,1.094,0.348,1.619
				c0.354,0.979,1.055,1.457,1.951,1.326c0.251-0.035,0.521-0.123,0.795-0.262c0.123-0.053,0.233-0.119,0.34-0.193
				c0.146-0.09,0.293-0.168,0.396-0.191c2.402-0.391,4.402-1.633,6.209-2.914c1.321-0.961,2.809-1.539,4.446-2.15
				c0.764-0.289,1.563-0.533,2.336-0.777c0.477-0.148,0.947-0.297,1.414-0.449c0.261-0.094,0.52-0.203,0.778-0.297
				c0.446-0.184,0.854-0.35,1.27-0.434c0.082-0.02,0.166-0.033,0.243-0.039c0.273-0.037,0.357-0.01,0.357-0.01
				c0.038,0.029,0.102,0.191,0.187,0.684c0.323,1.963,0.647,2.273,2.618,2.627c0.107,0.016,0.208,0.031,0.314,0.041
				c1.923,0.207,4.321-1.383,4.096-3.66c-0.042-0.369-0.057-0.744-0.069-1.125c-0.015-0.408-0.031-0.842-0.082-1.271
				c-0.227-2.178-0.095-4.402,0.037-6.557c0.059-0.857,0.104-1.721,0.139-2.578c0.041-0.975,0.202-1.91,0.366-2.902
				c0.2-1.303,0.436-2.645,0.357-4.051c-0.008-0.174-0.021-0.365-0.021-0.543c-0.033-0.67-0.056-1.35-0.222-2.037
				C248.455,390.086,247.781,389.543,245.867,389.526z M226.083,409.862c-0.102-0.641-0.206-1.258-0.278-1.865
				c-0.281-2.338-0.547-5.121-0.463-7.984c0-0.193-0.02-0.396-0.026-0.604c-0.017-0.227-0.058-0.627,0.008-0.719
				c0.104-0.117,0.528-0.199,0.817-0.264c0.152-0.025,0.318-0.066,0.467-0.098c0.621-0.166,1.241-0.318,1.859-0.477
				c0.945-0.238,1.885-0.475,2.824-0.73c0.467-0.129,0.931-0.303,1.385-0.473c0.307-0.115,0.612-0.227,0.918-0.322
				c0.506-0.164,1.008-0.332,1.519-0.492c1.616-0.541,3.288-1.088,4.963-1.561c0.177-0.047,0.328-0.092,0.464-0.107
				c0.202-0.031,0.342-0.023,0.402,0.025c0.068,0.059,0.178,0.24,0.234,0.9c0.109,1.461,0.131,2.971,0.154,4.43l0.02,1.092
				c0.038,1.832,0.045,3.662,0.068,5.502l0.008,0.611c0,0.242-0.017,0.488-0.038,0.732c0,0.117-0.009,0.246-0.019,0.369
				c-0.059,1.109-0.78,1.924-1.938,2.158c-1.097,0.229-2.104,0.652-3.076,1.068c-0.859,0.369-1.675,0.707-2.542,0.916
				c-0.72,0.191-1.396,0.475-2.041,0.77c-0.815,0.352-1.579,0.678-2.421,0.803l-0.042,0.006c-0.611,0.088-1.155,0.396-1.684,0.689
				c-0.263,0.141-0.51,0.283-0.747,0.395c-0.13,0.059-0.272,0.09-0.44,0.141C226.599,413.032,226.344,411.426,226.083,409.862z"/>
			<path fill="#FCFCFC" d="M310.976,393.733c-0.49-0.967-1.108-1.885-1.701-2.768c-0.194-0.291-0.379-0.588-0.574-0.879
				c-0.615-0.947-1.385-1.43-2.35-1.475c-0.313-0.021-0.638-0.063-0.978-0.107c-0.62-0.096-1.259-0.186-1.903-0.098l-0.196,0.025
				c-2.091,0.301-4.023,0.965-3.969,3.732v0.324l0.304,0.133c0.186,0.07,0.374,0.141,0.556,0.207
				c0.344,0.115,0.653,0.234,0.87,0.393c1.415,1.172,2.555,2.58,3.388,4.201c0.642,1.25,0.994,1.553,2.434,1.467l0.069-0.004
				c0.215-0.02,0.421-0.033,0.557,0.021c0.417,0.141,0.86,0.186,1.313,0.113c0.606-0.086,1.155-0.348,1.652-0.613
				c0.596-0.32,1.251-1.172,1.238-1.889C311.686,395.62,311.419,394.602,310.976,393.733z"/>
		</g>
		<g>
			<path fill="#FCFCFC" d="M197.684,438.969c-0.626-0.063-1.283,0.025-1.941,0.234c-1.027,0.322-1.959,0.523-2.855,0.637
				c-0.869,0.104-1.78,0.18-2.646,0.264c-1.355,0.104-2.771,0.221-4.147,0.473c-1.012,0.168-1.674-0.039-2.52-0.822
				c-0.544-0.502-1.103-0.992-1.662-1.484c-0.773-0.678-1.563-1.383-2.316-2.098c-0.93-0.914-1.82-1.846-2.756-2.824
				c-0.257-0.27-0.526-0.559-0.783-0.83c0.027-0.025,0.067-0.055,0.094-0.08c0.526-0.4,1.07-0.771,1.607-1.164
				c1.154-0.818,2.361-1.664,3.447-2.619c2.203-1.941,4.018-4.18,5.994-6.688c1.065-1.33,0.964-2.971-0.242-4.365
				c-1.505-1.74-3.482-2.25-5.244-2.596c-0.302-0.066-0.563-0.105-0.813-0.123c-1.396-0.113-2.292,0.42-3.104,1.838
				c-0.256,0.455-0.451,0.928-0.65,1.373c-0.128,0.295-0.247,0.605-0.389,0.887c-0.883,1.783-2.246,3.174-3.691,4.629
				c-0.234,0.238-0.476,0.486-0.709,0.729c-0.383,0.396-0.815,0.746-1.267,1.105c-0.045,0.029-0.092,0.072-0.139,0.1
				c-2.602-3.576-6.032-11.402-6.417-14.104c0.027,0,0.054,0,0.079-0.01c0.51-0.064,0.998-0.119,1.464-0.094
				c0.608,0.027,1.213,0.053,1.813,0.104c0.742,0.053,1.4,0.139,1.997,0.234c0.856,0.154,1.745,0.271,2.688,0.346
				c2.707,0.215,5.438,0.088,8.082-0.043c0.789-0.035,1.581-0.074,2.372-0.104c1.15-0.045,2.312-0.09,3.456-0.145
				c2.62-0.104,5.318-0.225,7.965-0.236c1.405-0.021,2.556-0.43,3.617-1.277l0.323-0.264l-0.11-0.404
				c-0.613-2.209-1.271-3.172-2.915-4.289c-0.094-0.063-0.184-0.129-0.286-0.193c-0.332-0.209-0.648-0.416-0.845-0.656
				c-0.791-0.99-1.84-1.402-2.839-1.801l-0.441-0.178c-1.61-0.672-2.962-0.271-4.153,1.25c-0.415,0.52-0.86,1.039-1.303,1.551
				c-0.399,0.475-0.813,0.959-1.211,1.449c-0.378,0.475-0.652,0.623-1.109,0.604c-1.046-0.053-2.091,0-3.11,0.041l-0.506,0.027
				c-0.412,0.021-0.799,0.049-1.203,0.096c-0.61,0.057-1.186,0.113-1.75,0.088c-2.351-0.072-4.697-0.176-7.055-0.281
				c-1.934-0.08-3.889-0.166-5.817-0.236c-0.271-0.004-0.492-0.021-0.677-0.035c-0.59-0.047-0.59-0.047-0.782-1.215
				c-0.077-0.498-0.115-1.014-0.146-1.547c-0.049-0.947-0.119-1.912-0.447-2.816c-0.444-1.191-0.501-2.383-0.557-3.658
				c-0.029-0.426-0.042-0.842-0.08-1.266c-0.058-0.754-0.098-1.502-0.134-2.285c0-0.154-0.012-0.307-0.021-0.465l3.066-0.092
				c4.18-0.121,8.378-0.25,12.594-0.365c0.325-0.018,0.658,0.016,0.971,0.055c-0.011,0.172-0.022,0.338-0.042,0.504
				c-0.063,0.748-0.135,1.449-0.139,2.145c-0.051,1.584,0.663,2.594,1.902,2.684c0.442,0.033,0.94-0.049,1.468-0.256
				c0.925-0.354,1.853-0.797,2.839-1.348c0.484-0.27,1.177-0.707,1.46-1.346l0.199-0.438c0.689-1.527,1.413-3.1,1.858-4.748
				c0.399-1.543,0.713-3.119,0.999-4.662c0.175-0.904,0.341-1.805,0.535-2.697c0.054-0.234,0.168-0.479,0.287-0.758
				c0.176-0.387,0.376-0.838,0.41-1.332c0.11-2.055,0.72-3.963,1.355-5.979c0.416-1.279,0.827-2.607,1.108-3.955
				c0.371-1.754,0.79-3.438,1.975-4.762c0.138-0.152,0.443-0.543,0.479-1.008c0.016-0.221,0.054-0.473,0.104-0.713
				c0.136-0.809,0.271-1.641-0.161-2.242c-0.914-1.27-1.986-2.537-3.682-3.246c-1.702-0.717-3.416-0.984-5.346-0.822
				c-0.578,0.049-1.175,0.154-1.733,0.25c-0.598,0.107-1.165,0.207-1.733,0.242c-3.099,0.225-6.256,0.385-9.314,0.543l-0.162,0.006
				c-2.123,0.109-4.258,0.211-6.394,0.311l-3.247,0.141c-0.063,0.01-0.15,0-0.223,0c-0.271-0.01-0.62-0.02-0.945,0.152
				c-1.018,0.576-2.148,0.557-3.338,0.547c-0.387-0.012-0.795-0.012-1.203,0.002c0.922-0.33,1.729-0.828,2.518-1.314
				c0.359-0.221,0.724-0.443,1.096-0.646c0.671-0.375,1.438-0.611,2.104-0.66c1.649-0.115,3.117-0.691,4.538-1.25
				c0.686-0.271,1.392-0.545,2.087-0.752c0.229-0.074,0.403-0.178,0.571-0.27c0.309-0.148,0.434-0.209,0.67-0.135
				c0.688,0.201,1.865-0.391,2.182-1.063c0.61-1.32,1.664-2.264,2.79-3.254c0.276-0.248,0.558-0.492,0.82-0.74
				c1.041-0.967,1.364-1.98,1.05-3.273c-0.102-0.441-0.242-0.869-0.37-1.283c1.842,0.045,3.774,0.098,5.705,0.242
				c1.896,0.154,3.576,0.387,5.153,0.703c0.407,0.092,0.871,0.092,1.2-0.027c0.602-0.217,1.229-0.283,1.991-0.217
				c0.313,0.021,0.646,0.076,1.041,0.141c0.87,0.148,1.86-0.184,2.581-0.85c0.571-0.537,0.896-1.186,0.878-1.852
				c-0.016-1.541-0.285-3.445-2.267-4.521l-0.116-0.055c-1.046-0.564-2.042-1.094-2.479-2.189c-0.166-0.432-0.596-0.67-0.922-0.852
				l-0.175-0.096c-0.45-0.268-0.936-0.432-1.438-0.467c-0.967-0.078-1.836,0.279-2.637,0.652l-0.248,0.104l-0.086,0.262
				c-0.611,1.727-0.869,2.074-2.332,3.113c-0.081,0.064-0.185,0.115-0.277,0.182c-0.293,0.184-0.626,0.383-0.856,0.721
				c-0.334,0.51-0.706,0.586-1.624,0.533c-2.882-0.135-5.797-0.195-8.605-0.25c-3.396-0.068-6.938-0.127-10.534-0.164
				c-2.295-0.029-4.69-0.029-7.352-0.004c-0.502,0.004-0.99,0.029-1.474,0.061c-0.821,0.063-1.603,0.115-2.36,0.021
				c-0.233-0.021-0.441-0.051-0.629-0.063c-0.681-0.059-1.355-0.043-1.831,0.418c-0.506,0.49-0.58,1.252-0.536,2.594l0.018,0.547
				l0.537,0.07c0.495,0.057,0.988,0.154,1.481,0.24c1.188,0.223,2.507,0.41,3.553,0.316c2.895-0.27,5.847-0.195,8.69-0.137
				c0.725,0.02,1.446,0.043,2.157,0.051c0.427,0.002,0.876,0.021,1.427,0.07c0.394,0.027,0.806,0.064,1.205,0.105
				c0.264,0.027,0.521,0.057,0.772,0.082c0.527,1.182,0.378,2.041-0.44,2.811c-0.404,0.359-0.791,0.725-1.183,1.094
				c-0.978,0.916-1.983,1.879-3.009,2.777c-0.54,0.455-1.205,0.822-1.864,1.189l-0.138,0.078c-0.775,0.43-1.563,0.85-2.351,1.27
				c-1.513,0.803-3.072,1.635-4.567,2.563c-0.925,0.574-1.738,0.799-2.69,0.734c-0.447-0.035-0.896-0.129-1.372-0.23
				c-0.201-0.041-0.403-0.088-0.621-0.125c-0.402-0.076-0.746-0.115-1.062-0.145c-0.655-0.061-1.588-0.047-2.134,0.619
				c-0.612,0.764-0.365,1.955-0.038,3.008c0.391,1.256,0.51,2.52,0.395,3.992l-0.119,1.625c-0.21,2.803-0.424,5.703-0.702,8.547
				c-0.163,1.82-0.356,3.619-0.547,5.439c-0.283,2.773-0.586,5.656-0.801,8.482c-0.094,1.109,0.146,2.203,0.39,3.256
				c0.056,0.258,0.121,0.506,0.168,0.756c0.138,0.652,0.979,1.002,1.238,1.102c0.556,0.188,1.104,0.311,1.646,0.352l0.093,0.006
				c0.931,0.055,1.849,0.074,2.819,0.105c0.24,0.002,0.491,0.014,0.737,0.016c0.065,0.164,0.123,0.318,0.197,0.475
				c0.24,0.633,0.473,1.238,0.591,1.844c0.222,1.111,0.39,2.246,0.547,3.365c0.118,0.867,0.245,1.738,0.407,2.613
				c0.163,1.004,0.388,1.988,0.616,3.027c0.055,0.273,0.125,0.547,0.176,0.832c-0.121,0.035-0.21,0.064-0.281,0.07
				c-0.554,0.012-1.104,0.027-1.659,0.033c-0.814,0.014-1.655,0.027-2.497,0.078c-2.828,0.199-5.705,0.443-8.49,0.68l-1.156,0.09
				c-1.063,0.082-2.087,0.195-3.062,0.322c-0.546,0.064-1.005,0.328-1.313,0.727c-0.295,0.389-0.425,0.867-0.353,1.379
				c0.103,0.688,0.905,1.383,1.545,1.51c0.725,0.154,1.479,0.1,2.203,0.057l0.268-0.016c0.464-0.039,0.905-0.076,1.368-0.141
				c0.563-0.066,1.097-0.125,1.635-0.148c1.549-0.041,3.089-0.066,4.637-0.105c2.459-0.053,4.994-0.111,7.503-0.219
				c0.707-0.021,1.067,0.129,1.377,0.764c0.185,0.391,0.378,0.77,0.576,1.154c0.376,0.746,0.744,1.451,1.021,2.189
				c1.305,3.381,2.958,6.637,5.07,9.98c0.797,1.254,1.517,2.555,2.265,3.908c0.269,0.48,0.535,0.961,0.792,1.443
				c-0.163,0.188-0.31,0.346-0.447,0.422c-0.715,0.398-1.424,0.813-2.125,1.229c-2.098,1.195-4.25,2.428-6.442,3.479
				c-1.265,0.605-2.687,1.002-4.061,1.4c-0.6,0.18-1.201,0.346-1.802,0.529c-0.51,0.164-1.713,0.549-1.732,1.912
				c0,1.08,0.724,1.873,1.908,2.057c1.118,0.162,2.091,0.227,2.976,0.162c1.095-0.078,2.192-0.176,3.271-0.281
				c1.372-0.127,2.796-0.266,4.203-0.324c1.211-0.059,2.267-0.383,3.312-1.033c1.472-0.908,2.986-1.795,4.452-2.65
				c0.457-0.27,0.924-0.543,1.383-0.813l1.324,1.217c1.211,1.107,2.381,2.182,3.554,3.258c0.947,0.863,1.917,1.717,2.863,2.563
				c2.129,1.893,4.328,3.844,6.35,5.885c1.471,1.482,3.063,1.791,4.447,1.895c0.389,0.027,0.783,0.045,1.182,0.053
				c0.712,0.02,1.441-0.154,2.019-0.465c1.702-0.947,3.155-1.822,4.427-2.672c2.55-1.719,4.329-4.166,6.061-6.547l0.459-0.629
				l-0.43-0.387C200.126,439.653,198.964,439.065,197.684,438.969z M152.716,376.2c0.112-0.01,0.225-0.023,0.327-0.043
				c0.637-0.104,1.236-0.201,1.831-0.238c1.25-0.072,2.512-0.125,3.753-0.174c2.469-0.09,5.031-0.188,7.53-0.51
				c2.427-0.328,5.062-0.354,8.277-0.105c0.275,0.025,0.558,0.049,0.839,0.074l0.112,0.01c0.644,0.053,1.275,0.035,1.896,0.031
				c0.356-0.01,0.723-0.01,1.084,0c0.723,0.004,1.433,0.039,2.265,0.061l0.479,0.018l-0.942,3.705
				c-0.106,0.061-0.249,0.131-0.347,0.131c-4.089,0.469-8.206,0.912-12.239,1.334c-2.218,0.234-4.377,0.227-6.611-0.037
				c-1.897-0.209-3.838-0.146-5.71-0.107c-0.806,0.029-1.596,0.045-2.393,0.047c-0.24,0-0.471,0.008-0.723,0.029
				c-0.207-0.611-0.045-1.203,0.201-2.055C152.541,377.713,152.766,376.995,152.716,376.2z M183.028,367.672
				c-0.166,0.74-0.361,1.488-0.574,2.279c-0.067,0.273-0.141,0.563-0.217,0.848c-0.099,0.051-0.256,0.119-0.311,0.115
				c-0.26-0.047-0.529-0.086-0.818-0.1c-0.987-0.088-1.947,0.014-2.884,0.119c-0.917,0.1-1.784,0.191-2.646,0.131l-0.072-0.016
				c-1.755-0.162-3.522-0.271-5.282-0.377l-1.173-0.084c-0.395-0.02-0.786,0.016-1.182,0.061c-0.739,0.078-1.473,0.176-2.209,0.273
				c-1.539,0.203-3.128,0.402-4.683,0.48c-1.772,0.076-3.553,0.031-5.42-0.025c-0.629-0.02-1.258-0.035-1.908-0.051
				c-0.015-1.488,0.41-2.814,0.86-4.207c0.168-0.549,0.347-1.107,0.504-1.691c0.421,0,0.833-0.014,1.236-0.014
				c1.407,0,2.71-0.002,4.061-0.045c0.695-0.025,1.379-0.113,2.059-0.203c0.263-0.039,0.539-0.08,0.809-0.117
				c0.287-0.029,0.587-0.068,0.871-0.104c0.6-0.105,1.165-0.182,1.713-0.182c0.184-0.002,0.37,0,0.544,0
				c1.156,0.014,2.352,0.033,3.569-0.592c0.325-0.156,0.815-0.148,1.335-0.131c0.302,0,0.606,0.012,0.913-0.02
				c0.914-0.072,1.843-0.217,2.721-0.361c1.58-0.25,3.076-0.492,4.614-0.361h0.027c0.277,0.014,0.541,0.031,0.822,0.047
				c0.535,0.029,1.083,0.057,1.608,0.143c1.045,0.166,1.498,0.678,1.498,1.668c-0.009,0.75-0.188,1.535-0.341,2.307L183.028,367.672
				z M150.757,388.872c0.136-1.178,0.259-2.279,0.429-3.381c0.034-0.264,0.079-0.438,0.646-0.488
				c3.188-0.35,6.185-0.385,9.146-0.158l0.518,0.045c3.819,0.307,6.744,0.166,9.509-0.457c1.459-0.324,2.996-0.475,4.485-0.635
				c0.727-0.064,1.462-0.139,2.183-0.23c0.609-0.08,1.07,0.045,1.498,0.422l-0.867,4.432c-0.383,0.029-0.748,0.063-1.118,0.096
				c-1.103,0.111-2.146,0.203-3.185,0.254c-4.146,0.229-8.202,0.436-12.301,0.58c-0.952,0.027-1.926,0-2.866-0.025
				c-0.816-0.027-1.668-0.049-2.501-0.045c-1.017,0.025-1.968,0.148-2.813,0.391c-0.633,0.176-1.256,0.15-1.784,0.109
				c-0.228-0.012-0.456-0.043-0.7-0.066c-0.119-0.01-0.238-0.025-0.368-0.035C150.701,389.399,150.73,389.125,150.757,388.872z"/>
			<path fill="#FCFCFC" d="M129.215,374.102c-1.636-0.404-2.957-0.789-4.139-1.238c-1.169-0.449-2.022-0.285-2.794,0.451
				c-0.735,0.707-1.63,1-3.017,1.018c-1.943,0.008-3.888,0.098-5.783,0.246c-0.653,0.057-1.313,0.178-1.945,0.291
				c-0.668,0.123-1.29,0.234-1.931,0.275c-1.674,0.113-3.383,0.166-5.04,0.209c-0.638,0.021-1.273,0.043-1.919,0.059
				c-0.459,0.027-0.93,0.029-1.399,0.041h-0.156c-0.03-0.137-0.045-0.262-0.045-0.357c0-2.027-0.898-3.258-2.769-3.777
				c-0.896-0.252-1.738-0.645-2.646-1.066c-0.342-0.154-0.672-0.316-1.018-0.473c-1.623-0.713-2.996-0.529-4.479,0.57l-0.365,0.281
				l0.139,0.436c0.086,0.262,0.148,0.547,0.211,0.82c0.17,0.736,0.336,1.48,0.842,2.029c0.545,0.604,0.767,1.156,0.777,1.971
				c0.021,0.988-0.012,2.059-0.063,3.354c-0.092,1.836-0.317,3.705-0.54,5.514c-0.285,2.398-0.584,4.879-0.584,7.363
				c0.013,2.229-0.19,4.521-0.396,6.717c-0.095,1.09-0.195,2.182-0.271,3.264c-0.045,0.682-0.087,1.375-0.007,2.084
				c0.148,1.287,0.884,2.08,2.015,2.158c0.327,0.035,0.677-0.008,1.059-0.09c0.156-0.039,0.313-0.09,0.468-0.148
				c0.202-0.068,0.41-0.135,0.529-0.127c3.062,0.186,5.865-0.781,8.423-1.865c1.918-0.795,3.873-1.105,6.069-1.395
				c1.021-0.133,2.069-0.229,3.081-0.309c0.616-0.057,1.236-0.104,1.856-0.158c0.354-0.039,0.703-0.09,1.059-0.15
				c0.582-0.1,1.126-0.182,1.662-0.166c0.112,0,0.224,0.008,0.314,0.016c0.352,0.029,0.433,0.066,0.433,0.066
				c0.049,0.066,0.077,0.271,0.038,0.91c-0.14,2.496,0.17,2.975,2.499,3.945c0.119,0.057,0.249,0.1,0.368,0.145
				c2.295,0.801,5.68-0.498,6.038-3.365c0.07-0.465,0.143-0.916,0.235-1.4c0.099-0.51,0.204-1.037,0.26-1.572
				c0.309-2.734,1.104-5.436,1.864-8.045c0.304-1.047,0.608-2.072,0.876-3.121c0.318-1.18,0.77-2.287,1.249-3.473
				c0.623-1.537,1.279-3.131,1.564-4.859c0.038-0.223,0.085-0.451,0.131-0.684c0.158-0.82,0.303-1.67,0.303-2.564
				C132.26,375.514,131.574,374.659,129.215,374.102z M99.285,393.575c0.058-0.811,0.094-1.586,0.177-2.361
				c0.316-2.953,0.759-6.441,1.655-9.938c0.055-0.234,0.094-0.488,0.131-0.744c0.039-0.27,0.11-0.787,0.222-0.883
				c0.146-0.113,0.696-0.098,1.054-0.082c0.214,0,0.429,0.006,0.621,0c0.804-0.016,1.603-0.045,2.413-0.068
				c1.225-0.029,2.443-0.059,3.672-0.115c0.612-0.033,1.232-0.107,1.823-0.191c0.408-0.053,0.813-0.109,1.217-0.146
				c0.67-0.063,1.324-0.121,1.991-0.184c2.14-0.205,4.346-0.402,6.532-0.543c0.229-0.004,0.434-0.004,0.599,0
				c0.259,0.02,0.425,0.082,0.489,0.154c0.067,0.084,0.156,0.338,0.038,1.154c-0.27,1.842-0.655,3.703-1.035,5.494l-0.28,1.342
				c-0.461,2.268-0.949,4.521-1.45,6.768l-0.157,0.758c-0.072,0.303-0.155,0.598-0.238,0.891c-0.047,0.152-0.093,0.303-0.132,0.455
				c-0.378,1.348-1.5,2.141-2.978,2.109c-1.417-0.023-2.762,0.219-4.082,0.457c-1.161,0.207-2.252,0.408-3.374,0.416
				c-0.938,0.025-1.849,0.207-2.718,0.375c-1.092,0.215-2.12,0.402-3.185,0.313l-0.063-0.006c-0.777-0.057-1.529,0.172-2.253,0.389
				c-0.365,0.104-0.703,0.209-1.037,0.273c-0.17,0.037-0.353,0.047-0.564,0.055C99.055,397.612,99.175,395.569,99.285,393.575z"/>
			<path fill="#FCFCFC" d="M208.003,397.354c-0.347-1.332-0.842-2.625-1.326-3.877c-0.157-0.412-0.318-0.816-0.463-1.238
				c-0.499-1.33-1.303-2.148-2.469-2.463c-0.393-0.113-0.771-0.258-1.179-0.41c-0.734-0.281-1.506-0.561-2.319-0.637l-0.239-0.023
				c-2.654-0.199-5.217,0.064-5.918,3.471l-0.087,0.408l0.346,0.246c0.191,0.146,0.415,0.275,0.627,0.404
				c0.38,0.232,0.741,0.457,0.948,0.732c1.41,1.82,2.42,3.879,2.993,6.1c0.446,1.701,0.788,2.18,2.58,2.467l0.093,0.02
				c0.256,0.047,0.527,0.074,0.674,0.18c0.472,0.287,1.01,0.461,1.579,0.502c0.779,0.063,1.521-0.105,2.205-0.297
				c0.812-0.225,1.859-1.078,2.053-1.971C208.334,399.86,208.306,398.543,208.003,397.354z"/>
		</g>
	</g>
	<g>
		<path fill="#FCFCFC" d="M291.618,262.338c-0.396-2.004-0.773-3.496-0.986-5.027c-0.231-1.701-0.372-3.416-0.478-5.127
			c-0.101-1.73-0.168-3.475-0.151-5.205c0.052-3.492,0.706-6.855,1.874-10.17c0.916-2.656,1.26-5.527,2.291-8.143
			c0.817-2.088,2.106-4.051,3.438-5.889c3.088-4.27,6.659-8.141,10.492-11.757c0.836-0.795,1.726-1.556,2.678-2.208
			c2.563-1.75,4.131-4.82,7.487-5.545c0.807-0.176,1.471-0.891,2.248-1.271c2.818-1.379,5.648-2.736,8.488-4.092
			c0.135-0.062,0.283-0.146,0.428-0.179c1.918-0.397,3.826-0.792,5.73-1.179c4.432-0.897,8.799-0.5,13.166,0.478
			c1.064,0.242,2.178,0.255,3.264,0.438c1.154,0.189,2.33,0.349,3.432,0.714c2.537,0.842,5.086,1.664,7.52,2.739
			c4.396,1.929,8.924,3.759,11.139,8.561c1.09,2.355,2.09,4.771,3.416,7.006c1.186,1.998,1.971,4.068,2.24,6.371
			c0.051,0.453,0.264,0.934,0.545,1.293c1.627,2.055,1.707,4.447,1.809,6.908c0.145,3.543,0.523,7.074,0.672,10.619
			c0.131,3.164,0.102,6.33,0.094,9.49c-0.012,2.201-0.324,4.426-0.111,6.6c0.256,2.641,0.904,5.24,1.385,7.854
			c0.338,1.76,0.314,3.529,0.914,5.287c0.939,2.811,1.455,5.617,3.576,8.033c1.758,2.004,3.92,3.639,5.41,5.875
			c0.256,0.396,0.807,0.684,0.879,1.082c0.479,2.48,2.387,4.041,3.771,5.908c0.605,0.822,0.883,1.609,0.846,2.6
			c-0.102,2.994-0.133,5.98-0.24,8.973c0,0.365-0.229,0.723-0.383,1.064c-0.213,0.498-0.682,0.994-0.676,1.488
			c0.066,3.58-2.75,4.957-5.074,6.617c-3.574,2.553-7.889,3.484-11.918,5.016c-0.143,0.063-0.305,0.094-0.457,0.094
			c-5.801-0.111-11.756,0.48-16.605-3.791c-1.533-1.355-3.041-2.742-4.566-4.107c-0.227-0.221-0.426-0.498-0.695-0.646
			c-3.682-2.031-5.154-5.75-6.99-9.186c-1.73-3.24-3.361-6.541-5.143-10.018c-0.686,0.416-1.125,0.662-1.547,0.959
			c-0.119,0.076-0.137,0.313-0.266,0.371c-2.393,1.25-3.986,3.5-6.162,5.012c-1.953,1.357-3.959,2.492-6.225,3.303
			c-1.736,0.621-3.252,1.838-4.895,2.752c-1.91,1.082-3.736,2.352-5.973,2.725c-0.459,0.068-1.002,0.215-1.313,0.504
			c-1.686,1.6-3.896,1.408-5.91,1.885c-0.451,0.109-0.91,0.25-1.369,0.326c-1.467,0.238-2.934,0.508-4.408,0.654
			c-4.395,0.42-8.78,0.795-13.172,1.191c-0.389,0.031-0.793,0.168-1.167,0.113c-3.587-0.486-7.288,0.064-10.807-1.082
			c-2.091-0.68-4.153-1.459-6.161-2.336c-1.924-0.854-4.091-1.328-5.495-3.127c-0.161-0.213-0.56-0.254-0.867-0.338
			c-5.321-1.561-9.938-4.42-14.04-8.059c-1.86-1.666-3.366-3.766-4.854-5.797c-1.597-2.145-2.896-4.502-4.483-6.646
			c-1.581-2.145-3.374-4.127-5.093-6.16c-0.296-0.371-0.617-0.777-1.016-0.975c-1.947-0.984-2.806-2.938-3.926-4.572
			c-1.135-1.658-1.737-3.678-2.57-5.545c-0.265-0.582-0.384-1.285-0.813-1.699c-1.249-1.23-1.39-2.809-1.352-4.344
			c0.024-1.008-0.244-1.625-0.922-2.262c-0.571-0.531-1.138-1.117-1.496-1.789c-1.921-3.564-3.38-7.27-3.724-11.383
			c-0.217-2.59-0.882-5.139-1.224-7.721c-0.283-2.182-0.497-4.391-0.537-6.596c-0.066-4.535-0.205-9.092,0.078-13.619
			c0.195-3.037,1.113-6.027,1.627-9.057c0.426-2.553,0.869-5.129,1.029-7.705c0.145-2.316,0.487-4.496,1.316-6.688
			c0.673-1.73,0.915-3.635,1.391-5.449c0.78-2.961,1.249-5.99,2.707-8.766c1.201-2.285,2.11-4.715,3.19-7.061
			c1.551-3.359,3.089-6.708,4.708-10.018c0.992-2.043,2.129-4.012,3.225-6.004c1.728-3.205,4.043-5.933,6.725-8.393
			c0.67-0.621,1.028-1.572,1.653-2.273c2.08-2.354,4.175-4.701,6.332-6.996c0.757-0.787,1.8-1.312,2.565-2.09
			c1.538-1.551,3.061-3.143,4.422-4.849c1.659-2.065,3.717-3.531,5.952-4.875c1.533-0.933,2.834-2.248,4.359-3.173
			c3.204-1.936,6.188-4.287,9.851-5.373c0.493-0.146,0.89-0.618,1.379-0.844c0.899-0.432,1.825-0.799,2.752-1.16
			c0.516-0.203,1.098-0.258,1.557-0.537c4.392-2.573,9.094-4.156,14.163-4.738c1.313-0.16,2.599-0.695,3.925-0.882
			c4.439-0.649,8.867-0.655,13.267,0.455c2.215,0.56,4.471,0.913,6.662,1.513c2.041,0.572,4.088,1.196,6.018,2.051
			c1.803,0.801,3.629,1.334,5.512,1.855c2.52,0.705,4.908,2.107,7.131,3.552c4.244,2.757,7.102,6.874,9.982,10.916
			c0.576,0.815,0.867,1.845,1.227,2.802c0.535,1.481,0.947,3.01,1.549,4.463c0.646,1.574,0.93,3.024,0.404,4.785
			c-0.49,1.614-0.365,3.414-0.404,5.137c-0.129,5.479-2.566,10.107-5.313,14.634c-0.268,0.448-0.723,0.952-1.184,1.106
			c-2.594,0.867-4.809,2.327-6.82,4.133c-1.729,1.554-3.965,2.164-5.951,3.25c-3.17,1.744-6.48,1.939-10.008,1.744
			c-3.77-0.215-7.568,0.021-11.363,0.033c-0.93,0.008-1.854-0.1-2.779-0.087c-5.691,0.054-11.239,1.259-16.795,2.304
			c-0.754,0.143-1.453,0.6-2.192,0.86c-1.621,0.58-3.318,1.003-4.878,1.733c-1.836,0.869-3.63,1.894-5.295,3.043
			c-3.041,2.076-5.991,4.227-8.604,6.908c-2.215,2.279-3.736,4.889-5.495,7.446c-1.938,2.843-3.202,5.916-4.568,8.988
			c-0.187,0.431-0.4,0.87-0.468,1.319c-0.671,5.129-1.715,10.168-2.016,15.383c-0.372,6.502,1.079,12.455,3.259,18.396
			c0.188,0.504,0.396,1.031,0.457,1.564c0.153,1.203,0.34,2.328,1.534,3.031c0.36,0.203,0.604,0.73,0.752,1.152
			c0.918,2.738,2.635,5.006,4.229,7.334c1.274,1.861,2.622,3.67,4.075,5.426C284.06,259.182,287.886,260.176,291.618,262.338z
			 M231.054,231.624c0.121,1.752,0.229,3.953,0.406,6.146c0.161,1.879,0.336,3.758,0.633,5.617c0.251,1.641,0.633,3.26,1.041,4.865
			c0.276,1.121,0.748,2.205,1.024,3.33c0.232,0.934,0.345,1.959,1.381,2.313c1.231,0.426,1.624,1.383,2.021,2.445
			c0.605,1.656,1.214,3.316,1.915,4.936c0.374,0.848,0.889,1.652,1.424,2.414c1.505,2.117,3,4.232,4.572,6.297
			c1.13,1.5,2.38,2.906,3.548,4.383c0.545,0.674,0.984,1.434,1.519,2.105c1.516,1.902,3.204,3.68,4.547,5.686
			c1.76,2.637,3.522,5.232,5.647,7.566c0.685,0.758,1.437,1.518,2.328,1.988c2.849,1.482,5.322,3.531,8.437,4.691
			c3.64,1.361,6.932,3.666,10.45,5.379c1.602,0.781,3.378,1.465,5.117,1.627c3.285,0.307,6.603,0.289,9.908,0.234
			c2.282-0.039,4.549-0.477,6.84-0.574c4.842-0.209,9.559-1.135,14.167-2.586c1.703-0.535,3.326-1.426,4.918-2.277
			c1.801-0.953,3.41-2.396,5.309-2.99c3.744-1.199,6.625-3.568,9.477-6.049c1.648-1.436,3.145-3.143,4.979-4.281
			c4.773-2.943,9.139-6.15,11.195-11.67c1.311-3.533,2.924-6.975,4.115-10.539c2.195-6.578,1.805-13.135-0.564-19.635
			c-0.842-2.316-2.484-3.996-4.59-4.727c-2.83-0.965-5.895-0.811-8.869-0.256c-1.311,0.248-2.219,1.018-3.088,2.029
			c-1.688,2.027-3.145,4.146-3.713,6.768c-3.248,3.598-4.91,8.385-8.77,11.535c-1.213,0.977-2.129,2.307-3.34,3.307
			c-1.445,1.191-2.953,2.402-4.619,3.225c-1.668,0.82-2.768,2.336-4.564,3.066c-1.688,0.688-3.338,1.645-5.122,1.65
			c-2.125,0.012-4.198,0.289-6.293,0.404c-3.352,0.199-6.762,0.275-10.076-0.553c-2.205-0.551-4.479-0.873-6.62-1.586
			c-2.498-0.838-4.955-1.906-6.935-3.764c-0.396-0.369-0.911-0.621-1.374-0.932c-2.161-1.424-4.267-2.906-5.687-5.158
			c-0.412-0.658-0.707-1.445-1.249-1.975c-3.03-3.012-4.819-6.793-6.63-10.563c-0.195-0.43-0.392-0.854-0.573-1.285
			c-1.267-3.049-2.826-6.021-3.731-9.168c-1.555-5.563-2.238-11.281-2.099-17.07c0.034-1.172,0.276-2.33,0.356-3.502
			c0.264-4.072,0.67-8.108,2.58-11.83c0.274-0.551,0.389-1.199,0.548-1.812c1.249-4.755,3.313-9.124,5.998-13.239
			c2.335-3.578,4.952-6.852,8.627-9.193c2.118-1.354,4.039-3.11,6.271-4.229c5.928-2.958,12.047-5.493,18.568-6.862
			c1.454-0.309,2.95-0.388,4.435-0.563c1.857-0.206,3.71-0.724,5.609-0.22c0.256,0.066,0.588-0.207,0.891-0.256
			c0.688-0.133,1.369-0.303,2.068-0.303c3.539-0.051,7.094-0.098,10.641-0.062c1.648,0.022,3.301,0.338,4.934,0.274
			c2.119-0.07,4.445,0.112,6.293-0.697c4.164-1.844,8.098-4.273,11.502-7.34c0.996-0.885,1.67-2.299,2.072-3.602
			c0.672-2.166,0.979-4.456,1.504-6.674c0.703-3.059,0.477-6.137-0.25-9.104c-0.691-2.783-1.893-5.338-3.479-7.854
			c-2.521-4.001-5.652-7.095-9.723-9.373c-0.816-0.459-1.596-1.032-2.461-1.388c-2.225-0.904-4.529-1.637-6.732-2.608
			c-3.422-1.511-6.975-2.483-10.686-2.812c-3.303-0.277-6.598-0.188-9.926,0.074c-5.134,0.408-9.736,2.414-14.502,3.948
			c-1.09,0.345-2.042,1.124-3.104,1.619c-1.698,0.784-3.54,1.339-5.145,2.293c-2.625,1.574-5.156,3.308-7.646,5.112
			c-4.22,3.058-8.448,6.092-12.082,9.887c-1.845,1.917-3.852,3.704-5.656,5.665c-2.196,2.364-4.039,5.112-6.438,7.239
			c-2.863,2.514-4.54,5.826-6.614,8.828c-1.852,2.668-2.917,5.891-4.266,8.895c-0.387,0.846-0.313,1.975-0.863,2.646
			c-1.689,2.097-1.062,5.117-2.994,7.074c-0.078,0.078,0.043,0.312,0.013,0.457c-0.132,0.764-0.221,1.541-0.429,2.277
			c-0.909,3.174-2.049,6.303-2.724,9.523c-0.918,4.402-1.483,8.871-2.193,13.303c-0.569,3.502-1.22,6.992-1.679,10.512
			c-0.289,2.262-0.251,4.555-0.477,6.838C231.967,224.348,231.515,227.75,231.054,231.624z M377.596,311.614
			c0-0.061,0-0.125,0-0.189c1.254,0,2.521,0.045,3.781-0.01c2.869-0.117,5.189-1.646,7.535-3.047
			c0.787-0.471,1.797-1.131,2.01-1.889c0.82-2.973,1.346-6.035,0.473-9.105c-1.156-4.174-3.719-7.629-5.996-11.223
			c-0.275-0.438-0.787-0.793-1.281-1.014c-1.307-0.594-2.072-1.68-2.738-2.855c-0.99-1.756-2.012-3.49-2.813-5.334
			c-0.795-1.791-1.553-3.67-1.881-5.582c-0.684-3.949-1.145-7.928-1.576-11.922c-0.217-2.021-0.201-4.08-0.199-6.117
			c0-1.576,0.309-3.154,0.248-4.73c-0.148-4.154-0.309-8.324-0.688-12.469c-0.297-3.129-0.691-6.285-1.498-9.299
			c-0.834-3.098-1.957-6.139-3.611-8.951c-0.5-0.857-0.449-2.129-1.068-2.84c-2.211-2.535-3.898-5.623-6.984-7.297
			c-1.371-0.752-2.885-1.252-4.287-1.955c-2.248-1.131-4.758-1.433-7.105-2.283c-2.551-0.918-5.4-1.008-8.127-1.4
			c-2.145-0.32-4.342-0.947-6.4,0.439c-0.289,0.201-0.764,0.143-1.16,0.168c-1.266,0.082-2.457,0.281-3.6,0.984
			c-0.848,0.522-1.932,0.654-2.877,1.016c-1.184,0.445-2.578,0.701-3.432,1.502c-1.16,1.094-2.498,1.578-3.885,2.084
			c-0.342,0.127-0.85,0.23-0.984,0.498c-0.932,1.76-2.762,2.65-4.244,3.547c-4.406,2.65-8.131,5.955-11.178,10.012
			c-2.129,2.828-4.093,5.738-5.062,9.303c-1.037,3.863-1.821,7.785-2.747,11.674c-1.001,4.172-0.508,8.318,0.301,12.455
			c0.211,1.076,3.357,6.043,4.223,6.633c0.312,0.203,0.705,0.314,1.081,0.422c1.64,0.492,3.396,0.514,5.025,0.854
			c1.759,0.373,3.157,0.041,4.774-0.328c2.413-0.555,4.321-1.867,6.258-3.234c2.553-1.793,5.164-3.553,7.121-6.033
			c1.557-1.965,2.885-4.113,4.455-6.07c1.469-1.855,2.953-3.68,3.795-5.936c0.389-1.021,0.807-2.113,1.506-2.922
			c2.326-2.652,4.506-5.65,8.105-6.617c2.334-0.621,4.801-0.863,7.213-0.955c1.615-0.061,3.252,0.41,4.879,0.701
			c0.76,0.141,1.596,0.246,2.217,0.652c3.338,2.152,6.043,4.82,6.734,8.988c0.105,0.539,0.338,1.051,0.43,1.596
			c0.434,2.221,1.119,4.436,1.189,6.672c0.1,3.143-0.219,6.309-0.457,9.455c-0.082,1.01-0.391,2.02-0.736,2.975
			c-1.215,3.391-2.535,6.73-3.734,10.133c-1.162,3.283-2.547,6.418-5.016,8.969c-0.307,0.316-0.605,0.781-0.664,1.213
			c-0.453,3.313-0.229,6.605,0.896,9.764c0.623,1.773,1.242,3.662,2.355,5.117c2.189,2.879,4.705,5.51,7.172,8.168
			c0.887,0.975,2.16,1.59,3.031,2.576c2.1,2.4,4.625,3.457,7.785,3.045C376.627,311.561,377.112,311.614,377.596,311.614z"/>
		<g>
			<path fill="#FCFCFC" d="M332.436,158.685c-0.553-0.055-1.117-0.053-1.654-0.172c-1.971-0.459-2.117-0.784-2.352-2.894
				c-0.18-1.615-0.289-3.08,1.115-4.287c0.357-0.293,0.357-1.006,0.496-1.547c0.516-1.957,1.859-2.617,4.217-2.061
				c1.887,0.457,2.717,1.729,2.428,3.589c-0.094,0.654-0.094,1.388,0.076,2.027C337.576,156.439,335.686,158.788,332.436,158.685z"
				/>
			<path fill="#FCFCFC" d="M323.426,150.079c-0.25,1.77-0.434,3.472-0.736,5.149c-0.229,1.231-2.688,2.423-4.324,2.181
				c-1.656-0.25-2.518-1.199-2.574-2.819c-0.08-2.501,1.082-4.55,2.441-6.483c0.293-0.412,1.061-0.559,1.637-0.652
				c0.436-0.074,0.924,0.156,1.395,0.224C323.35,147.961,323.473,148.104,323.426,150.079z"/>
		</g>
		<g>
			<path fill="#FCFCFC" d="M321.983,246.344c-0.037,1.322,0.287,2.66-1.109,3.621c-1.41,0.979-4.939,1.16-6.289,0.135
				c-1.188-0.895-1.73-2.156-1.309-3.539c0.473-1.48,1.172-2.918,1.953-4.266c0.816-1.418,2.244-1.957,3.803-1.729
				c1.615,0.234,2.318,1.545,2.652,2.98C321.897,244.452,321.893,245.415,321.983,246.344z"/>
			<path fill="#FCFCFC" d="M304.323,244.184c2.186,1.961,2.316,4.662,2.432,7.328c0.018,0.48-0.327,1.064-0.685,1.441
				c-1.063,1.18-5.075,1.527-6.238,0.492c-0.369-0.324-0.472-1.07-0.488-1.65c-0.018-0.607,0.302-1.227,0.307-1.838
				C299.721,245.989,300.388,245.129,304.323,244.184z"/>
		</g>
	</g>
</g>
</svg>
