<?xml version="1.0" encoding="utf-8"?>
<!-- Generator: Adobe Illustrator 16.0.0, SVG Export Plug-In . SVG Version: 6.00 Build 0)  -->
<!DOCTYPE svg PUBLIC "-//W3C//DTD SVG 1.1//EN" "http://www.w3.org/Graphics/SVG/1.1/DTD/svg11.dtd">
<svg version="1.1" id="Layer_1" xmlns="http://www.w3.org/2000/svg" xmlns:xlink="http://www.w3.org/1999/xlink" x="0px" y="0px"
	 width="595.28px" height="841.89px" viewBox="0 0 595.28 841.89" enable-background="new 0 0 595.28 841.89" xml:space="preserve">
<g>
	<path fill="none" stroke="#FFFFFF" stroke-width="2" stroke-miterlimit="10" d="M590.14,303.583c-0.8-2.617-1.575-5.24-2.497-7.817
		c-0.35-0.96-1.244-1.554-2.357-1.617c-0.9-0.051-1.798-0.103-2.822-0.166c-1.761-3.252-2.881-6.777-5.209-9.863
		c-1.098-0.051-2.283-0.24-3.446-0.131c-3.377,0.314-6.69,0.942-9.643,2.783c-0.23,0.143-0.508,0.217-0.739,0.354
		c-1.223,0.731-2.541,0.926-3.949,0.846c-1.914-0.114-3.843-0.051-5.755-0.206c-1.533-0.125-2.901,0.063-4.067,1.143
		c-0.201,0.183-0.446,0.32-0.669,0.48c-1.665,1.2-3.34,1.257-5.082,0.12c-1.056-0.691-2.047-1.514-3.314-1.926
		c-0.513,0.469-1.035,0.857-1.438,1.337c-0.935,1.108-2.075,1.749-3.531,1.829c-0.16,0.011-0.312,0.177-0.435,0.257
		c-0.522,0.663-1.025,1.296-1.503,1.908c-1.274,0.108-2.445,0.211-3.657,0.314c-0.243,0.565-0.491,1.051-0.663,1.56
		c-0.349,1.035-0.64,2.097-0.988,3.138c-0.146,0.417-0.285,0.942-0.604,1.183c-1.386,1.028-2.722,2.2-4.536,2.406
		c-4.018,0.446-7.843,0.137-10.982-2.846c-0.46-0.44-0.978-0.828-1.489-1.212c-0.628-0.469-0.989-1.103-1.037-1.856
		c-0.14-2.035-0.871-3.915-1.54-5.806c-0.462-1.297-0.669-2.439,0.525-3.474c0.323-0.28,0.458-0.771,0.749-1.297
		c-1.374-2.428-2.752-4.874-4.031-7.137c-0.454-0.131-0.632-0.229-0.8-0.229c-2.561,0.052-4.837-0.617-6.789-2.377
		c-0.58-0.525-1.44-0.754-2.205-1.028c-0.412-0.154-0.927-0.257-1.335-0.148c-2.223,0.577-4.339,0.2-6.437-0.549
		c-0.246-0.092-0.537-0.051-0.792-0.063c-0.257,0.16-0.514,0.28-0.714,0.457c-1.354,1.217-2.603,2.595-4.729,2.297
		c-0.368-0.051-0.812,0.36-1.212,0.571c-0.475,0.246-0.935,0.515-1.279,0.697c-1.283-0.268-1.849-1.057-2.318-1.994
		c-1.059-2.125-2.137-4.24-3.239-6.343c-0.283-0.549-0.686-1.029-1.062-1.577c-1.193,0.177-2.271,0.372-3.354,0.479
		c-0.436,0.046-1.01,0.069-1.31-0.165c-1.077-0.852-2.146-1.812-2.105-3.343c0.105-3.823-0.138-7.691,1.243-11.377
		c0.582-1.56,0.766-3.171,0.734-4.84c-0.055-2.737-0.16-5.486,0.583-8.177c0.143-0.515,0.145-1.086,0.143-1.635
		c-0.023-2.743-0.097-5.48-0.101-8.229c0-0.874-0.245-1.583-0.842-2.223c-1.063-1.131-2.166-2.24-3.106-3.474
		c-1.411-1.84-3.229-2.886-5.689-3.292c-0.874,0.714-1.981,1.411-2.816,2.349c-1.974,2.223-4.451,3.766-6.828,5.462
		c-1.186,0.852-2.38,1.246-3.84,0.972c-0.895-0.166-1.837-0.028-2.737-0.171c-3.383-0.542-6.52-0.063-9.346,1.994
		c-0.943,0.692-2.028,0.72-3.148,0.583c-1.181-0.149-2.371-0.2-3.543-0.366c-1.617-0.223-3.075,0.057-4.402,1.046
		c-1.209,0.908-2.595,1.292-4.114,1.171c-0.452-0.034-0.915,0.046-1.372,0.029c-1.859-0.063-3.64,0.166-5.223,1.263
		c-0.841,0.583-1.7,0.538-2.577,0.023c-0.469-0.275-0.983-0.48-1.466-0.744c-1.839-1.005-3.791-1.125-5.84-0.862
		c-1.12,1.737-2.199,3.411-3.309,5.137c-1.285-0.131-2.459-0.365-3.623-0.343c-1.268,0.029-2.528,0.286-3.657,0.429
		c-0.236,0.28-0.371,0.412-0.465,0.56c-1.569,2.589-3.243,5.046-5.66,6.983c-1.508,1.211-1.375,3.377-0.131,4.852
		c0.765,0.908,1.696,1.32,2.805,1.537c0.858,0.171,1.849-0.028,2.521,0.731c0.151,1.103-0.595,1.766-1.058,2.503
		c-2.597,4.194-5.297,8.331-7.831,12.56c-1.031,1.726-2.285,3.028-4.169,3.737c-0.506,0.189-0.957,0.514-1.497,0.806
		c-0.245,0.783-0.517,1.554-0.736,2.337c-0.752,2.634-1.47,5.28-2.234,7.909c-0.191,0.68-0.521,1.32-0.792,1.988
		c-0.592,0.046-1.042,0.108-1.494,0.108c-2.012-0.017-4.025,0.029-6.031-0.097c-1.893-0.114-3.604,0.217-5.209,1.269
		c-0.739,0.486-1.491,1.085-2.625,1.023c-1.338-1.269-2.5-2.748-2.923-4.691c-0.646-2.948-1.358-5.88-1.846-8.846
		c-0.352-2.12-1.525-3.554-3.063-4.965c-0.6,0.554-1.083,0.966-1.53,1.411c-2.136,2.126-4.509,3.72-7.703,3.468
		c-1.158-0.085-1.852,0.48-2.43,1.429c-1.568,2.571-3.151,5.143-4.831,7.646c-0.902,1.348-1.42,2.708-1.305,4.349
		c0.062,0.885,0.219,1.839-0.492,2.753c-1.786,0.429-3.702,0.149-5.601,0.194c-1.902,0.046-3.813,0.012-5.776,0.012
		c-1.478,2.125-2.886,4.143-4.286,6.166c-0.303,0.445-0.545,0.931-0.829,1.417c0.452,0.846,0.863,1.623,1.304,2.446
		c-1.982,2.938-3.846,5.845-5.908,8.537c-2.552,0.16-4.92,0.4-7.289,0.428c-1.723,0.018-3.229,0.417-4.523,1.561
		c-0.951,0.834-2.015,1.171-3.289,0.851c-1.283-0.319-2.54-0.268-3.677,0.532c-0.906,0.634-1.9,0.554-2.9,0.314
		c-1.686-0.412-3.366-0.84-5.058-1.223c-0.599-0.131-1.219-0.148-1.882-0.223c-0.332,0.799-0.677,1.446-0.869,2.137
		c-0.563,2.006-1.588,3.657-3.306,4.874c-0.917,0.646-1.503,1.561-1.977,2.578c-1.194,2.565-2.435,5.114-3.683,7.652
		c-0.312,0.639-0.734,1.222-1.121,1.851c-2.488-0.229-3.925,1.405-5.6,2.634c-0.134,1.549-0.263,3-0.392,4.452
		c-0.125,1.446,0.061,2.92-0.411,4.491c-1.42,0.492-2.866,1.04-4.337,1.497c-4.117,1.28-3.094,1.332-6.266-0.737
		c-1.76-1.143-3.851-0.708-4.991,1.018c-0.757,1.137-1.589,2.279-2.052,3.548c-0.529,1.44-1.518,1.96-2.852,2.178
		c-0.537,0.079-1.088,0.177-1.631,0.177c-0.966-0.005-1.749,0.354-2.494,0.943c-1.931,1.531-3.923,2.994-5.84,4.548
		c-1.506,1.217-3.22,1.595-5.188,1.617c-1.849-2.12-3.706-4.24-5.585-6.394c-1.875-0.097-3.694-0.2-5.517-0.269
		c-0.251-0.012-0.511,0.137-0.875,0.24c-0.12,0.497-0.271,1.017-0.36,1.537c-0.197,1.171-0.417,2.343-0.531,3.52
		c-0.112,1.12-0.746,1.806-1.623,2.389c-1.049,0.697-2.2,0.8-3.409,0.782c-1.629-0.028-3.26-0.005-5.018-0.005
		c-0.84,0.875-1.594,1.994-2.646,2.657c-1.032,0.651-2.363,0.84-3.631,1.257c-0.66,1.172-1.283,2.389-2.012,3.543
		c-2.068,3.285-3.711,6.702-3.714,10.708c0,1.062-0.646,1.605-1.608,1.948c-3.114,1.108-6.243,1.908-9.626,1.708
		c-3.123-0.177-5.62-1.4-7.574-3.743c-1.522-1.823-2.935-3.737-4.348-5.646c-0.674-0.908-1.472-1.587-2.5-2.062
		c-1.989-0.925-3.926-1.959-5.929-2.845c-1.336-0.589-2.2-1.474-2.796-2.812c-1.683-3.754-3.466-7.462-5.238-11.166
		c-0.391-0.817-0.805-1.668-1.391-2.342c-2.163-2.486-4.32-4.954-5.789-7.948c-0.251-0.521-0.849-1.046-1.391-1.195
		c-1.208-0.343-2.403-0.891-3.769-0.76c-1.543,1.406-3.091,2.812-4.535,4.115c-5.085-0.269-9.143-2.31-12.379-5.72
		c-0.566,0-0.935-0.041-1.289,0.011c-3.077,0.422-6.152,0.851-9.223,1.308c-1.097,0.172-2.154,0.2-3.254-0.045
		c-2.229-0.509-4.466-0.965-6.717-1.332c-1.257-0.205-2.2-0.726-2.963-1.749c-0.972-1.314-2.045-2.548-3.18-3.942
		c-1.017,0.309-1.7,0.571-2.403,0.72c-0.797,0.165-1.62,0.336-2.423,0.314c-2.837-0.063-5.666-0.24-8.494-0.303
		c-1.16-0.028-2.186-0.247-2.925-1.183c-1.135-1.429-2.634-1.868-4.372-1.634c-0.983,0.131-1.989,0.251-2.926,0.56
		c-1.909,0.622-3.792,1.332-5.657,2.074c-1.552,0.617-3.114,0.937-4.8,0.931c-2.474-0.011-4.083,1.275-4.729,3.703
		c-0.926,3.475-1.125,2.486,0.42,5.995c0.443,1,0.911,1.994,1.309,3.012c0.291,0.766,0.571,1.554,0.691,2.359
		c0.283,1.892,0.497,3.806,0.663,5.714c0.051,0.618-0.054,1.286-0.266,1.869c-0.646,1.76-0.641,3.583-0.683,5.412
		c-0.02,0.839,0.069,1.634,0.598,2.337c1.025,1.36,1.314,2.977,1.622,4.6c0.457,2.395-0.357,4.337-2.131,5.835
		c-2.377,2-4.872,3.851-7.309,5.783c-0.666,0.525-1.386,0.851-2.234,0.942c-1.748,0.189-3.343,0.852-4.929,1.583
		c-1.117,0.514-1.997,1.098-2.468,2.36c-0.257,0.686-1.021,1.263-1.678,1.715c-1.562,1.062-2.356,2.422-2.337,4.359
		c0.015,1.4-0.525,1.948-1.917,2.206c-0.98,0.183-1.994,0.2-2.997,0.252c-1.091,0.057-1.892,0.52-2.472,1.463
		c-0.568,0.926-1.054,1.965-2.091,2.486c-1.188,0.594-1.646,1.611-1.866,2.828c-0.094,0.538-0.266,1.046-0.42,1.646
		c-0.915,0.223-1.789,0.435-2.749,0.669c-0.42,0.634-0.863,1.314-1.32,1.994c-0.362,0.537-0.776,0.966-1.46,1.154
		c-1.616,0.458-2.251,1.771-2.54,3.251c-0.243,1.251-0.337,2.532-0.48,3.806c-0.226,2.011,0.183,3.811,1.774,5.217
		c0.183,0.166,0.251,0.469,0.317,0.6c0.022,1.251-0.978,1.805-1.469,2.663c-0.038,2.264,0.5,4.556-0.443,6.774
		c-0.306,0.714,0.008,1.43,0.683,1.92c0.66,0.476,1.303,0.967,1.934,1.44c0.085,1.974,0.066,3.767-1.528,5.134
		c-0.794,0.674-0.943,1.702-0.474,2.503c0.8,1.377,0.812,2.816,0.654,4.25c-0.24,2.172,0.66,3.498,2.632,4.213
		c0.937,0.342,1.894,0.645,2.825,1.005c1.566,0.617,2.008,1.258,1.763,2.949c-0.151,1.068-0.597,2.097-0.88,3.148
		c-0.186,0.696-0.472,1.417,0.352,2.223c1.443,0.092,3.074,0.257,4.708,0.28c1.711,0.022,3.229,0.582,4.643,1.456
		c0.423,0.269,0.88,0.761,0.977,1.224c0.537,2.536,0.774,5.073-0.983,7.325c-0.114,0.143-0.214,0.298-0.306,0.452
		c-1.097,1.942-0.923,3.354,0.743,4.834c0.794,0.703,1.337,1.479,1.577,2.571c-0.103,0.28-0.197,0.634-0.352,0.96
		c-0.746,1.605-1.886,2.703-3.763,2.697c-0.935-0.007-1.525,0.537-2.109,1.113c-0.594,0.595-1.271,0.669-2.017,0.436
		c-0.875-0.275-1.737-0.578-2.609-0.847c-0.634-0.193-1.294-0.234-1.828,0.223c-1.095,0.932-2.458,1.138-3.763,1.538
		c-0.754,0.234-1.683,0.114-2.314,1.085c0.337,1.178,0.631,2.503,1.103,3.761c0.397,1.045,0.274,1.937-0.24,2.874
		c-1.183,2.171-2.014,4.485-2.794,6.834c-0.495,1.468-1.046,2.932-1.697,4.331c-0.494,1.069-1.108,2.104-1.823,3.04
		c-1.211,1.601-2.748,2.635-4.908,2.423c-0.792-0.074-1.603,0.052-2.6,0.093c-0.303,1.965-0.477,3.896-1.923,5.102
		c0.049,1.16,0.366,1.999,1.058,2.669c1.822,1.76,2.437,4.005,2.643,6.435c0.054,0.691,0.243,1.371,0.36,2.011
		c1.14,0.286,1.974-0.165,2.849-0.359c2.757-0.629,5.497-1.515,8.291-1.743c3.075-0.257,6.206,0.074,9.306,0.217
		c1.346,0.063,2.683,0.303,4.114,0.469c0.134,0.755,0.294,1.359,0.349,1.978c0.143,1.64,0.26,3.279,0.357,4.92
		c0.091,1.548,0.188,3.104,0.2,4.656c0.015,1.584-0.988,2.354-2.497,1.915c-0.688-0.2-1.332-0.577-1.969-0.926
		c-0.725-0.389-1.399-0.868-2.128-1.241c-1.357-0.696-2.751-0.77-4.266-0.233c-0.406,1.605-0.191,3.16-0.217,4.692
		c-0.037,1.913,0.125,3.845-0.794,5.736c1.463,1.177,1.534,2.806,1.54,4.463c0.002,1.006-0.006,2.017,0.128,3.011
		c0.063,0.469,0.457,0.897,0.654,1.269c1.069-0.057,1.403-0.776,1.875-1.303c0.434-0.491,0.902-0.96,1.597-0.942
		c2.654,0.086,5.294,0.257,7.22,2.485c0.031,2.194-0.208,4.246-0.943,6.263c-0.4,1.103-0.729,2.281-0.777,3.446
		c-0.117,2.554-0.034,5.114-0.04,7.675c-0.002,1.519,0.437,2.867,1.414,4.051c0.406,0.485,0.94,0.972,1.097,1.548
		c0.174,0.635-0.017,1.366-0.051,2.069c1.455,0.777,2.834,1.485,4.469,1.297c1.734-0.188,2.965,0.72,4.062,1.868
		c0.565,0.589,1.029,1.28,1.562,1.903c0.935,1.092,1.997,1.892,3.563,1.56c1.22-0.256,2.097,0.24,2.812,1.24
		c0.36,0.497,0.846,1.104,1.383,1.251c1.777,0.474,3.606,0.749,5.243-0.484c1.535-1.155,3.057-2.326,4.563-3.51
		c0.751-0.589,1.554-0.932,2.522-0.879c0.549,0.033,1.104-0.053,1.646,0.011c1.585,0.183,2.76-0.464,3.892-1.543
		c3.103-2.977,6.263-5.881,9.448-8.76c1.009-0.915,2.111-1.754,3.277-2.457c1.734-1.04,3.417-2.098,4.392-3.926
		c2.237-0.103,4.025,0.469,5.417,2.211c1.026,1.28,2.206,2.446,3.326,3.652c0.863,0.925,1.743,1.84,2.578,2.72
		c0.726-0.063,1.266-0.097,1.808-0.154c3.003-0.303,6.014-0.418,9.032-0.148c0.946,0.079,1.751,0.262,2.229,1.268
		c0.551,1.154,1.574,1.429,2.777,1.075c0.786-0.229,1.585-0.43,2.357-0.709c1.289-0.464,2.566-0.96,3.837-1.474
		c0.991-0.4,1.934-0.515,2.837,0.205c0.215,0.171,0.457,0.304,0.698,0.429c1.677,0.892,3.057,0.343,3.605-1.451
		c0.403-1.31,0.774-2.624,1.143-3.949c0.386-1.377,1.217-2.177,2.689-2.326c0.705-0.074,1.557-0.153,2.057-0.57
		c1.026-0.874,2.131-1.794,2.44-3.223c0.425-2,1.617-3.446,3.22-4.59c0.711-0.508,1.1-1.176,1.423-1.953
		c1.648-3.96,3.423-7.874,4.968-11.88c1.438-3.703,3.34-7.086,6.015-10.028c1.037-1.143,2.034-2.326,3.051-3.486
		c1.454-0.045,2.908-0.103,4.366-0.131c2.088-0.034,4.206,0.159,6.157-0.886c0.123-0.063,0.342,0.062,0.585,0.114
		c1.432,1.366,1.488,3.463,2.443,5.057c1.157,1.938,0.357,3.863,0.452,5.749c2.468,0.291,2.517,0.269,3.105-1.68
		c0.317-1.052,0.56-2.126,0.935-3.154c0.371-1.023,0.854-2.006,1.317-2.99c0.32-0.69,0.891-1.131,1.568-1.456
		c2.469-1.194,4.872-2.594,7.794-1.995c0.177,0.035,0.369,0.018,0.549-0.01c1.951-0.338,3.332,0.634,4.531,1.993
		c0.471,0.537,0.912,1.108,1.48,1.806c1.562-1.103,2.877-2.354,4.283-3.479c0.72-0.583,1.339-1.194,1.574-2.165
		c0.243-0.995,1.083-1.446,2.023-1.618c0.715-0.126,1.489-0.279,2.174-0.131c1.837,0.389,2.929-0.544,3.88-1.892
		c0.522-0.749,1.045-1.503,1.643-2.189c0.529-0.616,1.117-1.205,1.754-1.708c1.231-0.971,2.577-1.742,4.203-1.811
		c1.594-0.063,2.777-0.749,3.543-2.178c0.477-0.881,1.04-1.714,1.537-2.588c0.365-0.652,0.817-1.149,1.482-1.549
		c2.117-1.263,4.166-2.635,6.277-3.915c1.434-0.862,2.551-2.051,3.683-3.245c0.657-0.691,1.137-1.451,1.149-2.412
		c0.02-1.531,0.668-2.812,1.414-4.085c0.789-1.337,1.509-2.715,2.172-4.114c0.417-0.868,0.974-1.457,1.868-1.881
		c2.477-1.16,4.938-2.371,7.354-3.656c1.408-0.749,2.895-1.12,4.451-1.188c0.523-0.023,1.174,0.045,1.546,0.343
		c0.957,0.771,2.031,0.755,3.123,0.755c2.194,0.017,4.369,0.057,6.557,0.337c2.895,0.371,5.809,0.354,8.729-0.188
		c1.683-0.314,3.495-0.377,5.183-0.121c2.888,0.446,2.494,0.48,5.1-1.662c0.352-0.292,0.703-0.584,1.055-0.875
		c2.774-2.314,2.774-2.314,3.111-5.959c0.017-0.184,0.037-0.367,0.034-0.549c-0.032-1.206,0.474-2.069,1.526-2.703
		c1.46-0.88,2.38-2.233,3.011-3.794c0.274-0.675,0.612-1.332,0.84-2.023c0.329-0.994,1.028-1.445,2.006-1.622
		c1.983-0.349,3.955-0.697,5.977-0.651c1.454,0.033,2.907-0.053,4.373-0.081c0.557-0.88,1.051-1.646,1.522-2.422
		c1.52-2.498,3.017-5.012,4.552-7.498c0.322-0.52,0.782-0.954,1.094-1.331c1.451-0.017,2.148,0.812,2.843,1.69
		c2.151,2.727,4.322,5.436,6.503,8.144c1.143,1.423,2.291,2.852,3.497,4.218c0.942,1.079,1.429,1.142,2.562,0.28
		c1.834-1.395,3.74-2.635,6.029-3.12c1.405-0.304,2.251-0.995,2.46-2.509c0.281-2.04,1.64-3.399,3.248-4.538
		c1.514-1.074,3.128-1.394,4.932-0.839c0.956,0.303,1.937,0.548,2.926,0.714c1.997,0.337,3.956,0.468,5.851-0.635
		c0.927-0.542,2.049-0.765,3.101-1.067c2.014-0.59,3.503-1.909,4.889-3.389c0.306-0.326,0.511-0.76,0.811-1.098
		c1.592-1.755,3.326-2.24,5.274-0.68c0.711,0.56,1.417,1.153,2.023,1.828c0.899,0.994,1.929,1.651,3.291,1.767
		c1.118-0.516,2.105-1.618,3.669-0.721c0.199,0.555,0.571,1.217,0.659,1.909c0.164,1.364,1.021,2.103,2.104,2.668
		c0.726,0.383,1.494,0.697,2.269,0.954c0.417,0.137,0.911,0.177,1.331,0.091c1.892-0.377,3.754-0.8,5.046-2.468
		c0.5-0.641,1.234-1.097,1.758-1.726c0.693-0.84,1.474-1.687,1.891-2.663c0.954-2.264,1.834-4.577,2.523-6.938
		c0.941-3.2,2.406-6.097,4.294-8.821c2.657-3.852,6.445-5.178,10.922-4.973c1.483,0.068,2.126,0.651,2.449,2.108
		c0.217,0.978,0.306,1.995,0.498,2.977c0.104,0.532,0.168,1.207,0.513,1.521c1.494,1.399,2.71,3.113,5.138,3.273
		c2.248,0.148,3.875,1.424,4.314,3.875c0.251,1.394,1.088,1.988,2.497,1.959c0.806-0.011,1.614-0.113,2.288-0.166
		c0.283,0.224,0.445,0.314,0.555,0.452c0.499,0.635,0.794,1.451,1.748,1.622c1.004,0.184,1.989,0.304,2.935-0.228
		c0.905-0.508,1.874-0.657,2.909-0.508c0.536,0.073,1.095,0.045,1.637,0c0.975-0.081,1.76-0.446,2.097-1.47
		c0.083-0.245,0.29-0.45,0.466-0.72c1.144-0.229,2.366-0.309,3.402-1.531c0.104-1.286,0.312-2.869,1.25-3.132
		c2.977-0.343,3.397,1.314,3.979,2.64c1.838,0.915,3.604,0.578,5.098-0.273c1.786-1.023,3.598-1.132,5.534-1.08
		c1.583,0.04,2.889,0.469,3.601,1.988c0.451,0.96,1.248,1.315,2.214,1.309c1.736-0.017,3.494,0.062,5.2-0.2
		c3.206-0.497,5.938,0.515,8.514,2.246c2.426,1.634,4.849,3.274,7.28,4.896c0.674,0.451,1.38,0.863,2.012,1.258
		c0.273-0.126,0.491-0.16,0.588-0.286c2.835-3.463,5.695-6.908,8.452-10.435c1.028-1.309,1.568-2.862,1.311-4.616
		c-0.156-1.081-0.156-2.188-0.22-3.28c-0.105-1.862,0.62-2.742,2.432-2.857c0.914-0.058,1.826-0.011,2.742-0.023
		c1.48-0.021,2.889-0.324,4.267-0.891c0.723-0.303,1.24-0.725,1.574-1.418c0.557-1.154,1.098-2.314,1.711-3.436
		c0.669-1.229,1.558-2.332,2.892-2.801c2.743-0.967,5.448-2.161,8.488-1.818c0.902,0.109,1.829,0.023,2.74,0.017
		c0.551,0,1.105,0.047,1.646-0.022c2.497-0.303,3.294-1.207,3.686-3.321c0.066-0.36,0.086-0.731,0.132-1.092
		c0.322-2.405-0.084-4.743-0.806-7.018c-1.605-5.057-2.632-10.256-3.766-15.422c-0.346-1.583,0.002-2.868,1.285-3.908
		c1.641-1.32,3.202-2.732,4.868-4.006c1.412-1.084,2.617-2.256,2.927-4.107c0.022-0.149,0.229-0.269,0.454-0.521
		c0.426-0.017,1.033-0.217,1.491-0.034c1.163,0.468,2.26,1.108,3.525,1.753c0.44-0.548,0.926-1.074,1.326-1.656
		c2.171-3.166,4.26-6.39,6.506-9.503c1.125-1.554,1.722-3.132,1.617-5.069c-0.078-1.429-0.163-2.908,0.266-4.257
		c1.371-1.034,2.769-0.978,4.266-0.726c1.991,0.338,3.942,0.452,5.746-0.914c1.079-0.817,2.334-0.76,3.578,0.057
		c0.732,0.486,1.664,0.737,2.541,0.909c1.769,0.337,2.485-0.178,3.031-1.897c0.332-1.041,0.62-2.114,1.126-3.063
		c0.942-1.771,2.009-3.48,3.078-5.183c1.225-1.953,2.69-3.685,4.842-4.702c0.226-0.103,0.371-0.371,0.692-0.709
		c-0.13-1.349-0.258-2.794-0.4-4.24c-0.275-2.725-0.571-5.429-0.418-8.194c0.183-3.194,1.12-6.109,2.831-8.727
		c0.744-1.131,1.052-2.08,0.54-3.268c-0.905-2.075-0.26-4.131-0.02-6.205c0.271-2.315,1.377-4.115,3.297-5.435
		c0.068-0.497,0.109-0.948,0.2-1.389c0.737-3.411,1.472-4.057,4.969-4.159c1.23-0.041,2.183-0.4,2.537-1.629
		c0.273-0.948,0.899-1.566,1.611-2.148c0.415-0.337,0.831-0.663,1.243-0.988C590.153,304.303,590.242,303.915,590.14,303.583z"/>
	<polyline fill="none" stroke="#FFFFFF" stroke-width="2" stroke-miterlimit="10" points="101.952,368.543 135.617,260.193 
		179.61,260.21 	"/>
	
		<text transform="matrix(1 0 0 1 203.9473 266.6729)" fill="#FFFFFF" font-family="'NotoSansHant-DemiLight-B5pc-H'" font-size="24">Daguan</text>
</g>
</svg>
